<?xml version="1.0" standalone="no"?>
<!DOCTYPE svg PUBLIC "-//W3C//DTD SVG 1.1//EN" "http://www.w3.org/Graphics/SVG/1.1/DTD/svg11.dtd" >
<svg xmlns="http://www.w3.org/2000/svg">
<metadata></metadata>
<defs>
<font id="diodrumextralight" horiz-adv-x="563" >
<font-face units-per-em="1000" ascent="750" descent="-250" />
<missing-glyph horiz-adv-x="260" />
<glyph unicode="fi" horiz-adv-x="526" d="M30 500h80v76q0 155 129 155q33 0 70 -11l-9 -31q-38 9 -61 9q-52 0 -73 -31t-21 -91v-76h276v-500h-35v468h-241v-468h-35v468h-80v32zM373 657q0 13 8.5 22t22.5 9t22 -9t8 -22t-8 -22.5t-22 -9.5t-22.5 9.5t-8.5 22.5z" />
<glyph unicode="fl" horiz-adv-x="562" d="M30 500h80v81q0 74 37 112t122 38q61 0 152 -25v-585q0 -53 16.5 -77t57.5 -24q13 0 28 3l4 -30q-15 -5 -32 -5q-109 0 -109 133v562q-64 15 -117 15q-69 0 -96.5 -29t-27.5 -88v-81h147v-32h-147v-468h-35v468h-80v32z" />
<glyph unicode=" "  horiz-adv-x="260" />
<glyph unicode="&#x09;" horiz-adv-x="260" />
<glyph unicode="&#xa0;" horiz-adv-x="260" />
<glyph unicode="!" horiz-adv-x="277" d="M157 700v-272q0 -103 -5 -201h-28q-5 97 -5 202v271h38zM167 25q0 -12 -8 -21t-20 -9q-13 0 -21 9t-8 21t8 20.5t21 8.5q12 0 20 -8.5t8 -20.5z" />
<glyph unicode="&#x22;" horiz-adv-x="297" d="M205 493q-2 81 -2 207h34q0 -126 -2 -207h-30zM62 493q-2 81 -2 207h34q0 -126 -2 -207h-30z" />
<glyph unicode="#" horiz-adv-x="620" d="M343 0l44 198h-218l-44 -198h-32l44 198h-107v32h114l48 212h-107v32h114l44 197h32l-44 -197h218l44 197h32l-44 -197h109v-32h-116l-48 -212h109v-32h-116l-44 -198h-32zM394 230l48 212h-218l-48 -212h218z" />
<glyph unicode="$" horiz-adv-x="530" d="M419 657l-7 -30q-80 23 -150 23q-76 0 -118.5 -34t-42.5 -99q0 -64 37 -94.5t122 -58.5q43 -14 67 -23t57 -26.5t49.5 -36t29 -48.5t12.5 -67q0 -46 -16.5 -80.5t-46 -53.5t-62.5 -28.5t-72 -11.5v-114h-35v113q-96 3 -177 37l9 30q96 -35 181 -35q183 0 183 143 q0 31 -11 55.5t-24.5 39.5t-44 30t-51 22t-64.5 21q-94 30 -136.5 69.5t-42.5 116.5q0 78 52 120t131 46v100h35v-100q68 -4 136 -26z" />
<glyph unicode="%" horiz-adv-x="810" d="M342 519q0 -75 -39 -120t-105 -45q-64 0 -103.5 45.5t-39.5 119.5q0 73 39.5 118.5t103.5 45.5q65 0 104.5 -45.5t39.5 -118.5zM91 519q0 -62 27.5 -97.5t79.5 -35.5q54 0 81 35.5t27 97.5q0 61 -27 96.5t-81 35.5q-52 0 -79.5 -36t-27.5 -96zM549 671h35l-322 -671h-35z M755 153q0 -75 -39 -120t-105 -45q-64 0 -103.5 45.5t-39.5 119.5q0 73 39.5 118.5t103.5 45.5q65 0 104.5 -45.5t39.5 -118.5zM504 153q0 -62 27.5 -97.5t79.5 -35.5q54 0 81 35.5t27 97.5q0 61 -27 96.5t-81 35.5q-52 0 -79.5 -36t-27.5 -96z" />
<glyph unicode="&#x26;" horiz-adv-x="686" d="M194 554q0 -79 76 -167q90 30 139 71.5t49 106.5q0 50 -35 82t-98 32q-57 0 -94 -33.5t-37 -91.5zM619 0l-105 102q-89 -114 -238 -114q-99 0 -157.5 53t-58.5 139q0 77 46.5 123t129.5 73q-78 91 -78 178q0 73 47 115.5t121 42.5q75 0 121.5 -40.5t46.5 -106.5 q0 -136 -202 -203q20 -21 67 -66l151 -145q41 69 55 161h34q-19 -110 -67 -183l134 -129h-47zM276 21q137 0 215 102l-157 152q-55 53 -77 77q-78 -26 -119.5 -62.5t-41.5 -108.5t48 -116t132 -44z" />
<glyph unicode="'" horiz-adv-x="154" d="M62 493q-2 81 -2 207h34q0 -126 -2 -207h-30z" />
<glyph unicode="(" horiz-adv-x="264" d="M229 761q-127 -201 -127 -453q0 -251 127 -452h-36q-128 195 -128 452q0 258 128 453h36z" />
<glyph unicode=")" horiz-adv-x="264" d="M162 308q0 252 -127 453h36q128 -195 128 -453q0 -257 -128 -452h-36q127 201 127 452z" />
<glyph unicode="*" horiz-adv-x="390" d="M178 724h34q0 -78 -3 -139q51 21 131 46l10 -32q-90 -29 -130 -40q32 -34 91 -101l-26 -23q-56 66 -90 110q-34 -44 -90 -110l-26 23q59 67 91 101q-40 11 -130 40l10 32q80 -25 131 -46q-3 61 -3 139z" />
<glyph unicode="+" horiz-adv-x="491" d="M35 327v32h193v194h35v-194h193v-32h-193v-200h-35v200h-193z" />
<glyph unicode="," horiz-adv-x="181" d="M78 70h35q-6 -106 -51 -217h-28q36 100 44 217z" />
<glyph unicode="-" horiz-adv-x="306" d="M40 296v32h226v-32h-226z" />
<glyph unicode="." horiz-adv-x="181" d="M91 -7q-14 0 -22.5 9.5t-8.5 22.5t8.5 22t22.5 9t22 -9t8 -22t-8 -22.5t-22 -9.5z" />
<glyph unicode="/" horiz-adv-x="403" d="M328 755h35l-288 -810h-35z" />
<glyph unicode="0" horiz-adv-x="608" d="M304 -12q-64 0 -110.5 26.5t-73 75t-38.5 109t-12 136.5t12 136.5t38.5 109.5t73 75.5t110.5 26.5t110.5 -26.5t73 -75.5t38.5 -109.5t12 -136.5t-12 -136.5t-38.5 -109t-73 -75t-110.5 -26.5zM304 21q197 0 197 314q0 315 -197 315t-197 -315q0 -314 197 -314z" />
<glyph unicode="1" horiz-adv-x="337" d="M43 548l-16 29q85 55 177 94h33v-671h-35v634q-81 -36 -159 -86z" />
<glyph unicode="2" horiz-adv-x="487" d="M30 0v33l138 138q110 108 160.5 180.5t50.5 156.5q0 68 -41.5 105t-113.5 37q-84 0 -159 -59l-16 27q83 65 176 65q90 0 140 -49t50 -126q0 -91 -57 -172.5t-170 -190.5l-116 -113h375v-32h-417z" />
<glyph unicode="3" horiz-adv-x="498" d="M35 28l15 30q65 -38 157 -38q85 0 132.5 43.5t47.5 122.5q0 144 -182 144h-71v32h65q82 0 124 43.5t42 110.5q0 64 -43 99.5t-110 35.5q-81 0 -143 -45l-19 24q68 53 161 53q84 0 137 -44t53 -123q0 -129 -112 -168q134 -30 134 -162q0 -94 -57 -146t-160 -52 q-101 0 -171 40z" />
<glyph unicode="4" horiz-adv-x="572" d="M430 206h102v-32h-102v-174h-35v174h-355v29q156 265 347 468h43v-465zM399 638q-192 -223 -321 -432h317v309q0 48 4 123z" />
<glyph unicode="5" horiz-adv-x="505" d="M409 639h-271l-25 -250q53 10 110 10q107 0 167 -51t60 -148q0 -94 -60.5 -153t-168.5 -59q-96 0 -172 37l15 31q72 -35 158 -35q92 0 141.5 49t49.5 130q0 166 -206 166q-47 0 -130 -15l30 320h302v-32z" />
<glyph unicode="6" horiz-adv-x="562" d="M434 671l-7 -31q-48 10 -89 10q-57 0 -101 -24.5t-70 -67.5t-40.5 -93.5t-18.5 -109.5q34 23 86 41t107 18q97 0 151.5 -53t54.5 -144q0 -102 -57 -165.5t-148 -63.5q-115 0 -173.5 89t-58.5 223q0 58 8.5 111.5t28 103.5t49.5 87t76.5 59t105.5 22q55 0 96 -12zM302 21 q82 0 125 55t43 141q0 76 -43 120.5t-131 44.5q-46 0 -99 -18.5t-91 -45.5v-18q0 -119 49 -199t147 -80z" />
<glyph unicode="7" horiz-adv-x="444" d="M167 0h-35q33 123 76 241.5t78 196t94 201.5h-350v32h384v-30q-64 -137 -94 -206t-74 -188.5t-79 -246.5z" />
<glyph unicode="8" horiz-adv-x="586" d="M521 165q0 -80 -66 -128.5t-163 -48.5q-95 0 -161 48t-66 133q0 119 142 177q-119 56 -119 164q0 79 59.5 126t144.5 47q90 0 147.5 -51t57.5 -127q0 -113 -121 -176q74 -24 109.5 -62t35.5 -102zM289 353q7 -2 22.5 -5.5t23.5 -5.5q63 30 94.5 68t31.5 95 q0 64 -47.5 104.5t-121.5 40.5q-72 0 -120 -38t-48 -102q0 -61 47 -101t118 -56zM292 21q82 0 137.5 38.5t55.5 105.5q0 29 -10.5 51.5t-26.5 37.5t-46 28.5t-57.5 21.5t-73.5 20q-16 4 -23 7q-147 -54 -147 -162q0 -71 57 -109.5t134 -38.5z" />
<glyph unicode="9" horiz-adv-x="549" d="M264 283q55 0 107 19t87 50q-1 58 -10 107t-29 94.5t-58.5 71t-92.5 25.5q-82 0 -128.5 -55t-46.5 -136q0 -78 41 -127t130 -49zM94 7l6 31q66 -17 117 -17q230 0 241 294q-82 -65 -199 -65q-98 0 -151 58t-53 151q0 104 60 164t153 60q64 0 109.5 -28.5t70 -79 t35.5 -108t11 -126.5q0 -353 -277 -353q-66 0 -123 19z" />
<glyph unicode=":" horiz-adv-x="221" d="M141 25q0 -13 -8 -22.5t-22 -9.5t-22.5 9.5t-8.5 22.5t8.5 22t22.5 9t22 -9t8 -22zM141 471q0 -13 -8 -22.5t-22 -9.5t-22.5 9.5t-8.5 22.5t8.5 22t22.5 9t22 -9t8 -22z" />
<glyph unicode=";" horiz-adv-x="221" d="M141 471q0 -13 -8 -22.5t-22 -9.5t-22.5 9.5t-8.5 22.5t8.5 22t22.5 9t22 -9t8 -22zM98 70h35q-6 -106 -51 -217h-28q36 100 44 217z" />
<glyph unicode="&#x3c;" horiz-adv-x="491" d="M456 136l-421 188v38l421 189v-38l-381 -170l381 -169v-38z" />
<glyph unicode="=" horiz-adv-x="491" d="M35 237v32h421v-32h-421zM35 416v32h421v-32h-421z" />
<glyph unicode="&#x3e;" horiz-adv-x="491" d="M35 136v38l381 169l-381 170v38l421 -189v-38z" />
<glyph unicode="?" horiz-adv-x="432" d="M188 54q12 0 20 -8.5t8 -20.5t-8 -21t-20 -9q-13 0 -21 9t-8 21t8 20.5t21 8.5zM39 649l-9 31q74 32 151 32q84 0 137.5 -42t53.5 -116q0 -38 -14 -70.5t-29.5 -49.5t-42.5 -42q-29 -27 -41.5 -41t-26.5 -42.5t-14 -60.5v-21h-33v21q0 38 14.5 70t28 47.5t41.5 42.5 q26 24 40 39.5t27 44t13 62.5q0 59 -40.5 92t-113.5 33q-68 0 -142 -30z" />
<glyph unicode="@" horiz-adv-x="921" d="M310 186q0 -77 32.5 -121.5t98.5 -44.5q73 0 128 57q-13 38 -6 108l21 188q-48 18 -107 18q-78 0 -122.5 -55.5t-44.5 -149.5zM479 596q-169 0 -276 -115t-107 -293q0 -170 99.5 -271.5t267.5 -101.5q107 0 237 41l8 -31q-129 -42 -246 -42q-178 0 -290 108t-112 297 q0 89 28.5 168.5t81 140t133 96t177.5 35.5q168 0 274.5 -99t106.5 -260q0 -59 -9 -107t-28 -88.5t-54 -63t-83 -22.5q-78 0 -107 60q-56 -60 -140 -60q-44 0 -77 16.5t-51.5 45.5t-27.5 63t-9 73q0 62 20.5 114t67.5 87.5t115 35.5q75 0 141 -33l-23 -217q-8 -77 13.5 -115 t78.5 -38q137 0 137 249q0 148 -95.5 237.5t-250.5 89.5z" />
<glyph unicode="A" horiz-adv-x="632" d="M316 667q-85 -191 -161 -402h322q-76 211 -161 402zM566 0q-37 121 -77 233h-346q-40 -112 -77 -233h-36q132 407 268 700h36q146 -314 268 -700h-36z" />
<glyph unicode="B" horiz-adv-x="612" d="M267 0h-157v700h127q134 0 205.5 -39t71.5 -137q0 -68 -28.5 -109t-72.5 -56q56 -14 92.5 -55.5t36.5 -117.5q0 -55 -19 -92t-57.5 -57.5t-85.5 -28.5t-113 -8zM145 340v-308h122q120 0 179.5 31.5t59.5 122.5q0 154 -192 154h-169zM145 668v-296h169q164 0 164 152 q0 84 -60.5 114t-180.5 30h-92z" />
<glyph unicode="C" horiz-adv-x="602" d="M380 -12q-150 0 -230 94.5t-80 257.5q0 165 76 268.5t225 103.5q86 0 171 -34l-10 -32q-89 33 -161 33q-91 0 -152 -48t-86.5 -122t-25.5 -169q0 -145 69.5 -232t203.5 -87q78 0 159 35l8 -31q-76 -37 -167 -37z" />
<glyph unicode="D" horiz-adv-x="685" d="M588 350q0 142 -74.5 230t-225.5 88h-143v-636h143q149 0 224.5 88.5t75.5 229.5zM110 0v700h178q163 0 250 -95t87 -255t-87.5 -255t-249.5 -95h-178z" />
<glyph unicode="E" d="M503 32v-32h-393v700h393v-32h-358v-290h308v-32h-308v-314h358z" />
<glyph unicode="F" horiz-adv-x="538" d="M145 0h-35v700h383v-32h-348v-310h288v-32h-288v-326z" />
<glyph unicode="G" horiz-adv-x="680" d="M600 27q-84 -39 -184 -39q-168 0 -257 98t-89 264q0 157 83.5 259.5t237.5 102.5q107 0 195 -43l-10 -31q-90 41 -185 41q-138 0 -211 -94.5t-73 -234.5q0 -148 79 -238.5t229 -90.5q85 0 150 26v269h-171v32h206v-321z" />
<glyph unicode="H" horiz-adv-x="720" d="M610 0h-35v346h-430v-346h-35v700h35v-322h430v322h35v-700z" />
<glyph unicode="I" horiz-adv-x="255" d="M110 0v700h35v-700h-35z" />
<glyph unicode="J" horiz-adv-x="255" d="M42 -129q68 124 68 272v557h35v-557q0 -159 -73 -290z" />
<glyph unicode="K" horiz-adv-x="617" d="M536 700q-19 -102 -71 -181.5t-144 -148.5l262 -370h-45l-245 350q-61 -42 -148 -86v-264h-35v700h35v-399q165 87 248 178.5t108 220.5h35z" />
<glyph unicode="L" horiz-adv-x="547" d="M110 0v700h35v-668h357v-32h-392z" />
<glyph unicode="M" horiz-adv-x="892" d="M744 700h38v-700h-35v535q0 21 0.5 52.5t0.5 42.5q-105 -247 -284 -530h-36q-176 279 -285 531q2 -54 2 -96v-535h-35v700h38q92 -230 299 -567q201 328 297 567z" />
<glyph unicode="N" horiz-adv-x="720" d="M145 0h-35v700h34q96 -165 195 -312.5t239 -337.5q-3 38 -3 98v552h35v-700h-34q-155 207 -254.5 352t-179.5 292q3 -93 3 -108v-536z" />
<glyph unicode="O" horiz-adv-x="706" d="M636 350q0 -103 -28.5 -182.5t-93.5 -129.5t-161 -50t-161 50t-93.5 129.5t-28.5 182.5q0 76 16.5 140t49.5 114.5t88.5 79t128.5 28.5q96 0 161 -50t93.5 -129.5t28.5 -182.5zM107 350q0 -144 61 -236.5t185 -92.5q64 0 112.5 26.5t77 72.5t42.5 104t14 126t-14 126 t-42.5 104t-77 72.5t-112.5 26.5q-65 0 -113.5 -26.5t-76.5 -72.5t-42 -104t-14 -126z" />
<glyph unicode="P" horiz-adv-x="609" d="M110 0v700h147q277 0 277 -215t-277 -215h-112v-270h-35zM498 485q0 100 -63 141.5t-178 41.5h-112v-366h112q116 0 178.5 41.5t62.5 141.5z" />
<glyph unicode="Q" horiz-adv-x="706" d="M608 -164q-33 -6 -59 -6q-71 0 -117.5 41t-56.5 118q-7 -1 -22 -1q-96 0 -161 50t-93.5 129.5t-28.5 182.5q0 76 16.5 140t49.5 114.5t88.5 79t128.5 28.5q96 0 161 -50t93.5 -129.5t28.5 -182.5q0 -142 -56.5 -239.5t-170.5 -117.5q9 -64 48 -97t94 -33q27 0 50 6z M107 350q0 -144 61 -236.5t185 -92.5q64 0 112.5 26.5t77 72.5t42.5 104t14 126t-14 126t-42.5 104t-77 72.5t-112.5 26.5q-65 0 -113.5 -26.5t-76.5 -72.5t-42 -104t-14 -126z" />
<glyph unicode="R" horiz-adv-x="613" d="M257 668h-112v-324h112q111 0 168.5 38.5t57.5 125.5q0 86 -57 123t-169 37zM568 0h-46l-136 211q-37 57 -66 79t-78 22h-97v-312h-35v700h147q129 0 195.5 -45t66.5 -147q0 -88 -54 -137t-135 -52q21 -7 39.5 -25.5t47.5 -63.5z" />
<glyph unicode="S" horiz-adv-x="544" d="M60 24l8 35q109 -38 192 -38q90 0 141.5 37t51.5 112q0 39 -13.5 68t-44 49.5t-61 33t-81.5 27.5q-97 30 -142 72.5t-45 120.5q0 83 58 127t158 44q81 0 157 -27l-8 -31q-84 25 -146 25q-182 0 -182 -138q0 -66 39.5 -99t126.5 -60q44 -13 70 -23t58.5 -27.5t50 -38 t30 -52t12.5 -71.5q0 -50 -19.5 -86.5t-53 -56.5t-72.5 -29.5t-85 -9.5q-110 0 -200 36z" />
<glyph unicode="T" horiz-adv-x="549" d="M257 0v668h-227v32h489v-32h-227v-668h-35z" />
<glyph unicode="U" horiz-adv-x="700" d="M105 265v435h35v-435q0 -126 51.5 -185t158.5 -59t158.5 59t51.5 185v435h35v-435q0 -145 -60 -211t-185 -66t-185 66t-60 211z" />
<glyph unicode="V" horiz-adv-x="594" d="M316 0h-38q-83 183 -139.5 341t-108.5 359h36q87 -344 231 -664q144 320 231 664h36q-52 -201 -108.5 -359t-139.5 -341z" />
<glyph unicode="W" horiz-adv-x="952" d="M685 32q132 327 196 668h36q-75 -364 -213 -700h-38q-68 160 -110 306.5t-80 341.5q-38 -195 -80 -341.5t-110 -306.5h-38q-74 177 -122 335t-91 365h36q72 -360 196 -668q124 320 188 668h42q64 -348 188 -668z" />
<glyph unicode="X" horiz-adv-x="577" d="M507 0l-223 337q-143 -187 -217 -337h-37q76 167 238 363l-223 337h41l207 -313q141 169 202 313h37q-65 -158 -223 -338l239 -362h-41z" />
<glyph unicode="Y" d="M264 0v305q-159 200 -244 395h39q42 -98 94 -181.5t130 -184.5q142 182 222 366h38q-93 -206 -244 -395v-305h-35z" />
<glyph unicode="Z" horiz-adv-x="554" d="M495 673q-77 -170 -169.5 -312t-237.5 -329h421v-32h-464v27q296 387 414 641h-404v32h440v-27z" />
<glyph unicode="[" horiz-adv-x="244" d="M80 -144v905h124v-32h-89v-841h89v-32h-124z" />
<glyph unicode="\" horiz-adv-x="403" d="M328 -55l-288 810h35l288 -810h-35z" />
<glyph unicode="]" horiz-adv-x="244" d="M40 761h124v-905h-124v32h89v841h-89v32z" />
<glyph unicode="^" horiz-adv-x="491" d="M396 357l-150 307l-151 -307h-37l170 343h35l170 -343h-37z" />
<glyph unicode="_" horiz-adv-x="480" d="M20 -72v32h440v-32h-440z" />
<glyph unicode="`" horiz-adv-x="500" d="M252 570l-97 130h42l91 -130h-36z" />
<glyph unicode="a" horiz-adv-x="519" d="M242 21q92 0 147 36v175q-74 17 -137 17q-156 0 -156 -118q0 -54 38.5 -82t107.5 -28zM424 37q-78 -49 -183 -49q-87 0 -134 39t-47 104q0 79 53 114.5t138 36.5q65 0 138 -17v75q0 139 -147 139q-73 0 -136 -27l-11 32q63 28 147 28q182 0 182 -172v-303z" />
<glyph unicode="b" horiz-adv-x="572" d="M507 262q0 -127 -63 -200.5t-176 -73.5q-102 0 -163 31v701l35 3v-252q55 41 137 41q106 0 168 -63.5t62 -186.5zM140 42q48 -21 129 -21q97 0 149 63.5t52 177.5q0 107 -52 162t-142 55q-39 0 -77 -13.5t-59 -32.5v-391z" />
<glyph unicode="c" horiz-adv-x="490" d="M300 512q75 0 140 -29l-10 -31q-67 27 -130 27q-97 0 -147.5 -63t-50.5 -171q0 -109 53.5 -166.5t157.5 -57.5q62 0 124 31l10 -31q-61 -33 -134 -33q-120 0 -184 66.5t-64 190.5q0 122 61.5 194.5t173.5 72.5z" />
<glyph unicode="d" horiz-adv-x="571" d="M466 32q-62 -44 -161 -44q-109 0 -174.5 67.5t-65.5 186.5q0 126 66 198t190 72q58 0 110 -22v230l35 3v-691zM102 242q0 -102 55 -161.5t147 -59.5q85 0 127 30v402q-52 26 -110 26q-107 0 -163 -62.5t-56 -174.5z" />
<glyph unicode="e" horiz-adv-x="549" d="M475 56l9 -32q-75 -36 -166 -36q-119 0 -186 67t-67 196q0 116 59 188.5t163 72.5q96 0 147 -61t51 -153q0 -24 -3 -51h-381q1 -113 58.5 -169.5t158.5 -56.5q79 0 157 35zM287 479q-82 0 -130 -54.5t-55 -145.5h345q1 9 1 23q0 74 -39.5 125.5t-121.5 51.5z" />
<glyph unicode="f" horiz-adv-x="314" d="M30 500h80v76q0 155 129 155q33 0 70 -11l-9 -31q-38 9 -61 9q-52 0 -73 -31t-21 -91v-76h147v-32h-147v-468h-35v468h-80v32z" />
<glyph unicode="g" horiz-adv-x="562" d="M462 -20q0 -86 -50 -129t-141 -43q-81 0 -153 25l9 33q75 -25 144 -25q79 0 117.5 37.5t38.5 101.5v79q-53 -41 -140 -41q-102 0 -162 63t-60 178q0 118 63 185.5t173 67.5q96 0 161 -40v-492zM102 259q0 -98 49.5 -153t136.5 -55q83 0 139 43v359q-58 26 -127 26 q-91 0 -144.5 -58t-53.5 -162z" />
<glyph unicode="h" horiz-adv-x="589" d="M140 0h-35v720l35 3v-257q81 46 170 46t136.5 -46.5t47.5 -125.5v-340h-35v338q0 66 -37 103.5t-112 37.5q-93 0 -170 -47v-432z" />
<glyph unicode="i" horiz-adv-x="245" d="M140 500v-500h-35v500h35zM123 625q-14 0 -22.5 9.5t-8.5 22.5t8.5 22t22.5 9t22 -9t8 -22t-8 -22.5t-22 -9.5z" />
<glyph unicode="j" horiz-adv-x="245" d="M140 -39q0 -58 -22 -91.5t-72 -54.5l-13 30q40 20 56 44t16 72v539h35v-539zM153 657q0 -13 -8 -22.5t-22 -9.5t-22.5 9.5t-8.5 22.5t8.5 22t22.5 9t22 -9t8 -22z" />
<glyph unicode="k" horiz-adv-x="519" d="M443 500q-22 -139 -156 -243l193 -257h-43l-176 238q-45 -33 -121 -76v-162h-35v720l35 3v-525q132 78 192.5 141.5t77.5 160.5h33z" />
<glyph unicode="l" horiz-adv-x="276" d="M135 723v-602q0 -53 16.5 -77t57.5 -24q13 0 28 3l4 -30q-15 -5 -32 -5q-109 0 -109 133v599z" />
<glyph unicode="m" horiz-adv-x="900" d="M805 0h-35v338q0 62 -35.5 101.5t-108.5 39.5q-91 0 -172 -55q16 -36 16 -84v-340h-35v338q0 63 -33.5 102t-106.5 39q-90 0 -160 -42v-437h-35v458q93 54 194 54q97 0 142 -58q94 58 189 58q92 0 136 -47t44 -125v-340z" />
<glyph unicode="n" horiz-adv-x="584" d="M135 0h-35v458q98 54 204 54q94 0 139.5 -46t45.5 -126v-340h-35v338q0 65 -37 103t-112 38q-96 0 -170 -42v-437z" />
<glyph unicode="o" d="M498 250q0 -119 -56.5 -190.5t-160.5 -71.5q-102 0 -159 71.5t-57 190.5t57 190.5t159 71.5q104 0 160.5 -71.5t56.5 -190.5zM102 250q0 -106 45 -167.5t134 -61.5q91 0 135.5 61.5t44.5 167.5t-44.5 167.5t-135.5 61.5q-89 0 -134 -61.5t-45 -167.5z" />
<glyph unicode="p" horiz-adv-x="565" d="M500 265q0 -127 -57 -202t-177 -75q-73 0 -131 31v-203h-35v647q87 49 179 49q110 0 165.5 -68t55.5 -179zM135 57q66 -36 130 -36q96 0 146.5 63.5t50.5 180.5q0 93 -46 153.5t-138 60.5q-81 0 -143 -37v-385z" />
<glyph unicode="q" horiz-adv-x="565" d="M465 -184h-35v222q-52 -50 -146 -50q-100 0 -159.5 69t-59.5 188q0 126 64.5 196.5t175.5 70.5q97 0 160 -39v-657zM102 245q0 -102 49 -163t135 -61q89 0 144 53v380q-56 25 -125 25q-93 0 -148 -61t-55 -173z" />
<glyph unicode="r" horiz-adv-x="373" d="M105 457q89 55 210 55q15 0 38 -3l-5 -33q-15 3 -33 3q-103 0 -175 -43v-436h-35v457z" />
<glyph unicode="s" horiz-adv-x="428" d="M348 489l-8 -31q-65 21 -122 21q-127 0 -127 -100q0 -21 8 -38t17.5 -27t30.5 -20.5t32 -14.5t37 -13q87 -28 127 -58t40 -87q0 -66 -48 -99.5t-125 -33.5q-43 0 -91 9t-69 19l9 33q80 -28 151 -28q64 0 100 26t36 74q0 43 -34.5 66.5t-111.5 47.5q-70 22 -108 53t-38 91 q0 64 43 98.5t121 34.5q77 0 130 -23z" />
<glyph unicode="t" horiz-adv-x="328" d="M303 -1q-35 -11 -68 -11q-130 0 -130 140v340h-80v32h80v123l35 4v-127h149v-32h-149v-340q0 -59 24 -83t70 -24q33 0 66 10z" />
<glyph unicode="u" horiz-adv-x="574" d="M474 42q-103 -54 -209 -54q-86 0 -128 43t-42 119v350h35v-348q0 -61 32.5 -96t101.5 -35q97 0 175 42v437h35v-458z" />
<glyph unicode="v" horiz-adv-x="512" d="M80 500q38 -216 176 -465q141 249 176 465h35q-22 -130 -69 -247.5t-124 -252.5h-37q-154 271 -192 500h35z" />
<glyph unicode="w" horiz-adv-x="782" d="M390 500q35 -221 156 -465q64 131 102 238.5t54 226.5h35q-34 -226 -173 -500h-37q-94 187 -137 337q-45 -161 -135 -337h-38q-68 135 -110 252.5t-62 247.5h35q34 -217 156 -465q99 198 137 368q-10 44 -18 97h35z" />
<glyph unicode="x" horiz-adv-x="477" d="M40 0q26 77 63.5 133.5t109.5 131.5q-109 121 -165 235h38q50 -99 151 -213q119 117 148 213h36q-17 -60 -56 -115t-108 -121q104 -118 181 -264h-39q-69 131 -165 242q-63 -67 -100 -121t-58 -121h-36z" />
<glyph unicode="y" horiz-adv-x="504" d="M277 0q-82 -146 -215 -183l-10 32q60 16 105 52.5t84 101.5q-151 239 -194 497h35q39 -225 179 -465q134 243 173 465h35q-22 -131 -68.5 -247.5t-123.5 -252.5z" />
<glyph unicode="z" horiz-adv-x="454" d="M55 500h355v-27q-119 -208 -329 -441h343v-32h-389v27q215 235 334 441h-314v32z" />
<glyph unicode="{" horiz-adv-x="283" d="M30 324q56 0 75.5 25.5t19.5 94.5q0 34 -5 103t-5 105q0 113 92 113q21 0 36 -2v-30h-26q-38 0 -52.5 -18t-14.5 -64q0 -35 5 -103.5t5 -103.5q0 -58 -14 -90.5t-48 -45.5q34 -13 48 -45.5t14 -90.5q0 -34 -5 -103t-5 -104q0 -46 14.5 -64t52.5 -18h26v-30q-15 -2 -36 -2 q-92 0 -92 113q0 34 5 104t5 104q0 69 -19.5 94.5t-75.5 25.5v32z" />
<glyph unicode="|" horiz-adv-x="253" d="M110 -214v965h33v-965h-33z" />
<glyph unicode="}" horiz-adv-x="283" d="M158 444q0 -69 19.5 -94.5t75.5 -25.5v-32q-56 0 -75.5 -25.5t-19.5 -94.5q0 -34 5 -104t5 -104q0 -113 -92 -113q-21 0 -36 2v30h26q38 0 52.5 18t14.5 64q0 35 -5 104t-5 103q0 58 14 90.5t48 45.5q-34 13 -48 45.5t-14 90.5q0 35 5 103.5t5 103.5q0 46 -14.5 64 t-52.5 18h-26v30q15 2 36 2q92 0 92 -113q0 -36 -5 -105t-5 -103z" />
<glyph unicode="~" horiz-adv-x="491" d="M339 330q56 0 91 68l27 -13q-20 -41 -47 -64.5t-71 -23.5q-42 0 -96 29t-86 29q-67 0 -95 -68l-28 12q15 42 47.5 65.5t75.5 23.5q42 0 96 -29t86 -29z" />
<glyph unicode="&#xa1;" horiz-adv-x="277" d="M120 -193v272q0 103 5 201h28q5 -97 5 -202v-271h-38zM110 482q0 12 8 21t20 9q13 0 21 -9t8 -21t-8 -20.5t-21 -8.5q-12 0 -20 8.5t-8 20.5z" />
<glyph unicode="&#xa2;" horiz-adv-x="515" d="M65 250q0 117 57.5 187.5t163.5 74.5v111h35v-111q71 -4 125 -24l-9 -31q-69 23 -137 23q-97 0 -147.5 -61t-50.5 -169q0 -109 52.5 -169.5t150.5 -60.5q80 0 141 25l9 -31q-54 -23 -133 -26v-113h-35v113q-105 6 -163.5 75.5t-58.5 186.5z" />
<glyph unicode="&#xa3;" horiz-adv-x="551" d="M521 0h-383v338h-102v32h102v126q0 85 44.5 136t141.5 51q78 0 165 -34l-10 -29q-91 31 -155 31q-151 0 -151 -155v-126h175v-32h-175v-306h348v-32z" />
<glyph unicode="&#xa4;" horiz-adv-x="560" d="M117 352q0 -72 45 -117.5t118 -45.5t117 45t44 118t-44 117.5t-117 44.5t-118 -44.5t-45 -117.5zM476 134l-69 68q-51 -43 -127 -43q-75 0 -128 42l-68 -67l-24 25l68 67q-43 51 -43 126t43 126l-68 67l24 25l68 -68q53 42 128 42q76 0 127 -42l69 68l24 -25l-68 -67 q42 -53 42 -126q0 -75 -42 -126l68 -67z" />
<glyph unicode="&#xa5;" horiz-adv-x="613" d="M70 195v32h219v78q-7 9 -19.5 25t-17.5 22h-182v32h158q-110 150 -183 316h39q76 -175 222 -364q147 188 223 364h39q-73 -166 -183 -316h156v-32h-180q-9 -12 -37 -47v-78h217v-32h-217v-195h-35v195h-219z" />
<glyph unicode="&#xa6;" horiz-adv-x="253" d="M110 340v409h33v-409h-33zM110 -214v413h33v-413h-33z" />
<glyph unicode="&#xa7;" horiz-adv-x="587" d="M269 160q103 -37 136 -57q34 22 57.5 57t23.5 76t-27 70.5t-57 43t-102 39.5q-3 1 -5 2t-5 2l-6 2q-62 23 -100 49q-83 -52 -83 -133q0 -58 39 -88.5t129 -62.5zM266 -170q-96 0 -167 31l9 32q73 -30 158 -30q168 0 168 122q0 55 -36 80.5t-124 56.5q-14 4 -21 7 q-99 35 -143.5 74t-44.5 108q0 51 27.5 91t66.5 62q-43 42 -43 104q0 72 52.5 108t130.5 36q75 0 154 -24l-9 -31q-79 22 -145 22q-68 0 -108 -28.5t-40 -82.5q0 -51 38.5 -83.5t110.5 -58.5q43 -15 61.5 -22.5t51 -21.5t47 -26t32 -30.5t24 -40.5t6.5 -49 q0 -48 -25.5 -89.5t-65.5 -64.5q39 -36 39 -97q0 -81 -59.5 -118t-144.5 -37z" />
<glyph unicode="&#xa8;" horiz-adv-x="500" d="M204 635q0 -14 -8 -23t-22 -9q-15 0 -23 9t-8 23q0 13 8 22t23 9q14 0 22 -9t8 -22zM354 635q0 -13 -7.5 -22.5t-21.5 -9.5q-32 0 -32 32q0 13 8 22t24 9q14 0 21.5 -9t7.5 -22z" />
<glyph unicode="&#xa9;" horiz-adv-x="825" d="M420 548q53 0 107 -20l-9 -29q-47 16 -95 16q-65 0 -108 -39t-43 -126t42.5 -126t105.5 -39q52 0 98 17l9 -30q-54 -20 -107 -20q-77 0 -130.5 48.5t-53.5 149.5t53.5 149.5t130.5 48.5zM86 350q0 -148 89 -238.5t238 -90.5q148 0 237 90.5t89 238.5t-89 238.5t-237 90.5 q-149 0 -238 -90.5t-89 -238.5zM775 350q0 -161 -100 -261.5t-262 -100.5q-163 0 -263 100.5t-100 261.5t100 261.5t263 100.5q162 0 262 -100.5t100 -261.5z" />
<glyph unicode="&#xaa;" horiz-adv-x="347" d="M73 634l-7 30q55 19 101 19q130 0 130 -117v-194h-2q-62 -41 -135 -41q-59 0 -89.5 27.5t-30.5 74.5q0 48 35.5 72.5t90.5 24.5q49 0 97 -10v46q0 45 -24 65t-72 20t-94 -17zM161 363q64 0 102 26v100q-47 9 -97 9q-91 0 -91 -65q0 -70 86 -70z" />
<glyph unicode="&#xab;" horiz-adv-x="537" d="M222 64q-86 74 -197 200q100 114 197 200h46q-113 -104 -197 -200q84 -96 197 -200h-46zM446 64q-86 74 -197 200q100 114 197 200h46q-113 -104 -197 -200q84 -96 197 -200h-46z" />
<glyph unicode="&#xac;" horiz-adv-x="491" d="M35 327v32h421v-222h-35v190h-386z" />
<glyph unicode="&#xad;" horiz-adv-x="306" />
<glyph unicode="&#xae;" horiz-adv-x="570" d="M485 473q0 97 -54 152t-147 55t-146 -55t-53 -152q0 -98 53 -152.5t146 -54.5t147 54.5t54 152.5zM51 473q0 107 64.5 173t168.5 66t169.5 -66.5t65.5 -172.5t-65.5 -172.5t-169.5 -66.5q-105 0 -169 66t-64 173zM207 357v241h71q95 0 95 -74q0 -52 -50 -68 q20 -40 66 -99h-41q-36 47 -59 93h-11h-39v-93h-32zM278 571h-39v-94h39q62 0 62 47t-62 47z" />
<glyph unicode="&#xaf;" horiz-adv-x="500" d="M124 609v32h246v-32h-246z" />
<glyph unicode="&#xb0;" horiz-adv-x="328" d="M30 577q0 61 37.5 98t97.5 37t96.5 -37t36.5 -98t-36.5 -98t-96.5 -37t-97.5 37t-37.5 98zM165 680q-45 0 -73 -27.5t-28 -75.5t28 -75.5t73 -27.5t72 27.5t27 75.5t-27 75.5t-72 27.5z" />
<glyph unicode="&#xb1;" horiz-adv-x="491" d="M35 35v32h421v-32h-421zM35 337v32h193v184h35v-184h193v-32h-193v-190h-35v190h-193z" />
<glyph unicode="&#xb2;" horiz-adv-x="310" d="M46 367v29l33 27q81 66 112 104t31 81q0 35 -20.5 53.5t-56.5 18.5q-42 0 -85 -32l-16 26q17 12 26.5 18.5t30 13t44.5 6.5q51 0 81 -26.5t30 -76.5q0 -46 -34 -89t-120 -114l-11 -9h186v-30h-231z" />
<glyph unicode="&#xb3;" horiz-adv-x="310" d="M51 381l12 30q47 -20 89 -20q83 0 83 68t-78 68h-48v30h35q38 0 57 15t19 51q0 57 -74 57q-35 0 -69 -21l-18 27q40 26 87 26q50 0 79 -23.5t29 -65.5q0 -61 -59 -79q74 -13 74 -85q0 -100 -117 -100q-57 0 -101 22z" />
<glyph unicode="&#xb4;" horiz-adv-x="500" d="M261 700h42l-97 -130h-36z" />
<glyph unicode="&#xb5;" horiz-adv-x="584" d="M140 -184h-35v684h35v-358q0 -58 32 -90t95 -32q96 0 177 66v414h35v-500h-35v52q-74 -64 -178 -64q-86 0 -130 52l4 -157v-67z" />
<glyph unicode="&#xb6;" horiz-adv-x="595" d="M275 700h210v-700h-35v670h-140v-670h-35v281q-91 0 -153 53t-62 157t61.5 156.5t153.5 52.5z" />
<glyph unicode="&#xb7;" horiz-adv-x="500" d="M54 351q0 12 8 20.5t21 8.5q12 0 20 -8.5t8 -20.5t-8 -21t-20 -9q-13 0 -21 9t-8 21z" />
<glyph unicode="&#xb8;" horiz-adv-x="500" d="M159 -202l6 28q26 -6 48 -6q72 0 72 47q0 25 -20.5 35t-61.5 12l-9 22l22 64h32l-20 -59q91 -5 91 -74q0 -38 -29 -57t-77 -19q-28 0 -54 7z" />
<glyph unicode="&#xb9;" horiz-adv-x="310" d="M87 621l-13 26q39 27 103 57h28v-337h-33v302q-49 -25 -85 -48z" />
<glyph unicode="&#xba;" horiz-adv-x="376" d="M336 506q0 -73 -36 -124.5t-112 -51.5t-112 51.5t-36 124.5q0 74 36 125.5t112 51.5t112 -51.5t36 -125.5zM75 506q0 -67 28.5 -105.5t84.5 -38.5t84.5 38.5t28.5 105.5t-28.5 106t-84.5 39t-84.5 -39t-28.5 -106z" />
<glyph unicode="&#xbb;" horiz-adv-x="537" d="M315 64h-46q113 104 197 200q-84 96 -197 200h46q97 -86 197 -200q-111 -126 -197 -200zM91 64h-46q113 104 197 200q-84 96 -197 200h46q97 -86 197 -200q-111 -126 -197 -200z" />
<glyph unicode="&#xbc;" horiz-adv-x="784" d="M87 621l-13 26q39 27 103 57h28v-337h-33v302q-49 -25 -85 -48zM571 700h37l-387 -700h-37zM464 68v27q74 129 178 242h33v-239h55v-30h-55v-68h-33v68h-178zM642 196q0 54 3 108q-92 -116 -148 -206h145v98z" />
<glyph unicode="&#xbd;" horiz-adv-x="784" d="M87 621l-13 26q39 27 103 57h28v-337h-33v302q-49 -25 -85 -48zM539 700h37l-387 -700h-37zM490 0v29l33 27q81 66 112 104t31 81q0 35 -20.5 53.5t-56.5 18.5q-42 0 -85 -32l-16 26q17 12 26.5 18.5t30 13t44.5 6.5q51 0 81 -26.5t30 -76.5q0 -46 -34 -89t-120 -114 l-11 -9h186v-30h-231z" />
<glyph unicode="&#xbe;" horiz-adv-x="784" d="M51 381l12 30q47 -20 89 -20q83 0 83 68t-78 68h-48v30h35q38 0 57 15t19 51q0 57 -74 57q-35 0 -69 -21l-18 27q40 26 87 26q50 0 79 -23.5t29 -65.5q0 -61 -59 -79q74 -13 74 -85q0 -100 -117 -100q-57 0 -101 22zM588 700h37l-387 -700h-37zM464 68v27q74 129 178 242 h33v-239h55v-30h-55v-68h-33v68h-178zM642 196q0 54 3 108q-92 -116 -148 -206h145v98z" />
<glyph unicode="&#xbf;" horiz-adv-x="432" d="M244 453q-12 0 -20 8.5t-8 20.5t8 21t20 9q13 0 21 -9t8 -21t-8 -20.5t-21 -8.5zM402 -173q-74 -32 -151 -32q-84 0 -137.5 42t-53.5 116q0 38 14 70.5t29.5 49.5t42.5 42q29 27 41.5 41t26.5 42.5t14 60.5v21h33v-21q0 -38 -14.5 -70t-28 -47.5t-41.5 -42.5 q-26 -24 -40 -39.5t-27 -44t-13 -62.5q0 -59 40.5 -92t113.5 -33q68 0 142 30z" />
<glyph unicode="&#xc0;" horiz-adv-x="632" d="M316 667q-85 -191 -161 -402h322q-76 211 -161 402zM566 0q-37 121 -77 233h-346q-40 -112 -77 -233h-36q132 407 268 700h36q146 -314 268 -700h-36zM301 770l-97 130h42l91 -130h-36z" />
<glyph unicode="&#xc1;" horiz-adv-x="632" d="M316 667q-85 -191 -161 -402h322q-76 211 -161 402zM566 0q-37 121 -77 233h-346q-40 -112 -77 -233h-36q132 407 268 700h36q146 -314 268 -700h-36zM392 900h42l-97 -130h-36z" />
<glyph unicode="&#xc2;" horiz-adv-x="632" d="M316 667q-85 -191 -161 -402h322q-76 211 -161 402zM566 0q-37 121 -77 233h-346q-40 -112 -77 -233h-36q132 407 268 700h36q146 -314 268 -700h-36zM407 770l-91 108l-91 -108h-39l106 130h48l106 -130h-39z" />
<glyph unicode="&#xc3;" horiz-adv-x="632" d="M316 667q-85 -191 -161 -402h322q-76 211 -161 402zM566 0q-37 121 -77 233h-346q-40 -112 -77 -233h-36q132 407 268 700h36q146 -314 268 -700h-36zM387 816q16 0 24.5 9.5t11 21.5t3.5 36h32q-1 -21 -3.5 -36t-9.5 -30.5t-21.5 -24t-35.5 -8.5q-31 0 -73.5 30 t-65.5 30q-24 0 -33 -14.5t-11 -43.5h-32q3 90 75 90q31 0 76 -30t63 -30z" />
<glyph unicode="&#xc4;" horiz-adv-x="632" d="M316 667q-85 -191 -161 -402h322q-76 211 -161 402zM566 0q-37 121 -77 233h-346q-40 -112 -77 -233h-36q132 407 268 700h36q146 -314 268 -700h-36zM271 835q0 -14 -8 -23t-22 -9q-15 0 -23 9t-8 23q0 13 8 22t23 9q14 0 22 -9t8 -22zM421 835q0 -13 -7.5 -22.5 t-21.5 -9.5q-32 0 -32 32q0 13 8 22t24 9q14 0 21.5 -9t7.5 -22z" />
<glyph unicode="&#xc5;" horiz-adv-x="632" d="M566 0q-37 121 -77 233h-346q-40 -112 -77 -233h-36q132 407 268 700q-33 5 -53.5 29.5t-20.5 60.5q0 39 26.5 65t65.5 26t65.5 -26t26.5 -65q0 -36 -20.5 -60.5t-53.5 -29.5q146 -314 268 -700h-36zM316 852q-29 0 -45 -17.5t-16 -44.5q0 -26 16 -45t45 -19t45 19t16 45 q0 27 -16 44.5t-45 17.5zM316 667q-85 -191 -161 -402h322q-76 211 -161 402z" />
<glyph unicode="&#xc6;" horiz-adv-x="878" d="M818 32v-32h-373v233h-261q-82 -146 -127 -233h-37q185 357 415 700h383v-32h-338v-290h288v-32h-288v-314h338zM445 265v398q-126 -194 -242 -398h242z" />
<glyph unicode="&#xc7;" horiz-adv-x="602" d="M380 -12h-13l-16 -47q91 -5 91 -74q0 -38 -29 -57t-77 -19q-28 0 -54 7l6 28q26 -6 48 -6q72 0 72 47q0 25 -20.5 35t-61.5 12l-9 22l19 54q-129 14 -197.5 107t-68.5 243q0 165 76 268.5t225 103.5q86 0 171 -34l-10 -32q-89 33 -161 33q-91 0 -152 -48t-86.5 -122 t-25.5 -169q0 -145 69.5 -232t203.5 -87q78 0 159 35l8 -31q-76 -37 -167 -37z" />
<glyph unicode="&#xc8;" d="M503 32v-32h-393v700h393v-32h-358v-290h308v-32h-308v-314h358zM294 770l-97 130h42l91 -130h-36z" />
<glyph unicode="&#xc9;" d="M503 32v-32h-393v700h393v-32h-358v-290h308v-32h-308v-314h358zM385 900h42l-97 -130h-36z" />
<glyph unicode="&#xca;" d="M503 32v-32h-393v700h393v-32h-358v-290h308v-32h-308v-314h358zM400 770l-91 108l-91 -108h-39l106 130h48l106 -130h-39z" />
<glyph unicode="&#xcb;" d="M503 32v-32h-393v700h393v-32h-358v-290h308v-32h-308v-314h358zM264 835q0 -14 -8 -23t-22 -9q-15 0 -23 9t-8 23q0 13 8 22t23 9q14 0 22 -9t8 -22zM414 835q0 -13 -7.5 -22.5t-21.5 -9.5q-32 0 -32 32q0 13 8 22t24 9q14 0 21.5 -9t7.5 -22z" />
<glyph unicode="&#xcc;" horiz-adv-x="255" d="M110 0v700h35v-700h-35zM113 770l-97 130h42l91 -130h-36z" />
<glyph unicode="&#xcd;" horiz-adv-x="255" d="M110 0v700h35v-700h-35zM204 900h42l-97 -130h-36z" />
<glyph unicode="&#xce;" horiz-adv-x="255" d="M110 0v700h35v-700h-35zM219 770l-91 108l-91 -108h-39l106 130h48l106 -130h-39z" />
<glyph unicode="&#xcf;" horiz-adv-x="255" d="M110 0v700h35v-700h-35zM83 835q0 -14 -8 -23t-22 -9q-15 0 -23 9t-8 23q0 13 8 22t23 9q14 0 22 -9t8 -22zM233 835q0 -13 -7.5 -22.5t-21.5 -9.5q-32 0 -32 32q0 13 8 22t24 9q14 0 21.5 -9t7.5 -22z" />
<glyph unicode="&#xd0;" horiz-adv-x="685" d="M588 350q0 142 -74.5 230t-225.5 88h-143v-291h155v-32h-155v-313h143q149 0 224.5 88.5t75.5 229.5zM110 0v345h-80v32h80v323h178q163 0 250 -95t87 -255t-87.5 -255t-249.5 -95h-178z" />
<glyph unicode="&#xd1;" horiz-adv-x="720" d="M145 0h-35v700h34q96 -165 195 -312.5t239 -337.5q-3 38 -3 98v552h35v-700h-34q-155 207 -254.5 352t-179.5 292q3 -93 3 -108v-536zM431 816q16 0 24.5 9.5t11 21.5t3.5 36h32q-1 -21 -3.5 -36t-9.5 -30.5t-21.5 -24t-35.5 -8.5q-31 0 -73.5 30t-65.5 30 q-24 0 -33 -14.5t-11 -43.5h-32q3 90 75 90q31 0 76 -30t63 -30z" />
<glyph unicode="&#xd2;" horiz-adv-x="706" d="M636 350q0 -103 -28.5 -182.5t-93.5 -129.5t-161 -50t-161 50t-93.5 129.5t-28.5 182.5q0 76 16.5 140t49.5 114.5t88.5 79t128.5 28.5q96 0 161 -50t93.5 -129.5t28.5 -182.5zM107 350q0 -144 61 -236.5t185 -92.5q64 0 112.5 26.5t77 72.5t42.5 104t14 126t-14 126 t-42.5 104t-77 72.5t-112.5 26.5q-65 0 -113.5 -26.5t-76.5 -72.5t-42 -104t-14 -126zM338 770l-97 130h42l91 -130h-36z" />
<glyph unicode="&#xd3;" horiz-adv-x="706" d="M636 350q0 -103 -28.5 -182.5t-93.5 -129.5t-161 -50t-161 50t-93.5 129.5t-28.5 182.5q0 76 16.5 140t49.5 114.5t88.5 79t128.5 28.5q96 0 161 -50t93.5 -129.5t28.5 -182.5zM107 350q0 -144 61 -236.5t185 -92.5q64 0 112.5 26.5t77 72.5t42.5 104t14 126t-14 126 t-42.5 104t-77 72.5t-112.5 26.5q-65 0 -113.5 -26.5t-76.5 -72.5t-42 -104t-14 -126zM429 900h42l-97 -130h-36z" />
<glyph unicode="&#xd4;" horiz-adv-x="706" d="M636 350q0 -103 -28.5 -182.5t-93.5 -129.5t-161 -50t-161 50t-93.5 129.5t-28.5 182.5q0 76 16.5 140t49.5 114.5t88.5 79t128.5 28.5q96 0 161 -50t93.5 -129.5t28.5 -182.5zM107 350q0 -144 61 -236.5t185 -92.5q64 0 112.5 26.5t77 72.5t42.5 104t14 126t-14 126 t-42.5 104t-77 72.5t-112.5 26.5q-65 0 -113.5 -26.5t-76.5 -72.5t-42 -104t-14 -126zM444 770l-91 108l-91 -108h-39l106 130h48l106 -130h-39z" />
<glyph unicode="&#xd5;" horiz-adv-x="706" d="M636 350q0 -103 -28.5 -182.5t-93.5 -129.5t-161 -50t-161 50t-93.5 129.5t-28.5 182.5q0 76 16.5 140t49.5 114.5t88.5 79t128.5 28.5q96 0 161 -50t93.5 -129.5t28.5 -182.5zM107 350q0 -144 61 -236.5t185 -92.5q64 0 112.5 26.5t77 72.5t42.5 104t14 126t-14 126 t-42.5 104t-77 72.5t-112.5 26.5q-65 0 -113.5 -26.5t-76.5 -72.5t-42 -104t-14 -126zM424 816q16 0 24.5 9.5t11 21.5t3.5 36h32q-1 -21 -3.5 -36t-9.5 -30.5t-21.5 -24t-35.5 -8.5q-31 0 -73.5 30t-65.5 30q-24 0 -33 -14.5t-11 -43.5h-32q3 90 75 90q31 0 76 -30t63 -30z " />
<glyph unicode="&#xd6;" horiz-adv-x="706" d="M636 350q0 -103 -28.5 -182.5t-93.5 -129.5t-161 -50t-161 50t-93.5 129.5t-28.5 182.5q0 76 16.5 140t49.5 114.5t88.5 79t128.5 28.5q96 0 161 -50t93.5 -129.5t28.5 -182.5zM107 350q0 -144 61 -236.5t185 -92.5q64 0 112.5 26.5t77 72.5t42.5 104t14 126t-14 126 t-42.5 104t-77 72.5t-112.5 26.5q-65 0 -113.5 -26.5t-76.5 -72.5t-42 -104t-14 -126zM308 835q0 -14 -8 -23t-22 -9q-15 0 -23 9t-8 23q0 13 8 22t23 9q14 0 22 -9t8 -22zM458 835q0 -13 -7.5 -22.5t-21.5 -9.5q-32 0 -32 32q0 13 8 22t24 9q14 0 21.5 -9t7.5 -22z" />
<glyph unicode="&#xd7;" horiz-adv-x="491" d="M404 162l-158 159l-159 -159l-23 22l159 159l-159 159l23 22l159 -158l158 158l23 -22l-159 -159l159 -159z" />
<glyph unicode="&#xd8;" horiz-adv-x="688" d="M594 700h38l-67 -90q71 -96 71 -260q0 -103 -28.5 -182.5t-93.5 -129.5t-161 -50q-120 0 -192 77l-49 -65h-38l67 90q-71 96 -71 260q0 76 16.5 140t49.5 114.5t88.5 79t128.5 28.5q120 0 192 -77zM107 350q0 -142 56 -230l361 485q-64 74 -171 74q-65 0 -113.5 -26.5 t-76.5 -72.5t-42 -104t-14 -126zM353 21q64 0 112.5 26.5t77 72.5t42.5 104t14 126q0 144 -56 230l-361 -485q64 -74 171 -74z" />
<glyph unicode="&#xd9;" horiz-adv-x="700" d="M105 265v435h35v-435q0 -126 51.5 -185t158.5 -59t158.5 59t51.5 185v435h35v-435q0 -145 -60 -211t-185 -66t-185 66t-60 211zM335 770l-97 130h42l91 -130h-36z" />
<glyph unicode="&#xda;" horiz-adv-x="700" d="M105 265v435h35v-435q0 -126 51.5 -185t158.5 -59t158.5 59t51.5 185v435h35v-435q0 -145 -60 -211t-185 -66t-185 66t-60 211zM426 900h42l-97 -130h-36z" />
<glyph unicode="&#xdb;" horiz-adv-x="700" d="M105 265v435h35v-435q0 -126 51.5 -185t158.5 -59t158.5 59t51.5 185v435h35v-435q0 -145 -60 -211t-185 -66t-185 66t-60 211zM441 770l-91 108l-91 -108h-39l106 130h48l106 -130h-39z" />
<glyph unicode="&#xdc;" horiz-adv-x="700" d="M105 265v435h35v-435q0 -126 51.5 -185t158.5 -59t158.5 59t51.5 185v435h35v-435q0 -145 -60 -211t-185 -66t-185 66t-60 211zM305 835q0 -14 -8 -23t-22 -9q-15 0 -23 9t-8 23q0 13 8 22t23 9q14 0 22 -9t8 -22zM455 835q0 -13 -7.5 -22.5t-21.5 -9.5q-32 0 -32 32 q0 13 8 22t24 9q14 0 21.5 -9t7.5 -22z" />
<glyph unicode="&#xdd;" d="M264 0v305q-159 200 -244 395h39q42 -98 94 -181.5t130 -184.5q142 182 222 366h38q-93 -206 -244 -395v-305h-35zM358 900h42l-97 -130h-36z" />
<glyph unicode="&#xde;" horiz-adv-x="589" d="M110 0v700h35v-130h112q277 0 277 -215t-277 -215h-112v-140h-35zM498 355q0 100 -63 141.5t-178 41.5h-112v-366h112q116 0 178.5 41.5t62.5 141.5z" />
<glyph unicode="&#xdf;" horiz-adv-x="592" d="M105 524q0 99 48.5 153t129.5 54q80 0 120.5 -39t40.5 -106q0 -38 -18 -74.5t-35.5 -66.5t-17.5 -53q0 -21 17.5 -41t42.5 -38t49.5 -39t42 -53.5t17.5 -72.5q0 -77 -54.5 -118.5t-139.5 -41.5q-41 0 -105 12l5 33q51 -12 101 -12q74 0 115 32t41 95q0 37 -17 66 t-41.5 47.5t-49 36.5t-41.5 41t-17 51q0 35 34.5 94t34.5 102q0 112 -124 112q-144 0 -144 -174v-524h-35v524z" />
<glyph unicode="&#xe0;" horiz-adv-x="519" d="M242 21q92 0 147 36v175q-74 17 -137 17q-156 0 -156 -118q0 -54 38.5 -82t107.5 -28zM424 37q-78 -49 -183 -49q-87 0 -134 39t-47 104q0 79 53 114.5t138 36.5q65 0 138 -17v75q0 139 -147 139q-73 0 -136 -27l-11 32q63 28 147 28q182 0 182 -172v-303zM239 585 l-97 130h42l91 -130h-36z" />
<glyph unicode="&#xe1;" horiz-adv-x="519" d="M242 21q92 0 147 36v175q-74 17 -137 17q-156 0 -156 -118q0 -54 38.5 -82t107.5 -28zM424 37q-78 -49 -183 -49q-87 0 -134 39t-47 104q0 79 53 114.5t138 36.5q65 0 138 -17v75q0 139 -147 139q-73 0 -136 -27l-11 32q63 28 147 28q182 0 182 -172v-303zM330 715h42 l-97 -130h-36z" />
<glyph unicode="&#xe2;" horiz-adv-x="519" d="M242 21q92 0 147 36v175q-74 17 -137 17q-156 0 -156 -118q0 -54 38.5 -82t107.5 -28zM424 37q-78 -49 -183 -49q-87 0 -134 39t-47 104q0 79 53 114.5t138 36.5q65 0 138 -17v75q0 139 -147 139q-73 0 -136 -27l-11 32q63 28 147 28q182 0 182 -172v-303zM345 585 l-91 108l-91 -108h-39l106 130h48l106 -130h-39z" />
<glyph unicode="&#xe3;" horiz-adv-x="519" d="M242 21q92 0 147 36v175q-74 17 -137 17q-156 0 -156 -118q0 -54 38.5 -82t107.5 -28zM424 37q-78 -49 -183 -49q-87 0 -134 39t-47 104q0 79 53 114.5t138 36.5q65 0 138 -17v75q0 139 -147 139q-73 0 -136 -27l-11 32q63 28 147 28q182 0 182 -172v-303zM325 631 q16 0 24.5 9.5t11 21.5t3.5 36h32q-1 -21 -3.5 -36t-9.5 -30.5t-21.5 -24t-35.5 -8.5q-31 0 -73.5 30t-65.5 30q-24 0 -33 -14.5t-11 -43.5h-32q3 90 75 90q31 0 76 -30t63 -30z" />
<glyph unicode="&#xe4;" horiz-adv-x="519" d="M242 21q92 0 147 36v175q-74 17 -137 17q-156 0 -156 -118q0 -54 38.5 -82t107.5 -28zM424 37q-78 -49 -183 -49q-87 0 -134 39t-47 104q0 79 53 114.5t138 36.5q65 0 138 -17v75q0 139 -147 139q-73 0 -136 -27l-11 32q63 28 147 28q182 0 182 -172v-303zM209 650 q0 -14 -8 -23t-22 -9q-15 0 -23 9t-8 23q0 13 8 22t23 9q14 0 22 -9t8 -22zM359 650q0 -13 -7.5 -22.5t-21.5 -9.5q-32 0 -32 32q0 13 8 22t24 9q14 0 21.5 -9t7.5 -22z" />
<glyph unicode="&#xe5;" horiz-adv-x="519" d="M242 21q92 0 147 36v175q-74 17 -137 17q-156 0 -156 -118q0 -54 38.5 -82t107.5 -28zM424 37q-78 -49 -183 -49q-87 0 -134 39t-47 104q0 79 53 114.5t138 36.5q65 0 138 -17v75q0 139 -147 139q-73 0 -136 -27l-11 32q63 28 147 28q182 0 182 -172v-303zM162 660 q0 39 26.5 65t65.5 26t65.5 -26t26.5 -65q0 -41 -26 -66.5t-66 -25.5t-66 25.5t-26 66.5zM315 660q0 27 -16 44.5t-45 17.5t-45 -17.5t-16 -44.5q0 -26 16 -45t45 -19t45 19t16 45z" />
<glyph unicode="&#xe6;" horiz-adv-x="873" d="M611 479q-82 0 -130 -54.5t-55 -145.5h345q1 9 1 23q0 74 -39.5 125.5t-121.5 51.5zM240 21q113 0 187 71q-35 58 -38 145q-71 17 -140 17q-74 0 -113.5 -25.5t-39.5 -89.5q0 -57 37.5 -87.5t106.5 -30.5zM808 24q-75 -36 -166 -36q-130 0 -196 78q-84 -78 -207 -78 q-86 0 -132.5 41.5t-46.5 109.5q0 146 188 148q69 0 141 -17v68q0 65 -36 103t-111 38q-62 0 -132 -24l-9 32q75 25 141 25q84 0 124.5 -35.5t51.5 -100.5q63 136 193 136q96 0 147 -61t51 -153q0 -24 -3 -51h-381q1 -113 58.5 -169.5t158.5 -56.5q79 0 157 35z" />
<glyph unicode="&#xe7;" horiz-adv-x="490" d="M300 512q75 0 140 -29l-10 -31q-67 27 -130 27q-97 0 -147.5 -63t-50.5 -171q0 -109 53.5 -166.5t157.5 -57.5q62 0 124 31l10 -31q-61 -33 -134 -33h-11l-16 -47q91 -5 91 -74q0 -38 -29 -57t-77 -19q-28 0 -54 7l6 28q26 -6 48 -6q72 0 72 47q0 25 -20.5 35t-61.5 12 l-9 22l19 54q-100 11 -153 76.5t-53 178.5q0 122 61.5 194.5t173.5 72.5z" />
<glyph unicode="&#xe8;" horiz-adv-x="549" d="M475 56l9 -32q-75 -36 -166 -36q-119 0 -186 67t-67 196q0 116 59 188.5t163 72.5q96 0 147 -61t51 -153q0 -24 -3 -51h-381q1 -113 58.5 -169.5t158.5 -56.5q79 0 157 35zM287 479q-82 0 -130 -54.5t-55 -145.5h345q1 9 1 23q0 74 -39.5 125.5t-121.5 51.5zM270 585 l-97 130h42l91 -130h-36z" />
<glyph unicode="&#xe9;" horiz-adv-x="549" d="M475 56l9 -32q-75 -36 -166 -36q-119 0 -186 67t-67 196q0 116 59 188.5t163 72.5q96 0 147 -61t51 -153q0 -24 -3 -51h-381q1 -113 58.5 -169.5t158.5 -56.5q79 0 157 35zM287 479q-82 0 -130 -54.5t-55 -145.5h345q1 9 1 23q0 74 -39.5 125.5t-121.5 51.5zM361 715h42 l-97 -130h-36z" />
<glyph unicode="&#xea;" horiz-adv-x="549" d="M475 56l9 -32q-75 -36 -166 -36q-119 0 -186 67t-67 196q0 116 59 188.5t163 72.5q96 0 147 -61t51 -153q0 -24 -3 -51h-381q1 -113 58.5 -169.5t158.5 -56.5q79 0 157 35zM287 479q-82 0 -130 -54.5t-55 -145.5h345q1 9 1 23q0 74 -39.5 125.5t-121.5 51.5zM376 585 l-91 108l-91 -108h-39l106 130h48l106 -130h-39z" />
<glyph unicode="&#xeb;" horiz-adv-x="549" d="M475 56l9 -32q-75 -36 -166 -36q-119 0 -186 67t-67 196q0 116 59 188.5t163 72.5q96 0 147 -61t51 -153q0 -24 -3 -51h-381q1 -113 58.5 -169.5t158.5 -56.5q79 0 157 35zM287 479q-82 0 -130 -54.5t-55 -145.5h345q1 9 1 23q0 74 -39.5 125.5t-121.5 51.5zM240 650 q0 -14 -8 -23t-22 -9q-15 0 -23 9t-8 23q0 13 8 22t23 9q14 0 22 -9t8 -22zM390 650q0 -13 -7.5 -22.5t-21.5 -9.5q-32 0 -32 32q0 13 8 22t24 9q14 0 21.5 -9t7.5 -22z" />
<glyph unicode="&#xec;" horiz-adv-x="245" d="M140 500v-500h-35v500h35zM109 585l-97 130h42l91 -130h-36z" />
<glyph unicode="&#xed;" horiz-adv-x="245" d="M140 500v-500h-35v500h35zM200 715h42l-97 -130h-36z" />
<glyph unicode="&#xee;" horiz-adv-x="245" d="M140 500v-500h-35v500h35zM215 585l-91 108l-91 -108h-39l106 130h48l106 -130h-39z" />
<glyph unicode="&#xef;" horiz-adv-x="245" d="M140 500v-500h-35v500h35zM79 650q0 -14 -8 -23t-22 -9q-15 0 -23 9t-8 23q0 13 8 22t23 9q14 0 22 -9t8 -22zM229 650q0 -13 -7.5 -22.5t-21.5 -9.5q-32 0 -32 32q0 13 8 22t24 9q14 0 21.5 -9t7.5 -22z" />
<glyph unicode="&#xf0;" horiz-adv-x="533" d="M137 689l10 31q83 -13 151 -64l88 74l20 -25l-82 -70q69 -61 107 -152t38 -193q0 -140 -54.5 -221t-166.5 -81q-87 0 -142.5 63.5t-55.5 168.5q0 95 57 158t151 63q93 0 164 -51q-30 135 -126 221l-104 -88l-20 26l98 83q-61 44 -133 57zM248 21q100 0 142.5 70.5 t42.5 198.5q0 32 -4 59q-81 59 -169 59q-85 0 -129 -54t-44 -134q0 -85 42 -142t119 -57z" />
<glyph unicode="&#xf1;" horiz-adv-x="584" d="M135 0h-35v458q98 54 204 54q94 0 139.5 -46t45.5 -126v-340h-35v338q0 65 -37 103t-112 38q-96 0 -170 -42v-437zM365 631q16 0 24.5 9.5t11 21.5t3.5 36h32q-1 -21 -3.5 -36t-9.5 -30.5t-21.5 -24t-35.5 -8.5q-31 0 -73.5 30t-65.5 30q-24 0 -33 -14.5t-11 -43.5h-32 q3 90 75 90q31 0 76 -30t63 -30z" />
<glyph unicode="&#xf2;" d="M498 250q0 -119 -56.5 -190.5t-160.5 -71.5q-102 0 -159 71.5t-57 190.5t57 190.5t159 71.5q104 0 160.5 -71.5t56.5 -190.5zM102 250q0 -106 45 -167.5t134 -61.5q91 0 135.5 61.5t44.5 167.5t-44.5 167.5t-135.5 61.5q-89 0 -134 -61.5t-45 -167.5zM267 585l-97 130h42 l91 -130h-36z" />
<glyph unicode="&#xf3;" d="M498 250q0 -119 -56.5 -190.5t-160.5 -71.5q-102 0 -159 71.5t-57 190.5t57 190.5t159 71.5q104 0 160.5 -71.5t56.5 -190.5zM102 250q0 -106 45 -167.5t134 -61.5q91 0 135.5 61.5t44.5 167.5t-44.5 167.5t-135.5 61.5q-89 0 -134 -61.5t-45 -167.5zM358 715h42 l-97 -130h-36z" />
<glyph unicode="&#xf4;" d="M498 250q0 -119 -56.5 -190.5t-160.5 -71.5q-102 0 -159 71.5t-57 190.5t57 190.5t159 71.5q104 0 160.5 -71.5t56.5 -190.5zM102 250q0 -106 45 -167.5t134 -61.5q91 0 135.5 61.5t44.5 167.5t-44.5 167.5t-135.5 61.5q-89 0 -134 -61.5t-45 -167.5zM373 585l-91 108 l-91 -108h-39l106 130h48l106 -130h-39z" />
<glyph unicode="&#xf5;" d="M498 250q0 -119 -56.5 -190.5t-160.5 -71.5q-102 0 -159 71.5t-57 190.5t57 190.5t159 71.5q104 0 160.5 -71.5t56.5 -190.5zM102 250q0 -106 45 -167.5t134 -61.5q91 0 135.5 61.5t44.5 167.5t-44.5 167.5t-135.5 61.5q-89 0 -134 -61.5t-45 -167.5zM353 631 q16 0 24.5 9.5t11 21.5t3.5 36h32q-1 -21 -3.5 -36t-9.5 -30.5t-21.5 -24t-35.5 -8.5q-31 0 -73.5 30t-65.5 30q-24 0 -33 -14.5t-11 -43.5h-32q3 90 75 90q31 0 76 -30t63 -30z" />
<glyph unicode="&#xf6;" d="M498 250q0 -119 -56.5 -190.5t-160.5 -71.5q-102 0 -159 71.5t-57 190.5t57 190.5t159 71.5q104 0 160.5 -71.5t56.5 -190.5zM102 250q0 -106 45 -167.5t134 -61.5q91 0 135.5 61.5t44.5 167.5t-44.5 167.5t-135.5 61.5q-89 0 -134 -61.5t-45 -167.5zM237 650 q0 -14 -8 -23t-22 -9q-15 0 -23 9t-8 23q0 13 8 22t23 9q14 0 22 -9t8 -22zM387 650q0 -13 -7.5 -22.5t-21.5 -9.5q-32 0 -32 32q0 13 8 22t24 9q14 0 21.5 -9t7.5 -22z" />
<glyph unicode="&#xf7;" horiz-adv-x="491" d="M217 177q0 12 8 20.5t21 8.5q12 0 20 -8.5t8 -20.5t-8 -21t-20 -9q-13 0 -21 9t-8 21zM217 504q0 12 8 20.5t21 8.5q12 0 20 -8.5t8 -20.5t-8 -21t-20 -9q-13 0 -21 9t-8 21zM35 327v32h421v-32h-421z" />
<glyph unicode="&#xf8;" horiz-adv-x="567" d="M462 500h36l-52 -66q52 -70 52 -184q0 -119 -56.5 -190.5t-160.5 -71.5q-87 0 -142 53l-33 -41h-36l49 63q-54 71 -54 187q0 119 57 190.5t159 71.5q92 0 146 -56zM102 250q0 -99 39 -159l266 338q-47 50 -126 50q-89 0 -134 -61.5t-45 -167.5zM281 21q91 0 135.5 61.5 t44.5 167.5q0 97 -37 156l-265 -338q45 -47 122 -47z" />
<glyph unicode="&#xf9;" horiz-adv-x="574" d="M474 42q-103 -54 -209 -54q-86 0 -128 43t-42 119v350h35v-348q0 -61 32.5 -96t101.5 -35q97 0 175 42v437h35v-458zM277 585l-97 130h42l91 -130h-36z" />
<glyph unicode="&#xfa;" horiz-adv-x="574" d="M474 42q-103 -54 -209 -54q-86 0 -128 43t-42 119v350h35v-348q0 -61 32.5 -96t101.5 -35q97 0 175 42v437h35v-458zM368 715h42l-97 -130h-36z" />
<glyph unicode="&#xfb;" horiz-adv-x="574" d="M474 42q-103 -54 -209 -54q-86 0 -128 43t-42 119v350h35v-348q0 -61 32.5 -96t101.5 -35q97 0 175 42v437h35v-458zM383 585l-91 108l-91 -108h-39l106 130h48l106 -130h-39z" />
<glyph unicode="&#xfc;" horiz-adv-x="574" d="M474 42q-103 -54 -209 -54q-86 0 -128 43t-42 119v350h35v-348q0 -61 32.5 -96t101.5 -35q97 0 175 42v437h35v-458zM247 650q0 -14 -8 -23t-22 -9q-15 0 -23 9t-8 23q0 13 8 22t23 9q14 0 22 -9t8 -22zM397 650q0 -13 -7.5 -22.5t-21.5 -9.5q-32 0 -32 32q0 13 8 22 t24 9q14 0 21.5 -9t7.5 -22z" />
<glyph unicode="&#xfd;" horiz-adv-x="504" d="M277 0q-82 -146 -215 -183l-10 32q60 16 105 52.5t84 101.5q-151 239 -194 497h35q39 -225 179 -465q134 243 173 465h35q-22 -131 -68.5 -247.5t-123.5 -252.5zM337 715h42l-97 -130h-36z" />
<glyph unicode="&#xfe;" horiz-adv-x="572" d="M140 -184h-35v904l35 3v-243q71 32 144 32q110 0 165.5 -68t55.5 -179q0 -127 -57 -202t-177 -75q-73 0 -131 31v-203zM140 57q66 -36 130 -36q96 0 146.5 63.5t50.5 180.5q0 93 -46 153.5t-138 60.5q-81 0 -143 -37v-385z" />
<glyph unicode="&#xff;" horiz-adv-x="504" d="M277 0q-82 -146 -215 -183l-10 32q60 16 105 52.5t84 101.5q-151 239 -194 497h35q39 -225 179 -465q134 243 173 465h35q-22 -131 -68.5 -247.5t-123.5 -252.5zM216 650q0 -14 -8 -23t-22 -9q-15 0 -23 9t-8 23q0 13 8 22t23 9q14 0 22 -9t8 -22zM366 650 q0 -13 -7.5 -22.5t-21.5 -9.5q-32 0 -32 32q0 13 8 22t24 9q14 0 21.5 -9t7.5 -22z" />
<glyph unicode="&#x100;" horiz-adv-x="632" d="M316 667q-85 -191 -161 -402h322q-76 211 -161 402zM566 0q-37 121 -77 233h-346q-40 -112 -77 -233h-36q132 407 268 700h36q146 -314 268 -700h-36zM193 809v32h246v-32h-246z" />
<glyph unicode="&#x101;" horiz-adv-x="519" d="M242 21q92 0 147 36v175q-74 17 -137 17q-156 0 -156 -118q0 -54 38.5 -82t107.5 -28zM424 37q-78 -49 -183 -49q-87 0 -134 39t-47 104q0 79 53 114.5t138 36.5q65 0 138 -17v75q0 139 -147 139q-73 0 -136 -27l-11 32q63 28 147 28q182 0 182 -172v-303zM131 624v32 h246v-32h-246z" />
<glyph unicode="&#x102;" horiz-adv-x="632" d="M316 667q-85 -191 -161 -402h322q-76 211 -161 402zM566 0q-37 121 -77 233h-346q-40 -112 -77 -233h-36q132 407 268 700h36q146 -314 268 -700h-36zM446 886q-4 -53 -38.5 -81.5t-91.5 -28.5t-91.5 28.5t-38.5 81.5h32q10 -77 98 -77t98 77h32z" />
<glyph unicode="&#x103;" horiz-adv-x="519" d="M242 21q92 0 147 36v175q-74 17 -137 17q-156 0 -156 -118q0 -54 38.5 -82t107.5 -28zM424 37q-78 -49 -183 -49q-87 0 -134 39t-47 104q0 79 53 114.5t138 36.5q65 0 138 -17v75q0 139 -147 139q-73 0 -136 -27l-11 32q63 28 147 28q182 0 182 -172v-303zM384 701 q-4 -53 -38.5 -81.5t-91.5 -28.5t-91.5 28.5t-38.5 81.5h32q10 -77 98 -77t98 77h32z" />
<glyph unicode="&#x104;" horiz-adv-x="632" d="M316 667q-85 -191 -161 -402h322q-76 211 -161 402zM616 -175q-33 -14 -68 -14q-37 0 -62 18.5t-25 53.5q0 58 104 120q-23 78 -76 230h-346q-40 -112 -77 -233h-36q132 407 268 700h36q146 -314 268 -700q-38 -25 -55.5 -38t-34.5 -33.5t-17 -38.5q0 -48 60 -48 q29 0 53 11z" />
<glyph unicode="&#x105;" horiz-adv-x="519" d="M438 -175q-33 -14 -68 -14q-37 0 -62 18.5t-25 53.5q0 58 63 119q-45 -14 -105 -14q-87 0 -134 39t-47 104q0 79 53 114.5t138 36.5q65 0 138 -17v75q0 139 -147 139q-73 0 -136 -27l-11 32q63 28 147 28q182 0 182 -172v-303q-42 -38 -56.5 -52t-32.5 -42t-18 -53 q0 -48 60 -48q29 0 53 11zM96 131q0 -54 38.5 -82t107.5 -28q92 0 147 36v175q-74 17 -137 17q-156 0 -156 -118z" />
<glyph unicode="&#x106;" horiz-adv-x="602" d="M380 -12q-150 0 -230 94.5t-80 257.5q0 165 76 268.5t225 103.5q86 0 171 -34l-10 -32q-89 33 -161 33q-91 0 -152 -48t-86.5 -122t-25.5 -169q0 -145 69.5 -232t203.5 -87q78 0 159 35l8 -31q-76 -37 -167 -37zM434 900h42l-97 -130h-36z" />
<glyph unicode="&#x107;" horiz-adv-x="490" d="M300 512q75 0 140 -29l-10 -31q-67 27 -130 27q-97 0 -147.5 -63t-50.5 -171q0 -109 53.5 -166.5t157.5 -57.5q62 0 124 31l10 -31q-61 -33 -134 -33q-120 0 -184 66.5t-64 190.5q0 122 61.5 194.5t173.5 72.5zM365 715h42l-97 -130h-36z" />
<glyph unicode="&#x108;" horiz-adv-x="602" d="M380 -12q-150 0 -230 94.5t-80 257.5q0 165 76 268.5t225 103.5q86 0 171 -34l-10 -32q-89 33 -161 33q-91 0 -152 -48t-86.5 -122t-25.5 -169q0 -145 69.5 -232t203.5 -87q78 0 159 35l8 -31q-76 -37 -167 -37zM449 770l-91 108l-91 -108h-39l106 130h48l106 -130h-39z " />
<glyph unicode="&#x109;" horiz-adv-x="490" d="M300 512q75 0 140 -29l-10 -31q-67 27 -130 27q-97 0 -147.5 -63t-50.5 -171q0 -109 53.5 -166.5t157.5 -57.5q62 0 124 31l10 -31q-61 -33 -134 -33q-120 0 -184 66.5t-64 190.5q0 122 61.5 194.5t173.5 72.5zM380 585l-91 108l-91 -108h-39l106 130h48l106 -130h-39z " />
<glyph unicode="&#x10a;" horiz-adv-x="602" d="M380 -12q-150 0 -230 94.5t-80 257.5q0 165 76 268.5t225 103.5q86 0 171 -34l-10 -32q-89 33 -161 33q-91 0 -152 -48t-86.5 -122t-25.5 -169q0 -145 69.5 -232t203.5 -87q78 0 159 35l8 -31q-76 -37 -167 -37zM327 835q0 13 8.5 22t22.5 9t22 -9t8 -22t-8 -22.5 t-22 -9.5t-22.5 9.5t-8.5 22.5z" />
<glyph unicode="&#x10b;" horiz-adv-x="490" d="M300 512q75 0 140 -29l-10 -31q-67 27 -130 27q-97 0 -147.5 -63t-50.5 -171q0 -109 53.5 -166.5t157.5 -57.5q62 0 124 31l10 -31q-61 -33 -134 -33q-120 0 -184 66.5t-64 190.5q0 122 61.5 194.5t173.5 72.5zM258 650q0 13 8.5 22t22.5 9t22 -9t8 -22t-8 -22.5 t-22 -9.5t-22.5 9.5t-8.5 22.5z" />
<glyph unicode="&#x10c;" horiz-adv-x="602" d="M380 -12q-150 0 -230 94.5t-80 257.5q0 165 76 268.5t225 103.5q86 0 171 -34l-10 -32q-89 33 -161 33q-91 0 -152 -48t-86.5 -122t-25.5 -169q0 -145 69.5 -232t203.5 -87q78 0 159 35l8 -31q-76 -37 -167 -37zM268 900l90 -105l90 105h40l-106 -130h-48l-106 130h40z " />
<glyph unicode="&#x10d;" horiz-adv-x="490" d="M300 512q75 0 140 -29l-10 -31q-67 27 -130 27q-97 0 -147.5 -63t-50.5 -171q0 -109 53.5 -166.5t157.5 -57.5q62 0 124 31l10 -31q-61 -33 -134 -33q-120 0 -184 66.5t-64 190.5q0 122 61.5 194.5t173.5 72.5zM199 715l90 -105l90 105h40l-106 -130h-48l-106 130h40z " />
<glyph unicode="&#x10e;" horiz-adv-x="685" d="M588 350q0 142 -74.5 230t-225.5 88h-143v-636h143q149 0 224.5 88.5t75.5 229.5zM110 0v700h178q163 0 250 -95t87 -255t-87.5 -255t-249.5 -95h-178zM226 900l90 -105l90 105h40l-106 -130h-48l-106 130h40z" />
<glyph unicode="&#x10f;" horiz-adv-x="571" d="M466 32q-62 -44 -161 -44q-109 0 -174.5 67.5t-65.5 186.5q0 126 66 198t190 72q58 0 110 -22v230l35 3v-691zM102 242q0 -102 55 -161.5t147 -59.5q85 0 127 30v402q-52 26 -110 26q-107 0 -163 -62.5t-56 -174.5zM574 719h35q-6 -88 -48 -167h-28q32 68 41 167z" />
<glyph unicode="&#x110;" horiz-adv-x="685" d="M588 350q0 142 -74.5 230t-225.5 88h-143v-291h155v-32h-155v-313h143q149 0 224.5 88.5t75.5 229.5zM110 0v345h-80v32h80v323h178q163 0 250 -95t87 -255t-87.5 -255t-249.5 -95h-178z" />
<glyph unicode="&#x111;" horiz-adv-x="571" d="M252 632h179v88l35 3v-91h80v-32h-80v-568q-62 -44 -161 -44q-109 0 -174.5 67.5t-65.5 186.5q0 126 66 198t190 72q58 0 110 -22v110h-179v32zM102 242q0 -102 55 -161.5t147 -59.5q85 0 127 30v402q-52 26 -110 26q-107 0 -163 -62.5t-56 -174.5z" />
<glyph unicode="&#x112;" d="M503 32v-32h-393v700h393v-32h-358v-290h308v-32h-308v-314h358zM186 809v32h246v-32h-246z" />
<glyph unicode="&#x113;" horiz-adv-x="549" d="M475 56l9 -32q-75 -36 -166 -36q-119 0 -186 67t-67 196q0 116 59 188.5t163 72.5q96 0 147 -61t51 -153q0 -24 -3 -51h-381q1 -113 58.5 -169.5t158.5 -56.5q79 0 157 35zM287 479q-82 0 -130 -54.5t-55 -145.5h345q1 9 1 23q0 74 -39.5 125.5t-121.5 51.5zM162 624v32 h246v-32h-246z" />
<glyph unicode="&#x114;" d="M503 32v-32h-393v700h393v-32h-358v-290h308v-32h-308v-314h358zM439 886q-4 -53 -38.5 -81.5t-91.5 -28.5t-91.5 28.5t-38.5 81.5h32q10 -77 98 -77t98 77h32z" />
<glyph unicode="&#x115;" horiz-adv-x="549" d="M475 56l9 -32q-75 -36 -166 -36q-119 0 -186 67t-67 196q0 116 59 188.5t163 72.5q96 0 147 -61t51 -153q0 -24 -3 -51h-381q1 -113 58.5 -169.5t158.5 -56.5q79 0 157 35zM287 479q-82 0 -130 -54.5t-55 -145.5h345q1 9 1 23q0 74 -39.5 125.5t-121.5 51.5zM415 701 q-4 -53 -38.5 -81.5t-91.5 -28.5t-91.5 28.5t-38.5 81.5h32q10 -77 98 -77t98 77h32z" />
<glyph unicode="&#x116;" d="M503 32v-32h-393v700h393v-32h-358v-290h308v-32h-308v-314h358zM278 835q0 13 8.5 22t22.5 9t22 -9t8 -22t-8 -22.5t-22 -9.5t-22.5 9.5t-8.5 22.5z" />
<glyph unicode="&#x117;" horiz-adv-x="549" d="M475 56l9 -32q-75 -36 -166 -36q-119 0 -186 67t-67 196q0 116 59 188.5t163 72.5q96 0 147 -61t51 -153q0 -24 -3 -51h-381q1 -113 58.5 -169.5t158.5 -56.5q79 0 157 35zM287 479q-82 0 -130 -54.5t-55 -145.5h345q1 9 1 23q0 74 -39.5 125.5t-121.5 51.5zM254 650 q0 13 8.5 22t22.5 9t22 -9t8 -22t-8 -22.5t-22 -9.5t-22.5 9.5t-8.5 22.5z" />
<glyph unicode="&#x118;" d="M517 -175q-33 -14 -68 -14q-37 0 -62 18.5t-25 53.5q0 57 99 117h-351v700h393v-32h-358v-290h308v-32h-308v-314h358v-32q-38 -25 -55.5 -38t-34.5 -33.5t-17 -38.5q0 -48 60 -48q29 0 53 11z" />
<glyph unicode="&#x119;" horiz-adv-x="549" d="M287 479q-82 0 -130 -54.5t-55 -145.5h345q1 9 1 23q0 74 -39.5 125.5t-121.5 51.5zM401 -175q-33 -14 -68 -14q-37 0 -62 18.5t-25 53.5q0 52 80 105h-8q-119 0 -186 67t-67 196q0 116 59 188.5t163 72.5q96 0 147 -61t51 -153q0 -24 -3 -51h-381q1 -113 58.5 -169.5 t158.5 -56.5q79 0 157 35l9 -32q-53 -26 -110 -33q-47 -31 -70.5 -54t-23.5 -47q0 -48 60 -48q29 0 53 11z" />
<glyph unicode="&#x11a;" d="M503 32v-32h-393v700h393v-32h-358v-290h308v-32h-308v-314h358zM400 770l-91 108l-91 -108h-39l106 130h48l106 -130h-39z" />
<glyph unicode="&#x11b;" horiz-adv-x="549" d="M475 56l9 -32q-75 -36 -166 -36q-119 0 -186 67t-67 196q0 116 59 188.5t163 72.5q96 0 147 -61t51 -153q0 -24 -3 -51h-381q1 -113 58.5 -169.5t158.5 -56.5q79 0 157 35zM287 479q-82 0 -130 -54.5t-55 -145.5h345q1 9 1 23q0 74 -39.5 125.5t-121.5 51.5zM195 715 l90 -105l90 105h40l-106 -130h-48l-106 130h40z" />
<glyph unicode="&#x11c;" horiz-adv-x="680" d="M600 27q-84 -39 -184 -39q-168 0 -257 98t-89 264q0 157 83.5 259.5t237.5 102.5q107 0 195 -43l-10 -31q-90 41 -185 41q-138 0 -211 -94.5t-73 -234.5q0 -148 79 -238.5t229 -90.5q85 0 150 26v269h-171v32h206v-321zM465 770l-91 108l-91 -108h-39l106 130h48 l106 -130h-39z" />
<glyph unicode="&#x11d;" horiz-adv-x="562" d="M462 -20q0 -86 -50 -129t-141 -43q-81 0 -153 25l9 33q75 -25 144 -25q79 0 117.5 37.5t38.5 101.5v79q-53 -41 -140 -41q-102 0 -162 63t-60 178q0 118 63 185.5t173 67.5q96 0 161 -40v-492zM102 259q0 -98 49.5 -153t136.5 -55q83 0 139 43v359q-58 26 -127 26 q-91 0 -144.5 -58t-53.5 -162zM375 585l-91 108l-91 -108h-39l106 130h48l106 -130h-39z" />
<glyph unicode="&#x11e;" horiz-adv-x="680" d="M600 27q-84 -39 -184 -39q-168 0 -257 98t-89 264q0 157 83.5 259.5t237.5 102.5q107 0 195 -43l-10 -31q-90 41 -185 41q-138 0 -211 -94.5t-73 -234.5q0 -148 79 -238.5t229 -90.5q85 0 150 26v269h-171v32h206v-321zM504 886q-4 -53 -38.5 -81.5t-91.5 -28.5 t-91.5 28.5t-38.5 81.5h32q10 -77 98 -77t98 77h32z" />
<glyph unicode="&#x11f;" horiz-adv-x="562" d="M462 -20q0 -86 -50 -129t-141 -43q-81 0 -153 25l9 33q75 -25 144 -25q79 0 117.5 37.5t38.5 101.5v79q-53 -41 -140 -41q-102 0 -162 63t-60 178q0 118 63 185.5t173 67.5q96 0 161 -40v-492zM102 259q0 -98 49.5 -153t136.5 -55q83 0 139 43v359q-58 26 -127 26 q-91 0 -144.5 -58t-53.5 -162zM414 701q-4 -53 -38.5 -81.5t-91.5 -28.5t-91.5 28.5t-38.5 81.5h32q10 -77 98 -77t98 77h32z" />
<glyph unicode="&#x120;" horiz-adv-x="680" d="M600 27q-84 -39 -184 -39q-168 0 -257 98t-89 264q0 157 83.5 259.5t237.5 102.5q107 0 195 -43l-10 -31q-90 41 -185 41q-138 0 -211 -94.5t-73 -234.5q0 -148 79 -238.5t229 -90.5q85 0 150 26v269h-171v32h206v-321zM343 835q0 13 8.5 22t22.5 9t22 -9t8 -22t-8 -22.5 t-22 -9.5t-22.5 9.5t-8.5 22.5z" />
<glyph unicode="&#x121;" horiz-adv-x="562" d="M462 -20q0 -86 -50 -129t-141 -43q-81 0 -153 25l9 33q75 -25 144 -25q79 0 117.5 37.5t38.5 101.5v79q-53 -41 -140 -41q-102 0 -162 63t-60 178q0 118 63 185.5t173 67.5q96 0 161 -40v-492zM102 259q0 -98 49.5 -153t136.5 -55q83 0 139 43v359q-58 26 -127 26 q-91 0 -144.5 -58t-53.5 -162zM253 650q0 13 8.5 22t22.5 9t22 -9t8 -22t-8 -22.5t-22 -9.5t-22.5 9.5t-8.5 22.5z" />
<glyph unicode="&#x122;" horiz-adv-x="680" d="M600 27q-84 -39 -184 -39q-168 0 -257 98t-89 264q0 157 83.5 259.5t237.5 102.5q107 0 195 -43l-10 -31q-90 41 -185 41q-138 0 -211 -94.5t-73 -234.5q0 -148 79 -238.5t229 -90.5q85 0 150 26v269h-171v32h206v-321zM402 -60h35q-4 -76 -39 -147h-28q27 61 32 147z " />
<glyph unicode="&#x123;" horiz-adv-x="562" d="M462 -20q0 -86 -50 -129t-141 -43q-81 0 -153 25l9 33q75 -25 144 -25q79 0 117.5 37.5t38.5 101.5v79q-53 -41 -140 -41q-102 0 -162 63t-60 178q0 118 63 185.5t173 67.5q96 0 161 -40v-492zM102 259q0 -98 49.5 -153t136.5 -55q83 0 139 43v359q-58 26 -127 26 q-91 0 -144.5 -58t-53.5 -162zM301 585h-35q7 82 43 137h28q-26 -45 -36 -137z" />
<glyph unicode="&#x124;" horiz-adv-x="720" d="M610 0h-35v346h-430v-346h-35v700h35v-322h430v322h35v-700zM448 770l-91 108l-91 -108h-39l106 130h48l106 -130h-39z" />
<glyph unicode="&#x125;" horiz-adv-x="589" d="M140 0h-35v720l35 3v-257q81 46 170 46t136.5 -46.5t47.5 -125.5v-340h-35v338q0 66 -37 103.5t-112 37.5q-93 0 -170 -47v-432zM326 810l-91 108l-91 -108h-39l106 130h48l106 -130h-39z" />
<glyph unicode="&#x126;" horiz-adv-x="720" d="M575 0v346h-430v-346h-35v516h-80v32h80v152h35v-152h430v152h35v-152h80v-32h-80v-516h-35zM575 378v138h-430v-138h430z" />
<glyph unicode="&#x127;" horiz-adv-x="589" d="M140 466q81 46 170 46t136.5 -46.5t47.5 -125.5v-340h-35v338q0 66 -37 103.5t-112 37.5q-93 0 -170 -47v-432h-35v600h-80v32h80v88l35 3v-91h179v-32h-179v-134z" />
<glyph unicode="&#x128;" horiz-adv-x="255" d="M110 0v700h35v-700h-35zM199 816q16 0 24.5 9.5t11 21.5t3.5 36h32q-1 -21 -3.5 -36t-9.5 -30.5t-21.5 -24t-35.5 -8.5q-31 0 -73.5 30t-65.5 30q-24 0 -33 -14.5t-11 -43.5h-32q3 90 75 90q31 0 76 -30t63 -30z" />
<glyph unicode="&#x129;" horiz-adv-x="245" d="M140 500v-500h-35v500h35zM195 631q16 0 24.5 9.5t11 21.5t3.5 36h32q-1 -21 -3.5 -36t-9.5 -30.5t-21.5 -24t-35.5 -8.5q-31 0 -73.5 30t-65.5 30q-24 0 -33 -14.5t-11 -43.5h-32q3 90 75 90q31 0 76 -30t63 -30z" />
<glyph unicode="&#x12a;" horiz-adv-x="255" d="M110 0v700h35v-700h-35zM5 809v32h246v-32h-246z" />
<glyph unicode="&#x12b;" horiz-adv-x="245" d="M140 500v-500h-35v500h35zM1 624v32h246v-32h-246z" />
<glyph unicode="&#x12c;" horiz-adv-x="255" d="M110 0v700h35v-700h-35zM258 886q-4 -53 -38.5 -81.5t-91.5 -28.5t-91.5 28.5t-38.5 81.5h32q10 -77 98 -77t98 77h32z" />
<glyph unicode="&#x12d;" horiz-adv-x="245" d="M140 500v-500h-35v500h35zM254 701q-4 -53 -38.5 -81.5t-91.5 -28.5t-91.5 28.5t-38.5 81.5h32q10 -77 98 -77t98 77h32z" />
<glyph unicode="&#x12e;" horiz-adv-x="255" d="M159 -175q-33 -14 -68 -14q-37 0 -62 18.5t-25 53.5q0 58 106 121v696h35v-700q-38 -25 -55.5 -38t-34.5 -33.5t-17 -38.5q0 -48 60 -48q29 0 53 11z" />
<glyph unicode="&#x12f;" horiz-adv-x="245" d="M123 625q-14 0 -22.5 9.5t-8.5 22.5t8.5 22t22.5 9t22 -9t8 -22t-8 -22.5t-22 -9.5zM154 -175q-33 -14 -68 -14q-37 0 -62 18.5t-25 53.5q0 58 106 121v496h35v-500q-38 -25 -55.5 -38t-34.5 -33.5t-17 -38.5q0 -48 60 -48q29 0 53 11z" />
<glyph unicode="&#x130;" horiz-adv-x="255" d="M110 0v700h35v-700h-35zM97 835q0 13 8.5 22t22.5 9t22 -9t8 -22t-8 -22.5t-22 -9.5t-22.5 9.5t-8.5 22.5z" />
<glyph unicode="&#x131;" horiz-adv-x="245" d="M140 500v-500h-35v500h35z" />
<glyph unicode="&#x132;" horiz-adv-x="510" d="M110 0v700h35v-700h-35zM297 -129q68 124 68 272v557h35v-557q0 -159 -73 -290z" />
<glyph unicode="&#x133;" horiz-adv-x="490" d="M140 500v-500h-35v500h35zM123 625q-14 0 -22.5 9.5t-8.5 22.5t8.5 22t22.5 9t22 -9t8 -22t-8 -22.5t-22 -9.5zM385 -39q0 -58 -22 -91.5t-72 -54.5l-13 30q40 20 56 44t16 72v539h35v-539zM398 657q0 -13 -8 -22.5t-22 -9.5t-22.5 9.5t-8.5 22.5t8.5 22t22.5 9t22 -9 t8 -22z" />
<glyph unicode="&#x134;" horiz-adv-x="255" d="M42 -129q68 124 68 272v557h35v-557q0 -159 -73 -290zM219 770l-91 108l-91 -108h-39l106 130h48l106 -130h-39z" />
<glyph unicode="&#x135;" horiz-adv-x="245" d="M33 -155q40 20 56 44t16 72v539h35v-539q0 -58 -22 -91.5t-72 -54.5zM213 585l-91 108l-91 -108h-39l106 130h48l106 -130h-39z" />
<glyph unicode="&#x136;" horiz-adv-x="617" d="M536 700q-19 -102 -71 -181.5t-144 -148.5l262 -370h-45l-245 350q-61 -42 -148 -86v-264h-35v700h35v-399q165 87 248 178.5t108 220.5h35zM315 -60h35q-4 -76 -39 -147h-28q27 61 32 147z" />
<glyph unicode="&#x137;" horiz-adv-x="519" d="M443 500q-22 -139 -156 -243l193 -257h-43l-176 238q-45 -33 -121 -76v-162h-35v720l35 3v-525q132 78 192.5 141.5t77.5 160.5h33zM257 -60h35q-4 -76 -39 -147h-28q27 61 32 147z" />
<glyph unicode="&#x139;" horiz-adv-x="547" d="M110 0v700h35v-668h357v-32h-392zM204 900h42l-97 -130h-36z" />
<glyph unicode="&#x13a;" horiz-adv-x="276" d="M135 723v-602q0 -53 16.5 -77t57.5 -24q13 0 28 3l4 -30q-15 -5 -32 -5q-109 0 -109 133v599zM194 931h42l-97 -130h-36z" />
<glyph unicode="&#x13b;" horiz-adv-x="547" d="M110 0v700h35v-668h357v-32h-392zM279 -60h35q-4 -76 -39 -147h-28q27 61 32 147z" />
<glyph unicode="&#x13c;" horiz-adv-x="276" d="M135 723v-602q0 -53 16.5 -77t57.5 -24q13 0 28 3l4 -30q-15 -5 -32 -5q-109 0 -109 133v599zM140 -60h35q-4 -76 -39 -147h-28q27 61 32 147z" />
<glyph unicode="&#x13d;" horiz-adv-x="547" d="M110 0v700h35v-668h357v-32h-392zM309 700h35q-6 -88 -48 -167h-28q32 68 41 167z" />
<glyph unicode="&#x13e;" horiz-adv-x="276" d="M135 723v-602q0 -53 16.5 -77t57.5 -24q13 0 28 3l4 -30q-15 -5 -32 -5q-109 0 -109 133v599zM243 719h35q-6 -88 -48 -167h-28q32 68 41 167z" />
<glyph unicode="&#x13f;" horiz-adv-x="547" d="M110 0v700h35v-668h357v-32h-392zM372 362q0 12 8 20.5t21 8.5q12 0 20 -8.5t8 -20.5t-8 -21t-20 -9q-13 0 -21 9t-8 21z" />
<glyph unicode="&#x140;" horiz-adv-x="276" d="M135 723v-602q0 -53 16.5 -77t57.5 -24q13 0 28 3l4 -30q-15 -5 -32 -5q-109 0 -109 133v599zM227 351q0 12 8 20.5t21 8.5q12 0 20 -8.5t8 -20.5t-8 -21t-20 -9q-13 0 -21 9t-8 21z" />
<glyph unicode="&#x141;" horiz-adv-x="562" d="M110 0v328l-93 -39v34l93 39v338h35v-324l145 61v-34l-145 -61v-310h357v-32h-392z" />
<glyph unicode="&#x142;" horiz-adv-x="276" d="M29 318v34l71 33v335l35 3v-322l102 48v-34l-102 -48v-246q0 -53 16.5 -77t57.5 -24q13 0 28 3l4 -30q-15 -5 -32 -5q-109 0 -109 133v230z" />
<glyph unicode="&#x143;" horiz-adv-x="720" d="M145 0h-35v700h34q96 -165 195 -312.5t239 -337.5q-3 38 -3 98v552h35v-700h-34q-155 207 -254.5 352t-179.5 292q3 -93 3 -108v-536zM436 900h42l-97 -130h-36z" />
<glyph unicode="&#x144;" horiz-adv-x="584" d="M135 0h-35v458q98 54 204 54q94 0 139.5 -46t45.5 -126v-340h-35v338q0 65 -37 103t-112 38q-96 0 -170 -42v-437zM370 715h42l-97 -130h-36z" />
<glyph unicode="&#x145;" horiz-adv-x="720" d="M145 0h-35v700h34q96 -165 195 -312.5t239 -337.5q-3 38 -3 98v552h35v-700h-34q-155 207 -254.5 352t-179.5 292q3 -93 3 -108v-536zM344 -60h35q-4 -76 -39 -147h-28q27 61 32 147z" />
<glyph unicode="&#x146;" horiz-adv-x="584" d="M135 0h-35v458q98 54 204 54q94 0 139.5 -46t45.5 -126v-340h-35v338q0 65 -37 103t-112 38q-96 0 -170 -42v-437zM278 -60h35q-4 -76 -39 -147h-28q27 61 32 147z" />
<glyph unicode="&#x147;" horiz-adv-x="720" d="M145 0h-35v700h34q96 -165 195 -312.5t239 -337.5q-3 38 -3 98v552h35v-700h-34q-155 207 -254.5 352t-179.5 292q3 -93 3 -108v-536zM270 900l90 -105l90 105h40l-106 -130h-48l-106 130h40z" />
<glyph unicode="&#x148;" horiz-adv-x="584" d="M135 0h-35v458q98 54 204 54q94 0 139.5 -46t45.5 -126v-340h-35v338q0 65 -37 103t-112 38q-96 0 -170 -42v-437zM204 715l90 -105l90 105h40l-106 -130h-48l-106 130h40z" />
<glyph unicode="&#x14c;" horiz-adv-x="706" d="M636 350q0 -103 -28.5 -182.5t-93.5 -129.5t-161 -50t-161 50t-93.5 129.5t-28.5 182.5q0 76 16.5 140t49.5 114.5t88.5 79t128.5 28.5q96 0 161 -50t93.5 -129.5t28.5 -182.5zM107 350q0 -144 61 -236.5t185 -92.5q64 0 112.5 26.5t77 72.5t42.5 104t14 126t-14 126 t-42.5 104t-77 72.5t-112.5 26.5q-65 0 -113.5 -26.5t-76.5 -72.5t-42 -104t-14 -126zM230 809v32h246v-32h-246z" />
<glyph unicode="&#x14d;" d="M498 250q0 -119 -56.5 -190.5t-160.5 -71.5q-102 0 -159 71.5t-57 190.5t57 190.5t159 71.5q104 0 160.5 -71.5t56.5 -190.5zM102 250q0 -106 45 -167.5t134 -61.5q91 0 135.5 61.5t44.5 167.5t-44.5 167.5t-135.5 61.5q-89 0 -134 -61.5t-45 -167.5zM159 624v32h246v-32 h-246z" />
<glyph unicode="&#x14e;" horiz-adv-x="706" d="M636 350q0 -103 -28.5 -182.5t-93.5 -129.5t-161 -50t-161 50t-93.5 129.5t-28.5 182.5q0 76 16.5 140t49.5 114.5t88.5 79t128.5 28.5q96 0 161 -50t93.5 -129.5t28.5 -182.5zM107 350q0 -144 61 -236.5t185 -92.5q64 0 112.5 26.5t77 72.5t42.5 104t14 126t-14 126 t-42.5 104t-77 72.5t-112.5 26.5q-65 0 -113.5 -26.5t-76.5 -72.5t-42 -104t-14 -126zM483 886q-4 -53 -38.5 -81.5t-91.5 -28.5t-91.5 28.5t-38.5 81.5h32q10 -77 98 -77t98 77h32z" />
<glyph unicode="&#x14f;" d="M498 250q0 -119 -56.5 -190.5t-160.5 -71.5q-102 0 -159 71.5t-57 190.5t57 190.5t159 71.5q104 0 160.5 -71.5t56.5 -190.5zM102 250q0 -106 45 -167.5t134 -61.5q91 0 135.5 61.5t44.5 167.5t-44.5 167.5t-135.5 61.5q-89 0 -134 -61.5t-45 -167.5zM412 701 q-4 -53 -38.5 -81.5t-91.5 -28.5t-91.5 28.5t-38.5 81.5h32q10 -77 98 -77t98 77h32z" />
<glyph unicode="&#x150;" horiz-adv-x="706" d="M636 350q0 -103 -28.5 -182.5t-93.5 -129.5t-161 -50t-161 50t-93.5 129.5t-28.5 182.5q0 76 16.5 140t49.5 114.5t88.5 79t128.5 28.5q96 0 161 -50t93.5 -129.5t28.5 -182.5zM107 350q0 -144 61 -236.5t185 -92.5q64 0 112.5 26.5t77 72.5t42.5 104t14 126t-14 126 t-42.5 104t-77 72.5t-112.5 26.5q-65 0 -113.5 -26.5t-76.5 -72.5t-42 -104t-14 -126zM482 900h42l-96 -130h-37zM352 900h42l-96 -130h-37z" />
<glyph unicode="&#x151;" d="M498 250q0 -119 -56.5 -190.5t-160.5 -71.5q-102 0 -159 71.5t-57 190.5t57 190.5t159 71.5q104 0 160.5 -71.5t56.5 -190.5zM102 250q0 -106 45 -167.5t134 -61.5q91 0 135.5 61.5t44.5 167.5t-44.5 167.5t-135.5 61.5q-89 0 -134 -61.5t-45 -167.5zM411 715h42 l-96 -130h-37zM281 715h42l-96 -130h-37z" />
<glyph unicode="&#x152;" horiz-adv-x="1052" d="M992 32v-32h-393v165q-62 -177 -246 -177q-96 0 -161 50t-93.5 129.5t-28.5 182.5q0 76 16.5 140t49.5 114.5t88.5 79t128.5 28.5q184 0 246 -177v165h393v-32h-358v-290h308v-32h-308v-314h358zM107 350q0 -144 61 -236.5t185 -92.5q125 0 185.5 91.5t60.5 237.5 t-60.5 237.5t-185.5 91.5q-65 0 -113.5 -26.5t-76.5 -72.5t-42 -104t-14 -126z" />
<glyph unicode="&#x153;" horiz-adv-x="945" d="M102 250q0 -106 45 -167.5t134 -61.5q91 0 136 61.5t45 167.5t-45 167.5t-136 61.5q-89 0 -134 -61.5t-45 -167.5zM683 479q-82 0 -130.5 -54.5t-55.5 -145.5h348v23q0 73 -40 125t-122 52zM880 24q-75 -36 -166 -36q-177 0 -234 151q-51 -151 -199 -151 q-102 0 -159 71.5t-57 190.5t57 190.5t159 71.5q148 0 199 -151q56 151 203 151q96 0 147 -61t51 -153q0 -24 -3 -51h-381q1 -112 59 -169t158 -57q79 0 157 35z" />
<glyph unicode="&#x154;" horiz-adv-x="613" d="M257 668h-112v-324h112q111 0 168.5 38.5t57.5 125.5q0 86 -57 123t-169 37zM568 0h-46l-136 211q-37 57 -66 79t-78 22h-97v-312h-35v700h147q129 0 195.5 -45t66.5 -147q0 -88 -54 -137t-135 -52q21 -7 39.5 -25.5t47.5 -63.5zM351 900h42l-97 -130h-36z" />
<glyph unicode="&#x155;" horiz-adv-x="373" d="M105 457q89 55 210 55q15 0 38 -3l-5 -33q-15 3 -33 3q-103 0 -175 -43v-436h-35v457zM294 715h42l-97 -130h-36z" />
<glyph unicode="&#x156;" horiz-adv-x="613" d="M257 668h-112v-324h112q111 0 168.5 38.5t57.5 125.5q0 86 -57 123t-169 37zM568 0h-46l-136 211q-37 57 -66 79t-78 22h-97v-312h-35v700h147q129 0 195.5 -45t66.5 -147q0 -88 -54 -137t-135 -52q21 -7 39.5 -25.5t47.5 -63.5zM299 -60h35q-4 -76 -39 -147h-28 q27 61 32 147z" />
<glyph unicode="&#x157;" horiz-adv-x="373" d="M105 457q89 55 210 55q15 0 38 -3l-5 -33q-15 3 -33 3q-103 0 -175 -43v-436h-35v457zM110 -60h35q-4 -76 -39 -147h-28q27 61 32 147z" />
<glyph unicode="&#x158;" horiz-adv-x="613" d="M257 668h-112v-324h112q111 0 168.5 38.5t57.5 125.5q0 86 -57 123t-169 37zM568 0h-46l-136 211q-37 57 -66 79t-78 22h-97v-312h-35v700h147q129 0 195.5 -45t66.5 -147q0 -88 -54 -137t-135 -52q21 -7 39.5 -25.5t47.5 -63.5zM185 900l90 -105l90 105h40l-106 -130 h-48l-106 130h40z" />
<glyph unicode="&#x159;" horiz-adv-x="373" d="M105 457q89 55 210 55q15 0 38 -3l-5 -33q-15 3 -33 3q-103 0 -175 -43v-436h-35v457zM128 715l90 -105l90 105h40l-106 -130h-48l-106 130h40z" />
<glyph unicode="&#x15a;" horiz-adv-x="544" d="M60 24l8 35q109 -38 192 -38q90 0 141.5 37t51.5 112q0 39 -13.5 68t-44 49.5t-61 33t-81.5 27.5q-97 30 -142 72.5t-45 120.5q0 83 58 127t158 44q81 0 157 -27l-8 -31q-84 25 -146 25q-182 0 -182 -138q0 -66 39.5 -99t126.5 -60q44 -13 70 -23t58.5 -27.5t50 -38 t30 -52t12.5 -71.5q0 -50 -19.5 -86.5t-53 -56.5t-72.5 -29.5t-85 -9.5q-110 0 -200 36zM345 900h42l-97 -130h-36z" />
<glyph unicode="&#x15b;" horiz-adv-x="428" d="M348 489l-8 -31q-65 21 -122 21q-127 0 -127 -100q0 -21 8 -38t17.5 -27t30.5 -20.5t32 -14.5t37 -13q87 -28 127 -58t40 -87q0 -66 -48 -99.5t-125 -33.5q-43 0 -91 9t-69 19l9 33q80 -28 151 -28q64 0 100 26t36 74q0 43 -34.5 66.5t-111.5 47.5q-70 22 -108 53t-38 91 q0 64 43 98.5t121 34.5q77 0 130 -23zM286 715h42l-97 -130h-36z" />
<glyph unicode="&#x15c;" horiz-adv-x="544" d="M60 24l8 35q109 -38 192 -38q90 0 141.5 37t51.5 112q0 39 -13.5 68t-44 49.5t-61 33t-81.5 27.5q-97 30 -142 72.5t-45 120.5q0 83 58 127t158 44q81 0 157 -27l-8 -31q-84 25 -146 25q-182 0 -182 -138q0 -66 39.5 -99t126.5 -60q44 -13 70 -23t58.5 -27.5t50 -38 t30 -52t12.5 -71.5q0 -50 -19.5 -86.5t-53 -56.5t-72.5 -29.5t-85 -9.5q-110 0 -200 36zM360 770l-91 108l-91 -108h-39l106 130h48l106 -130h-39z" />
<glyph unicode="&#x15d;" horiz-adv-x="428" d="M348 489l-8 -31q-65 21 -122 21q-127 0 -127 -100q0 -21 8 -38t17.5 -27t30.5 -20.5t32 -14.5t37 -13q87 -28 127 -58t40 -87q0 -66 -48 -99.5t-125 -33.5q-43 0 -91 9t-69 19l9 33q80 -28 151 -28q64 0 100 26t36 74q0 43 -34.5 66.5t-111.5 47.5q-70 22 -108 53t-38 91 q0 64 43 98.5t121 34.5q77 0 130 -23zM301 585l-91 108l-91 -108h-39l106 130h48l106 -130h-39z" />
<glyph unicode="&#x15e;" horiz-adv-x="544" d="M60 24l8 35q109 -38 192 -38q90 0 141.5 37t51.5 112q0 39 -13.5 68t-44 49.5t-61 33t-81.5 27.5q-97 30 -142 72.5t-45 120.5q0 83 58 127t158 44q81 0 157 -27l-8 -31q-84 25 -146 25q-182 0 -182 -138q0 -66 39.5 -99t126.5 -60q44 -13 70 -23t58.5 -27.5t50 -38 t30 -52t12.5 -71.5q0 -62 -31 -103.5t-76 -58.5t-103 -20l-16 -47q91 -5 91 -74q0 -38 -29 -57t-77 -19q-28 0 -54 7l6 28q26 -6 48 -6q72 0 72 47q0 25 -20.5 35t-61.5 12l-9 22l18 52q-106 3 -188 36z" />
<glyph unicode="&#x15f;" horiz-adv-x="428" d="M348 489l-8 -31q-77 21 -122 21q-61 0 -94 -19.5t-33 -70.5q0 -44 26 -63.5t94 -43.5q46 -16 72 -27.5t52 -29.5t37 -42.5t11 -58.5q0 -66 -44.5 -100t-116.5 -36l-16 -47q91 -5 91 -74q0 -38 -29 -57t-77 -19q-28 0 -54 7l6 28q26 -6 48 -6q72 0 72 47q0 25 -20.5 35 t-61.5 12l-9 22l18 52q-61 2 -140 27l8 34q80 -28 152 -28q64 0 100 26t36 77q0 50 -35.5 75t-120.5 53q-71 24 -103.5 53t-32.5 84q0 123 164 123q51 0 130 -23z" />
<glyph unicode="&#x160;" horiz-adv-x="544" d="M60 24l8 35q109 -38 192 -38q90 0 141.5 37t51.5 112q0 39 -13.5 68t-44 49.5t-61 33t-81.5 27.5q-97 30 -142 72.5t-45 120.5q0 83 58 127t158 44q81 0 157 -27l-8 -31q-84 25 -146 25q-182 0 -182 -138q0 -66 39.5 -99t126.5 -60q44 -13 70 -23t58.5 -27.5t50 -38 t30 -52t12.5 -71.5q0 -50 -19.5 -86.5t-53 -56.5t-72.5 -29.5t-85 -9.5q-110 0 -200 36zM179 900l90 -105l90 105h40l-106 -130h-48l-106 130h40z" />
<glyph unicode="&#x161;" horiz-adv-x="428" d="M348 489l-8 -31q-65 21 -122 21q-127 0 -127 -100q0 -21 8 -38t17.5 -27t30.5 -20.5t32 -14.5t37 -13q87 -28 127 -58t40 -87q0 -66 -48 -99.5t-125 -33.5q-43 0 -91 9t-69 19l9 33q80 -28 151 -28q64 0 100 26t36 74q0 43 -34.5 66.5t-111.5 47.5q-70 22 -108 53t-38 91 q0 64 43 98.5t121 34.5q77 0 130 -23zM120 715l90 -105l90 105h40l-106 -130h-48l-106 130h40z" />
<glyph unicode="&#x162;" horiz-adv-x="549" d="M257 0v668h-227v32h489v-32h-227v-668h-3l-20 -59q91 -5 91 -74q0 -38 -29 -57t-77 -19q-28 0 -54 7l6 28q26 -6 48 -6q72 0 72 47q0 25 -20.5 35t-61.5 12l-9 22z" />
<glyph unicode="&#x163;" horiz-adv-x="328" d="M79 -202l6 28q26 -6 48 -6q72 0 72 47q0 25 -20.5 35t-61.5 12l-9 22l28 82q-37 35 -37 110v340h-80v32h80v123l35 4v-127h149v-32h-149v-340q0 -59 24 -83t70 -24q33 0 66 10l3 -32q-35 -11 -68 -11q-38 0 -67 13l-20 -60q91 -5 91 -74q0 -38 -29 -57t-77 -19 q-28 0 -54 7z" />
<glyph unicode="&#x164;" horiz-adv-x="549" d="M257 0v668h-227v32h489v-32h-227v-668h-35zM184 900l90 -105l90 105h40l-106 -130h-48l-106 130h40z" />
<glyph unicode="&#x165;" horiz-adv-x="328" d="M303 -1q-35 -11 -68 -11q-130 0 -130 140v340h-80v32h80v123l35 4v-127h149v-32h-149v-340q0 -59 24 -83t70 -24q33 0 66 10zM236 729h35q-6 -88 -48 -167h-28q32 68 41 167z" />
<glyph unicode="&#x166;" horiz-adv-x="549" d="M257 0v358h-147v32h147v278h-227v32h489v-32h-227v-278h147v-32h-147v-358h-35z" />
<glyph unicode="&#x167;" horiz-adv-x="328" d="M289 500v-32h-149v-138h149v-32h-149v-152q0 -69 23 -96.5t73 -27.5q31 0 64 10l3 -33q-35 -11 -72 -11q-60 0 -93 36t-33 122v152h-80v32h80v138h-80v32h80v123l35 4v-127h149z" />
<glyph unicode="&#x168;" horiz-adv-x="700" d="M105 265v435h35v-435q0 -126 51.5 -185t158.5 -59t158.5 59t51.5 185v435h35v-435q0 -145 -60 -211t-185 -66t-185 66t-60 211zM421 816q16 0 24.5 9.5t11 21.5t3.5 36h32q-1 -21 -3.5 -36t-9.5 -30.5t-21.5 -24t-35.5 -8.5q-31 0 -73.5 30t-65.5 30q-24 0 -33 -14.5 t-11 -43.5h-32q3 90 75 90q31 0 76 -30t63 -30z" />
<glyph unicode="&#x169;" horiz-adv-x="574" d="M474 42q-103 -54 -209 -54q-86 0 -128 43t-42 119v350h35v-348q0 -61 32.5 -96t101.5 -35q97 0 175 42v437h35v-458zM363 631q16 0 24.5 9.5t11 21.5t3.5 36h32q-1 -21 -3.5 -36t-9.5 -30.5t-21.5 -24t-35.5 -8.5q-31 0 -73.5 30t-65.5 30q-24 0 -33 -14.5t-11 -43.5h-32 q3 90 75 90q31 0 76 -30t63 -30z" />
<glyph unicode="&#x16a;" horiz-adv-x="700" d="M105 265v435h35v-435q0 -126 51.5 -185t158.5 -59t158.5 59t51.5 185v435h35v-435q0 -145 -60 -211t-185 -66t-185 66t-60 211zM227 809v32h246v-32h-246z" />
<glyph unicode="&#x16b;" horiz-adv-x="574" d="M474 42q-103 -54 -209 -54q-86 0 -128 43t-42 119v350h35v-348q0 -61 32.5 -96t101.5 -35q97 0 175 42v437h35v-458zM169 624v32h246v-32h-246z" />
<glyph unicode="&#x16c;" horiz-adv-x="700" d="M105 265v435h35v-435q0 -126 51.5 -185t158.5 -59t158.5 59t51.5 185v435h35v-435q0 -145 -60 -211t-185 -66t-185 66t-60 211zM480 886q-4 -53 -38.5 -81.5t-91.5 -28.5t-91.5 28.5t-38.5 81.5h32q10 -77 98 -77t98 77h32z" />
<glyph unicode="&#x16d;" horiz-adv-x="574" d="M474 42q-103 -54 -209 -54q-86 0 -128 43t-42 119v350h35v-348q0 -61 32.5 -96t101.5 -35q97 0 175 42v437h35v-458zM422 701q-4 -53 -38.5 -81.5t-91.5 -28.5t-91.5 28.5t-38.5 81.5h32q10 -77 98 -77t98 77h32z" />
<glyph unicode="&#x16e;" horiz-adv-x="700" d="M105 265v435h35v-435q0 -126 51.5 -185t158.5 -59t158.5 59t51.5 185v435h35v-435q0 -145 -60 -211t-185 -66t-185 66t-60 211zM258 845q0 39 26.5 65t65.5 26t65.5 -26t26.5 -65q0 -41 -26 -66.5t-66 -25.5t-66 25.5t-26 66.5zM411 845q0 27 -16 44.5t-45 17.5 t-45 -17.5t-16 -44.5q0 -26 16 -45t45 -19t45 19t16 45z" />
<glyph unicode="&#x16f;" horiz-adv-x="574" d="M474 42q-103 -54 -209 -54q-86 0 -128 43t-42 119v350h35v-348q0 -61 32.5 -96t101.5 -35q97 0 175 42v437h35v-458zM200 660q0 39 26.5 65t65.5 26t65.5 -26t26.5 -65q0 -41 -26 -66.5t-66 -25.5t-66 25.5t-26 66.5zM353 660q0 27 -16 44.5t-45 17.5t-45 -17.5 t-16 -44.5q0 -26 16 -45t45 -19t45 19t16 45z" />
<glyph unicode="&#x170;" horiz-adv-x="700" d="M105 265v435h35v-435q0 -126 51.5 -185t158.5 -59t158.5 59t51.5 185v435h35v-435q0 -145 -60 -211t-185 -66t-185 66t-60 211zM479 900h42l-96 -130h-37zM349 900h42l-96 -130h-37z" />
<glyph unicode="&#x171;" horiz-adv-x="574" d="M474 42q-103 -54 -209 -54q-86 0 -128 43t-42 119v350h35v-348q0 -61 32.5 -96t101.5 -35q97 0 175 42v437h35v-458zM421 715h42l-96 -130h-37zM291 715h42l-96 -130h-37z" />
<glyph unicode="&#x172;" horiz-adv-x="700" d="M105 265v435h35v-435q0 -126 51.5 -185t158.5 -59t158.5 59t51.5 185v435h35v-435q0 -123 -43 -188.5t-131 -82.5q-49 -32 -73.5 -55.5t-24.5 -48.5q0 -48 60 -48q29 0 53 11l8 -28q-33 -14 -68 -14q-37 0 -62 18.5t-25 53.5q0 53 81 105h-20q-125 0 -185 66t-60 211z " />
<glyph unicode="&#x173;" horiz-adv-x="574" d="M474 42q-36 -33 -54.5 -52t-35.5 -47t-17 -53q0 -48 60 -48q29 0 53 11l8 -28q-33 -14 -68 -14q-37 0 -62 18.5t-25 53.5q0 63 68 127q-64 -22 -136 -22q-86 0 -128 43t-42 119v350h35v-348q0 -61 32.5 -96t101.5 -35q97 0 175 42v437h35v-458z" />
<glyph unicode="&#x174;" horiz-adv-x="952" d="M685 32q132 327 196 668h36q-75 -364 -213 -700h-38q-68 160 -110 306.5t-80 341.5q-38 -195 -80 -341.5t-110 -306.5h-38q-74 177 -122 335t-91 365h36q72 -360 196 -668q124 320 188 668h42q64 -348 188 -668zM567 770l-91 108l-91 -108h-39l106 130h48l106 -130h-39z " />
<glyph unicode="&#x175;" horiz-adv-x="782" d="M390 500q35 -221 156 -465q64 131 102 238.5t54 226.5h35q-34 -226 -173 -500h-37q-94 187 -137 337q-45 -161 -135 -337h-38q-68 135 -110 252.5t-62 247.5h35q34 -217 156 -465q99 198 137 368q-10 44 -18 97h35zM469 585l-91 108l-91 -108h-39l106 130h48l106 -130 h-39z" />
<glyph unicode="&#x176;" d="M264 0v305q-159 200 -244 395h39q42 -98 94 -181.5t130 -184.5q142 182 222 366h38q-93 -206 -244 -395v-305h-35zM373 770l-91 108l-91 -108h-39l106 130h48l106 -130h-39z" />
<glyph unicode="&#x177;" horiz-adv-x="504" d="M277 0q-82 -146 -215 -183l-10 32q60 16 105 52.5t84 101.5q-151 239 -194 497h35q39 -225 179 -465q134 243 173 465h35q-22 -131 -68.5 -247.5t-123.5 -252.5zM352 585l-91 108l-91 -108h-39l106 130h48l106 -130h-39z" />
<glyph unicode="&#x178;" d="M264 0v305q-159 200 -244 395h39q42 -98 94 -181.5t130 -184.5q142 182 222 366h38q-93 -206 -244 -395v-305h-35zM237 835q0 -14 -8 -23t-22 -9q-15 0 -23 9t-8 23q0 13 8 22t23 9q14 0 22 -9t8 -22zM387 835q0 -13 -7.5 -22.5t-21.5 -9.5q-32 0 -32 32q0 13 8 22t24 9 q14 0 21.5 -9t7.5 -22z" />
<glyph unicode="&#x179;" horiz-adv-x="554" d="M495 673q-77 -170 -169.5 -312t-237.5 -329h421v-32h-464v27q296 387 414 641h-404v32h440v-27zM348 900h42l-97 -130h-36z" />
<glyph unicode="&#x17a;" horiz-adv-x="454" d="M55 500h355v-27q-119 -208 -329 -441h343v-32h-389v27q215 235 334 441h-314v32zM306 715h42l-97 -130h-36z" />
<glyph unicode="&#x17b;" horiz-adv-x="554" d="M495 673q-77 -170 -169.5 -312t-237.5 -329h421v-32h-464v27q296 387 414 641h-404v32h440v-27zM241 835q0 13 8.5 22t22.5 9t22 -9t8 -22t-8 -22.5t-22 -9.5t-22.5 9.5t-8.5 22.5z" />
<glyph unicode="&#x17c;" horiz-adv-x="454" d="M55 500h355v-27q-119 -208 -329 -441h343v-32h-389v27q215 235 334 441h-314v32zM199 650q0 13 8.5 22t22.5 9t22 -9t8 -22t-8 -22.5t-22 -9.5t-22.5 9.5t-8.5 22.5z" />
<glyph unicode="&#x17d;" horiz-adv-x="554" d="M495 673q-77 -170 -169.5 -312t-237.5 -329h421v-32h-464v27q296 387 414 641h-404v32h440v-27zM182 900l90 -105l90 105h40l-106 -130h-48l-106 130h40z" />
<glyph unicode="&#x17e;" horiz-adv-x="454" d="M55 500h355v-27q-119 -208 -329 -441h343v-32h-389v27q215 235 334 441h-314v32zM140 715l90 -105l90 105h40l-106 -130h-48l-106 130h40z" />
<glyph unicode="&#x192;" horiz-adv-x="398" d="M79 500h80v76q0 155 129 155q33 0 70 -11l-9 -31q-38 9 -61 9q-52 0 -73 -31t-21 -91v-76h147v-32h-147v-506q0 -155 -129 -155q-33 0 -70 11l9 31q38 -9 61 -9q52 0 73 31t21 91v506h-80v32z" />
<glyph unicode="&#x218;" horiz-adv-x="544" d="M60 24l8 35q109 -38 192 -38q90 0 141.5 37t51.5 112q0 39 -13.5 68t-44 49.5t-61 33t-81.5 27.5q-97 30 -142 72.5t-45 120.5q0 83 58 127t158 44q81 0 157 -27l-8 -31q-84 25 -146 25q-182 0 -182 -138q0 -66 39.5 -99t126.5 -60q44 -13 70 -23t58.5 -27.5t50 -38 t30 -52t12.5 -71.5q0 -50 -19.5 -86.5t-53 -56.5t-72.5 -29.5t-85 -9.5q-110 0 -200 36zM268 -60h35q-4 -76 -39 -147h-28q27 61 32 147z" />
<glyph unicode="&#x219;" horiz-adv-x="428" d="M348 489l-8 -31q-65 21 -122 21q-127 0 -127 -100q0 -21 8 -38t17.5 -27t30.5 -20.5t32 -14.5t37 -13q87 -28 127 -58t40 -87q0 -66 -48 -99.5t-125 -33.5q-43 0 -91 9t-69 19l9 33q80 -28 151 -28q64 0 100 26t36 74q0 43 -34.5 66.5t-111.5 47.5q-70 22 -108 53t-38 91 q0 64 43 98.5t121 34.5q77 0 130 -23zM210 -60h35q-4 -76 -39 -147h-28q27 61 32 147z" />
<glyph unicode="&#x21a;" horiz-adv-x="549" d="M257 0v668h-227v32h489v-32h-227v-668h-35zM258 -60h35q-4 -76 -39 -147h-28q27 61 32 147z" />
<glyph unicode="&#x21b;" horiz-adv-x="328" d="M303 -1q-35 -11 -68 -11q-130 0 -130 140v340h-80v32h80v123l35 4v-127h149v-32h-149v-340q0 -59 24 -83t70 -24q33 0 66 10zM152 -60h35q-4 -76 -39 -147h-28q27 61 32 147z" />
<glyph unicode="&#x237;" horiz-adv-x="245" d="M33 -155q40 20 56 44t16 72v539h35v-539q0 -58 -22 -91.5t-72 -54.5z" />
<glyph unicode="&#x2c6;" horiz-adv-x="500" d="M341 570l-91 108l-91 -108h-39l106 130h48l106 -130h-39z" />
<glyph unicode="&#x2c7;" horiz-adv-x="500" d="M150 700l90 -105l90 105h40l-106 -130h-48l-106 130h40z" />
<glyph unicode="&#x2d8;" horiz-adv-x="500" d="M380 686q-4 -53 -38.5 -81.5t-91.5 -28.5t-91.5 28.5t-38.5 81.5h32q10 -77 98 -77t98 77h32z" />
<glyph unicode="&#x2d9;" horiz-adv-x="500" d="M218 635q0 13 8.5 22t22.5 9t22 -9t8 -22t-8 -22.5t-22 -9.5t-22.5 9.5t-8.5 22.5z" />
<glyph unicode="&#x2da;" horiz-adv-x="500" d="M157 645q0 39 26.5 65t65.5 26t65.5 -26t26.5 -65q0 -41 -26 -66.5t-66 -25.5t-66 25.5t-26 66.5zM310 645q0 27 -16 44.5t-45 17.5t-45 -17.5t-16 -44.5q0 -26 16 -45t45 -19t45 19t16 45z" />
<glyph unicode="&#x2db;" horiz-adv-x="500" d="M285 -175q-33 -14 -68 -14q-37 0 -62 18.5t-25 53.5q0 58 106 121l35 -4q-38 -25 -55.5 -38t-34.5 -33.5t-17 -38.5q0 -48 60 -48q29 0 53 11z" />
<glyph unicode="&#x2dc;" horiz-adv-x="500" d="M319 616q16 0 24.5 9.5t11 21.5t3.5 36h32q-1 -21 -3.5 -36t-9.5 -30.5t-21.5 -24t-35.5 -8.5q-31 0 -73.5 30t-65.5 30q-24 0 -33 -14.5t-11 -43.5h-32q3 90 75 90q31 0 76 -30t63 -30z" />
<glyph unicode="&#x2dd;" horiz-adv-x="500" d="M336 700h42l-96 -130h-37zM206 700h42l-96 -130h-37z" />
<glyph unicode="&#x326;" horiz-adv-x="0" d="M-16 -60h35q-4 -76 -39 -147h-28q27 61 32 147z" />
<glyph unicode="&#x3c0;" horiz-adv-x="640" d="M605 -2q-31 -10 -69 -10q-116 0 -116 158v322h-234v-468h-35v468h-126v32h574v-32h-144v-322q0 -69 20.5 -96.5t61.5 -27.5q35 0 65 9z" />
<glyph unicode="&#x1e80;" horiz-adv-x="952" d="M685 32q132 327 196 668h36q-75 -364 -213 -700h-38q-68 160 -110 306.5t-80 341.5q-38 -195 -80 -341.5t-110 -306.5h-38q-74 177 -122 335t-91 365h36q72 -360 196 -668q124 320 188 668h42q64 -348 188 -668zM461 770l-97 130h42l91 -130h-36z" />
<glyph unicode="&#x1e81;" horiz-adv-x="782" d="M390 500q35 -221 156 -465q64 131 102 238.5t54 226.5h35q-34 -226 -173 -500h-37q-94 187 -137 337q-45 -161 -135 -337h-38q-68 135 -110 252.5t-62 247.5h35q34 -217 156 -465q99 198 137 368q-10 44 -18 97h35zM363 585l-97 130h42l91 -130h-36z" />
<glyph unicode="&#x1e82;" horiz-adv-x="952" d="M685 32q132 327 196 668h36q-75 -364 -213 -700h-38q-68 160 -110 306.5t-80 341.5q-38 -195 -80 -341.5t-110 -306.5h-38q-74 177 -122 335t-91 365h36q72 -360 196 -668q124 320 188 668h42q64 -348 188 -668zM552 900h42l-97 -130h-36z" />
<glyph unicode="&#x1e83;" horiz-adv-x="782" d="M390 500q35 -221 156 -465q64 131 102 238.5t54 226.5h35q-34 -226 -173 -500h-37q-94 187 -137 337q-45 -161 -135 -337h-38q-68 135 -110 252.5t-62 247.5h35q34 -217 156 -465q99 198 137 368q-10 44 -18 97h35zM454 715h42l-97 -130h-36z" />
<glyph unicode="&#x1e84;" horiz-adv-x="952" d="M685 32q132 327 196 668h36q-75 -364 -213 -700h-38q-68 160 -110 306.5t-80 341.5q-38 -195 -80 -341.5t-110 -306.5h-38q-74 177 -122 335t-91 365h36q72 -360 196 -668q124 320 188 668h42q64 -348 188 -668zM431 835q0 -14 -8 -23t-22 -9q-15 0 -23 9t-8 23 q0 13 8 22t23 9q14 0 22 -9t8 -22zM581 835q0 -13 -7.5 -22.5t-21.5 -9.5q-32 0 -32 32q0 13 8 22t24 9q14 0 21.5 -9t7.5 -22z" />
<glyph unicode="&#x1e85;" horiz-adv-x="782" d="M390 500q35 -221 156 -465q64 131 102 238.5t54 226.5h35q-34 -226 -173 -500h-37q-94 187 -137 337q-45 -161 -135 -337h-38q-68 135 -110 252.5t-62 247.5h35q34 -217 156 -465q99 198 137 368q-10 44 -18 97h35zM333 650q0 -14 -8 -23t-22 -9q-15 0 -23 9t-8 23 q0 13 8 22t23 9q14 0 22 -9t8 -22zM483 650q0 -13 -7.5 -22.5t-21.5 -9.5q-32 0 -32 32q0 13 8 22t24 9q14 0 21.5 -9t7.5 -22z" />
<glyph unicode="&#x1ef2;" d="M264 0v305q-159 200 -244 395h39q42 -98 94 -181.5t130 -184.5q142 182 222 366h38q-93 -206 -244 -395v-305h-35zM267 770l-97 130h42l91 -130h-36z" />
<glyph unicode="&#x1ef3;" horiz-adv-x="504" d="M277 0q-82 -146 -215 -183l-10 32q60 16 105 52.5t84 101.5q-151 239 -194 497h35q39 -225 179 -465q134 243 173 465h35q-22 -131 -68.5 -247.5t-123.5 -252.5zM246 585l-97 130h42l91 -130h-36z" />
<glyph unicode="&#x2000;" horiz-adv-x="470" />
<glyph unicode="&#x2001;" horiz-adv-x="940" />
<glyph unicode="&#x2002;" horiz-adv-x="470" />
<glyph unicode="&#x2003;" horiz-adv-x="940" />
<glyph unicode="&#x2004;" horiz-adv-x="313" />
<glyph unicode="&#x2005;" horiz-adv-x="235" />
<glyph unicode="&#x2006;" horiz-adv-x="156" />
<glyph unicode="&#x2007;" horiz-adv-x="156" />
<glyph unicode="&#x2008;" horiz-adv-x="117" />
<glyph unicode="&#x2009;" horiz-adv-x="188" />
<glyph unicode="&#x200a;" horiz-adv-x="52" />
<glyph unicode="&#x2010;" horiz-adv-x="306" d="M40 296v32h226v-32h-226z" />
<glyph unicode="&#x2011;" horiz-adv-x="306" d="M40 296v32h226v-32h-226z" />
<glyph unicode="&#x2012;" horiz-adv-x="306" d="M40 296v32h226v-32h-226z" />
<glyph unicode="&#x2013;" horiz-adv-x="500" d="M40 296v32h420v-32h-420z" />
<glyph unicode="&#x2014;" horiz-adv-x="1000" d="M40 296v32h920v-32h-920z" />
<glyph unicode="&#x2018;" horiz-adv-x="170" d="M91 523h-35q8 105 58 197h28q-41 -83 -51 -197z" />
<glyph unicode="&#x2019;" horiz-adv-x="170" d="M95 720h35q-8 -105 -58 -197h-28q41 83 51 197z" />
<glyph unicode="&#x201a;" horiz-adv-x="170" d="M79 70h35q-8 -105 -58 -197h-28q41 83 51 197z" />
<glyph unicode="&#x201c;" horiz-adv-x="320" d="M241 523h-35q8 105 58 197h28q-41 -83 -51 -197zM91 523h-35q8 105 58 197h28q-41 -83 -51 -197z" />
<glyph unicode="&#x201d;" horiz-adv-x="320" d="M95 720h35q-8 -105 -58 -197h-28q41 83 51 197zM245 720h35q-8 -105 -58 -197h-28q41 83 51 197z" />
<glyph unicode="&#x201e;" horiz-adv-x="320" d="M79 70h35q-8 -105 -58 -197h-28q41 83 51 197zM229 70h35q-8 -105 -58 -197h-28q41 83 51 197z" />
<glyph unicode="&#x2020;" horiz-adv-x="555" d="M60 441v32q71 0 203 -2q-3 174 -3 183q0 29 2 87h31q2 -58 2 -87q0 -9 -3 -183q132 2 203 2v-32q-137 0 -203 2q3 -183 3 -185v-458h-35v458q0 2 3 185q-66 -2 -203 -2z" />
<glyph unicode="&#x2021;" horiz-adv-x="555" d="M60 441v32q71 0 203 -2q-3 174 -3 183q0 29 2 87h31q2 -58 2 -87q0 -9 -3 -183q132 2 203 2v-32q-137 0 -203 2q0 -20 1 -52.5t1.5 -60.5t0.5 -59t-0.5 -59.5t-1.5 -60.5t-1 -53q66 2 203 2v-32q-71 0 -203 2q3 -174 3 -183q0 -32 -2 -90h-31q-2 58 -2 90q0 9 3 183 q-132 -2 -203 -2v32q137 0 203 -2q0 20 -1 52.5t-1.5 61t-0.5 59.5t0.5 59t1.5 60.5t1 52.5q-66 -2 -203 -2z" />
<glyph unicode="&#x2022;" horiz-adv-x="226" d="M176 351q0 -29 -16.5 -47.5t-45.5 -18.5q-30 0 -47 18.5t-17 47.5q0 27 17 45.5t47 18.5q28 0 45 -18.5t17 -45.5z" />
<glyph unicode="&#x2026;" horiz-adv-x="603" d="M60 25q0 13 8.5 22t22.5 9t22 -9t8 -22t-8 -22.5t-22 -9.5t-22.5 9.5t-8.5 22.5zM271 25q0 13 8.5 22t22.5 9t22 -9t8 -22t-8 -22.5t-22 -9.5t-22.5 9.5t-8.5 22.5zM482 25q0 13 8.5 22t22.5 9t22 -9t8 -22t-8 -22.5t-22 -9.5t-22.5 9.5t-8.5 22.5z" />
<glyph unicode="&#x202f;" horiz-adv-x="188" />
<glyph unicode="&#x2030;" horiz-adv-x="1160" d="M342 519q0 -75 -39 -120t-105 -45q-64 0 -103.5 45.5t-39.5 119.5q0 73 39.5 118.5t103.5 45.5q65 0 104.5 -45.5t39.5 -118.5zM91 519q0 -62 27.5 -97.5t79.5 -35.5q54 0 81 35.5t27 97.5q0 61 -27 96.5t-81 35.5q-52 0 -79.5 -36t-27.5 -96zM549 671h35l-322 -671h-35z M755 153q0 -75 -39 -120t-105 -45q-64 0 -103.5 45.5t-39.5 119.5q0 73 39.5 118.5t103.5 45.5q65 0 104.5 -45.5t39.5 -118.5zM504 153q0 -62 27.5 -97.5t79.5 -35.5q54 0 81 35.5t27 97.5q0 61 -27 96.5t-81 35.5q-52 0 -79.5 -36t-27.5 -96zM1105 153q0 -75 -39 -120 t-105 -45q-64 0 -103.5 45.5t-39.5 119.5q0 73 39.5 118.5t103.5 45.5q65 0 104.5 -45.5t39.5 -118.5zM854 153q0 -62 27.5 -97.5t79.5 -35.5q54 0 81 35.5t27 97.5q0 61 -27 96.5t-81 35.5q-52 0 -79.5 -36t-27.5 -96z" />
<glyph unicode="&#x2039;" horiz-adv-x="313" d="M222 64q-86 74 -197 200q100 114 197 200h46q-113 -104 -197 -200q84 -96 197 -200h-46z" />
<glyph unicode="&#x203a;" horiz-adv-x="313" d="M91 64h-46q113 104 197 200q-84 96 -197 200h46q97 -86 197 -200q-111 -126 -197 -200z" />
<glyph unicode="&#x2044;" horiz-adv-x="104" d="M227 700h37l-387 -700h-37z" />
<glyph unicode="&#x205f;" horiz-adv-x="235" />
<glyph unicode="&#x2070;" horiz-adv-x="310" d="M290 536q0 -85 -35.5 -131t-99.5 -46q-63 0 -99 46t-36 131q0 84 36.5 130t98.5 46q63 0 99 -46t36 -130zM55 536q0 -145 100 -145t100 145q0 144 -100 144t-100 -144z" />
<glyph unicode="&#x2074;" horiz-adv-x="310" d="M20 435v27q74 129 178 242h33v-239h55v-30h-55v-68h-33v68h-178zM198 563q0 54 3 108q-92 -116 -148 -206h145v98z" />
<glyph unicode="&#x20ac;" horiz-adv-x="615" d="M428 -12q-124 0 -198.5 69t-93.5 191h-101v32h97q-3 27 -3 57q0 31 3 60h-97v32h101q19 120 90 187t190 67q65 0 134 -24l-9 -31q-61 22 -125 22q-102 0 -162.5 -59t-79.5 -162h290l-4 -32h-291q-3 -29 -3 -60q0 -30 3 -57h283l-4 -32h-274q19 -105 83.5 -166t170.5 -61 q60 0 124 19l8 -31q-65 -21 -132 -21z" />
<glyph unicode="&#x20b9;" horiz-adv-x="539" d="M60 287v32h71q110 0 163.5 37.5t53.5 125.5v2h-288v32h287q-4 48 -27 123h-260v32h429v-32h-134q23 -70 27 -123h107v-32h-106v-2q0 -195 -251 -195h-27l256 -287h-46z" />
<glyph unicode="&#x2113;" horiz-adv-x="497" d="M45 79l-15 28l100 59q-19 73 -19 172q0 180 52 277t143 97q60 0 95.5 -44t35.5 -125q0 -127 -64 -216t-200 -172l-3 -2q41 -132 155 -132q57 0 103 20v-35q-47 -18 -103 -18q-134 0 -186 147zM147 337q0 -85 14 -152q125 75 182.5 156.5t57.5 197.5q0 73 -26.5 107 t-68.5 34q-81 0 -120 -93.5t-39 -249.5z" />
<glyph unicode="&#x2122;" horiz-adv-x="722" d="M135 366v304h-120v30h273v-30h-120v-304h-33zM333 700h38q41 -98 134 -253q76 126 129 253h38v-334h-32v223l2 58q-56 -129 -120 -231h-31q-83 134 -128 232l2 -59v-223h-32v334z" />
<glyph unicode="&#x2126;" horiz-adv-x="706" d="M75 0v32h131q-67 45 -101.5 128t-34.5 190q0 76 16.5 140t49.5 114.5t88.5 79t128.5 28.5q96 0 161 -50t93.5 -129.5t28.5 -182.5q0 -226 -135 -318h130v-32h-207v29q85 18 130 109t45 212q0 68 -14 126t-42.5 104t-77 72.5t-112.5 26.5q-65 0 -113.5 -26.5t-76.5 -72.5 t-42 -104t-14 -126q0 -121 45 -212t130 -109v-29h-207z" />
<glyph unicode="&#x212e;" horiz-adv-x="707" d="M550 276v151q0 11 -8 19q-76 78 -185 78q-112 0 -187 -81q-8 -6 -8 -19v-148q0 -4 4 -4h381q3 0 3 4zM662 257h-496q-4 0 -4 -3v-150q0 -10 7 -18q77 -80 188 -80q120 0 197 90h44q-94 -107 -242 -107q-127 0 -216.5 80.5t-89.5 194.5t89.5 195.5t216.5 81.5t216.5 -81.5 t89.5 -195.5v-7z" />
<glyph unicode="&#x2202;" horiz-adv-x="550" d="M226 -12q-86 0 -131 51.5t-45 140.5q0 138 75 235t193 97q79 0 133 -59q-28 80 -88.5 147t-142.5 103l51 3q94 -42 159 -135.5t65 -211.5q0 -170 -72 -270.5t-197 -100.5zM86 181q0 -76 36.5 -118t109.5 -42q71 0 124 43.5t78 110.5t25 145q0 159 -147 159 q-103 0 -164.5 -89t-61.5 -209z" />
<glyph unicode="&#x2206;" horiz-adv-x="584" d="M20 0v30l254 670h36l254 -670v-30h-544zM529 32l-237 632l-237 -632h474z" />
<glyph unicode="&#x220f;" horiz-adv-x="707" d="M667 668h-100v-798h-35v798h-357v-798h-35v798h-100v32h627v-32z" />
<glyph unicode="&#x2211;" horiz-adv-x="547" d="M517 -130h-487v30l299 385l-279 385v30h447v-32h-405l268 -365v-36l-288 -365h445v-32z" />
<glyph unicode="&#x2212;" horiz-adv-x="491" d="M35 327v32h421v-32h-421z" />
<glyph unicode="&#x2215;" horiz-adv-x="104" d="M227 700h37l-387 -700h-37z" />
<glyph unicode="&#x221a;" horiz-adv-x="499" d="M197 0l-98 269h-69v32h92l93 -265l220 664h34l-236 -700h-36z" />
<glyph unicode="&#x221e;" horiz-adv-x="773" d="M40 328q0 72 44.5 117t112.5 45q33 0 61 -10t52.5 -32.5t40.5 -41t40 -51.5q31 44 51.5 68t57.5 45.5t79 21.5q64 0 109 -45.5t45 -116.5q0 -73 -44 -118.5t-106 -45.5q-33 0 -60.5 10t-52.5 32.5t-41 41.5t-40 53q-52 -72 -97 -104.5t-100 -32.5q-63 0 -107.5 43.5 t-44.5 120.5zM196 458q-55 0 -88 -36.5t-33 -95.5t33.5 -94.5t83.5 -35.5q30 0 55 9.5t48 31.5t37.5 39.5t38.5 50.5q-25 34 -38.5 50.5t-37 39t-47.5 32t-52 9.5zM408 329q25 -36 37.5 -51t36 -39t48 -33.5t53.5 -9.5q51 0 83 35.5t32 94.5q0 61 -33 96.5t-87 35.5 q-35 0 -67.5 -20t-52 -42.5t-50.5 -66.5z" />
<glyph unicode="&#x222b;" horiz-adv-x="403" d="M374 689q-38 9 -61 9q-52 0 -73 -31t-21 -91v-613q0 -155 -129 -155q-33 0 -70 11l9 31q38 -9 61 -9q52 0 73 31t21 91v613q0 155 129 155q33 0 70 -11z" />
<glyph unicode="&#x2248;" horiz-adv-x="491" d="M457 455q-20 -41 -47 -64.5t-71 -23.5q-42 0 -96 29t-86 29q-67 0 -95 -68l-28 12q15 42 47.5 65.5t75.5 23.5q42 0 96 -29t86 -29q56 0 91 68zM457 315q-20 -41 -47 -64.5t-71 -23.5q-42 0 -96 29t-86 29q-67 0 -95 -68l-28 12q15 42 47.5 65.5t75.5 23.5q42 0 96 -29 t86 -29q56 0 91 68z" />
<glyph unicode="&#x2260;" horiz-adv-x="491" d="M349 580h34l-67 -132h140v-32h-156l-75 -147h231v-32h-247l-67 -132h-34l67 132h-140v32h156l75 147h-231v32h247z" />
<glyph unicode="&#x2264;" horiz-adv-x="491" d="M35 35v32h421v-32h-421zM456 168l-421 168v38l421 169v-38l-381 -150l381 -149v-38z" />
<glyph unicode="&#x2265;" horiz-adv-x="491" d="M456 35h-421v32h421v-32zM35 168v38l381 149l-381 150v38l421 -169v-38z" />
<glyph unicode="&#x25ca;" horiz-adv-x="477" d="M238 31l172 260l-172 262l-172 -262zM220 0l-195 290l195 295h36l196 -295l-196 -290h-36z" />
<glyph unicode="&#x25fc;" horiz-adv-x="500" d="M0 500h500v-500h-500v500z" />
<glyph horiz-adv-x="1739" d="M110 0v700h216v-700h-216zM371 496v204h216v-204h-216zM631 0v700h217v-700h-217zM892 496v204h216v-204h-216zM1152 0v700h217v-700h-217zM1413 496v204h216v-204h-216zM1413 247v205h216v-205h-216z" />
<glyph horiz-adv-x="500" d="M148 709h35q-6 -88 -48 -167h-28q32 68 41 167z" />
<glyph horiz-adv-x="0" d="M17 570h-35q7 82 43 137h28q-26 -45 -36 -137z" />
</font>
</defs>
</svg>
