<?xml version="1.0" standalone="no"?>
<!DOCTYPE svg PUBLIC "-//W3C//DTD SVG 1.1//EN" "http://www.w3.org/Graphics/SVG/1.1/DTD/svg11.dtd" >
<svg xmlns="http://www.w3.org/2000/svg">
<metadata></metadata>
<defs>
<font id="diodrumlight" horiz-adv-x="500" >
<font-face units-per-em="1000" ascent="750" descent="-250" />
<missing-glyph horiz-adv-x="257" />
<glyph unicode="fi" horiz-adv-x="534" d="M29 501h78v70q0 160 135 160q34 0 72 -11l-10 -40q-38 9 -59 9q-50 0 -70.5 -30t-20.5 -88v-70h280v-501h-48v460h-232v-460h-47v460h-78v41zM374 657q0 15 10 25.5t27 10.5q16 0 26 -10.5t10 -25.5q0 -16 -10 -26.5t-26 -10.5q-17 0 -27 10.5t-10 26.5z" />
<glyph unicode="fl" horiz-adv-x="571" d="M29 501h78v74q0 77 39 116.5t127 39.5q66 0 161 -25v-577q0 -52 15.5 -75.5t55.5 -23.5q13 0 28 3l5 -40q-17 -5 -37 -5q-115 0 -115 140v547q-56 14 -110 14q-67 0 -94.5 -28t-27.5 -85v-75h142v-41h-142v-460h-47v460h-78v41z" />
<glyph unicode=" "  horiz-adv-x="257" />
<glyph unicode="&#x09;" horiz-adv-x="257" />
<glyph unicode="&#xa0;" horiz-adv-x="257" />
<glyph unicode="!" horiz-adv-x="282" d="M167 700v-261q0 -103 -8 -212h-37q-7 96 -7 213v260h52zM176 30q0 -15 -9.5 -25.5t-24.5 -10.5q-16 0 -25.5 10.5t-9.5 25.5t9.5 25t25.5 10q15 0 24.5 -10t9.5 -25z" />
<glyph unicode="&#x22;" horiz-adv-x="310" d="M211 488q-4 108 -4 212h45q0 -104 -4 -212h-37zM62 488q-4 108 -4 212h45q0 -90 -3 -212h-38z" />
<glyph unicode="#" horiz-adv-x="628" d="M342 0l43 194h-209l-43 -194h-42l43 194h-104v40h113l46 204h-104v40h113l43 193h42l-43 -193h209l43 193h42l-43 -193h107v-40h-116l-46 -204h107v-40h-116l-43 -194h-42zM394 234l46 204h-209l-46 -204h209z" />
<glyph unicode="$" horiz-adv-x="534" d="M425 657l-9 -41q-78 23 -150 23q-73 0 -113.5 -32t-40.5 -93q0 -60 36 -88.5t121 -57.5q52 -17 82.5 -29.5t64.5 -35.5t49.5 -56.5t15.5 -79.5q0 -89 -54.5 -130.5t-139.5 -47.5v-113h-46v112q-101 4 -177 37l11 41q96 -35 182 -35q175 0 175 135q0 29 -10.5 52.5 t-23.5 37.5t-43 28.5t-49.5 21.5t-62.5 21q-93 30 -136 69.5t-43 117.5q0 77 50.5 120t130.5 48v102h46v-102q67 -3 134 -25z" />
<glyph unicode="%" horiz-adv-x="817" d="M345 518q0 -75 -40 -120.5t-107 -45.5q-65 0 -105 45.5t-40 120.5q0 74 40 119.5t105 45.5q67 0 107 -45.5t40 -119.5zM97 518q0 -59 26 -93t75 -34q51 0 76.5 33.5t25.5 93.5q0 58 -25.5 92t-76.5 34q-49 0 -75 -34t-26 -92zM550 671h44l-327 -671h-43zM764 154 q0 -75 -39.5 -120.5t-106.5 -45.5q-66 0 -106 45.5t-40 120.5q0 74 40 119.5t106 45.5t106 -45.5t40 -119.5zM516 154q0 -59 26 -93t76 -34q51 0 76.5 34t25.5 93q0 58 -25.5 92t-76.5 34q-50 0 -76 -34t-26 -92z" />
<glyph unicode="&#x26;" horiz-adv-x="692" d="M202 551q0 -77 73 -160q85 29 130.5 69t45.5 101q0 47 -33 78t-93 31q-54 0 -88.5 -32t-34.5 -87zM612 0l-99 95q-89 -107 -235 -107q-101 0 -160.5 53t-59.5 141q0 138 171 195q-75 90 -75 174q0 74 48 117.5t124 43.5q77 0 124.5 -41t47.5 -108q0 -136 -196 -202 q18 -19 59 -58l148 -143q39 68 53 158h45q-18 -109 -68 -188l134 -130h-61zM279 31q130 0 205 93l-156 150q-61 61 -72 73q-73 -26 -111.5 -61.5t-38.5 -102.5q0 -68 46.5 -110t126.5 -42z" />
<glyph unicode="'" horiz-adv-x="162" d="M62 488q-4 108 -4 212h45q0 -90 -3 -212h-38z" />
<glyph unicode="(" horiz-adv-x="272" d="M239 761q-127 -203 -127 -453q0 -249 127 -452h-48q-128 195 -128 452q0 258 128 453h48z" />
<glyph unicode=")" horiz-adv-x="272" d="M160 308q0 250 -127 453h48q128 -195 128 -453q0 -257 -128 -452h-48q127 203 127 452z" />
<glyph unicode="*" horiz-adv-x="390" d="M174 725h41q0 -75 -3 -135q44 18 127 45l12 -38q-79 -26 -127 -39q26 -26 89 -99l-32 -26q-62 75 -86 108q-38 -51 -87 -108l-32 27q68 77 89 98q-45 12 -127 39l12 38q83 -25 128 -44q-4 52 -4 134z" />
<glyph unicode="+" horiz-adv-x="497" d="M35 322v42h191v192h46v-192h190v-42h-190v-198h-46v198h-191z" />
<glyph unicode="," horiz-adv-x="190" d="M77 78h47q-6 -111 -56 -225h-34q35 100 43 225z" />
<glyph unicode="-" horiz-adv-x="311" d="M40 292v42h231v-42h-231z" />
<glyph unicode="." horiz-adv-x="190" d="M96 -7q-17 0 -27 10.5t-10 26.5t10 26t27 10q16 0 25.5 -10.5t9.5 -25.5q0 -16 -9.5 -26.5t-25.5 -10.5z" />
<glyph unicode="/" horiz-adv-x="414" d="M328 755h47l-289 -810h-47z" />
<glyph unicode="0" horiz-adv-x="610" d="M305 -12q-125 0 -181.5 95t-56.5 252q0 75 12.5 136t39.5 109.5t74 75.5t112 27q125 0 181 -95t56 -253q0 -76 -12.5 -136.5t-39 -109t-73.5 -75t-112 -26.5zM305 31q188 0 188 304q0 305 -188 305t-188 -305q0 -304 188 -304z" />
<glyph unicode="1" horiz-adv-x="345" d="M46 538l-21 38q82 54 179 95h44v-671h-47v621q-77 -34 -155 -83z" />
<glyph unicode="2" horiz-adv-x="492" d="M31 0v43l134 133q108 106 157 176.5t49 151.5q0 65 -39.5 100.5t-108.5 35.5q-82 0 -155 -58l-22 35q84 66 180 66q91 0 142.5 -49.5t51.5 -128.5q0 -91 -57 -172t-170 -189l-105 -102h364v-42h-421z" />
<glyph unicode="3" d="M35 28l17 40q65 -38 155 -38q81 0 127 41.5t46 116.5q0 137 -176 137h-69v42h62q79 0 119.5 40.5t40.5 104.5q0 61 -41 95t-105 34q-80 0 -140 -45l-24 33q69 54 166 54q86 0 139.5 -44.5t53.5 -123.5q0 -125 -110 -166q132 -34 132 -163q0 -94 -58 -146t-162 -52 q-102 0 -173 40z" />
<glyph unicode="4" horiz-adv-x="577" d="M437 211h101v-42h-101v-169h-47v169h-352v38q152 262 344 465h55v-461zM395 627q-96 -112 -165 -205.5t-142 -210.5h302v284q0 35 5 132z" />
<glyph unicode="5" horiz-adv-x="509" d="M413 629h-267l-24 -235q47 9 104 9q109 0 169.5 -52t60.5 -149q0 -95 -62 -154.5t-172 -59.5q-97 0 -176 38l18 41q76 -36 159 -36q88 0 135.5 47t47.5 124q0 158 -199 158q-47 0 -132 -15l31 326h307v-42z" />
<glyph unicode="6" horiz-adv-x="565" d="M439 670l-9 -40q-47 10 -89 10q-55 0 -97 -23t-67.5 -63.5t-39.5 -88.5t-19 -106q84 57 188 57q97 0 151.5 -53.5t54.5 -144.5q0 -103 -57.5 -166.5t-151.5 -63.5q-116 0 -176 88.5t-60 223.5q0 74 14.5 139.5t45 122t85.5 89t128 32.5q60 0 99 -13zM303 31 q78 0 118.5 52t40.5 134q0 73 -41 115t-125 42q-42 0 -92 -17t-88 -42v-15q0 -74 18.5 -132.5t61.5 -97.5t107 -39z" />
<glyph unicode="7" horiz-adv-x="449" d="M175 0h-49q47 175 104 315t142 314h-342v42h389v-39q-62 -133 -93 -203.5t-74 -187.5t-77 -241z" />
<glyph unicode="8" horiz-adv-x="587" d="M524 168q0 -82 -66 -131t-166 -49q-97 0 -163 48.5t-66 133.5q0 119 137 174q-115 57 -115 163q0 80 60.5 128t147.5 48q92 0 150 -51.5t58 -127.5q0 -111 -115 -172q70 -25 104 -63.5t34 -100.5zM293 358q6 -2 21 -5.5t23 -5.5q58 29 87 66t29 90q0 61 -45 99.5 t-115 38.5q-69 0 -114 -36t-45 -97q0 -58 45 -96t114 -54zM293 30q78 0 130.5 36.5t52.5 100.5q0 28 -10 49t-25 35.5t-44 27.5t-56 21t-71 19q-16 4 -23 7q-135 -51 -135 -155q0 -68 53.5 -104.5t127.5 -36.5z" />
<glyph unicode="9" horiz-adv-x="553" d="M266 291q108 0 185 63q-1 57 -9.5 104t-28 90t-56.5 67.5t-88 24.5q-78 0 -122 -52t-44 -130q0 -74 39 -120.5t124 -46.5zM92 7l8 41q66 -17 116 -17q223 0 234 278q-78 -62 -192 -62q-99 0 -152 58.5t-53 152.5q0 104 60.5 164.5t155.5 60.5q51 0 91.5 -19t66 -50.5 t42 -76t23.5 -92.5t7 -102q0 -355 -282 -355q-66 0 -125 19z" />
<glyph unicode=":" horiz-adv-x="229" d="M151 30q0 -16 -9.5 -26.5t-26.5 -10.5t-27 10.5t-10 26.5t10 26t27 10t26.5 -10t9.5 -26zM151 467q0 -16 -9.5 -26.5t-26.5 -10.5t-27 10.5t-10 26.5t10 26t27 10t26.5 -10t9.5 -26z" />
<glyph unicode=";" horiz-adv-x="229" d="M151 467q0 -16 -9.5 -26.5t-26.5 -10.5t-27 10.5t-10 26.5t10 26t27 10t26.5 -10t9.5 -26zM96 78h47q-6 -111 -56 -225h-34q37 106 43 225z" />
<glyph unicode="&#x3c;" horiz-adv-x="497" d="M462 132l-427 186v49l427 187v-49l-373 -162l373 -161v-50z" />
<glyph unicode="=" horiz-adv-x="497" d="M35 231v43h427v-43h-427zM35 411v42h427v-42h-427z" />
<glyph unicode="&#x3e;" horiz-adv-x="497" d="M35 132v50l373 161l-373 162v49l427 -187v-49z" />
<glyph unicode="?" horiz-adv-x="435" d="M188 65q15 0 24.5 -10t9.5 -25t-9.5 -25.5t-24.5 -10.5q-16 0 -25.5 10.5t-9.5 25.5t9.5 25t25.5 10zM40 638l-11 42q74 32 152 32q88 0 142.5 -43t54.5 -119q0 -54 -21.5 -88.5t-62.5 -71.5q-31 -29 -43 -41.5t-26.5 -41.5t-14.5 -60v-20h-44v22q0 37 13.5 68.5 t27.5 47.5t40 41q27 24 40.5 38.5t27 42.5t13.5 61q0 57 -39 88.5t-110 31.5q-65 0 -139 -30z" />
<glyph unicode="@" horiz-adv-x="925" d="M320 186q0 -74 31 -116t94 -42q67 0 121 52q-13 37 -6 107l20 179q-45 16 -101 16q-74 0 -116.5 -53t-42.5 -143zM480 588q-166 0 -271 -112.5t-105 -287.5q0 -169 98.5 -268t263.5 -99q102 0 235 40l9 -39q-129 -42 -245 -42q-182 0 -294.5 108.5t-112.5 299.5 q0 89 29 168.5t81.5 140.5t134 96.5t179.5 35.5q171 0 278 -99.5t107 -260.5q0 -125 -42 -203t-136 -78q-79 0 -110 60q-56 -60 -138 -60q-85 0 -125.5 56.5t-40.5 141.5q0 98 52.5 167t152.5 69q75 0 145 -33l-23 -215q-8 -73 13 -109.5t76 -36.5q130 0 130 241 q0 146 -93.5 232.5t-247.5 86.5z" />
<glyph unicode="A" horiz-adv-x="636" d="M318 653q-71 -159 -153 -387h306q-82 228 -153 387zM559 0q-32 104 -73 224h-336q-41 -120 -73 -224h-49q133 415 265 700h50q140 -302 265 -700h-49z" />
<glyph unicode="B" horiz-adv-x="611" d="M272 0h-166v700h137q132 0 203.5 -40t71.5 -137q0 -125 -98 -162q55 -15 90.5 -57t35.5 -115q0 -105 -70 -147t-204 -42zM153 335v-292h118q114 0 170 30t56 116q0 146 -184 146h-160zM153 657v-281h161q155 0 155 145q0 79 -57 107.5t-169 28.5h-90z" />
<glyph unicode="C" horiz-adv-x="600" d="M379 -12q-151 0 -231.5 95t-80.5 258q0 166 77 268.5t228 102.5q86 0 171 -34l-13 -43q-87 33 -158 33q-66 0 -116 -26t-80 -71.5t-44.5 -103.5t-14.5 -126q0 -141 66.5 -225t196.5 -84q76 0 157 36l11 -42q-76 -38 -169 -38z" />
<glyph unicode="D" horiz-adv-x="686" d="M578 350q0 138 -71.5 222.5t-216.5 84.5h-137v-614h137q143 0 215.5 85t72.5 222zM106 0v700h184q163 0 250.5 -94.5t87.5 -255.5q0 -160 -88 -255t-250 -95h-184z" />
<glyph unicode="E" horiz-adv-x="562" d="M504 43v-43h-398v700h398v-43h-351v-274h301v-43h-301v-297h351z" />
<glyph unicode="F" horiz-adv-x="538" d="M153 0h-47v700h388v-43h-341v-295h282v-43h-282v-319z" />
<glyph unicode="G" horiz-adv-x="678" d="M601 29q-85 -41 -188 -41q-168 0 -257 97.5t-89 263.5q0 158 84.5 260.5t239.5 102.5q108 0 195 -42l-13 -42q-86 40 -181 40q-134 0 -204.5 -91t-70.5 -228q0 -143 76 -230t220 -87q77 0 142 24v256h-165v42h211v-325z" />
<glyph unicode="H" horiz-adv-x="719" d="M613 0h-48v340h-412v-340h-47v700h47v-317h412v317h48v-700z" />
<glyph unicode="I" horiz-adv-x="259" d="M106 0v700h47v-700h-47z" />
<glyph unicode="J" horiz-adv-x="259" d="M37 -126q69 125 69 271v555h47v-556q0 -164 -75 -293z" />
<glyph unicode="K" horiz-adv-x="621" d="M543 700q-19 -102 -70.5 -182.5t-142.5 -149.5l260 -368h-59l-239 341q-54 -37 -139 -81v-260h-47v700h47v-391q157 84 237.5 174t105.5 217h47z" />
<glyph unicode="L" horiz-adv-x="545" d="M106 0v700h47v-657h349v-43h-396z" />
<glyph unicode="M" horiz-adv-x="891" d="M735 700h51v-700h-47v511q0 45 2 99q-104 -241 -273 -507h-45q-166 261 -274 508q3 -42 3 -100v-511h-46v700h50q93 -230 291 -551q189 307 288 551z" />
<glyph unicode="N" horiz-adv-x="719" d="M152 0h-46v700h46q161 -282 419 -632q-4 33 -4 96v536h47v-700h-47q-149 200 -244.5 339t-173.5 283q3 -96 3 -109v-513z" />
<glyph unicode="O" horiz-adv-x="708" d="M641 350q0 -160 -72.5 -261t-214.5 -101t-214.5 101t-72.5 261t72 261t215 101q142 0 214.5 -101t72.5 -261zM117 350q0 -90 23 -159.5t78 -114t136 -44.5t136 44.5t78 114t23 159.5t-23 159.5t-78 114t-136 44.5q-121 0 -179 -89t-58 -229z" />
<glyph unicode="P" horiz-adv-x="609" d="M106 0v700h154q278 0 278 -218t-278 -218h-107v-264h-47zM489 482q0 96 -59.5 135.5t-169.5 39.5h-107v-350h107q110 0 169.5 39.5t59.5 135.5z" />
<glyph unicode="Q" horiz-adv-x="708" d="M613 -163q-33 -6 -61 -6q-71 0 -119 41t-60 117q-6 -1 -19 -1q-142 0 -214.5 101t-72.5 261t72 261t215 101q142 0 214.5 -101t72.5 -261q0 -140 -56 -237t-167 -119q9 -59 47 -89.5t90 -30.5q27 0 51 6zM117 350q0 -90 23 -159.5t78 -114t136 -44.5t136 44.5t78 114 t23 159.5t-23 159.5t-78 114t-136 44.5q-121 0 -179 -89t-58 -229z" />
<glyph unicode="R" horiz-adv-x="614" d="M259 657h-106v-309h106q106 0 160.5 37t54.5 120q0 82 -54 117t-161 35zM572 0h-59l-131 209q-34 54 -62.5 75.5t-75.5 21.5h-91v-306h-47v700h153q264 0 264 -194q0 -88 -52 -136t-131 -53q21 -7 40 -26t47 -63z" />
<glyph unicode="S" horiz-adv-x="543" d="M57 25l10 45q112 -38 191 -38q87 0 135.5 35t48.5 106q0 37 -13 64.5t-42 47t-58 31.5t-79 27q-96 30 -141.5 73t-45.5 121q0 85 59 130t160 45q83 0 160 -28l-10 -41q-84 25 -147 25q-172 0 -172 -130q0 -63 37.5 -94t121.5 -58q55 -17 87 -30.5t66.5 -37.5t50.5 -59.5 t16 -85.5q0 -96 -66.5 -140.5t-166.5 -44.5q-114 0 -202 37z" />
<glyph unicode="T" horiz-adv-x="550" d="M251 0v657h-222v43h492v-43h-222v-657h-48z" />
<glyph unicode="U" horiz-adv-x="699" d="M101 267v433h47v-432q0 -121 49.5 -178.5t151.5 -57.5q103 0 152 57t49 179v432h48v-433q0 -145 -61.5 -212t-187.5 -67t-187 67t-61 212z" />
<glyph unicode="V" horiz-adv-x="601" d="M327 0h-53q-154 338 -246 700h49q86 -346 224 -652q138 311 223 652h49q-92 -362 -246 -700z" />
<glyph unicode="W" horiz-adv-x="957" d="M687 44q126 319 188 656h48q-40 -201 -89 -363t-121 -337h-52q-64 153 -105 295.5t-78 327.5q-36 -185 -77 -327.5t-106 -295.5h-52q-72 172 -120 333.5t-90 366.5h49q70 -356 188 -656q123 320 182 656h52q63 -346 183 -656z" />
<glyph unicode="X" horiz-adv-x="585" d="M503 0l-217 329q-138 -182 -208 -329h-51q75 165 236 364l-221 336h55l202 -305q136 165 193 305h51q-64 -157 -222 -339l238 -361h-56z" />
<glyph unicode="Y" horiz-adv-x="569" d="M261 0v302q-84 107 -140.5 199t-102.5 199h52q74 -172 216 -359q139 181 214 359h51q-89 -204 -242 -396v-304h-48z" />
<glyph unicode="Z" horiz-adv-x="555" d="M497 664q-75 -165 -165.5 -304t-229.5 -317h410v-43h-468v37q288 374 404 620h-394v43h443v-36z" />
<glyph unicode="[" horiz-adv-x="254" d="M78 -144v905h137v-42h-90v-821h90v-42h-137z" />
<glyph unicode="\" horiz-adv-x="414" d="M328 -55l-289 810h47l289 -810h-47z" />
<glyph unicode="]" horiz-adv-x="254" d="M39 761h136v-905h-136v42h89v821h-89v42z" />
<glyph unicode="^" horiz-adv-x="498" d="M393 355l-144 297l-144 -297h-49l170 345h46l170 -345h-49z" />
<glyph unicode="_" horiz-adv-x="484" d="M20 -79v41h444v-41h-444z" />
<glyph unicode="`" d="M247 570l-99 134h54l91 -134h-46z" />
<glyph unicode="a" horiz-adv-x="519" d="M243 29q86 0 138 33v167q-66 16 -129 16q-147 0 -147 -112q0 -51 36 -77.5t102 -26.5zM428 36q-77 -48 -187 -48q-89 0 -136.5 39.5t-47.5 105.5q0 78 53.5 114.5t138.5 36.5q64 0 132 -15v68q0 134 -141 134q-71 0 -136 -27l-13 41q65 28 150 28q187 0 187 -177v-300z " />
<glyph unicode="b" horiz-adv-x="573" d="M511 262q0 -127 -64 -200.5t-178 -73.5q-108 0 -168 32v700l47 3v-247q51 37 129 37q108 0 171 -64t63 -187zM148 50q43 -19 121 -19q93 0 142.5 61t49.5 170q0 103 -49 156t-137 53q-36 0 -71.5 -12.5t-55.5 -30.5v-378z" />
<glyph unicode="c" horiz-adv-x="488" d="M299 513q76 0 141 -29l-12 -40q-67 27 -128 27q-92 0 -140.5 -60.5t-48.5 -163.5q0 -106 51 -161t151 -55q62 0 122 30l12 -40q-61 -33 -136 -33q-120 0 -184.5 67t-64.5 191q0 122 62 194.5t175 72.5z" />
<glyph unicode="d" horiz-adv-x="572" d="M471 32q-64 -44 -165 -44q-111 0 -177.5 67.5t-66.5 187.5q0 125 66.5 197.5t191.5 72.5q54 0 104 -20v227l47 3v-691zM111 243q0 -98 53 -155t141 -57q79 0 119 28v388q-51 24 -103 24q-102 0 -156 -60t-54 -168z" />
<glyph unicode="e" horiz-adv-x="548" d="M473 65l11 -41q-73 -36 -167 -36q-119 0 -187 68t-68 196q0 116 60 188.5t165 72.5q96 0 148 -61t52 -154q0 -27 -3 -54h-374q2 -106 57.5 -159.5t151.5 -53.5q76 0 154 34zM287 471q-78 0 -123.5 -51.5t-52.5 -137.5h327q1 8 1 22q0 70 -37.5 118.5t-114.5 48.5z" />
<glyph unicode="f" horiz-adv-x="321" d="M29 501h78v70q0 160 135 160q36 0 74 -11l-10 -40q-38 9 -61 9q-50 0 -70.5 -30t-20.5 -88v-70h144v-41h-144v-460h-47v460h-78v41z" />
<glyph unicode="g" horiz-adv-x="563" d="M467 -14q0 -88 -52 -133t-146 -45q-85 0 -155 26l11 42q73 -25 143 -25q76 0 114 35.5t38 97.5v73q-52 -38 -134 -38q-103 0 -163.5 63t-60.5 177q0 118 64.5 186t175.5 68q100 0 165 -40v-487zM111 261q0 -94 47.5 -147t130.5 -53q78 0 131 40v346q-54 24 -119 24 q-88 0 -139 -55.5t-51 -154.5z" />
<glyph unicode="h" horiz-adv-x="588" d="M148 0h-47v720l47 3v-253q74 43 162 43q91 0 139 -47t48 -129v-337h-47v334q0 65 -35.5 101t-107.5 36q-87 0 -159 -44v-427z" />
<glyph unicode="i" horiz-adv-x="248" d="M148 501v-501h-47v501h47zM125 620q-17 0 -27 10.5t-10 26.5q0 15 10 25.5t27 10.5q16 0 25.5 -10.5t9.5 -25.5q0 -16 -9.5 -26.5t-25.5 -10.5z" />
<glyph unicode="j" horiz-adv-x="248" d="M148 -31q0 -60 -24 -95.5t-79 -58.5l-16 40q39 20 55.5 44t16.5 71v531h47v-532zM160 657q0 -16 -9.5 -26.5t-25.5 -10.5q-17 0 -27 10.5t-10 26.5q0 15 10 25.5t27 10.5q16 0 25.5 -10.5t9.5 -25.5z" />
<glyph unicode="k" horiz-adv-x="522" d="M450 501q-21 -138 -152 -242l189 -259h-56l-168 233q-53 -37 -115 -72v-161h-47v720l47 3v-515q123 73 181.5 136t74.5 157h46z" />
<glyph unicode="l" horiz-adv-x="280" d="M143 723v-594q0 -52 15.5 -75.5t55.5 -23.5q13 0 28 3l5 -40q-17 -5 -36 -5q-115 0 -115 140v592z" />
<glyph unicode="m" horiz-adv-x="897" d="M806 0h-47v334q0 61 -33.5 99t-103.5 38q-87 0 -163 -52q16 -36 16 -85v-334h-47v334q0 61 -32 99t-102 38q-86 0 -151 -39v-432h-47v461q94 52 198 52q96 0 142 -56q90 56 185 56q94 0 139.5 -48t45.5 -128v-337z" />
<glyph unicode="n" horiz-adv-x="584" d="M143 0h-47v461q97 52 207 52q95 0 142.5 -46.5t47.5 -129.5v-337h-47v334q0 63 -35.5 100t-107.5 37q-91 0 -160 -39v-432z" />
<glyph unicode="o" horiz-adv-x="564" d="M503 251q0 -119 -58 -191t-163 -72q-104 0 -162 72t-58 191t58 190.5t162 71.5q105 0 163 -71.5t58 -190.5zM111 251q0 -102 43.5 -161t127.5 -59q86 0 128.5 59t42.5 161t-42.5 161t-128.5 59q-84 0 -127.5 -59t-43.5 -161z" />
<glyph unicode="p" horiz-adv-x="566" d="M504 265q0 -127 -58 -202t-177 -75q-68 0 -126 29v-201h-47v649q87 48 182 48q112 0 169 -68t57 -180zM143 64q62 -33 122 -33q93 0 141 60.5t48 172.5q0 90 -44.5 148.5t-132.5 58.5q-75 0 -134 -34v-373z" />
<glyph unicode="q" horiz-adv-x="566" d="M470 -184h-47v219q-49 -47 -140 -47q-101 0 -161 69t-60 188q0 126 65 197t178 71q100 0 165 -39v-658zM111 246q0 -98 47 -156.5t131 -58.5q83 0 134 48v369q-54 23 -117 23q-90 0 -142.5 -58.5t-52.5 -166.5z" />
<glyph unicode="r" horiz-adv-x="374" d="M101 460q89 53 210 53q20 0 44 -3l-7 -43q-15 4 -36 4q-96 0 -164 -40v-431h-47v460z" />
<glyph unicode="s" horiz-adv-x="429" d="M353 490l-8 -41q-71 22 -125 22q-120 0 -120 -93q0 -24 9 -42t30 -30.5t35.5 -18.5t45.5 -16q88 -27 128 -58t40 -89q0 -67 -49.5 -101.5t-128.5 -34.5q-44 0 -92 9.5t-70 19.5l10 42q80 -28 152 -28q60 0 94.5 24t34.5 69q0 41 -33 63t-108 45q-69 22 -107.5 53.5 t-38.5 91.5q0 66 43.5 101t123.5 35q79 0 134 -23z" />
<glyph unicode="t" horiz-adv-x="333" d="M308 -1q-35 -11 -70 -11q-136 0 -136 147v325h-78v41h78v122l47 4v-126h145v-41h-145v-325q0 -57 23 -80.5t68 -23.5q36 0 65 9z" />
<glyph unicode="u" horiz-adv-x="575" d="M479 41q-103 -53 -212 -53q-90 0 -133 44.5t-43 123.5v345h47v-343q0 -127 129 -127q91 0 165 39v431h47v-460z" />
<glyph unicode="v" horiz-adv-x="515" d="M90 501q20 -122 60.5 -229.5t107.5 -227.5q136 244 167 457h48q-21 -132 -67 -248.5t-123 -252.5h-51q-77 134 -122.5 251t-66.5 250h47z" />
<glyph unicode="w" horiz-adv-x="785" d="M398 501q32 -219 148 -457q62 125 98 231t51 226h47q-19 -132 -60.5 -249t-110.5 -252h-49q-91 181 -132 321q-42 -152 -128 -321h-49q-69 134 -110 251t-60 250h47q32 -220 149 -457q95 191 131 357q-11 49 -18 100h46z" />
<glyph unicode="x" horiz-adv-x="482" d="M38 0q25 77 62 134t108 131q-109 119 -163 236h51q45 -92 144 -208q113 114 141 208h48q-34 -116 -162 -238q105 -119 179 -263h-52q-66 130 -159 235q-60 -66 -95.5 -118.5t-54.5 -116.5h-47z" />
<glyph unicode="y" horiz-adv-x="506" d="M286 5q-87 -153 -224 -188l-11 42q116 29 186 147q-153 239 -193 495h47q36 -220 172 -454q64 119 103.5 225t58.5 229h47q-36 -231 -186 -496z" />
<glyph unicode="z" horiz-adv-x="455" d="M53 501h359v-34q-115 -203 -317 -426h331v-41h-391v35q211 230 323 425h-305v41z" />
<glyph unicode="{" horiz-adv-x="291" d="M29 329q56 0 75 24.5t19 91.5q0 33 -5 100t-5 102q0 55 25 86.5t74 31.5q25 0 40 -2v-39h-26q-37 0 -51.5 -17.5t-14.5 -63.5q0 -32 5 -99t5 -100q0 -58 -15 -90t-51 -46q36 -14 51 -46t15 -90q0 -33 -5 -99.5t-5 -99.5q0 -45 14.5 -62.5t51.5 -17.5h26v-39 q-23 -3 -40 -3q-99 0 -99 119q0 34 5 101.5t5 99.5q0 67 -19 91.5t-75 24.5v42z" />
<glyph unicode="|" horiz-adv-x="257" d="M106 -217v971h45v-971h-45z" />
<glyph unicode="}" horiz-adv-x="291" d="M168 445q0 -67 19 -91.5t75 -24.5v-42q-56 0 -75 -24.5t-19 -91.5q0 -32 5 -99.5t5 -101.5q0 -119 -99 -119q-18 0 -40 3v39h26q37 0 51.5 17.5t14.5 62.5q0 33 -5 99.5t-5 99.5q0 58 15 90t51 46q-36 14 -51 46t-15 90q0 33 5 100t5 99q0 46 -14.5 63.5t-51.5 17.5h-26 v39q15 2 40 2q49 0 74 -31.5t25 -86.5q0 -35 -5 -102t-5 -100z" />
<glyph unicode="~" horiz-adv-x="497" d="M341 336q54 0 89 66l33 -17q-40 -93 -119 -93q-43 0 -97 28t-86 28q-64 0 -93 -65l-33 17q14 43 47 68t77 25q42 0 95.5 -28.5t86.5 -28.5z" />
<glyph unicode="&#xa1;" horiz-adv-x="282" d="M116 -192v260q0 116 7 213h37q8 -111 8 -214v-259h-52zM107 478q0 15 9.5 25t24.5 10q16 0 25.5 -10t9.5 -25t-9.5 -25t-25.5 -10q-15 0 -24.5 10t-9.5 25z" />
<glyph unicode="&#xa2;" horiz-adv-x="513" d="M62 251q0 115 56.5 184.5t159.5 76.5v111h46v-111q68 -3 123 -23l-11 -40q-69 23 -134 23q-93 0 -141.5 -58.5t-48.5 -162.5q0 -105 50.5 -163t144.5 -58q80 0 138 24l10 -40q-54 -23 -130 -26v-112h-45v113q-104 7 -161 76.5t-57 185.5z" />
<glyph unicode="&#xa3;" horiz-adv-x="552" d="M522 0h-387v332h-100v42h100v117q0 87 46 139.5t144 52.5q80 0 167 -34l-13 -39q-88 30 -152 30q-145 0 -145 -149v-117h172v-42h-172v-290h340v-42z" />
<glyph unicode="&#xa4;" horiz-adv-x="570" d="M127 352q0 -70 43.5 -114t114.5 -44t113.5 43.5t42.5 114.5t-42 114t-114 43q-71 0 -114.5 -43t-43.5 -114zM482 128l-69 68q-54 -41 -128 -41q-73 0 -127 41l-69 -68l-31 31l68 68q-40 51 -40 125q0 75 41 125l-69 68l31 32l69 -69q52 40 127 40t127 -40l70 69l30 -32 l-69 -68q41 -50 41 -125q0 -74 -40 -125l68 -68z" />
<glyph unicode="&#xa5;" horiz-adv-x="619" d="M69 189v40h217v76q-33 41 -35 44h-182v40h153q-106 147 -177 308h51q72 -168 214 -354q140 183 213 354h52q-68 -156 -177 -308h150v-40h-180q-20 -27 -35 -46v-74h215v-40h-215v-189h-47v189h-217z" />
<glyph unicode="&#xa6;" horiz-adv-x="257" d="M106 340v412h45v-412h-45zM106 -217v416h45v-416h-45z" />
<glyph unicode="&#xa7;" horiz-adv-x="588" d="M275 163q92 -32 126 -53q76 51 76 127q0 30 -10 51t-42 39.5t-51.5 27t-78.5 29.5q-8 3 -13 5q-56 21 -94 45q-77 -48 -77 -126q0 -55 37.5 -84t126.5 -61zM267 -172q-97 0 -169 32l11 42q73 -30 157 -30q159 0 159 114q0 28 -8 47t-35 35t-44 23t-67 25q-13 5 -19 7 q-100 35 -145 75t-45 109q0 51 27 90.5t68 61.5q-44 42 -44 105q0 73 54 110.5t134 37.5q76 0 157 -25l-10 -41q-79 22 -146 22q-65 0 -103 -26.5t-38 -76.5q0 -48 37 -79t108 -57q49 -17 72.5 -26.5t58 -27.5t50 -35t27.5 -43t12 -59q0 -48 -25.5 -89t-66.5 -63 q40 -38 40 -100q0 -81 -60 -119.5t-147 -38.5z" />
<glyph unicode="&#xa8;" d="M206 636q0 -16 -9 -26.5t-26 -10.5t-26.5 10.5t-9.5 26.5q0 15 9.5 25.5t26.5 10.5q16 0 25.5 -10.5t9.5 -25.5zM362 636q0 -16 -9 -26.5t-25 -10.5q-18 0 -27.5 10.5t-9.5 26.5q0 15 9.5 25.5t27.5 10.5q16 0 25 -10.5t9 -25.5z" />
<glyph unicode="&#xa9;" horiz-adv-x="824" d="M420 547q54 0 106 -20l-10 -35q-48 16 -92 16q-63 0 -104 -37.5t-41 -120.5t40.5 -120t101.5 -37q51 0 95 16l10 -36q-54 -20 -106 -20q-77 0 -130.5 48.5t-53.5 148.5t53.5 148.5t130.5 48.5zM91 350q0 -146 87.5 -234.5t234.5 -88.5q146 0 233 88.5t87 234.5 q0 145 -87 234t-233 89q-147 0 -234.5 -89t-87.5 -234zM776 350q0 -162 -100 -262t-263 -100q-164 0 -264.5 100t-100.5 262t100.5 262t264.5 100q163 0 263 -100t100 -262z" />
<glyph unicode="&#xaa;" horiz-adv-x="346" d="M72 629l-8 35q55 19 101 19q132 0 132 -118v-192h-2q-61 -40 -135 -40q-59 0 -90 27t-31 75t35 72.5t90 24.5q44 0 93 -9v41q0 44 -23 63t-69 19q-47 0 -93 -17zM162 369q58 0 95 22v97q-43 9 -91 9q-86 0 -86 -62q0 -66 82 -66z" />
<glyph unicode="&#xab;" horiz-adv-x="552" d="M218 64q-90 80 -193 202q97 116 193 203h60q-105 -98 -194 -203q85 -100 194 -202h-60zM448 64q-90 80 -193 202q97 116 193 203h60q-105 -98 -194 -203q85 -100 194 -202h-60z" />
<glyph unicode="&#xac;" horiz-adv-x="497" d="M35 325v43h427v-231h-46v188h-381z" />
<glyph unicode="&#xad;" horiz-adv-x="311" />
<glyph unicode="&#xae;" horiz-adv-x="568" d="M482 473q0 96 -53.5 150.5t-145.5 54.5t-144.5 -54.5t-52.5 -150.5q0 -98 52.5 -151.5t144.5 -53.5t145.5 54t53.5 151zM49 473q0 107 64.5 173t169.5 66t170.5 -66.5t65.5 -172.5t-66 -172.5t-170 -66.5q-105 0 -169.5 66t-64.5 173zM205 357v241h72q96 0 96 -75 q0 -51 -50 -68q21 -44 66 -98h-44q-35 44 -59 92h-8h-39v-92h-34zM277 569h-38v-91h38q61 0 61 45q0 46 -61 46z" />
<glyph unicode="&#xaf;" d="M120 607v40h254v-40h-254z" />
<glyph unicode="&#xb0;" horiz-adv-x="331" d="M30 576q0 61 37.5 98.5t98.5 37.5t98 -37.5t37 -98.5t-37 -98t-98 -37t-98.5 37t-37.5 98zM166 675q-43 0 -69.5 -26.5t-26.5 -72.5t26.5 -72t69.5 -26t68.5 26t25.5 72t-25.5 72.5t-68.5 26.5z" />
<glyph unicode="&#xb1;" horiz-adv-x="497" d="M35 33v42h427v-42h-427zM35 335v43h191v178h46v-178h190v-43h-190v-184h-46v184h-191z" />
<glyph unicode="&#xb2;" horiz-adv-x="315" d="M47 366v35l34 28q78 63 107.5 99t29.5 77q0 68 -73 68q-42 0 -82 -31l-19 32q51 38 105 38q51 0 82 -26.5t31 -76.5q0 -47 -34 -90t-120 -112l-6 -5h180v-36h-235z" />
<glyph unicode="&#xb3;" horiz-adv-x="315" d="M51 380l13 36q45 -20 87 -20q80 0 80 64t-75 64h-46v34h33q73 0 73 62q0 54 -71 54q-32 0 -68 -20l-19 32q40 26 89 26q52 0 82 -23.5t30 -65.5q0 -59 -56 -79q71 -15 71 -85q0 -101 -121 -101q-58 0 -102 22z" />
<glyph unicode="&#xb4;" d="M256 704h54l-99 -134h-46z" />
<glyph unicode="&#xb5;" horiz-adv-x="584" d="M147 -184h-46v685h47v-353q0 -56 30.5 -87t90.5 -31q90 0 167 62v409h47v-501h-46v53q-73 -65 -173 -65q-76 0 -120 41l3 -147v-66z" />
<glyph unicode="&#xb6;" horiz-adv-x="596" d="M273 700h218v-700h-43v664h-133v-664h-42v282q-92 0 -154 53t-62 156t62 156t154 53z" />
<glyph unicode="&#xb7;" d="M52 355q0 15 9.5 24.5t25.5 9.5q15 0 24.5 -9.5t9.5 -24.5t-9.5 -25.5t-24.5 -10.5q-16 0 -25.5 10.5t-9.5 25.5z" />
<glyph unicode="&#xb8;" d="M157 -205l7 34q26 -6 48 -6q69 0 69 45q0 42 -79 45l-9 24l21 63h38l-20 -57q92 -7 92 -76q0 -39 -30.5 -59t-80.5 -20q-30 0 -56 7z" />
<glyph unicode="&#xb9;" horiz-adv-x="315" d="M87 614l-17 32q42 29 105 58h37v-338h-42v295q-44 -22 -83 -47z" />
<glyph unicode="&#xba;" horiz-adv-x="376" d="M337 507q0 -73 -36.5 -124t-112.5 -51t-112.5 51t-36.5 124q0 74 36.5 125t112.5 51t112.5 -51t36.5 -125zM81 507q0 -64 27 -101t80 -37t80 37t27 101t-27 101.5t-80 37.5t-80 -37.5t-27 -101.5z" />
<glyph unicode="&#xbb;" horiz-adv-x="552" d="M334 64h-60q109 102 194 202q-89 105 -194 203h60q96 -87 193 -203q-103 -122 -193 -202zM104 64h-60q115 109 194 202q-83 98 -194 203h60q91 -82 193 -203q-109 -127 -193 -202z" />
<glyph unicode="&#xbc;" horiz-adv-x="789" d="M87 614l-17 32q42 29 105 58h37v-338h-42v295q-44 -22 -83 -47zM571 700h46l-388 -700h-46zM467 67v31q74 128 178 240h41v-236h53v-35h-53v-67h-41v67h-178zM645 188q0 62 4 110q-87 -106 -143 -196h139v86z" />
<glyph unicode="&#xbd;" horiz-adv-x="789" d="M87 614l-17 32q42 29 105 58h37v-338h-42v295q-44 -22 -83 -47zM539 700h46l-388 -700h-46zM494 0v35l34 27q78 64 107.5 100t29.5 77q0 68 -73 68q-40 0 -82 -31l-19 32q51 38 105 38q51 0 82 -26.5t31 -77.5q0 -46 -34 -89t-120 -112l-6 -5h180v-36h-235z" />
<glyph unicode="&#xbe;" horiz-adv-x="789" d="M51 380l13 36q45 -20 87 -20q80 0 80 64t-75 64h-46v34h33q73 0 73 62q0 54 -71 54q-32 0 -68 -20l-19 32q40 26 89 26q52 0 82 -23.5t30 -65.5q0 -59 -56 -79q71 -15 71 -85q0 -101 -121 -101q-58 0 -102 22zM587 700h46l-388 -700h-46zM467 67v31q74 128 178 240h41 v-236h53v-35h-53v-67h-41v67h-178zM645 188q0 62 4 110q-87 -106 -143 -196h139v86z" />
<glyph unicode="&#xbf;" horiz-adv-x="435" d="M246 443q-15 0 -24.5 10t-9.5 25t9.5 25t24.5 10q16 0 25.5 -10t9.5 -25t-9.5 -25t-25.5 -10zM406 -172q-74 -32 -152 -32q-88 0 -142.5 43t-54.5 119q0 54 21.5 88.5t62.5 71.5q31 29 43 41.5t26.5 41.5t14.5 60v20h44v-23q0 -37 -14 -68.5t-27.5 -46.5t-40.5 -41 q-27 -25 -40.5 -39t-26.5 -42t-13 -61q0 -58 38.5 -89t109.5 -31q67 0 140 29z" />
<glyph unicode="&#xc0;" horiz-adv-x="636" d="M318 653q-71 -159 -153 -387h306q-82 228 -153 387zM559 0q-32 104 -73 224h-336q-41 -120 -73 -224h-49q133 415 265 700h50q140 -302 265 -700h-49zM298 768l-99 134h54l91 -134h-46z" />
<glyph unicode="&#xc1;" horiz-adv-x="636" d="M318 653q-71 -159 -153 -387h306q-82 228 -153 387zM559 0q-32 104 -73 224h-336q-41 -120 -73 -224h-49q133 415 265 700h50q140 -302 265 -700h-49zM388 902h54l-99 -134h-46z" />
<glyph unicode="&#xc2;" horiz-adv-x="636" d="M318 653q-71 -159 -153 -387h306q-82 228 -153 387zM559 0q-32 104 -73 224h-336q-41 -120 -73 -224h-49q133 415 265 700h50q140 -302 265 -700h-49zM405 768l-87 106l-87 -106h-50l108 134h59l107 -134h-50z" />
<glyph unicode="&#xc3;" horiz-adv-x="636" d="M318 653q-71 -159 -153 -387h306q-82 228 -153 387zM559 0q-32 104 -73 224h-336q-41 -120 -73 -224h-49q133 415 265 700h50q140 -302 265 -700h-49zM387 821q16 0 24 9.5t10.5 21t3.5 34.5h39q-2 -47 -17 -76t-56 -29q-31 0 -73.5 28.5t-64.5 28.5q-23 0 -32 -14 t-11 -41h-39q3 96 79 96q31 0 75 -29t62 -29z" />
<glyph unicode="&#xc4;" horiz-adv-x="636" d="M318 653q-71 -159 -153 -387h306q-82 228 -153 387zM559 0q-32 104 -73 224h-336q-41 -120 -73 -224h-49q133 415 265 700h50q140 -302 265 -700h-49zM275 834q0 -16 -9 -26.5t-26 -10.5t-26.5 10.5t-9.5 26.5q0 15 9.5 25.5t26.5 10.5q16 0 25.5 -10.5t9.5 -25.5z M431 834q0 -16 -9 -26.5t-25 -10.5q-18 0 -27.5 10.5t-9.5 26.5q0 15 9.5 25.5t27.5 10.5q16 0 25 -10.5t9 -25.5z" />
<glyph unicode="&#xc5;" horiz-adv-x="636" d="M559 0q-32 104 -73 224h-336q-41 -120 -73 -224h-49q133 415 264 698q-31 8 -50.5 33t-19.5 60q0 42 27 68.5t69 26.5t69 -26.5t27 -68.5q0 -35 -19.5 -60t-50.5 -33q139 -302 264 -698h-49zM318 851q-28 0 -43.5 -17t-15.5 -43t15.5 -44t43.5 -18t43.5 18t15.5 44 t-15.5 43t-43.5 17zM318 653q-71 -159 -153 -387h306q-82 228 -153 387z" />
<glyph unicode="&#xc6;" horiz-adv-x="883" d="M825 43v-43h-379v224h-257q-68 -122 -120 -224h-50q180 358 411 700h395v-43h-332v-274h282v-43h-282v-297h332zM446 266v386q-129 -202 -233 -386h233z" />
<glyph unicode="&#xc7;" horiz-adv-x="600" d="M379 -12h-11l-16 -45q92 -7 92 -76q0 -39 -30.5 -59t-80.5 -20q-30 0 -56 7l7 34q26 -6 48 -6q70 0 70 45q0 42 -80 45l-9 24l18 54q-128 15 -196 107.5t-68 242.5q0 166 77 268.5t228 102.5q86 0 171 -34l-13 -43q-87 33 -158 33q-66 0 -116 -26t-80 -71.5t-44.5 -103.5 t-14.5 -126q0 -141 66.5 -225t196.5 -84q76 0 157 36l11 -42q-76 -38 -169 -38z" />
<glyph unicode="&#xc8;" horiz-adv-x="562" d="M504 43v-43h-398v700h398v-43h-351v-274h301v-43h-301v-297h351zM288 768l-99 134h54l91 -134h-46z" />
<glyph unicode="&#xc9;" horiz-adv-x="562" d="M504 43v-43h-398v700h398v-43h-351v-274h301v-43h-301v-297h351zM378 902h54l-99 -134h-46z" />
<glyph unicode="&#xca;" horiz-adv-x="562" d="M504 43v-43h-398v700h398v-43h-351v-274h301v-43h-301v-297h351zM394 768l-87 106l-87 -106h-50l108 134h59l107 -134h-50z" />
<glyph unicode="&#xcb;" horiz-adv-x="562" d="M504 43v-43h-398v700h398v-43h-351v-274h301v-43h-301v-297h351zM264 834q0 -16 -9 -26.5t-26 -10.5t-26.5 10.5t-9.5 26.5q0 15 9.5 25.5t26.5 10.5q16 0 25.5 -10.5t9.5 -25.5zM420 834q0 -16 -9 -26.5t-25 -10.5q-18 0 -27.5 10.5t-9.5 26.5q0 15 9.5 25.5t27.5 10.5 q16 0 25 -10.5t9 -25.5z" />
<glyph unicode="&#xcc;" horiz-adv-x="259" d="M106 0v700h47v-700h-47zM110 768l-99 134h54l91 -134h-46z" />
<glyph unicode="&#xcd;" horiz-adv-x="259" d="M106 0v700h47v-700h-47zM200 902h54l-99 -134h-46z" />
<glyph unicode="&#xce;" horiz-adv-x="259" d="M106 0v700h47v-700h-47zM217 768l-87 106l-87 -106h-50l108 134h59l107 -134h-50z" />
<glyph unicode="&#xcf;" horiz-adv-x="259" d="M106 0v700h47v-700h-47zM87 834q0 -16 -9 -26.5t-26 -10.5t-26.5 10.5t-9.5 26.5q0 15 9.5 25.5t26.5 10.5q16 0 25.5 -10.5t9.5 -25.5zM243 834q0 -16 -9 -26.5t-25 -10.5q-18 0 -27.5 10.5t-9.5 26.5q0 15 9.5 25.5t27.5 10.5q16 0 25 -10.5t9 -25.5z" />
<glyph unicode="&#xd0;" horiz-adv-x="687" d="M579 350q0 138 -71.5 222.5t-216.5 84.5h-137v-275h151v-43h-151v-296h137q143 0 215.5 85t72.5 222zM106 0v339h-79v43h79v318h185q162 0 250 -95t88 -255t-88 -255t-250 -95h-185z" />
<glyph unicode="&#xd1;" horiz-adv-x="719" d="M152 0h-46v700h46q161 -282 419 -632q-4 33 -4 96v536h47v-700h-47q-149 200 -244.5 339t-173.5 283q3 -96 3 -109v-513zM429 821q16 0 24 9.5t10.5 21t3.5 34.5h39q-2 -47 -17 -76t-56 -29q-31 0 -73.5 28.5t-64.5 28.5q-23 0 -32 -14t-11 -41h-39q3 96 79 96 q31 0 75 -29t62 -29z" />
<glyph unicode="&#xd2;" horiz-adv-x="708" d="M641 350q0 -160 -72.5 -261t-214.5 -101t-214.5 101t-72.5 261t72 261t215 101q142 0 214.5 -101t72.5 -261zM117 350q0 -90 23 -159.5t78 -114t136 -44.5t136 44.5t78 114t23 159.5t-23 159.5t-78 114t-136 44.5q-121 0 -179 -89t-58 -229zM334 768l-99 134h54l91 -134 h-46z" />
<glyph unicode="&#xd3;" horiz-adv-x="708" d="M641 350q0 -160 -72.5 -261t-214.5 -101t-214.5 101t-72.5 261t72 261t215 101q142 0 214.5 -101t72.5 -261zM117 350q0 -90 23 -159.5t78 -114t136 -44.5t136 44.5t78 114t23 159.5t-23 159.5t-78 114t-136 44.5q-121 0 -179 -89t-58 -229zM424 902h54l-99 -134h-46z " />
<glyph unicode="&#xd4;" horiz-adv-x="708" d="M641 350q0 -160 -72.5 -261t-214.5 -101t-214.5 101t-72.5 261t72 261t215 101q142 0 214.5 -101t72.5 -261zM117 350q0 -90 23 -159.5t78 -114t136 -44.5t136 44.5t78 114t23 159.5t-23 159.5t-78 114t-136 44.5q-121 0 -179 -89t-58 -229zM441 768l-87 106l-87 -106 h-50l108 134h59l107 -134h-50z" />
<glyph unicode="&#xd5;" horiz-adv-x="708" d="M641 350q0 -160 -72.5 -261t-214.5 -101t-214.5 101t-72.5 261t72 261t215 101q142 0 214.5 -101t72.5 -261zM117 350q0 -90 23 -159.5t78 -114t136 -44.5t136 44.5t78 114t23 159.5t-23 159.5t-78 114t-136 44.5q-121 0 -179 -89t-58 -229zM423 821q16 0 24 9.5t10.5 21 t3.5 34.5h39q-2 -47 -17 -76t-56 -29q-31 0 -73.5 28.5t-64.5 28.5q-23 0 -32 -14t-11 -41h-39q3 96 79 96q31 0 75 -29t62 -29z" />
<glyph unicode="&#xd6;" horiz-adv-x="708" d="M641 350q0 -160 -72.5 -261t-214.5 -101t-214.5 101t-72.5 261t72 261t215 101q142 0 214.5 -101t72.5 -261zM117 350q0 -90 23 -159.5t78 -114t136 -44.5t136 44.5t78 114t23 159.5t-23 159.5t-78 114t-136 44.5q-121 0 -179 -89t-58 -229zM311 834q0 -16 -9 -26.5 t-26 -10.5t-26.5 10.5t-9.5 26.5q0 15 9.5 25.5t26.5 10.5q16 0 25.5 -10.5t9.5 -25.5zM467 834q0 -16 -9 -26.5t-25 -10.5q-18 0 -27.5 10.5t-9.5 26.5q0 15 9.5 25.5t27.5 10.5q16 0 25 -10.5t9 -25.5z" />
<glyph unicode="&#xd7;" horiz-adv-x="497" d="M405 157l-156 156l-157 -156l-30 29l157 157l-157 156l30 30l157 -156l156 156l30 -30l-157 -156l157 -157z" />
<glyph unicode="&#xd8;" horiz-adv-x="691" d="M591 700h46l-67 -91q71 -96 71 -259q0 -160 -72.5 -261t-214.5 -101q-117 0 -191 74l-46 -62h-47l68 91q-71 98 -71 259q0 160 72 261t215 101q119 0 191 -74zM117 350q0 -133 51 -218l348 467q-61 69 -162 69q-121 0 -179 -89t-58 -229zM354 32q81 0 136 44.5t78 114 t23 159.5q0 136 -52 218l-347 -467q61 -69 162 -69z" />
<glyph unicode="&#xd9;" horiz-adv-x="699" d="M101 267v433h47v-432q0 -121 49.5 -178.5t151.5 -57.5q103 0 152 57t49 179v432h48v-433q0 -145 -61.5 -212t-187.5 -67t-187 67t-61 212zM330 768l-99 134h54l91 -134h-46z" />
<glyph unicode="&#xda;" horiz-adv-x="699" d="M101 267v433h47v-432q0 -121 49.5 -178.5t151.5 -57.5q103 0 152 57t49 179v432h48v-433q0 -145 -61.5 -212t-187.5 -67t-187 67t-61 212zM420 902h54l-99 -134h-46z" />
<glyph unicode="&#xdb;" horiz-adv-x="699" d="M101 267v433h47v-432q0 -121 49.5 -178.5t151.5 -57.5q103 0 152 57t49 179v432h48v-433q0 -145 -61.5 -212t-187.5 -67t-187 67t-61 212zM436 768l-87 106l-87 -106h-50l108 134h59l107 -134h-50z" />
<glyph unicode="&#xdc;" horiz-adv-x="699" d="M101 267v433h47v-432q0 -121 49.5 -178.5t151.5 -57.5q103 0 152 57t49 179v432h48v-433q0 -145 -61.5 -212t-187.5 -67t-187 67t-61 212zM306 834q0 -16 -9 -26.5t-26 -10.5t-26.5 10.5t-9.5 26.5q0 15 9.5 25.5t26.5 10.5q16 0 25.5 -10.5t9.5 -25.5zM462 834 q0 -16 -9 -26.5t-25 -10.5q-18 0 -27.5 10.5t-9.5 26.5q0 15 9.5 25.5t27.5 10.5q16 0 25 -10.5t9 -25.5z" />
<glyph unicode="&#xdd;" horiz-adv-x="569" d="M261 0v302q-84 107 -140.5 199t-102.5 199h52q74 -172 216 -359q139 181 214 359h51q-89 -204 -242 -396v-304h-48zM356 902h54l-99 -134h-46z" />
<glyph unicode="&#xde;" horiz-adv-x="591" d="M106 0v700h47v-127h107q278 0 278 -218t-278 -218h-107v-137h-47zM489 355q0 96 -59.5 135.5t-169.5 39.5h-107v-351h107q110 0 169.5 40t59.5 136z" />
<glyph unicode="&#xdf;" horiz-adv-x="594" d="M100 521q0 100 49.5 155t134.5 55q82 0 124.5 -39.5t42.5 -107.5q0 -50 -35 -109t-35 -83q0 -21 17 -40t41.5 -37t49 -39t41.5 -53.5t17 -71.5q0 -78 -55.5 -120.5t-143.5 -42.5q-39 0 -103 12l6 42q47 -11 97 -11q71 0 110.5 30.5t39.5 89.5q0 43 -25.5 76.5t-56 52 t-56 47.5t-25.5 63q0 35 34 93t34 99q0 107 -118 107q-138 0 -138 -168v-521h-47v521z" />
<glyph unicode="&#xe0;" horiz-adv-x="519" d="M243 29q86 0 138 33v167q-66 16 -129 16q-147 0 -147 -112q0 -51 36 -77.5t102 -26.5zM428 36q-77 -48 -187 -48q-89 0 -136.5 39.5t-47.5 105.5q0 78 53.5 114.5t138.5 36.5q64 0 132 -15v68q0 134 -141 134q-71 0 -136 -27l-13 41q65 28 150 28q187 0 187 -177v-300z M234 584l-99 134h54l91 -134h-46z" />
<glyph unicode="&#xe1;" horiz-adv-x="519" d="M243 29q86 0 138 33v167q-66 16 -129 16q-147 0 -147 -112q0 -51 36 -77.5t102 -26.5zM428 36q-77 -48 -187 -48q-89 0 -136.5 39.5t-47.5 105.5q0 78 53.5 114.5t138.5 36.5q64 0 132 -15v68q0 134 -141 134q-71 0 -136 -27l-13 41q65 28 150 28q187 0 187 -177v-300z M324 718h54l-99 -134h-46z" />
<glyph unicode="&#xe2;" horiz-adv-x="519" d="M243 29q86 0 138 33v167q-66 16 -129 16q-147 0 -147 -112q0 -51 36 -77.5t102 -26.5zM428 36q-77 -48 -187 -48q-89 0 -136.5 39.5t-47.5 105.5q0 78 53.5 114.5t138.5 36.5q64 0 132 -15v68q0 134 -141 134q-71 0 -136 -27l-13 41q65 28 150 28q187 0 187 -177v-300z M340 584l-87 106l-87 -106h-50l108 134h59l107 -134h-50z" />
<glyph unicode="&#xe3;" horiz-adv-x="519" d="M243 29q86 0 138 33v167q-66 16 -129 16q-147 0 -147 -112q0 -51 36 -77.5t102 -26.5zM428 36q-77 -48 -187 -48q-89 0 -136.5 39.5t-47.5 105.5q0 78 53.5 114.5t138.5 36.5q64 0 132 -15v68q0 134 -141 134q-71 0 -136 -27l-13 41q65 28 150 28q187 0 187 -177v-300z M322 637q16 0 24 9.5t10.5 21t3.5 34.5h39q-2 -47 -17 -76t-56 -29q-31 0 -73.5 28.5t-64.5 28.5q-23 0 -32 -14t-11 -41h-39q3 96 79 96q31 0 75 -29t62 -29z" />
<glyph unicode="&#xe4;" horiz-adv-x="519" d="M243 29q86 0 138 33v167q-66 16 -129 16q-147 0 -147 -112q0 -51 36 -77.5t102 -26.5zM428 36q-77 -48 -187 -48q-89 0 -136.5 39.5t-47.5 105.5q0 78 53.5 114.5t138.5 36.5q64 0 132 -15v68q0 134 -141 134q-71 0 -136 -27l-13 41q65 28 150 28q187 0 187 -177v-300z M210 650q0 -16 -9 -26.5t-26 -10.5t-26.5 10.5t-9.5 26.5q0 15 9.5 25.5t26.5 10.5q16 0 25.5 -10.5t9.5 -25.5zM366 650q0 -16 -9 -26.5t-25 -10.5q-18 0 -27.5 10.5t-9.5 26.5q0 15 9.5 25.5t27.5 10.5q16 0 25 -10.5t9 -25.5z" />
<glyph unicode="&#xe5;" horiz-adv-x="519" d="M243 29q86 0 138 33v167q-66 16 -129 16q-147 0 -147 -112q0 -51 36 -77.5t102 -26.5zM428 36q-77 -48 -187 -48q-89 0 -136.5 39.5t-47.5 105.5q0 78 53.5 114.5t138.5 36.5q64 0 132 -15v68q0 134 -141 134q-71 0 -136 -27l-13 41q65 28 150 28q187 0 187 -177v-300z M157 664q0 41 27.5 68t68.5 27t68.5 -27t27.5 -68q0 -42 -27 -69t-69 -27t-69 27t-27 69zM312 664q0 26 -15.5 43t-43.5 17t-43.5 -17t-15.5 -43t15.5 -44t43.5 -18t43.5 18t15.5 44z" />
<glyph unicode="&#xe6;" horiz-adv-x="867" d="M605 471q-77 0 -122.5 -51.5t-52.5 -137.5h327v22q0 70 -37.5 118.5t-114.5 48.5zM241 29q108 0 177 66q-32 55 -37 139q-68 16 -132 16q-69 0 -106.5 -24.5t-37.5 -84.5q0 -55 35 -83.5t101 -28.5zM803 24q-75 -36 -168 -36q-126 0 -192 75q-85 -75 -203 -75 q-88 0 -135.5 41.5t-47.5 110.5q0 147 189 149q66 0 135 -16v63q0 63 -34.5 99t-106.5 36q-61 0 -133 -24l-10 41q75 25 144 25q150 0 175 -129q64 129 189 129q97 0 149 -61t52 -154q0 -27 -3 -54h-374q2 -106 57 -159.5t151 -53.5q77 0 155 34z" />
<glyph unicode="&#xe7;" horiz-adv-x="488" d="M299 513q76 0 141 -29l-12 -40q-67 27 -128 27q-92 0 -140.5 -60.5t-48.5 -163.5q0 -106 51 -161t151 -55q62 0 122 30l12 -40q-61 -33 -136 -33h-7l-16 -45q91 -7 91 -76q0 -39 -30.5 -59t-79.5 -20q-31 0 -57 7l7 34q26 -6 48 -6q70 0 70 45q0 42 -79 45l-10 24l19 54 q-99 11 -152 77t-53 178q0 122 62 194.5t175 72.5z" />
<glyph unicode="&#xe8;" horiz-adv-x="548" d="M473 65l11 -41q-73 -36 -167 -36q-119 0 -187 68t-68 196q0 116 60 188.5t165 72.5q96 0 148 -61t52 -154q0 -27 -3 -54h-374q2 -106 57.5 -159.5t151.5 -53.5q76 0 154 34zM287 471q-78 0 -123.5 -51.5t-52.5 -137.5h327q1 8 1 22q0 70 -37.5 118.5t-114.5 48.5z M265 584l-99 134h54l91 -134h-46z" />
<glyph unicode="&#xe9;" horiz-adv-x="548" d="M473 65l11 -41q-73 -36 -167 -36q-119 0 -187 68t-68 196q0 116 60 188.5t165 72.5q96 0 148 -61t52 -154q0 -27 -3 -54h-374q2 -106 57.5 -159.5t151.5 -53.5q76 0 154 34zM287 471q-78 0 -123.5 -51.5t-52.5 -137.5h327q1 8 1 22q0 70 -37.5 118.5t-114.5 48.5z M355 718h54l-99 -134h-46z" />
<glyph unicode="&#xea;" horiz-adv-x="548" d="M473 65l11 -41q-73 -36 -167 -36q-119 0 -187 68t-68 196q0 116 60 188.5t165 72.5q96 0 148 -61t52 -154q0 -27 -3 -54h-374q2 -106 57.5 -159.5t151.5 -53.5q76 0 154 34zM287 471q-78 0 -123.5 -51.5t-52.5 -137.5h327q1 8 1 22q0 70 -37.5 118.5t-114.5 48.5z M372 584l-87 106l-87 -106h-50l108 134h59l107 -134h-50z" />
<glyph unicode="&#xeb;" horiz-adv-x="548" d="M473 65l11 -41q-73 -36 -167 -36q-119 0 -187 68t-68 196q0 116 60 188.5t165 72.5q96 0 148 -61t52 -154q0 -27 -3 -54h-374q2 -106 57.5 -159.5t151.5 -53.5q76 0 154 34zM287 471q-78 0 -123.5 -51.5t-52.5 -137.5h327q1 8 1 22q0 70 -37.5 118.5t-114.5 48.5z M242 650q0 -16 -9 -26.5t-26 -10.5t-26.5 10.5t-9.5 26.5q0 15 9.5 25.5t26.5 10.5q16 0 25.5 -10.5t9.5 -25.5zM398 650q0 -16 -9 -26.5t-25 -10.5q-18 0 -27.5 10.5t-9.5 26.5q0 15 9.5 25.5t27.5 10.5q16 0 25 -10.5t9 -25.5z" />
<glyph unicode="&#xec;" horiz-adv-x="248" d="M148 501v-501h-47v501h47zM106 584l-99 134h54l91 -134h-46z" />
<glyph unicode="&#xed;" horiz-adv-x="248" d="M148 501v-501h-47v501h47zM196 718h54l-99 -134h-46z" />
<glyph unicode="&#xee;" horiz-adv-x="248" d="M148 501v-501h-47v501h47zM213 584l-87 106l-87 -106h-50l108 134h59l107 -134h-50z" />
<glyph unicode="&#xef;" horiz-adv-x="248" d="M148 501v-501h-47v501h47zM83 650q0 -16 -9 -26.5t-26 -10.5t-26.5 10.5t-9.5 26.5q0 15 9.5 25.5t26.5 10.5q16 0 25.5 -10.5t9.5 -25.5zM239 650q0 -16 -9 -26.5t-25 -10.5q-18 0 -27.5 10.5t-9.5 26.5q0 15 9.5 25.5t27.5 10.5q16 0 25 -10.5t9 -25.5z" />
<glyph unicode="&#xf0;" horiz-adv-x="535" d="M133 681l13 39q82 -13 152 -62l85 73l24 -28l-79 -68q69 -61 107.5 -152t38.5 -192q0 -140 -55.5 -221.5t-168.5 -81.5q-89 0 -145.5 63.5t-56.5 168.5q0 95 57 158t152 63q90 0 159 -49q-31 131 -124 212l-101 -86l-23 29l94 81q-58 40 -129 53zM249 31q96 0 137 67.5 t41 192.5q0 27 -3 53q-79 56 -162 56q-82 0 -124 -51.5t-42 -128.5q0 -80 40 -134.5t113 -54.5z" />
<glyph unicode="&#xf1;" horiz-adv-x="584" d="M143 0h-47v461q97 52 207 52q95 0 142.5 -46.5t47.5 -129.5v-337h-47v334q0 63 -35.5 100t-107.5 37q-91 0 -160 -39v-432zM363 637q16 0 24 9.5t10.5 21t3.5 34.5h39q-2 -47 -17 -76t-56 -29q-31 0 -73.5 28.5t-64.5 28.5q-23 0 -32 -14t-11 -41h-39q3 96 79 96 q31 0 75 -29t62 -29z" />
<glyph unicode="&#xf2;" horiz-adv-x="564" d="M503 251q0 -119 -58 -191t-163 -72q-104 0 -162 72t-58 191t58 190.5t162 71.5q105 0 163 -71.5t58 -190.5zM111 251q0 -102 43.5 -161t127.5 -59q86 0 128.5 59t42.5 161t-42.5 161t-128.5 59q-84 0 -127.5 -59t-43.5 -161zM263 584l-99 134h54l91 -134h-46z" />
<glyph unicode="&#xf3;" horiz-adv-x="564" d="M503 251q0 -119 -58 -191t-163 -72q-104 0 -162 72t-58 191t58 190.5t162 71.5q105 0 163 -71.5t58 -190.5zM111 251q0 -102 43.5 -161t127.5 -59q86 0 128.5 59t42.5 161t-42.5 161t-128.5 59q-84 0 -127.5 -59t-43.5 -161zM353 718h54l-99 -134h-46z" />
<glyph unicode="&#xf4;" horiz-adv-x="564" d="M503 251q0 -119 -58 -191t-163 -72q-104 0 -162 72t-58 191t58 190.5t162 71.5q105 0 163 -71.5t58 -190.5zM111 251q0 -102 43.5 -161t127.5 -59q86 0 128.5 59t42.5 161t-42.5 161t-128.5 59q-84 0 -127.5 -59t-43.5 -161zM370 584l-87 106l-87 -106h-50l108 134h59 l107 -134h-50z" />
<glyph unicode="&#xf5;" horiz-adv-x="564" d="M503 251q0 -119 -58 -191t-163 -72q-104 0 -162 72t-58 191t58 190.5t162 71.5q105 0 163 -71.5t58 -190.5zM111 251q0 -102 43.5 -161t127.5 -59q86 0 128.5 59t42.5 161t-42.5 161t-128.5 59q-84 0 -127.5 -59t-43.5 -161zM352 637q16 0 24 9.5t10.5 21t3.5 34.5h39 q-2 -47 -17 -76t-56 -29q-31 0 -73.5 28.5t-64.5 28.5q-23 0 -32 -14t-11 -41h-39q3 96 79 96q31 0 75 -29t62 -29z" />
<glyph unicode="&#xf6;" horiz-adv-x="564" d="M503 251q0 -119 -58 -191t-163 -72q-104 0 -162 72t-58 191t58 190.5t162 71.5q105 0 163 -71.5t58 -190.5zM111 251q0 -102 43.5 -161t127.5 -59q86 0 128.5 59t42.5 161t-42.5 161t-128.5 59q-84 0 -127.5 -59t-43.5 -161zM240 650q0 -16 -9 -26.5t-26 -10.5 t-26.5 10.5t-9.5 26.5q0 15 9.5 25.5t26.5 10.5q16 0 25.5 -10.5t9.5 -25.5zM396 650q0 -16 -9 -26.5t-25 -10.5q-18 0 -27.5 10.5t-9.5 26.5q0 15 9.5 25.5t27.5 10.5q16 0 25 -10.5t9 -25.5z" />
<glyph unicode="&#xf7;" horiz-adv-x="497" d="M215 174q0 14 9.5 24t24.5 10t24 -10t9 -24q0 -15 -9 -25t-24 -10t-24.5 10t-9.5 25zM215 507q0 14 9.5 24t24.5 10t24 -10t9 -24q0 -15 -9 -25t-24 -10t-24.5 10t-9.5 25zM35 322v42h427v-42h-427z" />
<glyph unicode="&#xf8;" horiz-adv-x="568" d="M460 501h43l-53 -67q53 -70 53 -183q0 -119 -58 -191t-163 -72q-86 0 -142 51l-31 -39h-43l51 64q-55 70 -55 187q0 119 58 190.5t162 71.5q88 0 146 -53zM111 251q0 -91 35 -149l254 323q-44 46 -118 46q-84 0 -127.5 -59t-43.5 -161zM282 31q86 0 128.5 59t42.5 161 q0 91 -32 145l-253 -321q42 -44 114 -44z" />
<glyph unicode="&#xf9;" horiz-adv-x="575" d="M479 41q-103 -53 -212 -53q-90 0 -133 44.5t-43 123.5v345h47v-343q0 -127 129 -127q91 0 165 39v431h47v-460zM272 584l-99 134h54l91 -134h-46z" />
<glyph unicode="&#xfa;" horiz-adv-x="575" d="M479 41q-103 -53 -212 -53q-90 0 -133 44.5t-43 123.5v345h47v-343q0 -127 129 -127q91 0 165 39v431h47v-460zM362 718h54l-99 -134h-46z" />
<glyph unicode="&#xfb;" horiz-adv-x="575" d="M479 41q-103 -53 -212 -53q-90 0 -133 44.5t-43 123.5v345h47v-343q0 -127 129 -127q91 0 165 39v431h47v-460zM378 584l-87 106l-87 -106h-50l108 134h59l107 -134h-50z" />
<glyph unicode="&#xfc;" horiz-adv-x="575" d="M479 41q-103 -53 -212 -53q-90 0 -133 44.5t-43 123.5v345h47v-343q0 -127 129 -127q91 0 165 39v431h47v-460zM248 650q0 -16 -9 -26.5t-26 -10.5t-26.5 10.5t-9.5 26.5q0 15 9.5 25.5t26.5 10.5q16 0 25.5 -10.5t9.5 -25.5zM404 650q0 -16 -9 -26.5t-25 -10.5 q-18 0 -27.5 10.5t-9.5 26.5q0 15 9.5 25.5t27.5 10.5q16 0 25 -10.5t9 -25.5z" />
<glyph unicode="&#xfd;" horiz-adv-x="506" d="M286 5q-87 -153 -224 -188l-11 42q116 29 186 147q-153 239 -193 495h47q36 -220 172 -454q64 119 103.5 225t58.5 229h47q-36 -231 -186 -496zM332 718h54l-99 -134h-46z" />
<glyph unicode="&#xfe;" horiz-adv-x="573" d="M148 -184h-47v904l47 3v-239q65 29 136 29q111 0 168 -68t57 -180q0 -127 -58.5 -202t-179.5 -75q-65 0 -123 28v-200zM148 64q60 -33 122 -33q93 0 141 60.5t48 172.5q0 90 -44.5 148.5t-133.5 58.5q-74 0 -133 -34v-373z" />
<glyph unicode="&#xff;" horiz-adv-x="506" d="M286 5q-87 -153 -224 -188l-11 42q116 29 186 147q-153 239 -193 495h47q36 -220 172 -454q64 119 103.5 225t58.5 229h47q-36 -231 -186 -496zM219 650q0 -16 -9 -26.5t-26 -10.5t-26.5 10.5t-9.5 26.5q0 15 9.5 25.5t26.5 10.5q16 0 25.5 -10.5t9.5 -25.5zM375 650 q0 -16 -9 -26.5t-25 -10.5q-18 0 -27.5 10.5t-9.5 26.5q0 15 9.5 25.5t27.5 10.5q16 0 25 -10.5t9 -25.5z" />
<glyph unicode="&#x100;" horiz-adv-x="636" d="M318 653q-71 -159 -153 -387h306q-82 228 -153 387zM559 0q-32 104 -73 224h-336q-41 -120 -73 -224h-49q133 415 265 700h50q140 -302 265 -700h-49zM191 805v40h254v-40h-254z" />
<glyph unicode="&#x101;" horiz-adv-x="519" d="M243 29q86 0 138 33v167q-66 16 -129 16q-147 0 -147 -112q0 -51 36 -77.5t102 -26.5zM428 36q-77 -48 -187 -48q-89 0 -136.5 39.5t-47.5 105.5q0 78 53.5 114.5t138.5 36.5q64 0 132 -15v68q0 134 -141 134q-71 0 -136 -27l-13 41q65 28 150 28q187 0 187 -177v-300z M126 621v40h254v-40h-254z" />
<glyph unicode="&#x102;" horiz-adv-x="636" d="M318 653q-71 -159 -153 -387h306q-82 228 -153 387zM559 0q-32 104 -73 224h-336q-41 -120 -73 -224h-49q133 415 265 700h50q140 -302 265 -700h-49zM454 888q-5 -55 -40.5 -85t-95.5 -30q-59 0 -95.5 30t-40.5 85h42q10 -75 94 -75t94 75h42z" />
<glyph unicode="&#x103;" horiz-adv-x="519" d="M243 29q86 0 138 33v167q-66 16 -129 16q-147 0 -147 -112q0 -51 36 -77.5t102 -26.5zM428 36q-77 -48 -187 -48q-89 0 -136.5 39.5t-47.5 105.5q0 78 53.5 114.5t138.5 36.5q64 0 132 -15v68q0 134 -141 134q-71 0 -136 -27l-13 41q65 28 150 28q187 0 187 -177v-300z M389 704q-5 -55 -40.5 -85t-95.5 -30q-59 0 -95.5 30t-40.5 85h42q10 -75 94 -75t94 75h42z" />
<glyph unicode="&#x104;" horiz-adv-x="636" d="M318 653q-71 -159 -153 -387h306q-82 228 -153 387zM619 -179q-33 -14 -70 -14q-40 0 -66 19.5t-26 55.5q0 60 101 121q-28 95 -72 221h-336q-41 -120 -73 -224h-49q133 415 265 700h50q140 -302 265 -700h-2q-36 -24 -54 -37t-34.5 -33.5t-16.5 -38.5q0 -46 58 -46 q30 0 52 10z" />
<glyph unicode="&#x105;" horiz-adv-x="519" d="M441 -179q-34 -14 -71 -14q-39 0 -65 19.5t-26 55.5q0 59 62 119q-45 -13 -100 -13q-89 0 -136.5 39.5t-47.5 105.5q0 78 53.5 114.5t138.5 36.5q64 0 132 -15v68q0 134 -141 134q-71 0 -136 -27l-13 41q65 28 150 28q187 0 187 -177v-300q-38 -33 -55 -49.5t-34 -43.5 t-17 -52q0 -46 58 -46q30 0 52 10zM105 133q0 -51 36 -77.5t102 -26.5q86 0 138 33v167q-66 16 -129 16q-147 0 -147 -112z" />
<glyph unicode="&#x106;" horiz-adv-x="600" d="M379 -12q-151 0 -231.5 95t-80.5 258q0 166 77 268.5t228 102.5q86 0 171 -34l-13 -43q-87 33 -158 33q-66 0 -116 -26t-80 -71.5t-44.5 -103.5t-14.5 -126q0 -141 66.5 -225t196.5 -84q76 0 157 36l11 -42q-76 -38 -169 -38zM427 902h54l-99 -134h-46z" />
<glyph unicode="&#x107;" horiz-adv-x="488" d="M299 513q76 0 141 -29l-12 -40q-67 27 -128 27q-92 0 -140.5 -60.5t-48.5 -163.5q0 -106 51 -161t151 -55q62 0 122 30l12 -40q-61 -33 -136 -33q-120 0 -184.5 67t-64.5 191q0 122 62 194.5t175 72.5zM359 718h54l-99 -134h-46z" />
<glyph unicode="&#x108;" horiz-adv-x="600" d="M379 -12q-151 0 -231.5 95t-80.5 258q0 166 77 268.5t228 102.5q86 0 171 -34l-13 -43q-87 33 -158 33q-66 0 -116 -26t-80 -71.5t-44.5 -103.5t-14.5 -126q0 -141 66.5 -225t196.5 -84q76 0 157 36l11 -42q-76 -38 -169 -38zM444 768l-87 106l-87 -106h-50l108 134h59 l107 -134h-50z" />
<glyph unicode="&#x109;" horiz-adv-x="488" d="M299 513q76 0 141 -29l-12 -40q-67 27 -128 27q-92 0 -140.5 -60.5t-48.5 -163.5q0 -106 51 -161t151 -55q62 0 122 30l12 -40q-61 -33 -136 -33q-120 0 -184.5 67t-64.5 191q0 122 62 194.5t175 72.5zM375 584l-87 106l-87 -106h-50l108 134h59l107 -134h-50z" />
<glyph unicode="&#x10a;" horiz-adv-x="600" d="M379 -12q-151 0 -231.5 95t-80.5 258q0 166 77 268.5t228 102.5q86 0 171 -34l-13 -43q-87 33 -158 33q-66 0 -116 -26t-80 -71.5t-44.5 -103.5t-14.5 -126q0 -141 66.5 -225t196.5 -84q76 0 157 36l11 -42q-76 -38 -169 -38zM320 835q0 15 10 25.5t27 10.5t26.5 -10.5 t9.5 -25.5q0 -16 -9.5 -27t-26.5 -11t-27 11t-10 27z" />
<glyph unicode="&#x10b;" horiz-adv-x="488" d="M299 513q76 0 141 -29l-12 -40q-67 27 -128 27q-92 0 -140.5 -60.5t-48.5 -163.5q0 -106 51 -161t151 -55q62 0 122 30l12 -40q-61 -33 -136 -33q-120 0 -184.5 67t-64.5 191q0 122 62 194.5t175 72.5zM251 651q0 15 10 25.5t27 10.5t26.5 -10.5t9.5 -25.5 q0 -16 -9.5 -27t-26.5 -11t-27 11t-10 27z" />
<glyph unicode="&#x10c;" horiz-adv-x="600" d="M379 -12q-151 0 -231.5 95t-80.5 258q0 166 77 268.5t228 102.5q86 0 171 -34l-13 -43q-87 33 -158 33q-66 0 -116 -26t-80 -71.5t-44.5 -103.5t-14.5 -126q0 -141 66.5 -225t196.5 -84q76 0 157 36l11 -42q-76 -38 -169 -38zM271 902l86 -104l86 104h51l-108 -134h-58 l-108 134h51z" />
<glyph unicode="&#x10d;" horiz-adv-x="488" d="M299 513q76 0 141 -29l-12 -40q-67 27 -128 27q-92 0 -140.5 -60.5t-48.5 -163.5q0 -106 51 -161t151 -55q62 0 122 30l12 -40q-61 -33 -136 -33q-120 0 -184.5 67t-64.5 191q0 122 62 194.5t175 72.5zM202 718l86 -104l86 104h51l-108 -134h-58l-108 134h51z" />
<glyph unicode="&#x10e;" horiz-adv-x="686" d="M578 350q0 138 -71.5 222.5t-216.5 84.5h-137v-614h137q143 0 215.5 85t72.5 222zM106 0v700h184q163 0 250.5 -94.5t87.5 -255.5q0 -160 -88 -255t-250 -95h-184zM230 902l86 -104l86 104h51l-108 -134h-58l-108 134h51z" />
<glyph unicode="&#x10f;" horiz-adv-x="572" d="M471 32q-64 -44 -165 -44q-111 0 -177.5 67.5t-66.5 187.5q0 125 66.5 197.5t191.5 72.5q54 0 104 -20v227l47 3v-691zM111 243q0 -98 53 -155t141 -57q79 0 119 28v388q-51 24 -103 24q-102 0 -156 -60t-54 -168zM576 719h45q-8 -95 -52 -174h-35q33 71 42 174z" />
<glyph unicode="&#x110;" horiz-adv-x="687" d="M579 350q0 138 -71.5 222.5t-216.5 84.5h-137v-275h151v-43h-151v-296h137q143 0 215.5 85t72.5 222zM106 0v339h-79v43h79v318h185q162 0 250 -95t88 -255t-88 -255t-250 -95h-185z" />
<glyph unicode="&#x111;" horiz-adv-x="572" d="M247 635h177v85l47 3v-88h77v-39h-77v-564q-64 -44 -165 -44q-111 0 -177.5 67.5t-66.5 187.5q0 125 66.5 197.5t191.5 72.5q54 0 104 -20v103h-177v39zM111 243q0 -98 53 -155t141 -57q79 0 119 28v388q-51 24 -103 24q-102 0 -156 -60t-54 -168z" />
<glyph unicode="&#x112;" horiz-adv-x="562" d="M504 43v-43h-398v700h398v-43h-351v-274h301v-43h-301v-297h351zM180 805v40h254v-40h-254z" />
<glyph unicode="&#x113;" horiz-adv-x="548" d="M473 65l11 -41q-73 -36 -167 -36q-119 0 -187 68t-68 196q0 116 60 188.5t165 72.5q96 0 148 -61t52 -154q0 -27 -3 -54h-374q2 -106 57.5 -159.5t151.5 -53.5q76 0 154 34zM287 471q-78 0 -123.5 -51.5t-52.5 -137.5h327q1 8 1 22q0 70 -37.5 118.5t-114.5 48.5z M158 621v40h254v-40h-254z" />
<glyph unicode="&#x114;" horiz-adv-x="562" d="M504 43v-43h-398v700h398v-43h-351v-274h301v-43h-301v-297h351zM443 888q-5 -55 -40.5 -85t-95.5 -30q-59 0 -95.5 30t-40.5 85h42q10 -75 94 -75t94 75h42z" />
<glyph unicode="&#x115;" horiz-adv-x="548" d="M473 65l11 -41q-73 -36 -167 -36q-119 0 -187 68t-68 196q0 116 60 188.5t165 72.5q96 0 148 -61t52 -154q0 -27 -3 -54h-374q2 -106 57.5 -159.5t151.5 -53.5q76 0 154 34zM287 471q-78 0 -123.5 -51.5t-52.5 -137.5h327q1 8 1 22q0 70 -37.5 118.5t-114.5 48.5z M421 704q-5 -55 -40.5 -85t-95.5 -30q-59 0 -95.5 30t-40.5 85h42q10 -75 94 -75t94 75h42z" />
<glyph unicode="&#x116;" horiz-adv-x="562" d="M504 43v-43h-398v700h398v-43h-351v-274h301v-43h-301v-297h351zM270 835q0 15 10 25.5t27 10.5t26.5 -10.5t9.5 -25.5q0 -16 -9.5 -27t-26.5 -11t-27 11t-10 27z" />
<glyph unicode="&#x117;" horiz-adv-x="548" d="M473 65l11 -41q-73 -36 -167 -36q-119 0 -187 68t-68 196q0 116 60 188.5t165 72.5q96 0 148 -61t52 -154q0 -27 -3 -54h-374q2 -106 57.5 -159.5t151.5 -53.5q76 0 154 34zM287 471q-78 0 -123.5 -51.5t-52.5 -137.5h327q1 8 1 22q0 70 -37.5 118.5t-114.5 48.5z M247 651q0 15 10 25.5t27 10.5t26.5 -10.5t9.5 -25.5q0 -16 -9.5 -27t-26.5 -11t-27 11t-10 27z" />
<glyph unicode="&#x118;" horiz-adv-x="562" d="M517 -179q-34 -14 -71 -14q-39 0 -65 19.5t-26 55.5q0 59 95 118h-344v700h398v-43h-351v-274h301v-43h-301v-297h351v-43q-36 -23 -54.5 -37t-35 -34t-16.5 -38q0 -46 58 -46q30 0 52 10z" />
<glyph unicode="&#x119;" horiz-adv-x="548" d="M287 471q-78 0 -123.5 -51.5t-52.5 -137.5h327q1 8 1 22q0 70 -37.5 118.5t-114.5 48.5zM401 -179q-33 -14 -70 -14q-40 0 -66 19.5t-26 55.5q0 53 78 106q-119 0 -187 68t-68 196q0 116 60 188.5t165 72.5q96 0 148 -61t52 -154q0 -27 -3 -54h-374q2 -106 57.5 -159.5 t151.5 -53.5q76 0 154 34l11 -41q-48 -24 -109 -32q-46 -30 -69 -53t-23 -48q0 -46 58 -46q29 0 51 10z" />
<glyph unicode="&#x11a;" horiz-adv-x="562" d="M504 43v-43h-398v700h398v-43h-351v-274h301v-43h-301v-297h351zM394 768l-87 106l-87 -106h-50l108 134h59l107 -134h-50z" />
<glyph unicode="&#x11b;" horiz-adv-x="548" d="M473 65l11 -41q-73 -36 -167 -36q-119 0 -187 68t-68 196q0 116 60 188.5t165 72.5q96 0 148 -61t52 -154q0 -27 -3 -54h-374q2 -106 57.5 -159.5t151.5 -53.5q76 0 154 34zM287 471q-78 0 -123.5 -51.5t-52.5 -137.5h327q1 8 1 22q0 70 -37.5 118.5t-114.5 48.5z M199 718l86 -104l86 104h51l-108 -134h-58l-108 134h51z" />
<glyph unicode="&#x11c;" horiz-adv-x="678" d="M601 29q-85 -41 -188 -41q-168 0 -257 97.5t-89 263.5q0 158 84.5 260.5t239.5 102.5q108 0 195 -42l-13 -42q-86 40 -181 40q-134 0 -204.5 -91t-70.5 -228q0 -143 76 -230t220 -87q77 0 142 24v256h-165v42h211v-325zM459 768l-87 106l-87 -106h-50l108 134h59 l107 -134h-50z" />
<glyph unicode="&#x11d;" horiz-adv-x="563" d="M467 -14q0 -88 -52 -133t-146 -45q-85 0 -155 26l11 42q73 -25 143 -25q76 0 114 35.5t38 97.5v73q-52 -38 -134 -38q-103 0 -163.5 63t-60.5 177q0 118 64.5 186t175.5 68q100 0 165 -40v-487zM111 261q0 -94 47.5 -147t130.5 -53q78 0 131 40v346q-54 24 -119 24 q-88 0 -139 -55.5t-51 -154.5zM373 584l-87 106l-87 -106h-50l108 134h59l107 -134h-50z" />
<glyph unicode="&#x11e;" horiz-adv-x="678" d="M601 29q-85 -41 -188 -41q-168 0 -257 97.5t-89 263.5q0 158 84.5 260.5t239.5 102.5q108 0 195 -42l-13 -42q-86 40 -181 40q-134 0 -204.5 -91t-70.5 -228q0 -143 76 -230t220 -87q77 0 142 24v256h-165v42h211v-325zM508 888q-5 -55 -40.5 -85t-95.5 -30 q-59 0 -95.5 30t-40.5 85h42q10 -75 94 -75t94 75h42z" />
<glyph unicode="&#x11f;" horiz-adv-x="563" d="M467 -14q0 -88 -52 -133t-146 -45q-85 0 -155 26l11 42q73 -25 143 -25q76 0 114 35.5t38 97.5v73q-52 -38 -134 -38q-103 0 -163.5 63t-60.5 177q0 118 64.5 186t175.5 68q100 0 165 -40v-487zM111 261q0 -94 47.5 -147t130.5 -53q78 0 131 40v346q-54 24 -119 24 q-88 0 -139 -55.5t-51 -154.5zM422 704q-5 -55 -40.5 -85t-95.5 -30q-59 0 -95.5 30t-40.5 85h42q10 -75 94 -75t94 75h42z" />
<glyph unicode="&#x120;" horiz-adv-x="678" d="M601 29q-85 -41 -188 -41q-168 0 -257 97.5t-89 263.5q0 158 84.5 260.5t239.5 102.5q108 0 195 -42l-13 -42q-86 40 -181 40q-134 0 -204.5 -91t-70.5 -228q0 -143 76 -230t220 -87q77 0 142 24v256h-165v42h211v-325zM335 835q0 15 10 25.5t27 10.5t26.5 -10.5 t9.5 -25.5q0 -16 -9.5 -27t-26.5 -11t-27 11t-10 27z" />
<glyph unicode="&#x121;" horiz-adv-x="563" d="M467 -14q0 -88 -52 -133t-146 -45q-85 0 -155 26l11 42q73 -25 143 -25q76 0 114 35.5t38 97.5v73q-52 -38 -134 -38q-103 0 -163.5 63t-60.5 177q0 118 64.5 186t175.5 68q100 0 165 -40v-487zM111 261q0 -94 47.5 -147t130.5 -53q78 0 131 40v346q-54 24 -119 24 q-88 0 -139 -55.5t-51 -154.5zM249 651q0 15 10 25.5t27 10.5t26.5 -10.5t9.5 -25.5q0 -16 -9.5 -27t-26.5 -11t-27 11t-10 27z" />
<glyph unicode="&#x122;" horiz-adv-x="678" d="M601 29q-85 -41 -188 -41q-168 0 -257 97.5t-89 263.5q0 158 84.5 260.5t239.5 102.5q108 0 195 -42l-13 -42q-86 40 -181 40q-134 0 -204.5 -91t-70.5 -228q0 -143 76 -230t220 -87q77 0 142 24v256h-165v42h211v-325zM393 -59h45q-4 -79 -43 -151h-35q28 62 33 151z " />
<glyph unicode="&#x123;" horiz-adv-x="563" d="M467 -14q0 -88 -52 -133t-146 -45q-85 0 -155 26l11 42q73 -25 143 -25q76 0 114 35.5t38 97.5v73q-52 -38 -134 -38q-103 0 -163.5 63t-60.5 177q0 118 64.5 186t175.5 68q100 0 165 -40v-487zM111 261q0 -94 47.5 -147t130.5 -53q78 0 131 40v346q-54 24 -119 24 q-88 0 -139 -55.5t-51 -154.5zM308 584h-45q9 88 48 143h35q-28 -50 -38 -143z" />
<glyph unicode="&#x124;" horiz-adv-x="719" d="M613 0h-48v340h-412v-340h-47v700h47v-317h412v317h48v-700zM443 768l-87 106l-87 -106h-50l108 134h59l107 -134h-50z" />
<glyph unicode="&#x125;" horiz-adv-x="588" d="M148 0h-47v720l47 3v-253q74 43 162 43q91 0 139 -47t48 -129v-337h-47v334q0 65 -35.5 101t-107.5 36q-87 0 -159 -44v-427zM325 806l-87 106l-87 -106h-50l108 134h59l107 -134h-50z" />
<glyph unicode="&#x126;" horiz-adv-x="720" d="M566 0v340h-412v-340h-48v514h-79v42h79v144h48v-144h412v144h48v-144h79v-42h-79v-514h-48zM566 383v131h-412v-131h412z" />
<glyph unicode="&#x127;" horiz-adv-x="588" d="M148 470q74 43 162 43q90 0 138.5 -47.5t48.5 -129.5v-336h-47v333q0 65 -35.5 101.5t-107.5 36.5q-87 0 -159 -44v-427h-47v596h-79v39h79v85l47 3v-88h176v-39h-176v-126z" />
<glyph unicode="&#x128;" horiz-adv-x="259" d="M106 0v700h47v-700h-47zM199 821q16 0 24 9.5t10.5 21t3.5 34.5h39q-2 -47 -17 -76t-56 -29q-31 0 -73.5 28.5t-64.5 28.5q-23 0 -32 -14t-11 -41h-39q3 96 79 96q31 0 75 -29t62 -29z" />
<glyph unicode="&#x129;" horiz-adv-x="248" d="M148 501v-501h-47v501h47zM195 637q16 0 24 9.5t10.5 21t3.5 34.5h39q-2 -47 -17 -76t-56 -29q-31 0 -73.5 28.5t-64.5 28.5q-23 0 -32 -14t-11 -41h-39q3 96 79 96q31 0 75 -29t62 -29z" />
<glyph unicode="&#x12a;" horiz-adv-x="259" d="M106 0v700h47v-700h-47zM3 805v40h254v-40h-254z" />
<glyph unicode="&#x12b;" horiz-adv-x="248" d="M148 501v-501h-47v501h47zM-1 621v40h254v-40h-254z" />
<glyph unicode="&#x12c;" horiz-adv-x="259" d="M106 0v700h47v-700h-47zM266 888q-5 -55 -40.5 -85t-95.5 -30q-59 0 -95.5 30t-40.5 85h42q10 -75 94 -75t94 75h42z" />
<glyph unicode="&#x12d;" horiz-adv-x="248" d="M148 501v-501h-47v501h47zM262 704q-5 -55 -40.5 -85t-95.5 -30q-59 0 -95.5 30t-40.5 85h42q10 -75 94 -75t94 75h42z" />
<glyph unicode="&#x12e;" horiz-adv-x="259" d="M165 -179q-33 -14 -70 -14q-40 0 -66 19.5t-26 55.5q0 61 103 122v696h47v-700h-1q-36 -24 -54 -37t-34.5 -33.5t-16.5 -38.5q0 -46 58 -46q30 0 52 10z" />
<glyph unicode="&#x12f;" horiz-adv-x="248" d="M125 620q-17 0 -27 10.5t-10 26.5q0 15 10 25.5t27 10.5q16 0 25.5 -10.5t9.5 -25.5q0 -16 -9.5 -26.5t-25.5 -10.5zM160 -179q-33 -14 -70 -14q-40 0 -66 19.5t-26 55.5q0 61 103 122v497h47v-501h-1q-36 -24 -54 -37t-34.5 -33.5t-16.5 -38.5q0 -46 58 -46q30 0 52 10z " />
<glyph unicode="&#x130;" horiz-adv-x="259" d="M106 0v700h47v-700h-47zM93 835q0 15 10 25.5t27 10.5t26.5 -10.5t9.5 -25.5q0 -16 -9.5 -27t-26.5 -11t-27 11t-10 27z" />
<glyph unicode="&#x131;" horiz-adv-x="248" d="M148 501v-501h-47v501h47z" />
<glyph unicode="&#x132;" horiz-adv-x="518" d="M106 0v700h47v-700h-47zM296 -126q69 125 69 271v555h47v-556q0 -164 -75 -293z" />
<glyph unicode="&#x133;" horiz-adv-x="496" d="M148 501v-501h-47v501h47zM125 620q-17 0 -27 10.5t-10 26.5q0 15 10 25.5t27 10.5q16 0 25.5 -10.5t9.5 -25.5q0 -16 -9.5 -26.5t-25.5 -10.5zM396 -31q0 -60 -24 -95.5t-79 -58.5l-16 40q39 20 55.5 44t16.5 71v531h47v-532zM408 657q0 -16 -9.5 -26.5t-25.5 -10.5 q-17 0 -27 10.5t-10 26.5q0 15 10 25.5t27 10.5q16 0 25.5 -10.5t9.5 -25.5z" />
<glyph unicode="&#x134;" horiz-adv-x="259" d="M37 -126q69 125 69 271v555h47v-556q0 -164 -75 -293zM217 768l-87 106l-87 -106h-50l108 134h59l107 -134h-50z" />
<glyph unicode="&#x135;" horiz-adv-x="248" d="M29 -145q39 20 55.5 44t16.5 71v531h47v-532q0 -60 -24 -95.5t-79 -58.5zM211 584l-87 106l-87 -106h-50l108 134h59l107 -134h-50z" />
<glyph unicode="&#x136;" horiz-adv-x="621" d="M543 700q-19 -102 -70.5 -182.5t-142.5 -149.5l260 -368h-59l-239 341q-54 -37 -139 -81v-260h-47v700h47v-391q157 84 237.5 174t105.5 217h47zM311 -59h45q-4 -79 -43 -151h-35q28 62 33 151z" />
<glyph unicode="&#x137;" horiz-adv-x="522" d="M450 501q-21 -138 -152 -242l189 -259h-56l-168 233q-53 -37 -115 -72v-161h-47v720l47 3v-515q123 73 181.5 136t74.5 157h46zM255 -59h45q-4 -79 -43 -151h-35q28 62 33 151z" />
<glyph unicode="&#x139;" horiz-adv-x="545" d="M106 0v700h47v-657h349v-43h-396zM200 902h54l-99 -134h-46z" />
<glyph unicode="&#x13a;" horiz-adv-x="280" d="M143 723v-594q0 -52 15.5 -75.5t55.5 -23.5q13 0 28 3l5 -40q-17 -5 -36 -5q-115 0 -115 140v592zM190 932h54l-99 -134h-46z" />
<glyph unicode="&#x13b;" horiz-adv-x="545" d="M106 0v700h47v-657h349v-43h-396zM272 -59h45q-4 -79 -43 -151h-35q28 62 33 151z" />
<glyph unicode="&#x13c;" horiz-adv-x="280" d="M143 723v-594q0 -52 15.5 -75.5t55.5 -23.5q13 0 28 3l5 -40q-17 -5 -36 -5q-115 0 -115 140v592zM137 -59h45q-4 -79 -43 -151h-35q28 62 33 151z" />
<glyph unicode="&#x13d;" horiz-adv-x="545" d="M106 0v700h47v-657h349v-43h-396zM312 700h45q-8 -95 -52 -174h-35q33 71 42 174z" />
<glyph unicode="&#x13e;" horiz-adv-x="280" d="M143 723v-594q0 -52 15.5 -75.5t55.5 -23.5q13 0 28 3l5 -40q-17 -5 -36 -5q-115 0 -115 140v592zM248 719h45q-8 -95 -52 -174h-35q33 71 42 174z" />
<glyph unicode="&#x13f;" horiz-adv-x="545" d="M106 0v700h47v-657h349v-43h-396zM367 365q0 15 9.5 24.5t25.5 9.5q15 0 24.5 -9.5t9.5 -24.5t-9.5 -25.5t-24.5 -10.5q-16 0 -25.5 10.5t-9.5 25.5z" />
<glyph unicode="&#x140;" horiz-adv-x="290" d="M143 723v-594q0 -52 15.5 -75.5t55.5 -23.5q13 0 28 3l5 -40q-17 -5 -36 -5q-115 0 -115 140v592zM230 355q0 15 9.5 24.5t25.5 9.5q15 0 24.5 -9.5t9.5 -24.5t-9.5 -25.5t-24.5 -10.5q-16 0 -25.5 10.5t-9.5 25.5z" />
<glyph unicode="&#x141;" horiz-adv-x="559" d="M106 0v320l-92 -38v44l92 38v336h47v-316l143 59v-44l-143 -59v-297h349v-43h-396z" />
<glyph unicode="&#x142;" horiz-adv-x="280" d="M25 314v43l71 32v331l47 3v-312l100 45v-43l-100 -45v-239q0 -52 15.5 -75.5t55.5 -23.5q13 0 28 3l5 -40q-17 -5 -36 -5q-115 0 -115 140v218z" />
<glyph unicode="&#x143;" horiz-adv-x="719" d="M152 0h-46v700h46q161 -282 419 -632q-4 33 -4 96v536h47v-700h-47q-149 200 -244.5 339t-173.5 283q3 -96 3 -109v-513zM431 902h54l-99 -134h-46z" />
<glyph unicode="&#x144;" horiz-adv-x="584" d="M143 0h-47v461q97 52 207 52q95 0 142.5 -46.5t47.5 -129.5v-337h-47v334q0 63 -35.5 100t-107.5 37q-91 0 -160 -39v-432zM364 718h54l-99 -134h-46z" />
<glyph unicode="&#x145;" horiz-adv-x="719" d="M152 0h-46v700h46q161 -282 419 -632q-4 33 -4 96v536h47v-700h-47q-149 200 -244.5 339t-173.5 283q3 -96 3 -109v-513zM339 -59h45q-4 -79 -43 -151h-35q28 62 33 151z" />
<glyph unicode="&#x146;" horiz-adv-x="584" d="M143 0h-47v461q97 52 207 52q95 0 142.5 -46.5t47.5 -129.5v-337h-47v334q0 63 -35.5 100t-107.5 37q-91 0 -160 -39v-432zM273 -59h45q-4 -79 -43 -151h-35q28 62 33 151z" />
<glyph unicode="&#x147;" horiz-adv-x="719" d="M152 0h-46v700h46q161 -282 419 -632q-4 33 -4 96v536h47v-700h-47q-149 200 -244.5 339t-173.5 283q3 -96 3 -109v-513zM274 902l86 -104l86 104h51l-108 -134h-58l-108 134h51z" />
<glyph unicode="&#x148;" horiz-adv-x="584" d="M143 0h-47v461q97 52 207 52q95 0 142.5 -46.5t47.5 -129.5v-337h-47v334q0 63 -35.5 100t-107.5 37q-91 0 -160 -39v-432zM208 718l86 -104l86 104h51l-108 -134h-58l-108 134h51z" />
<glyph unicode="&#x14c;" horiz-adv-x="708" d="M641 350q0 -160 -72.5 -261t-214.5 -101t-214.5 101t-72.5 261t72 261t215 101q142 0 214.5 -101t72.5 -261zM117 350q0 -90 23 -159.5t78 -114t136 -44.5t136 44.5t78 114t23 159.5t-23 159.5t-78 114t-136 44.5q-121 0 -179 -89t-58 -229zM227 805v40h254v-40h-254z " />
<glyph unicode="&#x14d;" horiz-adv-x="564" d="M503 251q0 -119 -58 -191t-163 -72q-104 0 -162 72t-58 191t58 190.5t162 71.5q105 0 163 -71.5t58 -190.5zM111 251q0 -102 43.5 -161t127.5 -59q86 0 128.5 59t42.5 161t-42.5 161t-128.5 59q-84 0 -127.5 -59t-43.5 -161zM156 621v40h254v-40h-254z" />
<glyph unicode="&#x14e;" horiz-adv-x="708" d="M641 350q0 -160 -72.5 -261t-214.5 -101t-214.5 101t-72.5 261t72 261t215 101q142 0 214.5 -101t72.5 -261zM117 350q0 -90 23 -159.5t78 -114t136 -44.5t136 44.5t78 114t23 159.5t-23 159.5t-78 114t-136 44.5q-121 0 -179 -89t-58 -229zM490 888q-5 -55 -40.5 -85 t-95.5 -30q-59 0 -95.5 30t-40.5 85h42q10 -75 94 -75t94 75h42z" />
<glyph unicode="&#x14f;" horiz-adv-x="564" d="M503 251q0 -119 -58 -191t-163 -72q-104 0 -162 72t-58 191t58 190.5t162 71.5q105 0 163 -71.5t58 -190.5zM111 251q0 -102 43.5 -161t127.5 -59q86 0 128.5 59t42.5 161t-42.5 161t-128.5 59q-84 0 -127.5 -59t-43.5 -161zM419 704q-5 -55 -40.5 -85t-95.5 -30 q-59 0 -95.5 30t-40.5 85h42q10 -75 94 -75t94 75h42z" />
<glyph unicode="&#x150;" horiz-adv-x="708" d="M641 350q0 -160 -72.5 -261t-214.5 -101t-214.5 101t-72.5 261t72 261t215 101q142 0 214.5 -101t72.5 -261zM117 350q0 -90 23 -159.5t78 -114t136 -44.5t136 44.5t78 114t23 159.5t-23 159.5t-78 114t-136 44.5q-121 0 -179 -89t-58 -229zM483 902h54l-98 -134h-47z M345 902h54l-98 -134h-46z" />
<glyph unicode="&#x151;" horiz-adv-x="564" d="M503 251q0 -119 -58 -191t-163 -72q-104 0 -162 72t-58 191t58 190.5t162 71.5q105 0 163 -71.5t58 -190.5zM111 251q0 -102 43.5 -161t127.5 -59q86 0 128.5 59t42.5 161t-42.5 161t-128.5 59q-84 0 -127.5 -59t-43.5 -161zM412 718h54l-98 -134h-47zM274 718h54 l-98 -134h-46z" />
<glyph unicode="&#x152;" horiz-adv-x="1046" d="M988 43v-43h-397v144q-68 -156 -239 -156q-141 0 -213 101t-72 261q0 77 17 141.5t50.5 114.5t89 78t128.5 28q171 0 239 -156v144h397v-43h-350v-274h301v-43h-301v-297h350zM117 350q0 -90 23 -159.5t78 -114t136 -44.5q120 0 178.5 88.5t58.5 229.5t-58.5 229.5 t-178.5 88.5q-121 0 -179 -89t-58 -229z" />
<glyph unicode="&#x153;" horiz-adv-x="939" d="M111 251q0 -102 43.5 -161t127.5 -59q86 0 129 59t43 161t-43 161t-129 59q-84 0 -127.5 -59t-43.5 -161zM678 471q-78 0 -124 -51.5t-53 -137.5h330v22q0 69 -38 118t-115 49zM875 24q-73 -36 -166 -36q-171 0 -230 144q-54 -144 -198 -144q-103 0 -161 72t-58 191 t58 190.5t161 71.5q144 0 197 -143q57 143 200 143q96 0 148 -61t52 -154q0 -27 -3 -54h-373q2 -106 57 -159.5t151 -53.5q76 0 154 34z" />
<glyph unicode="&#x154;" horiz-adv-x="614" d="M259 657h-106v-309h106q106 0 160.5 37t54.5 120q0 82 -54 117t-161 35zM572 0h-59l-131 209q-34 54 -62.5 75.5t-75.5 21.5h-91v-306h-47v700h153q264 0 264 -194q0 -88 -52 -136t-131 -53q21 -7 40 -26t47 -63zM346 902h54l-99 -134h-46z" />
<glyph unicode="&#x155;" horiz-adv-x="374" d="M101 460q89 53 210 53q20 0 44 -3l-7 -43q-15 4 -36 4q-96 0 -164 -40v-431h-47v460zM288 718h54l-99 -134h-46z" />
<glyph unicode="&#x156;" horiz-adv-x="614" d="M259 657h-106v-309h106q106 0 160.5 37t54.5 120q0 82 -54 117t-161 35zM572 0h-59l-131 209q-34 54 -62.5 75.5t-75.5 21.5h-91v-306h-47v700h153q264 0 264 -194q0 -88 -52 -136t-131 -53q21 -7 40 -26t47 -63zM296 -59h45q-4 -79 -43 -151h-35q28 62 33 151z" />
<glyph unicode="&#x157;" horiz-adv-x="374" d="M101 460q89 53 210 53q20 0 44 -3l-7 -43q-15 4 -36 4q-96 0 -164 -40v-431h-47v460zM106 -59h45q-4 -79 -43 -151h-35q28 62 33 151z" />
<glyph unicode="&#x158;" horiz-adv-x="614" d="M259 657h-106v-309h106q106 0 160.5 37t54.5 120q0 82 -54 117t-161 35zM572 0h-59l-131 209q-34 54 -62.5 75.5t-75.5 21.5h-91v-306h-47v700h153q264 0 264 -194q0 -88 -52 -136t-131 -53q21 -7 40 -26t47 -63zM189 902l86 -104l86 104h51l-108 -134h-58l-108 134h51z " />
<glyph unicode="&#x159;" horiz-adv-x="374" d="M101 460q89 53 210 53q20 0 44 -3l-7 -43q-15 4 -36 4q-96 0 -164 -40v-431h-47v460zM131 718l86 -104l86 104h51l-108 -134h-58l-108 134h51z" />
<glyph unicode="&#x15a;" horiz-adv-x="543" d="M57 25l10 45q112 -38 191 -38q87 0 135.5 35t48.5 106q0 37 -13 64.5t-42 47t-58 31.5t-79 27q-96 30 -141.5 73t-45.5 121q0 85 59 130t160 45q83 0 160 -28l-10 -41q-84 25 -147 25q-172 0 -172 -130q0 -63 37.5 -94t121.5 -58q55 -17 87 -30.5t66.5 -37.5t50.5 -59.5 t16 -85.5q0 -96 -66.5 -140.5t-166.5 -44.5q-114 0 -202 37zM341 902h54l-99 -134h-46z" />
<glyph unicode="&#x15b;" horiz-adv-x="429" d="M353 490l-8 -41q-71 22 -125 22q-120 0 -120 -93q0 -24 9 -42t30 -30.5t35.5 -18.5t45.5 -16q88 -27 128 -58t40 -89q0 -67 -49.5 -101.5t-128.5 -34.5q-44 0 -92 9.5t-70 19.5l10 42q80 -28 152 -28q60 0 94.5 24t34.5 69q0 41 -33 63t-108 45q-69 22 -107.5 53.5 t-38.5 91.5q0 66 43.5 101t123.5 35q79 0 134 -23zM282 718h54l-99 -134h-46z" />
<glyph unicode="&#x15c;" horiz-adv-x="543" d="M57 25l10 45q112 -38 191 -38q87 0 135.5 35t48.5 106q0 37 -13 64.5t-42 47t-58 31.5t-79 27q-96 30 -141.5 73t-45.5 121q0 85 59 130t160 45q83 0 160 -28l-10 -41q-84 25 -147 25q-172 0 -172 -130q0 -63 37.5 -94t121.5 -58q55 -17 87 -30.5t66.5 -37.5t50.5 -59.5 t16 -85.5q0 -96 -66.5 -140.5t-166.5 -44.5q-114 0 -202 37zM357 768l-87 106l-87 -106h-50l108 134h59l107 -134h-50z" />
<glyph unicode="&#x15d;" horiz-adv-x="429" d="M353 490l-8 -41q-71 22 -125 22q-120 0 -120 -93q0 -24 9 -42t30 -30.5t35.5 -18.5t45.5 -16q88 -27 128 -58t40 -89q0 -67 -49.5 -101.5t-128.5 -34.5q-44 0 -92 9.5t-70 19.5l10 42q80 -28 152 -28q60 0 94.5 24t34.5 69q0 41 -33 63t-108 45q-69 22 -107.5 53.5 t-38.5 91.5q0 66 43.5 101t123.5 35q79 0 134 -23zM299 584l-87 106l-87 -106h-50l108 134h59l107 -134h-50z" />
<glyph unicode="&#x15e;" horiz-adv-x="543" d="M57 25l10 45q112 -38 191 -38q87 0 135.5 35t48.5 106q0 37 -13 64.5t-42 47t-58 31.5t-79 27q-96 30 -141.5 73t-45.5 121q0 85 59 130t160 45q81 0 160 -28l-9 -42q-81 26 -148 26q-172 0 -172 -130q0 -63 37.5 -94t121.5 -58q55 -17 87 -30.5t66.5 -37.5t50.5 -59.5 t16 -85.5q0 -90 -58.5 -134.5t-150.5 -49.5l-16 -46q92 -7 92 -76q0 -39 -30.5 -59t-80.5 -20q-30 0 -56 7l7 34q26 -6 48 -6q69 0 69 45q0 42 -79 45l-9 24l17 51q-108 3 -188 37z" />
<glyph unicode="&#x15f;" horiz-adv-x="429" d="M353 490l-8 -41q-83 22 -125 22q-58 0 -89 -18.5t-31 -65.5q0 -41 25 -60t91 -41q92 -31 132 -63t40 -96q0 -66 -44.5 -100.5t-117.5 -38.5l-16 -45q91 -7 91 -76q0 -39 -30.5 -59t-79.5 -20q-31 0 -57 7l7 34q26 -6 48 -6q70 0 70 45q0 42 -79 45l-10 24l18 51 q-69 4 -140 28l9 43q80 -28 153 -28q61 0 95 24t34 72q0 47 -34 70.5t-116 50.5q-71 22 -104 52.5t-33 85.5q0 127 167 127q55 0 134 -23z" />
<glyph unicode="&#x160;" horiz-adv-x="543" d="M57 25l10 45q112 -38 191 -38q87 0 135.5 35t48.5 106q0 37 -13 64.5t-42 47t-58 31.5t-79 27q-96 30 -141.5 73t-45.5 121q0 85 59 130t160 45q83 0 160 -28l-10 -41q-84 25 -147 25q-172 0 -172 -130q0 -63 37.5 -94t121.5 -58q55 -17 87 -30.5t66.5 -37.5t50.5 -59.5 t16 -85.5q0 -96 -66.5 -140.5t-166.5 -44.5q-114 0 -202 37zM184 902l86 -104l86 104h51l-108 -134h-58l-108 134h51z" />
<glyph unicode="&#x161;" horiz-adv-x="429" d="M353 490l-8 -41q-71 22 -125 22q-120 0 -120 -93q0 -24 9 -42t30 -30.5t35.5 -18.5t45.5 -16q88 -27 128 -58t40 -89q0 -67 -49.5 -101.5t-128.5 -34.5q-44 0 -92 9.5t-70 19.5l10 42q80 -28 152 -28q60 0 94.5 24t34.5 69q0 41 -33 63t-108 45q-69 22 -107.5 53.5 t-38.5 91.5q0 66 43.5 101t123.5 35q79 0 134 -23zM126 718l86 -104l86 104h51l-108 -134h-58l-108 134h51z" />
<glyph unicode="&#x162;" horiz-adv-x="550" d="M251 0v657h-222v43h492v-43h-222v-657h-7l-20 -57q92 -7 92 -76q0 -39 -30.5 -59t-80.5 -20q-30 0 -56 7l7 34q26 -6 48 -6q69 0 69 45q0 42 -79 45l-9 24l21 63h-3z" />
<glyph unicode="&#x163;" horiz-adv-x="333" d="M80 -205l7 34q26 -6 48 -6q69 0 69 45q0 42 -79 45l-9 24l27 81q-41 36 -41 117v325h-78v41h78v122l47 4v-126h145v-41h-145v-325q0 -57 23 -80.5t68 -23.5q36 0 65 9l3 -41q-35 -11 -70 -11q-38 0 -64 11l-19 -56q92 -7 92 -76q0 -39 -30.5 -59t-80.5 -20q-30 0 -56 7z " />
<glyph unicode="&#x164;" horiz-adv-x="550" d="M251 0v657h-222v43h492v-43h-222v-657h-48zM188 902l86 -104l86 104h51l-108 -134h-58l-108 134h51z" />
<glyph unicode="&#x165;" horiz-adv-x="333" d="M308 -1q-35 -11 -70 -11q-136 0 -136 147v325h-78v41h78v122l47 4v-126h145v-41h-145v-325q0 -57 23 -80.5t68 -23.5q36 0 65 9zM243 734h45q-8 -95 -52 -174h-35q33 71 42 174z" />
<glyph unicode="&#x166;" horiz-adv-x="550" d="M251 0v348h-144v43h144v266h-222v43h492v-43h-222v-266h144v-43h-144v-348h-48z" />
<glyph unicode="&#x167;" horiz-adv-x="333" d="M294 501v-41h-145v-130h145v-41h-145v-138q0 -66 22.5 -92.5t70.5 -26.5q34 0 63 9l3 -42q-35 -11 -73 -11q-133 0 -133 163v138h-78v41h78v130h-78v41h78v122l47 4v-126h145z" />
<glyph unicode="&#x168;" horiz-adv-x="699" d="M101 267v433h47v-432q0 -121 49.5 -178.5t151.5 -57.5q103 0 152 57t49 179v432h48v-433q0 -145 -61.5 -212t-187.5 -67t-187 67t-61 212zM418 821q16 0 24 9.5t10.5 21t3.5 34.5h39q-2 -47 -17 -76t-56 -29q-31 0 -73.5 28.5t-64.5 28.5q-23 0 -32 -14t-11 -41h-39 q3 96 79 96q31 0 75 -29t62 -29z" />
<glyph unicode="&#x169;" horiz-adv-x="575" d="M479 41q-103 -53 -212 -53q-90 0 -133 44.5t-43 123.5v345h47v-343q0 -127 129 -127q91 0 165 39v431h47v-460zM360 637q16 0 24 9.5t10.5 21t3.5 34.5h39q-2 -47 -17 -76t-56 -29q-31 0 -73.5 28.5t-64.5 28.5q-23 0 -32 -14t-11 -41h-39q3 96 79 96q31 0 75 -29t62 -29 z" />
<glyph unicode="&#x16a;" horiz-adv-x="699" d="M101 267v433h47v-432q0 -121 49.5 -178.5t151.5 -57.5q103 0 152 57t49 179v432h48v-433q0 -145 -61.5 -212t-187.5 -67t-187 67t-61 212zM222 805v40h254v-40h-254z" />
<glyph unicode="&#x16b;" horiz-adv-x="575" d="M479 41q-103 -53 -212 -53q-90 0 -133 44.5t-43 123.5v345h47v-343q0 -127 129 -127q91 0 165 39v431h47v-460zM164 621v40h254v-40h-254z" />
<glyph unicode="&#x16c;" horiz-adv-x="699" d="M101 267v433h47v-432q0 -121 49.5 -178.5t151.5 -57.5q103 0 152 57t49 179v432h48v-433q0 -145 -61.5 -212t-187.5 -67t-187 67t-61 212zM485 888q-5 -55 -40.5 -85t-95.5 -30q-59 0 -95.5 30t-40.5 85h42q10 -75 94 -75t94 75h42z" />
<glyph unicode="&#x16d;" horiz-adv-x="575" d="M479 41q-103 -53 -212 -53q-90 0 -133 44.5t-43 123.5v345h47v-343q0 -127 129 -127q91 0 165 39v431h47v-460zM427 704q-5 -55 -40.5 -85t-95.5 -30q-59 0 -95.5 30t-40.5 85h42q10 -75 94 -75t94 75h42z" />
<glyph unicode="&#x16e;" horiz-adv-x="699" d="M101 267v433h47v-432q0 -121 49.5 -178.5t151.5 -57.5q103 0 152 57t49 179v432h48v-433q0 -145 -61.5 -212t-187.5 -67t-187 67t-61 212zM253 848q0 41 27.5 68t68.5 27t68.5 -27t27.5 -68q0 -42 -27 -69t-69 -27t-69 27t-27 69zM408 848q0 26 -15.5 43t-43.5 17 t-43.5 -17t-15.5 -43t15.5 -44t43.5 -18t43.5 18t15.5 44z" />
<glyph unicode="&#x16f;" horiz-adv-x="575" d="M479 41q-103 -53 -212 -53q-90 0 -133 44.5t-43 123.5v345h47v-343q0 -127 129 -127q91 0 165 39v431h47v-460zM195 664q0 41 27.5 68t68.5 27t68.5 -27t27.5 -68q0 -42 -27 -69t-69 -27t-69 27t-27 69zM350 664q0 26 -15.5 43t-43.5 17t-43.5 -17t-15.5 -43t15.5 -44 t43.5 -18t43.5 18t15.5 44z" />
<glyph unicode="&#x170;" horiz-adv-x="699" d="M101 267v433h47v-432q0 -121 49.5 -178.5t151.5 -57.5q103 0 152 57t49 179v432h48v-433q0 -145 -61.5 -212t-187.5 -67t-187 67t-61 212zM478 902h54l-98 -134h-47zM340 902h54l-98 -134h-46z" />
<glyph unicode="&#x171;" horiz-adv-x="575" d="M479 41q-103 -53 -212 -53q-90 0 -133 44.5t-43 123.5v345h47v-343q0 -127 129 -127q91 0 165 39v431h47v-460zM420 718h54l-98 -134h-47zM282 718h54l-98 -134h-46z" />
<glyph unicode="&#x172;" horiz-adv-x="699" d="M101 267v433h47v-432q0 -121 49.5 -178.5t151.5 -57.5q103 0 152 57t49 179v432h48v-433q0 -238 -175 -272q-49 -32 -73.5 -55.5t-24.5 -48.5q0 -46 58 -46q30 0 52 10l9 -34q-34 -14 -71 -14q-39 0 -65 19.5t-26 55.5q0 53 77 106h-10q-126 0 -187 67t-61 212z" />
<glyph unicode="&#x173;" horiz-adv-x="575" d="M479 41q-52 -46 -79 -80t-27 -70q0 -46 58 -46q30 0 52 10l9 -34q-34 -14 -71 -14q-39 0 -65 19.5t-26 55.5q0 62 64 124q-62 -18 -127 -18q-90 0 -133 44.5t-43 123.5v345h47v-343q0 -127 129 -127q91 0 165 39v431h47v-460z" />
<glyph unicode="&#x174;" horiz-adv-x="957" d="M687 44q126 319 188 656h48q-40 -201 -89 -363t-121 -337h-52q-64 153 -105 295.5t-78 327.5q-36 -185 -77 -327.5t-106 -295.5h-52q-72 172 -120 333.5t-90 366.5h49q70 -356 188 -656q123 320 182 656h52q63 -346 183 -656zM565 768l-87 106l-87 -106h-50l108 134h59 l107 -134h-50z" />
<glyph unicode="&#x175;" horiz-adv-x="785" d="M398 501q32 -219 148 -457q62 125 98 231t51 226h47q-19 -132 -60.5 -249t-110.5 -252h-49q-91 181 -132 321q-42 -152 -128 -321h-49q-69 134 -110 251t-60 250h47q32 -220 149 -457q95 191 131 357q-11 49 -18 100h46zM467 584l-87 106l-87 -106h-50l108 134h59 l107 -134h-50z" />
<glyph unicode="&#x176;" horiz-adv-x="569" d="M261 0v302q-84 107 -140.5 199t-102.5 199h52q74 -172 216 -359q139 181 214 359h51q-89 -204 -242 -396v-304h-48zM372 768l-87 106l-87 -106h-50l108 134h59l107 -134h-50z" />
<glyph unicode="&#x177;" horiz-adv-x="506" d="M286 5q-87 -153 -224 -188l-11 42q116 29 186 147q-153 239 -193 495h47q36 -220 172 -454q64 119 103.5 225t58.5 229h47q-36 -231 -186 -496zM349 584l-87 106l-87 -106h-50l108 134h59l107 -134h-50z" />
<glyph unicode="&#x178;" horiz-adv-x="569" d="M261 0v302q-84 107 -140.5 199t-102.5 199h52q74 -172 216 -359q139 181 214 359h51q-89 -204 -242 -396v-304h-48zM242 834q0 -16 -9 -26.5t-26 -10.5t-26.5 10.5t-9.5 26.5q0 15 9.5 25.5t26.5 10.5q16 0 25.5 -10.5t9.5 -25.5zM398 834q0 -16 -9 -26.5t-25 -10.5 q-18 0 -27.5 10.5t-9.5 26.5q0 15 9.5 25.5t27.5 10.5q16 0 25 -10.5t9 -25.5z" />
<glyph unicode="&#x179;" horiz-adv-x="555" d="M497 664q-75 -165 -165.5 -304t-229.5 -317h410v-43h-468v37q288 374 404 620h-394v43h443v-36zM344 902h54l-99 -134h-46z" />
<glyph unicode="&#x17a;" horiz-adv-x="455" d="M53 501h359v-34q-115 -203 -317 -426h331v-41h-391v35q211 230 323 425h-305v41zM301 718h54l-99 -134h-46z" />
<glyph unicode="&#x17b;" horiz-adv-x="555" d="M497 664q-75 -165 -165.5 -304t-229.5 -317h410v-43h-468v37q288 374 404 620h-394v43h443v-36zM236 835q0 15 10 25.5t27 10.5t26.5 -10.5t9.5 -25.5q0 -16 -9.5 -27t-26.5 -11t-27 11t-10 27z" />
<glyph unicode="&#x17c;" horiz-adv-x="455" d="M53 501h359v-34q-115 -203 -317 -426h331v-41h-391v35q211 230 323 425h-305v41zM193 651q0 15 10 25.5t27 10.5t26.5 -10.5t9.5 -25.5q0 -16 -9.5 -27t-26.5 -11t-27 11t-10 27z" />
<glyph unicode="&#x17d;" horiz-adv-x="555" d="M497 664q-75 -165 -165.5 -304t-229.5 -317h410v-43h-468v37q288 374 404 620h-394v43h443v-36zM187 902l86 -104l86 104h51l-108 -134h-58l-108 134h51z" />
<glyph unicode="&#x17e;" horiz-adv-x="455" d="M53 501h359v-34q-115 -203 -317 -426h331v-41h-391v35q211 230 323 425h-305v41zM145 718l86 -104l86 104h51l-108 -134h-58l-108 134h51z" />
<glyph unicode="&#x192;" horiz-adv-x="406" d="M79 501h78v70q0 160 135 160q36 0 74 -11l-10 -40q-38 9 -61 9q-50 0 -70.5 -30t-20.5 -88v-70h144v-41h-144v-492q0 -161 -135 -161q-36 0 -74 12l11 40q38 -9 60 -9q50 0 70.5 30t20.5 87v493h-78v41z" />
<glyph unicode="&#x218;" horiz-adv-x="543" d="M57 25l10 45q112 -38 191 -38q87 0 135.5 35t48.5 106q0 37 -13 64.5t-42 47t-58 31.5t-79 27q-96 30 -141.5 73t-45.5 121q0 85 59 130t160 45q83 0 160 -28l-10 -41q-84 25 -147 25q-172 0 -172 -130q0 -63 37.5 -94t121.5 -58q55 -17 87 -30.5t66.5 -37.5t50.5 -59.5 t16 -85.5q0 -96 -66.5 -140.5t-166.5 -44.5q-114 0 -202 37zM262 -59h45q-4 -79 -43 -151h-35q28 62 33 151z" />
<glyph unicode="&#x219;" horiz-adv-x="429" d="M353 490l-8 -41q-71 22 -125 22q-120 0 -120 -93q0 -24 9 -42t30 -30.5t35.5 -18.5t45.5 -16q88 -27 128 -58t40 -89q0 -67 -49.5 -101.5t-128.5 -34.5q-44 0 -92 9.5t-70 19.5l10 42q80 -28 152 -28q60 0 94.5 24t34.5 69q0 41 -33 63t-108 45q-69 22 -107.5 53.5 t-38.5 91.5q0 66 43.5 101t123.5 35q79 0 134 -23zM205 -59h45q-4 -79 -43 -151h-35q28 62 33 151z" />
<glyph unicode="&#x21a;" horiz-adv-x="550" d="M251 0v657h-222v43h492v-43h-222v-657h-48zM254 -59h45q-4 -79 -43 -151h-35q28 62 33 151z" />
<glyph unicode="&#x21b;" horiz-adv-x="333" d="M308 -1q-35 -11 -70 -11q-136 0 -136 147v325h-78v41h78v122l47 4v-126h145v-41h-145v-325q0 -57 23 -80.5t68 -23.5q36 0 65 9zM151 -59h45q-4 -79 -43 -151h-35q28 62 33 151z" />
<glyph unicode="&#x237;" horiz-adv-x="248" d="M29 -145q39 20 55.5 44t16.5 71v531h47v-532q0 -60 -24 -95.5t-79 -58.5z" />
<glyph unicode="&#x2c6;" d="M336 570l-87 106l-87 -106h-50l108 134h59l107 -134h-50z" />
<glyph unicode="&#x2c7;" d="M155 704l86 -104l86 104h51l-108 -134h-58l-108 134h51z" />
<glyph unicode="&#x2d8;" d="M386 690q-5 -55 -40.5 -85t-95.5 -30q-59 0 -95.5 30t-40.5 85h42q10 -75 94 -75t94 75h42z" />
<glyph unicode="&#x2d9;" d="M212 637q0 15 10 25.5t27 10.5t26.5 -10.5t9.5 -25.5q0 -16 -9.5 -27t-26.5 -11t-27 11t-10 27z" />
<glyph unicode="&#x2da;" d="M153 650q0 41 27.5 68t68.5 27t68.5 -27t27.5 -68q0 -42 -27 -69t-69 -27t-69 27t-27 69zM308 650q0 26 -15.5 43t-43.5 17t-43.5 -17t-15.5 -43t15.5 -44t43.5 -18t43.5 18t15.5 44z" />
<glyph unicode="&#x2db;" d="M292 -179q-34 -14 -71 -14q-39 0 -65 19.5t-26 55.5q0 61 103 123l46 -5q-36 -23 -54.5 -37t-35 -34t-16.5 -38q0 -46 58 -46q30 0 52 10z" />
<glyph unicode="&#x2dc;" d="M317 623q16 0 24 9.5t10.5 21t3.5 34.5h39q-2 -47 -17 -76t-56 -29q-31 0 -73.5 28.5t-64.5 28.5q-23 0 -32 -14t-11 -41h-39q3 96 79 96q31 0 75 -29t62 -29z" />
<glyph unicode="&#x2dd;" d="M337 704h54l-98 -134h-47zM199 704h54l-98 -134h-46z" />
<glyph unicode="&#x326;" horiz-adv-x="0" d="M-21 -59h45q-4 -79 -43 -151h-35q28 62 33 151z" />
<glyph unicode="&#x3c0;" horiz-adv-x="640" d="M605 -2q-31 -10 -71 -10q-121 0 -121 160v312h-221v-460h-47v460h-120v41h575v-41h-140v-311q0 -65 19.5 -91t60.5 -26q31 0 63 8z" />
<glyph unicode="&#x1e80;" horiz-adv-x="957" d="M687 44q126 319 188 656h48q-40 -201 -89 -363t-121 -337h-52q-64 153 -105 295.5t-78 327.5q-36 -185 -77 -327.5t-106 -295.5h-52q-72 172 -120 333.5t-90 366.5h49q70 -356 188 -656q123 320 182 656h52q63 -346 183 -656zM458 768l-99 134h54l91 -134h-46z" />
<glyph unicode="&#x1e81;" horiz-adv-x="785" d="M398 501q32 -219 148 -457q62 125 98 231t51 226h47q-19 -132 -60.5 -249t-110.5 -252h-49q-91 181 -132 321q-42 -152 -128 -321h-49q-69 134 -110 251t-60 250h47q32 -220 149 -457q95 191 131 357q-11 49 -18 100h46zM361 584l-99 134h54l91 -134h-46z" />
<glyph unicode="&#x1e82;" horiz-adv-x="957" d="M687 44q126 319 188 656h48q-40 -201 -89 -363t-121 -337h-52q-64 153 -105 295.5t-78 327.5q-36 -185 -77 -327.5t-106 -295.5h-52q-72 172 -120 333.5t-90 366.5h49q70 -356 188 -656q123 320 182 656h52q63 -346 183 -656zM548 902h54l-99 -134h-46z" />
<glyph unicode="&#x1e83;" horiz-adv-x="785" d="M398 501q32 -219 148 -457q62 125 98 231t51 226h47q-19 -132 -60.5 -249t-110.5 -252h-49q-91 181 -132 321q-42 -152 -128 -321h-49q-69 134 -110 251t-60 250h47q32 -220 149 -457q95 191 131 357q-11 49 -18 100h46zM451 718h54l-99 -134h-46z" />
<glyph unicode="&#x1e84;" horiz-adv-x="957" d="M687 44q126 319 188 656h48q-40 -201 -89 -363t-121 -337h-52q-64 153 -105 295.5t-78 327.5q-36 -185 -77 -327.5t-106 -295.5h-52q-72 172 -120 333.5t-90 366.5h49q70 -356 188 -656q123 320 182 656h52q63 -346 183 -656zM435 834q0 -16 -9 -26.5t-26 -10.5 t-26.5 10.5t-9.5 26.5q0 15 9.5 25.5t26.5 10.5q16 0 25.5 -10.5t9.5 -25.5zM591 834q0 -16 -9 -26.5t-25 -10.5q-18 0 -27.5 10.5t-9.5 26.5q0 15 9.5 25.5t27.5 10.5q16 0 25 -10.5t9 -25.5z" />
<glyph unicode="&#x1e85;" horiz-adv-x="785" d="M398 501q32 -219 148 -457q62 125 98 231t51 226h47q-19 -132 -60.5 -249t-110.5 -252h-49q-91 181 -132 321q-42 -152 -128 -321h-49q-69 134 -110 251t-60 250h47q32 -220 149 -457q95 191 131 357q-11 49 -18 100h46zM337 650q0 -16 -9 -26.5t-26 -10.5t-26.5 10.5 t-9.5 26.5q0 15 9.5 25.5t26.5 10.5q16 0 25.5 -10.5t9.5 -25.5zM493 650q0 -16 -9 -26.5t-25 -10.5q-18 0 -27.5 10.5t-9.5 26.5q0 15 9.5 25.5t27.5 10.5q16 0 25 -10.5t9 -25.5z" />
<glyph unicode="&#x1ef2;" horiz-adv-x="569" d="M261 0v302q-84 107 -140.5 199t-102.5 199h52q74 -172 216 -359q139 181 214 359h51q-89 -204 -242 -396v-304h-48zM266 768l-99 134h54l91 -134h-46z" />
<glyph unicode="&#x1ef3;" horiz-adv-x="506" d="M286 5q-87 -153 -224 -188l-11 42q116 29 186 147q-153 239 -193 495h47q36 -220 172 -454q64 119 103.5 225t58.5 229h47q-36 -231 -186 -496zM242 584l-99 134h54l91 -134h-46z" />
<glyph unicode="&#x2000;" horiz-adv-x="471" />
<glyph unicode="&#x2001;" horiz-adv-x="943" />
<glyph unicode="&#x2002;" horiz-adv-x="471" />
<glyph unicode="&#x2003;" horiz-adv-x="943" />
<glyph unicode="&#x2004;" horiz-adv-x="314" />
<glyph unicode="&#x2005;" horiz-adv-x="235" />
<glyph unicode="&#x2006;" horiz-adv-x="157" />
<glyph unicode="&#x2007;" horiz-adv-x="157" />
<glyph unicode="&#x2008;" horiz-adv-x="117" />
<glyph unicode="&#x2009;" horiz-adv-x="188" />
<glyph unicode="&#x200a;" horiz-adv-x="52" />
<glyph unicode="&#x2010;" horiz-adv-x="311" d="M40 292v42h231v-42h-231z" />
<glyph unicode="&#x2011;" horiz-adv-x="311" d="M40 292v42h231v-42h-231z" />
<glyph unicode="&#x2012;" horiz-adv-x="311" d="M40 292v42h231v-42h-231z" />
<glyph unicode="&#x2013;" d="M39 293v42h422v-42h-422z" />
<glyph unicode="&#x2014;" horiz-adv-x="1000" d="M39 293v42h922v-42h-922z" />
<glyph unicode="&#x2018;" horiz-adv-x="180" d="M101 515h-47q7 106 64 205h34q-43 -91 -51 -205z" />
<glyph unicode="&#x2019;" horiz-adv-x="180" d="M94 720h46q-6 -103 -64 -205h-33q41 86 51 205z" />
<glyph unicode="&#x201a;" horiz-adv-x="180" d="M78 78h47q-7 -107 -64 -206h-34q43 92 51 206z" />
<glyph unicode="&#x201c;" horiz-adv-x="336" d="M257 515h-46q6 106 64 205h33q-41 -86 -51 -205zM101 515h-47q7 106 64 205h34q-43 -91 -51 -205z" />
<glyph unicode="&#x201d;" horiz-adv-x="336" d="M94 720h46q-6 -103 -64 -205h-33q41 86 51 205zM250 720h46q-6 -106 -64 -205h-33q41 86 51 205z" />
<glyph unicode="&#x201e;" horiz-adv-x="336" d="M78 78h47q-7 -107 -64 -206h-34q43 92 51 206zM234 78h47q-7 -107 -64 -206h-34q43 89 51 206z" />
<glyph unicode="&#x2020;" horiz-adv-x="555" d="M58 436v42q3 0 201 -3q-4 114 -4 178q0 30 2 88h41q2 -58 2 -88q0 -64 -4 -178q195 3 200 3v-42q-70 0 -200 2q4 -116 4 -179v-459h-45v459q0 62 4 180q-99 -3 -201 -3z" />
<glyph unicode="&#x2021;" horiz-adv-x="555" d="M58 436v42q3 0 201 -3q-4 114 -4 178q0 30 2 88h41q2 -58 2 -88q0 -64 -4 -178q195 3 200 3v-42q-70 0 -200 2q4 -112 4 -167q0 -39 -2 -96t-2 -73q130 2 200 2v-41q-5 0 -200 3q4 -114 4 -178q0 -33 -2 -91h-41q-2 58 -2 91q0 64 4 178q-198 -3 -201 -3v41q102 0 201 -3 q0 17 -2 74t-2 96q0 54 4 168q-99 -3 -201 -3z" />
<glyph unicode="&#x2022;" horiz-adv-x="241" d="M190 352q0 -32 -18.5 -52.5t-50.5 -20.5q-33 0 -52 20.5t-19 52.5q0 30 19 50t52 20q32 0 50.5 -20t18.5 -50z" />
<glyph unicode="&#x2026;" horiz-adv-x="631" d="M60 30q0 16 10 26t27 10t26.5 -10t9.5 -26t-9.5 -26.5t-26.5 -10.5t-27 10.5t-10 26.5zM279 30q0 16 10 26t27 10t26.5 -10t9.5 -26t-9.5 -26.5t-26.5 -10.5t-27 10.5t-10 26.5zM498 30q0 16 10 26t27 10t26.5 -10t9.5 -26t-9.5 -26.5t-26.5 -10.5t-27 10.5t-10 26.5z " />
<glyph unicode="&#x202f;" horiz-adv-x="188" />
<glyph unicode="&#x2030;" horiz-adv-x="1171" d="M345 518q0 -75 -40 -120.5t-107 -45.5q-65 0 -105 45.5t-40 120.5q0 74 40 119.5t105 45.5q67 0 107 -45.5t40 -119.5zM97 518q0 -59 26 -93t75 -34q51 0 76.5 33.5t25.5 93.5q0 58 -25.5 92t-76.5 34q-49 0 -75 -34t-26 -92zM550 671h44l-327 -671h-43zM764 154 q0 -75 -39.5 -120.5t-106.5 -45.5q-66 0 -106 45.5t-40 120.5q0 74 40 119.5t106 45.5t106 -45.5t40 -119.5zM516 154q0 -59 26 -93t76 -34q51 0 76.5 34t25.5 93q0 58 -25.5 92t-76.5 34q-50 0 -76 -34t-26 -92zM1118 154q0 -75 -39.5 -120.5t-106.5 -45.5 q-65 0 -105.5 45.5t-40.5 120.5q0 74 40.5 119.5t105.5 45.5q66 0 106 -45.5t40 -119.5zM871 154q0 -59 26 -93t75 -34q51 0 76.5 34t25.5 93q0 58 -25.5 92t-76.5 34q-49 0 -75 -34t-26 -92z" />
<glyph unicode="&#x2039;" horiz-adv-x="322" d="M218 64q-90 80 -193 202q97 116 193 203h60q-105 -98 -194 -203q85 -100 194 -202h-60z" />
<glyph unicode="&#x203a;" horiz-adv-x="322" d="M104 64h-60q115 109 194 202q-83 98 -194 203h60q91 -82 193 -203q-109 -127 -193 -202z" />
<glyph unicode="&#x2044;" horiz-adv-x="105" d="M223 700h46l-388 -700h-46z" />
<glyph unicode="&#x205f;" horiz-adv-x="235" />
<glyph unicode="&#x2070;" horiz-adv-x="315" d="M296 536q0 -85 -36.5 -131.5t-101.5 -46.5q-64 0 -101.5 46.5t-37.5 131.5q0 83 37.5 129.5t101.5 46.5t101 -46.5t37 -129.5zM63 536q0 -139 95 -139q94 0 94 139q0 137 -94 137q-95 0 -95 -137z" />
<glyph unicode="&#x2074;" horiz-adv-x="315" d="M20 433v31q74 128 178 240h41v-236h53v-35h-53v-67h-41v67h-178zM198 555q0 61 4 109q-87 -106 -143 -196h139v87z" />
<glyph unicode="&#x20ac;" horiz-adv-x="615" d="M429 -12q-123 0 -198 67.5t-96 187.5h-100v40h94q-2 34 -2 54t2 56h-94v39h100q20 119 92 185t190 66q64 0 135 -23l-11 -41q-63 21 -122 21q-97 0 -156.5 -55.5t-78.5 -152.5h283l-5 -39h-283q-3 -27 -3 -56t3 -54h276l-5 -40h-265q19 -99 81 -155.5t164 -56.5 q59 0 123 19l9 -41q-65 -21 -133 -21z" />
<glyph unicode="&#x20b9;" horiz-adv-x="539" d="M59 278v41h71q107 0 158.5 36.5t51.5 120.5h-281v39h279q-4 48 -27 117h-252v39h431v-39h-132q21 -62 26 -117h106v-39h-104q0 -198 -255 -198h-12l249 -278h-61z" />
<glyph unicode="&#x2113;" horiz-adv-x="502" d="M47 78l-20 37l98 57q-18 68 -18 165q0 180 54 277.5t146 97.5q63 0 100 -44.5t37 -127.5q0 -125 -64 -213t-198 -170l-4 -2q41 -124 152 -124q55 0 101 20v-45q-46 -18 -103 -18q-137 0 -191 143zM155 338q0 -80 12 -141q119 71 174 149.5t55 189.5q0 69 -24.5 101.5 t-64.5 32.5q-77 0 -114.5 -91t-37.5 -241z" />
<glyph unicode="&#x2122;" horiz-adv-x="728" d="M132 366v299h-116v35h273v-35h-117v-299h-40zM333 700h44q42 -98 130 -246q71 116 126 246h44v-334h-38v215l3 56q-50 -115 -116 -220h-35q-79 128 -123 223l2 -59v-215h-37v334z" />
<glyph unicode="&#x2126;" horiz-adv-x="708" d="M72 0v43h124q-129 97 -129 309q0 159 72 259.5t215 100.5q142 0 214.5 -101t72.5 -259q0 -103 -33 -183t-96 -126h123v-43h-211v39q80 19 123.5 107t43.5 204q0 90 -23 159.5t-78 114t-136 44.5q-121 0 -179 -89t-58 -229q0 -116 43 -204.5t124 -106.5v-39h-212z" />
<glyph unicode="&#x212e;" horiz-adv-x="707" d="M550 276v151q0 11 -8 19q-76 78 -185 78q-112 0 -187 -81q-8 -6 -8 -19v-148q0 -4 4 -4h381q3 0 3 4zM662 257h-496q-4 0 -4 -3v-150q0 -10 7 -18q77 -80 188 -80q120 0 197 90h44q-94 -107 -242 -107q-127 0 -216.5 80.5t-89.5 194.5t89.5 195.5t216.5 81.5t216.5 -81.5 t89.5 -195.5v-7z" />
<glyph unicode="&#x2202;" horiz-adv-x="554" d="M229 -12q-88 0 -134.5 52t-46.5 143q0 137 75.5 233.5t192.5 96.5q74 0 126 -54q-30 78 -90 143.5t-139 99.5l65 4q93 -43 157.5 -136.5t64.5 -211.5q0 -170 -73 -270t-198 -100zM97 185q0 -73 34.5 -113.5t104.5 -40.5q100 0 158 85t58 202q0 153 -140 153 q-98 0 -156.5 -85.5t-58.5 -200.5z" />
<glyph unicode="&#x2206;" horiz-adv-x="594" d="M20 0v39l253 661h48l253 -661v-39h-554zM524 42l-227 608l-229 -608h456z" />
<glyph unicode="&#x220f;" horiz-adv-x="713" d="M675 657h-100v-787h-48v787h-341v-787h-48v787h-100v43h637v-43z" />
<glyph unicode="&#x2211;" horiz-adv-x="549" d="M520 -130h-491v40l294 376l-274 374v40h450v-43h-392l258 -349v-45l-278 -350h433v-43z" />
<glyph unicode="&#x2212;" horiz-adv-x="497" d="M35 322v42h427v-42h-427z" />
<glyph unicode="&#x2215;" horiz-adv-x="105" d="M223 700h46l-388 -700h-46z" />
<glyph unicode="&#x221a;" horiz-adv-x="503" d="M193 0l-97 261h-69v43h100l90 -255l212 651h46l-233 -700h-49z" />
<glyph unicode="&#x221e;" horiz-adv-x="781" d="M39 327q0 75 45.5 121t115.5 46q62 0 104.5 -34t90.5 -100q46 66 87 100t102 34q66 0 112 -46.5t46 -120.5q0 -75 -45.5 -121.5t-108.5 -46.5t-105 34t-91 101q-51 -71 -96.5 -103t-100.5 -32q-64 0 -110 45t-46 123zM200 452q-53 0 -84.5 -35t-31.5 -92q0 -56 32.5 -90 t80.5 -34q37 0 70 19.5t52 41t50 64.5q-24 32 -37.5 48.5t-36 38t-45.5 30.5t-50 9zM417 328q24 -33 36.5 -48.5t35 -37.5t46 -31.5t51.5 -9.5q49 0 80 34t31 90q0 59 -31.5 93t-84.5 34q-49 0 -83.5 -30.5t-80.5 -93.5z" />
<glyph unicode="&#x222b;" horiz-adv-x="411" d="M380 680q-38 9 -60 9q-50 0 -70.5 -30t-20.5 -88v-602q0 -161 -135 -161q-35 0 -74 11l11 41q36 -9 60 -9q50 0 70.5 30t20.5 87v603q0 160 135 160q35 0 74 -11z" />
<glyph unicode="&#x2248;" horiz-adv-x="497" d="M463 458q-39 -93 -119 -93q-43 0 -97 28t-86 28q-64 0 -93 -65l-33 17q14 43 47 67.5t77 24.5q41 0 95 -28t87 -28q54 0 89 66zM463 311q-40 -93 -119 -93q-43 0 -97 28.5t-86 28.5q-64 0 -93 -65l-33 17q14 43 47.5 67.5t76.5 24.5q41 0 95 -28t87 -28q55 0 89 65z" />
<glyph unicode="&#x2260;" horiz-adv-x="497" d="M347 585h46l-66 -132h135v-42h-156l-68 -137h224v-43h-246l-66 -132h-45l66 132h-136v43h157l68 137h-225v42h246z" />
<glyph unicode="&#x2264;" horiz-adv-x="497" d="M35 33v42h427v-42h-427zM462 169l-427 165v49l427 166v-49l-372 -141l372 -141v-49z" />
<glyph unicode="&#x2265;" horiz-adv-x="497" d="M462 33h-427v42h427v-42zM35 169v49l372 141l-372 141v49l427 -166v-49z" />
<glyph unicode="&#x25ca;" horiz-adv-x="482" d="M241 40l164 252l-164 253l-165 -253zM216 0l-193 291l193 295h49l194 -295l-194 -291h-49z" />
<glyph unicode="&#x25fc;" d="M0 500h500v-500h-500v500z" />
<glyph horiz-adv-x="1730" d="M106 0v700h216v-700h-216zM367 496v204h216v-204h-216zM627 0v700h217v-700h-217zM888 496v204h216v-204h-216zM1148 0v700h217v-700h-217zM1409 496v204h216v-204h-216zM1409 247v205h216v-205h-216z" />
<glyph d="M147 709h45q-8 -95 -52 -174h-35q33 71 42 174z" />
<glyph horiz-adv-x="0" d="M22 570h-45q9 88 48 143h35q-28 -50 -38 -143z" />
</font>
</defs>
</svg>
