<?xml version="1.0" standalone="no"?>
<!DOCTYPE svg PUBLIC "-//W3C//DTD SVG 1.1//EN" "http://www.w3.org/Graphics/SVG/1.1/DTD/svg11.dtd" >
<svg xmlns="http://www.w3.org/2000/svg">
<metadata></metadata>
<defs>
<font id="diodrummedium_italic" horiz-adv-x="500" >
<font-face units-per-em="1000" ascent="800" descent="-200" />
<missing-glyph horiz-adv-x="245" />
<glyph unicode="fi" horiz-adv-x="570" d="M234 565l-10 -58h293l-89 -507h-102l76 425h-193l-75 -425h-101l75 425h-72l14 82h73l9 56q14 80 63 124.5t125 44.5q40 0 80 -11l-30 -81q-23 7 -46 7q-76 0 -90 -82zM498 717q27 0 43 -15.5t16 -38.5q0 -28 -19.5 -48t-51.5 -20q-26 0 -41.5 15t-15.5 38q0 28 19 48.5 t50 20.5z" />
<glyph unicode="fl" horiz-adv-x="610" d="M453 151q-7 -41 4.5 -59.5t45.5 -18.5q16 0 28 3l-7 -81q-25 -7 -47 -7q-72 0 -105.5 43t-18.5 125l85 483q-54 8 -86 8q-57 0 -84.5 -24t-35.5 -71l-8 -45h118l-15 -82h-118l-75 -425h-101l75 425h-72l14 82h73l7 43q33 182 229 182q92 0 192 -27z" />
<glyph unicode=" "  horiz-adv-x="245" />
<glyph unicode="&#x09;" horiz-adv-x="245" />
<glyph unicode="&#xa0;" horiz-adv-x="245" />
<glyph unicode="!" horiz-adv-x="306" d="M234 490q-18 -107 -65 -263h-78q7 142 29 263l36 210h115zM37 46q0 28 18 46.5t50 18.5q27 0 42.5 -14t15.5 -39q0 -28 -18.5 -47t-48.5 -19q-27 0 -43 14.5t-16 39.5z" />
<glyph unicode="&#x22;" horiz-adv-x="371" d="M111 700h96q-8 -45 -16 -83t-19.5 -82.5t-17.5 -70.5h-72q19 179 29 236zM286 700h96q-8 -45 -16.5 -82.5t-19.5 -82.5t-17 -71h-72q19 179 29 236z" />
<glyph unicode="#" horiz-adv-x="661" d="M643 418h-112l-66 -164h97l-14 -80h-115l-70 -174h-86l69 174h-167l-70 -174h-86l69 174h-93l14 80h111l66 164h-96l14 79h113l70 174h86l-69 -174h167l70 174h87l-70 -174h95zM378 254l66 164h-168l-66 -164h168z" />
<glyph unicode="$" horiz-adv-x="555" d="M186 500q0 -36 30.5 -62.5t73.5 -45t86.5 -40t74 -61.5t30.5 -96q0 -89 -57.5 -143.5t-161.5 -62.5l-19 -110h-94l19 111q-99 7 -170 35l33 87q88 -33 183 -33q161 0 161 101q0 37 -30.5 64t-73.5 46t-86 41.5t-73.5 62.5t-30.5 97q0 75 50.5 125.5t143.5 63.5l18 106h94 l-18 -104q75 -4 137 -26l-32 -86q-73 22 -146 22q-71 0 -106.5 -24.5t-35.5 -67.5z" />
<glyph unicode="%" horiz-adv-x="848" d="M211 343q-65 0 -104 39t-39 107q0 79 52.5 136.5t126.5 57.5q66 0 105 -39t39 -106q0 -78 -53 -136.5t-127 -58.5zM694 671l-464 -671h-82l464 671h82zM151 487q0 -35 16.5 -55.5t47.5 -20.5q39 0 66 39t27 91q0 34 -16.5 54t-47.5 20q-38 0 -65.5 -38t-27.5 -90z M595 -12q-65 0 -104 39t-39 107q0 78 52.5 136t125.5 58q67 0 105.5 -39t38.5 -106q0 -78 -52.5 -136.5t-126.5 -58.5zM535 132q0 -35 16.5 -55t47.5 -20q39 0 65.5 39t26.5 90q0 34 -16.5 54t-47.5 20q-37 0 -64.5 -38t-27.5 -90z" />
<glyph unicode="&#x26;" horiz-adv-x="721" d="M460 71q-97 -83 -221 -83q-103 0 -163.5 49.5t-60.5 132.5q0 141 197 211q-45 75 -45 141q0 81 57.5 135.5t146.5 54.5q83 0 131 -41.5t48 -106.5q0 -67 -49.5 -118t-155.5 -90q40 -51 131 -155q47 65 71 145h95q-35 -123 -111 -212l113 -134h-124zM304 413q74 29 112 62 t38 77q0 33 -23 54.5t-65 21.5q-43 0 -71.5 -29t-28.5 -76q0 -51 38 -110zM405 138l-112 133q-28 32 -39 49q-132 -47 -132 -138q0 -48 34 -77t91 -29q88 0 158 62z" />
<glyph unicode="'" horiz-adv-x="196" d="M111 700h96q-8 -45 -16 -83t-19.5 -82.5t-17.5 -70.5h-72q19 179 29 236z" />
<glyph unicode="(" horiz-adv-x="307" d="M133 175q0 -158 62 -319h-100q-65 153 -65 324q0 306 223 581h101q-107 -144 -164 -284t-57 -302z" />
<glyph unicode=")" horiz-adv-x="307" d="M159 442q0 158 -62 319h100q65 -153 65 -324q0 -306 -223 -581h-101q107 144 164 284t57 302z" />
<glyph unicode="*" horiz-adv-x="388" d="M399 587q-58 -17 -119 -32q30 -39 62 -90l-65 -43q-30 51 -54 98q-46 -55 -88 -98l-50 45q63 63 92 89q-49 12 -105 31l34 68q60 -21 103 -41q5 55 16 118h72q-9 -48 -26 -118q49 19 118 41z" />
<glyph unicode="+" horiz-adv-x="524" d="M493 386l-16 -88h-177l-33 -186h-94l33 186h-178l16 88h178l32 181h94l-32 -181h177z" />
<glyph unicode="," horiz-adv-x="231" d="M130 112q-13 -66 -48.5 -136t-76.5 -123h-59q54 120 85 259h99z" />
<glyph unicode="-" horiz-adv-x="336" d="M42 360h255l-15 -86h-256z" />
<glyph unicode="." horiz-adv-x="231" d="M-1 46q0 28 18 47t50 19q28 0 43.5 -14.5t15.5 -39.5q0 -29 -18.5 -48t-49.5 -19q-28 0 -43.5 14.5t-15.5 40.5z" />
<glyph unicode="/" horiz-adv-x="465" d="M501 755l-435 -810h-103l436 810h102z" />
<glyph unicode="0" horiz-adv-x="617" d="M41 238q0 78 18.5 154.5t54.5 142.5t97 107t137 41q112 0 167 -69t55 -182q0 -79 -18.5 -155.5t-54 -142t-96.5 -106t-137 -40.5q-112 0 -167.5 68.5t-55.5 181.5zM464 435q0 159 -121 159q-66 0 -112.5 -59.5t-65 -137t-18.5 -160.5q0 -160 122 -160q50 0 89.5 34 t61.5 89t33 115t11 120z" />
<glyph unicode="1" horiz-adv-x="379" d="M263 671h92l-118 -671h-103l99 565q-78 -34 -149 -72l-28 79q86 53 207 99z" />
<glyph unicode="2" horiz-adv-x="512" d="M178 137l-62 -49h312l-16 -88h-441l16 86l136 114q138 114 188.5 176.5t50.5 128.5q0 41 -25.5 65t-71.5 24q-72 0 -152 -53l-32 73q100 69 201 69q88 0 137.5 -45.5t49.5 -120.5q0 -92 -69 -175t-222 -205z" />
<glyph unicode="3" horiz-adv-x="507" d="M-24 29l43 82q60 -34 146 -34q72 0 114.5 35t42.5 90q0 99 -134 99h-59l15 87h48q77 0 117.5 34t40.5 86q0 41 -27.5 63.5t-74.5 22.5q-68 0 -134 -41l-31 72q90 58 184 58q90 0 140.5 -41.5t50.5 -115.5q0 -58 -34.5 -105.5t-97.5 -70.5q100 -37 100 -145 q0 -93 -68.5 -155t-182.5 -62q-123 0 -199 41z" />
<glyph unicode="4" horiz-adv-x="597" d="M546 232l-15 -85h-99l-26 -147h-98l26 147h-340l14 77q183 255 410 454h107l-78 -446h99zM380 408q12 64 36 168q-176 -178 -301 -344h234z" />
<glyph unicode="5" horiz-adv-x="526" d="M474 583h-254l-44 -167q34 4 58 4q110 0 168.5 -49t58.5 -137q0 -102 -75 -174t-200 -72q-130 0 -207 44l46 82q74 -37 155 -37q83 0 128.5 41.5t45.5 103.5q0 111 -155 111q-56 0 -138 -16l95 354h333z" />
<glyph unicode="6" horiz-adv-x="573" d="M319 426q92 0 142.5 -48.5t50.5 -130.5q0 -103 -69 -181t-183 -78q-105 0 -164 73t-59 187q0 81 23.5 157.5t67.5 139t115 100.5t157 38q75 0 118 -15l-34 -84q-46 11 -91 11q-92 0 -152.5 -61.5t-84.5 -162.5q81 55 163 55zM264 77q67 0 105.5 47.5t38.5 108.5 q0 105 -120 105q-64 0 -145 -44q-3 -27 -3 -56q0 -71 32.5 -116t91.5 -45z" />
<glyph unicode="7" horiz-adv-x="472" d="M84 671h415l-14 -79q-112 -169 -189.5 -302t-148.5 -290h-110q127 282 336 583h-305z" />
<glyph unicode="8" horiz-adv-x="595" d="M412 335q99 -56 99 -146q0 -83 -71 -142t-189 -59q-101 0 -165.5 46t-64.5 128q0 62 44 110.5t115 74.5q-84 54 -84 142q0 83 68 138.5t168 55.5q101 0 159 -47.5t58 -121.5q0 -111 -137 -179zM327 601q-56 0 -91 -29t-35 -74q0 -24 10.5 -42.5t34 -35t41.5 -25.5t54 -25 q102 60 102 135q0 44 -31 70t-85 26zM259 70q69 0 108 31t39 79q0 14 -4 26t-14.5 23t-18 18.5t-26.5 17.5t-27.5 14.5t-33 15.5t-32.5 15q-55 -22 -89 -57t-34 -81q0 -48 38 -75t94 -27z" />
<glyph unicode="9" horiz-adv-x="574" d="M308 683q108 0 165 -71.5t57 -187.5q0 -187 -95.5 -311.5t-262.5 -124.5q-90 0 -149 19l34 84q52 -15 119 -15q94 0 154.5 58t83.5 165q-77 -57 -162 -57q-95 0 -146 50.5t-51 135.5q0 104 71.5 179.5t181.5 75.5zM283 330q68 0 142 44q2 19 2 60q0 160 -123 160 q-64 0 -104 -46t-40 -107q0 -111 123 -111z" />
<glyph unicode=":" horiz-adv-x="266" d="M86 443q0 28 18.5 47t50.5 19q27 0 43 -14.5t16 -39.5q0 -29 -18.5 -48t-49.5 -19q-28 0 -44 15t-16 40zM16 46q0 28 18 47t50 19q28 0 44 -14.5t16 -39.5q0 -29 -18.5 -48t-49.5 -19q-28 0 -44 15t-16 40z" />
<glyph unicode=";" horiz-adv-x="266" d="M86 443q0 28 18.5 47t50.5 19q27 0 43 -14.5t16 -39.5q0 -29 -18.5 -48t-49.5 -19q-28 0 -44 15t-16 40zM145 112q-13 -66 -48.5 -136t-76.5 -123h-58q54 121 84 259h99z" />
<glyph unicode="&#x3c;" horiz-adv-x="524" d="M27 292l17 99l481 179l-18 -105l-358 -126l314 -126l-18 -99z" />
<glyph unicode="=" horiz-adv-x="524" d="M60 478h449l-15 -88h-450zM27 294h450l-16 -88h-449z" />
<glyph unicode="&#x3e;" horiz-adv-x="525" d="M15 219l357 125l-313 127l17 99l418 -179l-17 -99l-481 -178z" />
<glyph unicode="?" horiz-adv-x="448" d="M80 679q82 33 162 33q93 0 145 -42t52 -115q0 -99 -110 -179q-61 -43 -83.5 -68.5t-30.5 -67.5l-2 -13h-94l4 20q10 54 33.5 87.5t69.5 67.5q53 39 77 70t24 68q0 39 -29 59t-82 20q-49 0 -130 -27zM74 46q0 28 17.5 46.5t49.5 18.5q27 0 42.5 -14t15.5 -39 q0 -28 -18 -47t-49 -19q-27 0 -42.5 14.5t-15.5 39.5z" />
<glyph unicode="@" horiz-adv-x="945" d="M11 143q0 77 21.5 149.5t63.5 134.5t101 108.5t139 73t171 26.5q173 0 277.5 -95t104.5 -242q0 -78 -28.5 -147.5t-87.5 -116t-137 -46.5q-82 0 -111 57q-61 -57 -133 -57t-111.5 45t-39.5 115q0 111 70 190.5t184 79.5q85 0 163 -33l-59 -208q-32 -112 51 -112 q66 0 106.5 67.5t40.5 165.5q0 116 -81 186t-213 70q-176 0 -288.5 -116.5t-112.5 -290.5q0 -139 86.5 -218t228.5 -79q83 0 205 36v-76q-118 -41 -208 -41q-185 0 -294 102t-109 272zM506 98q-4 33 13 94l40 137q-37 12 -75 12q-66 0 -109.5 -52.5t-43.5 -131.5 q0 -42 21.5 -66.5t61.5 -24.5q46 0 92 32z" />
<glyph unicode="A" horiz-adv-x="654" d="M466 0q-9 93 -21 182h-291q-49 -101 -86 -182h-110q206 437 376 700h108q82 -279 130 -700h-106zM198 272h234q-29 198 -60 319q-74 -119 -174 -319z" />
<glyph unicode="B" horiz-adv-x="611" d="M24 0l123 700h189q107 0 169.5 -44t62.5 -122q0 -57 -33 -103.5t-88 -69.5q40 -18 65.5 -54.5t25.5 -85.5q0 -99 -72 -160t-205 -61h-237zM196 396h123q67 0 104 33.5t37 84.5q0 96 -138 96h-89zM141 90h127q165 0 165 128q0 97 -129 97h-123z" />
<glyph unicode="C" horiz-adv-x="591" d="M46 288q0 177 100 300.5t264 123.5q99 0 182 -40l-39 -88q-71 34 -141 34q-81 0 -140.5 -47t-88 -119.5t-28.5 -158.5q0 -93 49.5 -152.5t139.5 -59.5q61 0 145 38l5 -91q-86 -40 -166 -40q-130 0 -206 84.5t-76 215.5z" />
<glyph unicode="D" horiz-adv-x="689" d="M356 700q140 0 216.5 -80.5t76.5 -212.5q0 -108 -42.5 -199.5t-127.5 -149.5t-197 -58h-203h-55l123 700h104h105zM287 90q83 0 142.5 46.5t86 116.5t26.5 154q0 91 -47.5 147t-141.5 56h-118l-91 -520h143z" />
<glyph unicode="E" horiz-adv-x="557" d="M444 0h-420l123 700h421l-16 -90h-316l-37 -207h271l-16 -90h-271l-39 -223h316z" />
<glyph unicode="F" horiz-adv-x="537" d="M24 0l123 700h411l-16 -90h-306l-41 -233h255l-16 -90h-255l-51 -287h-104z" />
<glyph unicode="G" horiz-adv-x="670" d="M364 292l16 87h231l-61 -346q-92 -45 -190 -45q-149 0 -232 84.5t-83 216.5q0 115 44.5 210.5t131 154t198.5 58.5t214 -44l-40 -89q-88 40 -177 40q-124 0 -193 -96.5t-69 -229.5q0 -94 52.5 -153t154.5 -59q53 0 104 14l35 197h-136z" />
<glyph unicode="H" horiz-adv-x="712" d="M584 700h104l-123 -700h-105l55 313h-332l-55 -313h-104l123 700h105l-53 -297h332z" />
<glyph unicode="I" horiz-adv-x="276" d="M147 700h105l-124 -700h-104z" />
<glyph unicode="J" horiz-adv-x="277" d="M15 -160q61 75 92.5 146t48.5 165l97 549h-105l-96 -544q-26 -145 -119 -263z" />
<glyph unicode="K" horiz-adv-x="637" d="M639 700q-39 -104 -102.5 -185t-163.5 -153l185 -362h-118l-153 306q-50 -30 -116 -63l-43 -243h-104l123 700h105l-62 -350q132 68 213.5 152.5t124.5 197.5h111z" />
<glyph unicode="L" horiz-adv-x="537" d="M144 90h309l-15 -90h-334h-80l123 700h105z" />
<glyph unicode="M" horiz-adv-x="887" d="M863 700l-123 -700h-98l72 405q8 51 25 117q-118 -192 -294 -408h-85q-98 210 -152 409q-5 -59 -16 -118l-71 -405h-97l123 700h103q53 -231 165 -483q188 234 333 483h115z" />
<glyph unicode="N" horiz-adv-x="717" d="M24 0l123 700h100q95 -272 254 -558q3 41 12 91l82 467h97l-123 -700h-101q-174 311 -256 532q-3 -38 -17 -115l-74 -417h-97z" />
<glyph unicode="O" horiz-adv-x="713" d="M322 -12q-131 0 -203.5 80.5t-72.5 209.5q0 81 24.5 158.5t68.5 139t111 99t145 37.5q129 0 200.5 -81t71.5 -210q0 -110 -41.5 -208t-122 -161.5t-181.5 -63.5zM155 280q0 -89 43 -144t124 -55q73 0 128 50.5t81.5 126.5t26.5 162q0 89 -42.5 144t-121.5 55 q-109 0 -174 -102.5t-65 -236.5z" />
<glyph unicode="P" horiz-adv-x="609" d="M314 700q126 0 195.5 -51.5t69.5 -149.5q0 -115 -82.5 -188t-220.5 -73h-106l-42 -238h-104l123 700h104h63zM289 328q84 0 133.5 45t49.5 120q0 63 -41.5 90t-121.5 27h-74l-49 -282h103z" />
<glyph unicode="Q" horiz-adv-x="714" d="M390 -4q16 -71 107 -71q29 0 55 5l-6 -89q-34 -6 -66 -6q-77 0 -123.5 40t-52.5 113q-123 5 -190.5 84.5t-67.5 205.5q0 81 24.5 158.5t68.5 139t111 99t145 37.5q130 0 201.5 -81t71.5 -210q0 -149 -76.5 -272t-201.5 -153zM155 280q0 -89 42.5 -144t122.5 -55 q109 0 174 102t65 237q0 89 -42.5 144t-121.5 55q-74 0 -130 -51t-83 -126.5t-27 -161.5z" />
<glyph unicode="R" horiz-adv-x="620" d="M384 305q37 -21 61 -87l82 -218h-109l-74 203q-17 41 -38 58t-59 17h-70l-48 -278h-105l123 700h105h65q121 0 187.5 -46.5t66.5 -135.5q0 -77 -49 -135.5t-138 -77.5zM298 368q78 0 120.5 38.5t42.5 97.5q0 106 -154 106h-71l-43 -242h105z" />
<glyph unicode="S" horiz-adv-x="541" d="M24 116q91 -36 180 -36q80 0 121.5 31.5t41.5 82.5q0 36 -30 63.5t-72.5 47.5t-85 43.5t-72.5 65.5t-30 100q0 87 69 142.5t186 55.5q111 0 186 -33l-36 -87q-76 28 -151 28q-71 0 -108.5 -26.5t-37.5 -70.5q0 -38 30 -66t72.5 -48.5t85.5 -43.5t73 -64t30 -97 q0 -97 -72.5 -156.5t-199.5 -59.5q-133 0 -216 39z" />
<glyph unicode="T" horiz-adv-x="556" d="M592 700l-16 -90h-200l-108 -610h-104l107 610h-200l16 90h305h200z" />
<glyph unicode="U" horiz-adv-x="693" d="M142 700h104l-73 -420q-35 -199 137 -199q78 0 122.5 47.5t63.5 151.5l73 420h105l-75 -427q-50 -285 -294 -285q-132 0 -196.5 77.5t-39.5 219.5z" />
<glyph unicode="V" horiz-adv-x="633" d="M196 0q-94 316 -115 700h105q20 -349 83 -599q149 245 294 599h111q-156 -383 -361 -700h-117z" />
<glyph unicode="W" horiz-adv-x="977" d="M515 509q-116 -296 -241 -509h-113q-73 299 -75 700h104q-1 -165 12.5 -329.5t34.5 -271.5q156 279 262 601h97q-7 -320 51 -601q60 108 131 272.5t126 328.5h109q-143 -408 -320 -700h-116q-49 216 -62 509z" />
<glyph unicode="X" horiz-adv-x="620" d="M652 700q-93 -163 -281 -344l171 -356h-113l-141 294q-124 -139 -219 -294h-116q103 172 297 372l-157 328h112l128 -266q130 137 201 266h118z" />
<glyph unicode="Y" horiz-adv-x="598" d="M649 700q-112 -196 -309 -411l-51 -289h-105l51 289q-124 224 -163 411h102q36 -158 123 -326q146 166 238 326h114z" />
<glyph unicode="Z" horiz-adv-x="560" d="M123 90h356l-16 -90h-485l14 80q303 310 447 530h-343l16 90h455l-14 -78q-91 -146 -193 -270t-237 -262z" />
<glyph unicode="[" horiz-adv-x="296" d="M320 673h-93l-129 -729h93l-15 -88h-186h-7l159 905h100h93z" />
<glyph unicode="\" horiz-adv-x="464" d="M106 755h101l150 -810h-101z" />
<glyph unicode="]" horiz-adv-x="296" d="M298 761l-160 -905h-99h-94l16 88h93l129 729h-94l16 88h193z" />
<glyph unicode="^" horiz-adv-x="529" d="M310 590l-156 -245h-106l228 355h99l104 -355h-98z" />
<glyph unicode="_" horiz-adv-x="503" d="M-47 -30h462l-14 -78h-462z" />
<glyph unicode="`" d="M153 720h112l63 -152h-91z" />
<glyph unicode="a" horiz-adv-x="519" d="M197 -12q-88 0 -140 40.5t-52 106.5q0 72 58 116t156 44q63 0 116 -11l5 27q20 123 -104 123q-58 0 -131 -25l-6 81q78 29 151 29q108 0 157 -56.5t30 -163.5l-47 -265q-90 -46 -193 -46zM300 85l23 131q-51 12 -101 12q-54 0 -85 -24t-31 -63q0 -37 27.5 -57t76.5 -20 q48 0 90 21z" />
<glyph unicode="b" horiz-adv-x="576" d="M215 -12q-122 0 -193 34l123 696l102 5l-40 -226q46 22 93 22q99 0 158 -57t59 -155q0 -136 -82 -227.5t-220 -91.5zM219 73q92 0 142.5 63t50.5 158q0 66 -32.5 103t-94.5 37q-46 0 -94 -26l-56 -321q32 -14 84 -14z" />
<glyph unicode="c" horiz-adv-x="480" d="M456 489l-34 -81q-57 26 -110 26q-82 0 -131.5 -61t-49.5 -155q0 -72 38 -108.5t103 -36.5q51 0 113 28l4 -82q-65 -31 -140 -31q-103 0 -163 60t-60 160q0 136 79.5 223.5t211.5 87.5q79 0 139 -30z" />
<glyph unicode="d" horiz-adv-x="576" d="M267 -12q-109 0 -175 61t-66 165q0 125 83 215t219 90q49 0 94 -12l37 211l102 5l-122 -693q-88 -42 -172 -42zM131 222q0 -69 36.5 -109t100.5 -40q46 0 81 19l57 326q-41 16 -81 16q-90 0 -142 -62.5t-52 -149.5z" />
<glyph unicode="e" horiz-adv-x="547" d="M474 230h-342v-1q0 -155 158 -155q62 0 135 31l3 -82q-75 -35 -160 -35q-111 0 -176 60.5t-65 170.5q0 120 78 210t196 90q87 0 140 -51t53 -131q0 -45 -20 -107zM297 436q-57 0 -99.5 -39t-57.5 -102h251q6 23 6 42q0 44 -26.5 71.5t-73.5 27.5z" />
<glyph unicode="f" horiz-adv-x="351" d="M324 647q-76 0 -90 -82l-10 -58h128l-15 -82h-128l-75 -425h-101l75 425h-72l14 82h73l9 56q14 80 63 124.5t125 44.5q48 0 93 -12l-31 -80q-28 7 -58 7z" />
<glyph unicode="g" horiz-adv-x="570" d="M317 519q113 0 197 -40l-82 -465q-18 -102 -85.5 -153.5t-176.5 -51.5q-97 0 -167 29l36 82q64 -25 141 -25q130 0 149 110l7 39q-44 -23 -96 -23q-97 0 -155.5 55.5t-58.5 150.5q0 123 82 207.5t209 84.5zM353 133l49 285q-37 16 -88 16q-80 0 -131 -55t-51 -141 q0 -63 33.5 -97t94.5 -34q44 0 93 26z" />
<glyph unicode="h" horiz-adv-x="586" d="M19 0l127 719l101 5l-41 -234q63 29 121 29q95 0 145 -58t32 -158l-53 -303h-102l54 304q22 129 -101 129q-53 0 -111 -29l-71 -404h-101z" />
<glyph unicode="i" horiz-adv-x="262" d="M191 717q26 0 42 -15.5t16 -38.5q0 -28 -19.5 -48t-51.5 -20q-26 0 -41.5 15t-15.5 38q0 28 19 48.5t51 20.5zM19 0l89 507h101l-89 -507h-101z" />
<glyph unicode="j" horiz-adv-x="262" d="M191 717q26 0 41.5 -15.5t15.5 -38.5q0 -28 -19.5 -48t-51.5 -20q-26 0 -41 15t-15 38q0 28 19 48.5t51 20.5zM20 11l88 496h101l-89 -500q-13 -73 -54 -119t-118 -72l-16 84q39 18 60 43t28 68z" />
<glyph unicode="k" horiz-adv-x="537" d="M511 507q-34 -132 -182 -242l126 -265h-111l-97 209q-47 -29 -101 -58l-26 -151h-101l126 718l102 5l-83 -471q100 55 156.5 114t85.5 141h105z" />
<glyph unicode="l" horiz-adv-x="298" d="M141 151q-7 -41 4.5 -59.5t44.5 -18.5q7 0 28 3l-6 -81q-26 -7 -48 -7q-72 0 -105 43t-18 125l99 562l102 6z" />
<glyph unicode="m" horiz-adv-x="885" d="M620 519q102 0 152.5 -54t31.5 -162l-54 -303h-101l54 305q23 129 -93 129q-57 0 -123 -34q8 -46 -1 -97l-53 -303h-99l54 305q23 129 -94 129q-48 0 -105 -26l-72 -408h-101l83 472q108 47 205 47q96 0 142 -45q96 45 174 45z" />
<glyph unicode="n" horiz-adv-x="583" d="M16 0l83 472q107 47 214 47q105 0 156.5 -54t32.5 -162l-54 -303h-101l54 305q23 129 -98 129q-57 0 -114 -26l-72 -408h-101z" />
<glyph unicode="o" horiz-adv-x="573" d="M243 -12q-100 0 -158 61t-58 164q0 125 77 215.5t193 90.5q100 0 157.5 -61t57.5 -162q0 -123 -77 -215.5t-192 -92.5zM130 213q0 -65 30 -102.5t83 -37.5q75 0 120.5 66.5t45.5 156.5q0 64 -29.5 101t-83.5 37q-73 0 -119.5 -66.5t-46.5 -154.5z" />
<glyph unicode="p" horiz-adv-x="573" d="M514 310q0 95 -59.5 152t-164.5 57q-92 0 -190 -45l-117 -660h102l34 195q47 -20 119 -20q125 0 200.5 94.5t75.5 226.5zM190 413q52 21 90 21q65 0 96.5 -35.5t31.5 -95.5q0 -96 -49.5 -163t-130.5 -67q-52 0 -94 22z" />
<glyph unicode="q" horiz-adv-x="573" d="M300 -186l35 204q-54 -30 -103 -30q-93 0 -150 59t-57 157q0 133 84.5 224t213.5 91q117 0 195 -40l-117 -665h-101zM406 419q-41 15 -86 15q-82 0 -135.5 -63t-53.5 -157q0 -65 32.5 -103t94.5 -38q47 0 93 31z" />
<glyph unicode="r" horiz-adv-x="377" d="M309 519q49 0 81 -7l-29 -85q-28 7 -52 7q-68 0 -117 -26l-72 -408h-101l83 471q93 48 207 48z" />
<glyph unicode="s" horiz-adv-x="437" d="M375 409q-77 25 -137 25q-47 0 -71 -17.5t-24 -46.5q0 -25 23.5 -42.5t57.5 -30.5t68 -28.5t57.5 -45.5t23.5 -72q-1 -75 -59 -119t-154 -44q-102 0 -181 31l30 85q76 -31 147 -31q116 0 116 67q0 24 -23.5 41.5t-57.5 30.5t-68 29t-57.5 47.5t-23.5 76.5 q0 67 52.5 110.5t146.5 43.5q96 0 160 -27z" />
<glyph unicode="t" horiz-adv-x="353" d="M205 425l-45 -254q-9 -52 8 -75t61 -23q17 0 50 7l-9 -82q-37 -10 -74 -10q-78 0 -115 47.5t-22 134.5l45 255h-73l14 82h73l20 116l102 5l-21 -121h124l-14 -82h-124z" />
<glyph unicode="u" horiz-adv-x="577" d="M527 507l-83 -471q-108 -48 -211 -48t-154 54.5t-32 163.5l53 301h102l-54 -304q-24 -130 95 -130q55 0 111 27l72 407h101z" />
<glyph unicode="v" horiz-adv-x="530" d="M60 507q-10 -141 10.5 -255.5t76.5 -251.5h112q101 135 162 249.5t104 257.5h-107q-58 -217 -205 -423q-36 102 -50.5 201.5t-5.5 221.5h-97z" />
<glyph unicode="w" horiz-adv-x="797" d="M689 507h103q-41 -144 -98.5 -258.5t-153.5 -248.5h-101q-48 139 -65 244q-59 -126 -142 -244h-99q-52 129 -68 243.5t-5 263.5h96q-17 -220 42 -424q107 158 162 323q0 31 4 101h95q-19 -217 38 -425q137 206 192 425z" />
<glyph unicode="x" horiz-adv-x="504" d="M494 507q-32 -72 -79 -130.5t-121 -120.5q86 -122 121 -256h-103q-27 100 -95 207q-109 -112 -150 -207h-102q63 142 208 269q-91 128 -111 238h102q16 -84 86 -188q104 101 138 188h106z" />
<glyph unicode="y" horiz-adv-x="512" d="M-32 -185l-2 87q118 23 192 119q-61 119 -85 232t-14 254h99q-10 -120 7.5 -216t57.5 -194q68 100 112 194t76 216h104q-73 -260 -236 -476q-136 -183 -311 -216z" />
<glyph unicode="z" horiz-adv-x="461" d="M434 438q-137 -188 -320 -356h272l-15 -82h-400l12 70q219 195 334 355h-257l14 82h372z" />
<glyph unicode="{" horiz-adv-x="327" d="M45 0q5 30 20 87.5t19 81.5q10 55 -5.5 76.5t-68.5 21.5l15 85q53 0 76 21.5t32 76.5q5 26 10 84t11 89q24 142 159 142q38 0 54 -3l-14 -78h-31q-34 0 -49.5 -16t-22.5 -55q-5 -27 -10.5 -85t-9.5 -82q-10 -56 -33.5 -89t-67.5 -48q71 -27 53 -136q-5 -26 -20 -83.5 t-20 -83.5q-7 -38 3.5 -54.5t42.5 -16.5h33l-14 -78q-22 -4 -47 -4q-67 0 -97.5 39t-17.5 108z" />
<glyph unicode="|" horiz-adv-x="272" d="M159 766h101l-176 -995h-101z" />
<glyph unicode="}" horiz-adv-x="328" d="M-54 -143l14 78h31q33 0 49 16.5t23 54.5q5 27 10.5 85t9.5 82q18 108 100 136q-71 29 -52 137q5 26 19.5 83.5t19.5 83.5q7 38 -3.5 54.5t-42.5 16.5h-32l13 78q18 3 48 3q67 0 97.5 -38.5t17.5 -107.5q-5 -29 -20 -86t-19 -83q-10 -55 5.5 -76.5t68.5 -21.5l-15 -85 q-53 0 -76 -21t-33 -77q-4 -24 -9.5 -82t-11.5 -91q-23 -143 -159 -143q-32 0 -53 4z" />
<glyph unicode="~" horiz-adv-x="524" d="M440 420q-36 -56 -87 -56q-30 0 -89 24.5t-96 24.5q-45 0 -81 -28.5t-58 -79.5l53 -38q34 52 88 52q30 0 89 -25t100 -25q86 0 134 115z" />
<glyph unicode="&#xa1;" horiz-adv-x="307" d="M235 465q0 -27 -18 -46t-49 -19q-27 0 -43 14t-16 39q0 28 18.5 47t48.5 19q28 0 43.5 -14.5t15.5 -39.5zM38 21q19 106 65 263h78q-7 -149 -28 -263l-37 -210h-115z" />
<glyph unicode="&#xa2;" horiz-adv-x="502" d="M315 434q-84 0 -133.5 -62.5t-49.5 -149.5q0 -72 39.5 -110.5t105.5 -38.5q54 0 117 24l3 -82q-53 -23 -121 -26l-19 -109h-94l21 117q-74 19 -115.5 76.5t-41.5 139.5q0 120 67 204t180 99l19 109h94l-19 -108q57 -8 97 -25l-34 -81q-58 23 -116 23z" />
<glyph unicode="&#xa3;" horiz-adv-x="558" d="M387 592q-62 0 -96 -29.5t-47 -98.5l-13 -73h155l-15 -85h-155l-38 -217h302l-16 -89h-372h-31l54 306h-95l15 85h95l13 73q38 219 239 219q94 0 176 -34l-41 -82q-64 25 -130 25z" />
<glyph unicode="&#xa4;" horiz-adv-x="617" d="M532 369q0 -82 -51 -146l52 -61l-64 -55l-53 62q-53 -32 -122 -32q-73 0 -130 43l-72 -59l-51 64l69 57q-24 45 -24 94q0 84 54 148l-54 63l64 55l56 -65q53 29 119 29q73 0 132 -44l73 60l51 -65l-71 -58q22 -42 22 -90zM171 339q0 -55 36 -90t92 -35q65 0 106 43 t41 108q0 55 -35.5 89.5t-91.5 34.5q-65 0 -106.5 -43.5t-41.5 -106.5z" />
<glyph unicode="&#xa5;" horiz-adv-x="647" d="M664 686q-92 -146 -198 -276h126l-14 -75h-177q-24 -26 -36 -40l-10 -56h206l-13 -75h-207l-29 -164h-101l29 164h-208l13 75h208l10 57q-8 13 -22 39h-179l13 75h128q-61 127 -102 276h104q37 -156 119 -310q136 153 227 310h113z" />
<glyph unicode="&#xa6;" horiz-adv-x="272" d="M158 765h101l-74 -425h-101zM58 198h102l-76 -427h-101z" />
<glyph unicode="&#xa7;" horiz-adv-x="595" d="M241 541q0 -27 21.5 -48.5t53.5 -34.5t69 -30.5t69 -36t53.5 -50.5t21.5 -74q0 -55 -33 -100.5t-92 -72.5q29 -35 29 -87q0 -80 -65.5 -132.5t-170.5 -52.5q-120 0 -190 34l34 84q69 -28 154 -28q63 0 96 24.5t33 63.5q0 29 -29.5 51t-71.5 38.5t-84 37.5t-71.5 59 t-29.5 92q0 112 126 165q-32 40 -32 94q0 80 64.5 127.5t170.5 47.5q99 0 174 -30l-34 -84q-74 23 -145 23q-59 0 -90 -21.5t-31 -58.5zM347 141q72 43 72 108q0 35 -27.5 58t-87.5 49t-84 41q-74 -40 -74 -103q0 -38 28 -62.5t89 -50.5t84 -40z" />
<glyph unicode="&#xa8;" d="M148 632q0 26 18 45.5t49 19.5q25 0 39.5 -14t14.5 -36q0 -26 -18.5 -45.5t-48.5 -19.5q-25 0 -39.5 14t-14.5 36zM332 632q0 26 18 45.5t49 19.5q25 0 39.5 -14t14.5 -36q0 -26 -18.5 -45.5t-48.5 -19.5q-25 0 -39.5 14t-14.5 36z" />
<glyph unicode="&#xa9;" horiz-adv-x="824" d="M382 -12q-152 0 -250 91.5t-98 234.5q0 169 115 283.5t292 114.5q151 0 249.5 -91.5t98.5 -237.5q0 -166 -115 -280.5t-292 -114.5zM107 316q0 -116 76 -189.5t200 -73.5q147 0 239.5 95.5t92.5 234.5q0 117 -76 190.5t-199 73.5q-147 0 -240 -96.5t-93 -234.5zM236 325 q0 -78 47 -121.5t114 -43.5q47 0 99 18l-2 64q-42 -13 -83 -13q-42 0 -69.5 25.5t-27.5 75.5q0 66 38 105t94 39q38 0 78 -13l25 64q-48 18 -103 18q-86 0 -148 -59.5t-62 -158.5z" />
<glyph unicode="&#xaa;" horiz-adv-x="345" d="M213 683q67 0 99.5 -34.5t21.5 -101.5l-30 -170q-58 -36 -127 -36q-57 0 -91.5 26.5t-34.5 69.5q0 50 38 77t104 27q35 0 72 -7l3 15q14 74 -66 74q-45 0 -85 -14l-4 56q50 18 100 18zM120 441q0 -21 17.5 -33.5t47.5 -12.5t58 11l14 80q-30 6 -63 6q-74 0 -74 -51z" />
<glyph unicode="&#xab;" horiz-adv-x="618" d="M11 278q106 123 213 211h125q-107 -88 -220 -212q70 -125 143 -212h-122q-76 88 -139 213zM268 278q102 118 213 211h125q-111 -93 -220 -212q70 -125 143 -212h-122q-72 83 -139 213z" />
<glyph unicode="&#xac;" horiz-adv-x="524" d="M496 406l-15 -88l-32 -181h-94l32 181h-356l16 88h449z" />
<glyph unicode="&#xad;" horiz-adv-x="0" />
<glyph unicode="&#xae;" horiz-adv-x="557" d="M312 712q103 0 167 -60.5t64 -158.5q0 -108 -75.5 -183.5t-187.5 -75.5q-100 0 -161.5 60t-61.5 158q0 107 73 183.5t182 76.5zM280 278q94 0 154.5 62t60.5 152q0 81 -50.5 129t-133.5 48q-91 0 -148.5 -62.5t-57.5 -153.5q0 -82 48 -128.5t127 -46.5zM402 531 q0 -62 -62 -81q13 -39 48 -94h-52q-27 44 -40 88h-2h-37l-16 -88h-45l42 243h46h31q87 0 87 -68zM298 481q59 0 59 46q0 34 -45 34h-35l-14 -80h35z" />
<glyph unicode="&#xaf;" d="M160 676h290l-14 -80h-290z" />
<glyph unicode="&#xb0;" horiz-adv-x="343" d="M217 712q62 0 100 -36t38 -94q0 -60 -43.5 -104t-106.5 -44q-61 0 -99 35.5t-38 94.5q0 61 43 104.5t106 43.5zM137 565q0 -31 19.5 -49.5t48.5 -18.5q34 0 56.5 24t22.5 61q0 30 -18.5 49t-49.5 19q-34 0 -56.5 -25t-22.5 -60z" />
<glyph unicode="&#xb1;" horiz-adv-x="524" d="M321 416h177l-15 -88h-178l-27 -157h-94l28 157h-179l16 88h178l27 151h94zM-21 23l16 88h449l-15 -88h-450z" />
<glyph unicode="&#xb2;" horiz-adv-x="337" d="M335 621q0 -43 -35 -86.5t-130 -108.5h147l-11 -63h-255l10 59l45 31q82 56 111 87.5t29 61.5q0 41 -48 41q-34 0 -77 -27l-21 58q54 38 122 38q50 0 81.5 -23.5t31.5 -67.5z" />
<glyph unicode="&#xb3;" horiz-adv-x="338" d="M51 374l28 62q38 -16 79 -16q74 0 74 53q0 39 -50 39h-44l8 50h27q33 0 51 13t18 35q0 37 -50 37q-30 0 -68 -17l-16 57q48 25 105 25q54 0 84.5 -22.5t30.5 -60.5q0 -65 -71 -88q58 -19 58 -74q0 -50 -42 -81t-110 -31t-112 19z" />
<glyph unicode="&#xb4;" d="M469 720l-136 -152h-93l115 152h114z" />
<glyph unicode="&#xb5;" horiz-adv-x="584" d="M429 507h101l-89 -507h-99l9 50q-72 -62 -155 -62q-47 0 -80 16l-21 -124l-11 -64h-98l68 384l54 307h101l-58 -331q-8 -47 13 -74t67 -27q63 0 129 41z" />
<glyph unicode="&#xb6;" horiz-adv-x="600" d="M576 700l-123 -700h-74l112 638h-104l-112 -638h-74l50 286q-78 2 -132 51t-54 136q0 96 70 161t189 66h178h74z" />
<glyph unicode="&#xb7;" d="M47 367q0 26 18 45t49 19q27 0 43 -15.5t16 -39.5q0 -26 -18.5 -45t-49.5 -19q-27 0 -42.5 15t-15.5 40z" />
<glyph unicode="&#xb8;" d="M182 -49q37 -5 59 -25t22 -51q0 -45 -39.5 -73.5t-108.5 -28.5q-38 0 -67 9l22 58q24 -6 47 -6q65 0 65 41q0 33 -60 33l-7 34l30 58h64z" />
<glyph unicode="&#xb9;" horiz-adv-x="337" d="M225 704h75l-60 -341h-82l46 262q-48 -22 -83 -43l-20 62q57 34 124 60z" />
<glyph unicode="&#xba;" horiz-adv-x="375" d="M201 340q-67 0 -105 41.5t-38 103.5q0 80 47 139t127 59q67 0 104.5 -40.5t37.5 -103.5q0 -80 -47 -139.5t-126 -59.5zM133 488q0 -40 18 -63t52 -23q45 0 70.5 39.5t25.5 95.5q0 39 -17.5 62.5t-51.5 23.5q-45 0 -71 -39t-26 -96z" />
<glyph unicode="&#xbb;" horiz-adv-x="618" d="M-15 65q114 96 220 213q-68 122 -142 211h121q75 -85 139 -212q-100 -117 -213 -212h-125zM243 65q114 96 220 213q-68 123 -143 211h122q75 -87 138 -212q-103 -120 -212 -212h-125z" />
<glyph unicode="&#xbc;" horiz-adv-x="776" d="M204 625q-48 -22 -83 -43l-20 62q57 34 124 60h75l-60 -341h-82zM611 700h85l-515 -700h-85zM670 120h47l-10 -59h-47l-11 -61h-73l11 61h-179l9 51q89 121 217 229h75zM597 120l30 152q-80 -82 -138 -152h108z" />
<glyph unicode="&#xbd;" horiz-adv-x="807" d="M204 625q-48 -22 -83 -43l-20 62q57 34 124 60h75l-60 -341h-82zM597 700h85l-515 -700h-85zM726 258q0 -43 -35.5 -86t-131.5 -108h149l-11 -64h-255l10 60l45 30q83 57 112 88.5t29 61.5q0 40 -49 40q-38 0 -77 -27l-21 58q56 38 122 38q50 0 81.5 -23t31.5 -68z" />
<glyph unicode="&#xbe;" horiz-adv-x="797" d="M54 374l27 62q38 -16 79 -16q35 0 55 14t20 39q0 39 -50 39h-45l9 50h27q68 0 68 48q0 37 -48 37q-33 0 -69 -17l-16 57q48 25 106 25q53 0 83 -22.5t30 -60.5q0 -65 -70 -88q57 -19 57 -74q0 -50 -41.5 -81t-109.5 -31t-112 19zM718 700l-515 -700h-85l515 700h85z M681 61l-11 -61h-73l11 61h-179l9 51q89 121 217 229h75l-39 -221h47l-10 -59h-47zM648 272q-80 -82 -138 -152h108z" />
<glyph unicode="&#xbf;" horiz-adv-x="448" d="M340 465q0 -27 -18 -46t-49 -19q-27 0 -42.5 14t-15.5 39q0 28 18 47t48 19q28 0 43.5 -14.5t15.5 -39.5zM334 -168q-82 -33 -162 -33q-93 0 -145.5 42t-52.5 114q0 102 111 180q60 41 82.5 67.5t30.5 68.5l3 13h94l-4 -20q-10 -54 -33.5 -87.5t-70.5 -67.5 q-52 -39 -76 -70t-24 -68q0 -79 111 -79q49 0 130 27z" />
<glyph unicode="&#xc0;" horiz-adv-x="654" d="M439 761h-92l-84 151h112zM466 0q-9 93 -21 182h-291q-49 -101 -86 -182h-110q206 437 376 700h108q82 -279 130 -700h-106zM198 272h234q-29 198 -60 319q-74 -119 -174 -319z" />
<glyph unicode="&#xc1;" horiz-adv-x="654" d="M579 912l-135 -151h-93l115 151h113zM334 700h108q82 -279 130 -700h-106q-9 93 -21 182h-291q-49 -101 -86 -182h-110q206 437 376 700zM198 272h234q-29 198 -60 319q-74 -119 -174 -319z" />
<glyph unicode="&#xc2;" horiz-adv-x="654" d="M416 856l-86 -95h-102l142 151h98h9l90 -151h-96zM466 0q-9 93 -21 182h-291q-49 -101 -86 -182h-110q206 437 376 700h108q82 -279 130 -700h-106zM198 272h234q-29 198 -60 319q-74 -119 -174 -319z" />
<glyph unicode="&#xc3;" horiz-adv-x="654" d="M348 818q-32 0 -43 -47h-70q22 123 110 123q28 0 70.5 -22.5t60.5 -22.5q31 0 40 53h71q-9 -60 -36.5 -95t-71.5 -35q-27 0 -69 23t-62 23zM334 700h108q82 -279 130 -700h-106q-9 93 -21 182h-291q-49 -101 -86 -182h-110q206 437 376 700zM198 272h234q-29 198 -60 319 q-74 -119 -174 -319z" />
<glyph unicode="&#xc4;" horiz-adv-x="654" d="M312 775q-25 0 -39.5 14t-14.5 36q0 26 18.5 45.5t49.5 19.5q24 0 39 -14.5t15 -35.5q0 -26 -18.5 -45.5t-49.5 -19.5zM496 775q-25 0 -39.5 14t-14.5 36q0 26 18.5 45.5t49.5 19.5q24 0 39 -14.5t15 -35.5q0 -26 -19 -45.5t-49 -19.5zM466 0q-9 93 -21 182h-291 q-49 -101 -86 -182h-110q206 437 376 700h108q82 -279 130 -700h-106zM198 272h234q-29 198 -60 319q-74 -119 -174 -319z" />
<glyph unicode="&#xc5;" horiz-adv-x="654" d="M466 0q-9 93 -21 182h-291q-49 -101 -86 -182h-110q202 430 374 697q-52 29 -52 91q0 51 35.5 86.5t88.5 35.5q48 0 79 -29.5t31 -75.5q0 -36 -19 -65.5t-51 -44.5q80 -274 128 -695h-106zM401 849q-25 0 -39.5 -17t-14.5 -41q0 -20 12.5 -33.5t33.5 -13.5q26 0 40.5 17 t14.5 42q0 20 -13 33t-34 13zM198 272h234q-29 198 -60 319q-74 -119 -174 -319z" />
<glyph unicode="&#xc6;" horiz-adv-x="904" d="M900 610h-301l-37 -207h256l-16 -90h-256l-39 -223h301l-16 -90h-406l33 182h-235q-84 -122 -122 -182h-111q221 355 518 700h100h347zM248 272h186l57 324q-156 -202 -243 -324z" />
<glyph unicode="&#xc7;" horiz-adv-x="591" d="M412 618q-81 0 -140.5 -47t-88 -119.5t-28.5 -158.5q0 -93 49.5 -152.5t139.5 -59.5q61 0 145 38l5 -91q-86 -40 -166 -40q-20 0 -30 1l-22 -38q37 -5 59 -25t22 -51q0 -45 -39 -73.5t-109 -28.5q-35 0 -67 9l22 58q26 -6 47 -6q65 0 65 41q0 33 -59 33l-7 34l30 58 q-92 27 -143 104.5t-51 183.5q0 177 100 300.5t264 123.5q99 0 182 -40l-39 -88q-71 34 -141 34z" />
<glyph unicode="&#xc8;" horiz-adv-x="557" d="M225 912h112l64 -151h-92zM444 0h-420l123 700h421l-16 -90h-316l-37 -207h271l-16 -90h-271l-39 -223h316z" />
<glyph unicode="&#xc9;" horiz-adv-x="557" d="M530 912l-135 -151h-93l115 151h113zM444 0h-420l123 700h421l-16 -90h-316l-37 -207h271l-16 -90h-271l-39 -223h316z" />
<glyph unicode="&#xca;" horiz-adv-x="557" d="M378 856l-86 -95h-103l143 151h97h10l90 -151h-96zM552 610h-316l-37 -207h271l-16 -90h-271l-39 -223h316l-16 -90h-420l123 700h421z" />
<glyph unicode="&#xcb;" horiz-adv-x="557" d="M220 825q0 26 18.5 45.5t49.5 19.5q24 0 39 -14.5t15 -35.5q0 -26 -19 -45.5t-49 -19.5q-25 0 -39.5 14t-14.5 36zM404 825q0 26 18 45.5t49 19.5q25 0 39.5 -14t14.5 -36q0 -26 -18.5 -45.5t-48.5 -19.5q-25 0 -39.5 14t-14.5 36zM444 0h-420l123 700h421l-16 -90h-316 l-37 -207h271l-16 -90h-271l-39 -223h316z" />
<glyph unicode="&#xcc;" horiz-adv-x="276" d="M74 912h112l64 -151h-92zM147 700h105l-124 -700h-104z" />
<glyph unicode="&#xcd;" horiz-adv-x="276" d="M390 912l-136 -151h-93l116 151h113zM147 700h105l-124 -700h-104z" />
<glyph unicode="&#xce;" horiz-adv-x="276" d="M288 912l90 -151h-96l-55 95l-86 -95h-103l143 151h97h10zM24 0l123 700h105l-124 -700h-104z" />
<glyph unicode="&#xcf;" horiz-adv-x="276" d="M69 825q0 26 18.5 45.5t49.5 19.5q24 0 39 -14.5t15 -35.5q0 -26 -19 -45.5t-49 -19.5q-25 0 -39.5 14t-14.5 36zM253 825q0 26 18 45.5t49 19.5q25 0 39.5 -14t14.5 -36q0 -26 -18.5 -45.5t-48.5 -19.5q-25 0 -39.5 14t-14.5 36zM147 700h105l-124 -700h-104z" />
<glyph unicode="&#xd0;" horiz-adv-x="694" d="M361 700q140 0 216.5 -80.5t76.5 -212.5q0 -108 -42.5 -199.5t-127.5 -149.5t-197 -58h-203h-56l56 314h-75l16 90h74l52 296h105h105zM291 90q84 0 143 46.5t85.5 116.5t26.5 154q0 91 -47 147t-141 56h-118l-36 -206h133l-16 -90h-133l-39 -224h142z" />
<glyph unicode="&#xd1;" horiz-adv-x="717" d="M376 894q-86 0 -110 -123h70q11 47 43 47q20 0 62 -23t69 -23q44 0 71.5 35t36.5 95h-70q-11 -53 -41 -53q-18 0 -60.5 22.5t-70.5 22.5zM24 0l123 700h100q95 -272 254 -558q3 41 12 91l82 467h97l-123 -700h-101q-174 311 -256 532q-3 -38 -17 -115l-74 -417h-97z" />
<glyph unicode="&#xd2;" horiz-adv-x="713" d="M293 912h112l64 -151h-92zM322 -12q-131 0 -203.5 80.5t-72.5 209.5q0 81 24.5 158.5t68.5 139t111 99t145 37.5q129 0 200.5 -81t71.5 -210q0 -110 -41.5 -208t-122 -161.5t-181.5 -63.5zM155 280q0 -89 43 -144t124 -55q73 0 128 50.5t81.5 126.5t26.5 162 q0 89 -42.5 144t-121.5 55q-109 0 -174 -102.5t-65 -236.5z" />
<glyph unicode="&#xd3;" horiz-adv-x="713" d="M609 912l-136 -151h-93l116 151h113zM322 -12q-131 0 -203.5 80.5t-72.5 209.5q0 81 24.5 158.5t68.5 139t111 99t145 37.5q129 0 200.5 -81t71.5 -210q0 -110 -41.5 -208t-122 -161.5t-181.5 -63.5zM155 280q0 -89 43 -144t124 -55q73 0 128 50.5t81.5 126.5t26.5 162 q0 89 -42.5 144t-121.5 55q-109 0 -174 -102.5t-65 -236.5z" />
<glyph unicode="&#xd4;" horiz-adv-x="713" d="M446 856l-86 -95h-103l143 151h97h10l90 -151h-96zM395 712q129 0 200.5 -81t71.5 -210q0 -110 -41.5 -208t-122 -161.5t-181.5 -63.5q-131 0 -203.5 80.5t-72.5 209.5q0 81 24.5 158.5t68.5 139t111 99t145 37.5zM322 81q73 0 128 50.5t81.5 126.5t26.5 162 q0 89 -42.5 144t-121.5 55q-109 0 -174 -102.5t-65 -236.5q0 -89 43 -144t124 -55z" />
<glyph unicode="&#xd5;" horiz-adv-x="713" d="M375 894q-87 0 -111 -123h70q13 47 43 47q21 0 63.5 -23t68.5 -23q87 0 107 130h-70q-9 -53 -41 -53q-17 0 -59.5 22.5t-70.5 22.5zM322 -12q-131 0 -203.5 80.5t-72.5 209.5q0 81 24.5 158.5t68.5 139t111 99t145 37.5q129 0 200.5 -81t71.5 -210q0 -110 -41.5 -208 t-122 -161.5t-181.5 -63.5zM155 280q0 -89 43 -144t124 -55q73 0 128 50.5t81.5 126.5t26.5 162q0 89 -42.5 144t-121.5 55q-109 0 -174 -102.5t-65 -236.5z" />
<glyph unicode="&#xd6;" horiz-adv-x="713" d="M288 825q0 26 18 45.5t49 19.5q25 0 39.5 -14t14.5 -36q0 -26 -18.5 -45.5t-48.5 -19.5q-25 0 -39.5 14t-14.5 36zM472 825q0 26 18 45.5t49 19.5q25 0 39.5 -14t14.5 -36q0 -26 -18.5 -45.5t-48.5 -19.5q-25 0 -39.5 14t-14.5 36zM322 -12q-131 0 -203.5 80.5 t-72.5 209.5q0 81 24.5 158.5t68.5 139t111 99t145 37.5q129 0 200.5 -81t71.5 -210q0 -110 -41.5 -208t-122 -161.5t-181.5 -63.5zM155 280q0 -89 43 -144t124 -55q73 0 128 50.5t81.5 126.5t26.5 162q0 89 -42.5 144t-121.5 55q-109 0 -174 -102.5t-65 -236.5z" />
<glyph unicode="&#xd7;" horiz-adv-x="525" d="M495 486l-173 -146l119 -145l-69 -57l-118 143l-175 -148l-54 66l175 148l-119 144l69 58l118 -143l172 146z" />
<glyph unicode="&#xd8;" horiz-adv-x="704" d="M724 700l-100 -108q43 -72 43 -171q0 -110 -41.5 -208t-122 -161.5t-181.5 -63.5q-119 0 -192 68l-52 -56h-88l99 107q-43 72 -43 171q0 81 24.5 158.5t68.5 139t111 99t145 37.5q117 0 188 -68l52 56h89zM155 280q0 -49 13 -87l345 374q-43 52 -119 52 q-109 0 -174 -102.5t-65 -236.5zM558 420q0 45 -13 86l-344 -373q43 -52 121 -52q73 0 128 50.5t81.5 126.5t26.5 162z" />
<glyph unicode="&#xd9;" horiz-adv-x="693" d="M283 912h112l64 -151h-92zM142 700h104l-73 -420q-35 -199 137 -199q78 0 122.5 47.5t63.5 151.5l73 420h105l-75 -427q-50 -285 -294 -285q-132 0 -196.5 77.5t-39.5 219.5z" />
<glyph unicode="&#xda;" horiz-adv-x="693" d="M599 912l-136 -151h-93l116 151h113zM142 700h104l-73 -420q-35 -199 137 -199q78 0 122.5 47.5t63.5 151.5l73 420h105l-75 -427q-50 -285 -294 -285q-132 0 -196.5 77.5t-39.5 219.5z" />
<glyph unicode="&#xdb;" horiz-adv-x="693" d="M436 856l-86 -95h-103l143 151h97h10l90 -151h-96zM569 700h105l-75 -427q-50 -285 -294 -285q-132 0 -196.5 77.5t-39.5 219.5l73 415h104l-73 -420q-35 -199 137 -199q78 0 122.5 47.5t63.5 151.5z" />
<glyph unicode="&#xdc;" horiz-adv-x="693" d="M278 825q0 26 18 45.5t49 19.5q25 0 39.5 -14t14.5 -36q0 -26 -18.5 -45.5t-48.5 -19.5q-25 0 -39.5 14t-14.5 36zM462 825q0 26 18 45.5t49 19.5q25 0 39.5 -14t14.5 -36q0 -26 -18.5 -45.5t-48.5 -19.5q-25 0 -39.5 14t-14.5 36zM142 700h104l-73 -420 q-35 -199 137 -199q78 0 122.5 47.5t63.5 151.5l73 420h105l-75 -427q-50 -285 -294 -285q-132 0 -196.5 77.5t-39.5 219.5z" />
<glyph unicode="&#xdd;" horiz-adv-x="598" d="M546 912l-135 -151h-93l115 151h113zM649 700q-112 -196 -309 -411l-51 -289h-105l51 289q-124 224 -163 411h102q36 -158 123 -326q146 166 238 326h114z" />
<glyph unicode="&#xde;" horiz-adv-x="601" d="M294 585q126 0 195.5 -51.5t69.5 -149.5q0 -116 -82.5 -188.5t-220.5 -72.5h-106l-22 -123h-104l123 700h104l-20 -115h63zM269 213q84 0 133.5 45t49.5 119q0 64 -41.5 91t-121.5 27h-74l-49 -282h103z" />
<glyph unicode="&#xdf;" horiz-adv-x="603" d="M16 0h101l90 510q23 137 128 137q38 0 61 -21.5t23 -53.5q0 -27 -15.5 -53.5t-33.5 -45t-33.5 -44.5t-15.5 -53t18.5 -55t40.5 -47.5t40.5 -48t18.5 -56.5q0 -45 -35.5 -70.5t-99.5 -25.5q-46 0 -87 9l-25 -84q60 -10 104 -10q113 0 178.5 50.5t65.5 135.5q0 36 -18.5 69 t-40 54t-40 45t-18.5 42q0 19 16 41t34.5 41t34.5 51t16 68q0 60 -50.5 103.5t-133.5 43.5q-94 0 -154.5 -56.5t-79.5 -165.5z" />
<glyph unicode="&#xe0;" horiz-adv-x="519" d="M162 720h112l64 -152h-92zM197 -12q-88 0 -140 40.5t-52 106.5q0 72 58 116t156 44q63 0 116 -11l5 27q20 123 -104 123q-58 0 -131 -25l-6 81q78 29 151 29q108 0 157 -56.5t30 -163.5l-47 -265q-90 -46 -193 -46zM300 85l23 131q-51 12 -101 12q-54 0 -85 -24t-31 -63 q0 -37 27.5 -57t76.5 -20q48 0 90 21z" />
<glyph unicode="&#xe1;" horiz-adv-x="519" d="M473 720l-136 -152h-93l116 152h113zM197 -12q-88 0 -140 40.5t-52 106.5q0 72 58 116t156 44q63 0 116 -11l5 27q20 123 -104 123q-58 0 -131 -25l-6 81q78 29 151 29q108 0 157 -56.5t30 -163.5l-47 -265q-90 -46 -193 -46zM300 85l23 131q-51 12 -101 12 q-54 0 -85 -24t-31 -63q0 -37 27.5 -57t76.5 -20q48 0 90 21z" />
<glyph unicode="&#xe2;" horiz-adv-x="519" d="M305 664l-86 -96h-102l142 152h97h10l90 -152h-96zM250 519q108 0 157 -56.5t30 -163.5l-47 -265q-90 -46 -193 -46q-88 0 -140 40.5t-52 106.5q0 72 58 116t156 44q63 0 116 -11l5 27q20 123 -104 123q-58 0 -131 -25l-6 81q78 29 151 29zM300 85l23 131q-51 12 -101 12 q-54 0 -85 -24t-31 -63q0 -37 27.5 -57t76.5 -20q48 0 90 21z" />
<glyph unicode="&#xe3;" horiz-adv-x="519" d="M240 701q-88 0 -110 -122h70q11 46 43 46q20 0 62 -22.5t69 -22.5q86 0 108 129h-71q-9 -52 -40 -52q-18 0 -60.5 22t-70.5 22zM197 -12q-88 0 -140 40.5t-52 106.5q0 72 58 116t156 44q63 0 116 -11l5 27q20 123 -104 123q-58 0 -131 -25l-6 81q78 29 151 29 q108 0 157 -56.5t30 -163.5l-47 -265q-90 -46 -193 -46zM300 85l23 131q-51 12 -101 12q-54 0 -85 -24t-31 -63q0 -37 27.5 -57t76.5 -20q48 0 90 21z" />
<glyph unicode="&#xe4;" horiz-adv-x="519" d="M152 632q0 26 18.5 45.5t49.5 19.5q24 0 39 -14.5t15 -35.5q0 -26 -19 -45.5t-49 -19.5q-25 0 -39.5 14t-14.5 36zM336 632q0 26 18 45.5t49 19.5q25 0 39.5 -14t14.5 -36q0 -26 -18.5 -45.5t-48.5 -19.5q-25 0 -39.5 14t-14.5 36zM197 -12q-88 0 -140 40.5t-52 106.5 q0 72 58 116t156 44q63 0 116 -11l5 27q20 123 -104 123q-58 0 -131 -25l-6 81q78 29 151 29q108 0 157 -56.5t30 -163.5l-47 -265q-90 -46 -193 -46zM300 85l23 131q-51 12 -101 12q-54 0 -85 -24t-31 -63q0 -37 27.5 -57t76.5 -20q48 0 90 21z" />
<glyph unicode="&#xe5;" horiz-adv-x="519" d="M322 785q48 0 79.5 -29.5t31.5 -75.5q0 -51 -36 -86.5t-89 -35.5q-47 0 -78 29.5t-31 74.5q0 51 35.5 87t87.5 36zM366 677q0 21 -12.5 33.5t-33.5 12.5q-26 0 -40.5 -17t-14.5 -41q0 -20 12.5 -33t33.5 -13q26 0 40.5 16.5t14.5 41.5zM197 -12q-88 0 -140 40.5 t-52 106.5q0 72 58 116t156 44q63 0 116 -11l5 27q20 123 -104 123q-58 0 -131 -25l-6 81q78 29 151 29q108 0 157 -56.5t30 -163.5l-47 -265q-90 -46 -193 -46zM300 85l23 131q-51 12 -101 12q-54 0 -85 -24t-31 -63q0 -37 27.5 -57t76.5 -20q48 0 90 21z" />
<glyph unicode="&#xe6;" horiz-adv-x="838" d="M563 -12q-119 0 -177 69q-91 -69 -194 -69q-87 0 -137 40.5t-50 107.5q0 73 58 117t157 45q63 0 115 -11l5 24q11 60 -16.5 91.5t-89.5 31.5q-58 0 -131 -25l-6 81q78 29 151 29q129 0 168 -85q72 85 180 85q86 0 138 -51t52 -131q0 -45 -20 -107h-336q-3 -156 155 -156 q58 0 133 31l2 -82q-73 -35 -157 -35zM437 295h246q6 22 6 42q0 44 -25.5 71.5t-72.5 27.5q-57 0 -98 -39.5t-56 -101.5zM345 116q-17 42 -19 102q-44 12 -102 12q-57 0 -88 -24.5t-31 -63.5q0 -37 27.5 -57.5t75.5 -20.5q73 0 137 52z" />
<glyph unicode="&#xe7;" horiz-adv-x="480" d="M312 434q-82 0 -131.5 -61t-49.5 -155q0 -72 38 -108.5t103 -36.5q51 0 113 28l4 -82q-65 -31 -140 -31q-5 0 -15.5 0.5t-14.5 0.5l-22 -38q37 -5 59 -25t22 -51q0 -45 -39 -73.5t-109 -28.5q-36 0 -67 9l22 58q24 -6 47 -6q65 0 65 41q0 33 -60 33l-6 34l30 60 q-64 22 -99.5 76t-35.5 130q0 136 79.5 223.5t211.5 87.5q79 0 139 -30l-34 -81q-57 26 -110 26z" />
<glyph unicode="&#xe8;" horiz-adv-x="547" d="M357 568h-92l-84 152h113zM474 230h-342v-1q0 -155 158 -155q62 0 135 31l3 -82q-75 -35 -160 -35q-111 0 -176 60.5t-65 170.5q0 120 78 210t196 90q87 0 140 -51t53 -131q0 -45 -20 -107zM297 436q-57 0 -99.5 -39t-57.5 -102h251q6 23 6 42q0 44 -26.5 71.5 t-73.5 27.5z" />
<glyph unicode="&#xe9;" horiz-adv-x="547" d="M487 720l-136 -152h-92l115 152h113zM474 230h-342v-1q0 -155 158 -155q62 0 135 31l3 -82q-75 -35 -160 -35q-111 0 -176 60.5t-65 170.5q0 120 78 210t196 90q87 0 140 -51t53 -131q0 -45 -20 -107zM297 436q-57 0 -99.5 -39t-57.5 -102h251q6 23 6 42q0 44 -26.5 71.5 t-73.5 27.5z" />
<glyph unicode="&#xea;" horiz-adv-x="547" d="M329 664l-86 -96h-103l143 152h97h10l90 -152h-96zM474 230h-342v-1q0 -155 158 -155q62 0 135 31l3 -82q-75 -35 -160 -35q-111 0 -176 60.5t-65 170.5q0 120 78 210t196 90q87 0 140 -51t53 -131q0 -45 -20 -107zM297 436q-57 0 -99.5 -39t-57.5 -102h251q6 23 6 42 q0 44 -26.5 71.5t-73.5 27.5z" />
<glyph unicode="&#xeb;" horiz-adv-x="547" d="M225 582q-25 0 -39.5 14t-14.5 36q0 26 18.5 45.5t49.5 19.5q24 0 39 -14.5t15 -35.5q0 -26 -19 -45.5t-49 -19.5zM409 582q-25 0 -39.5 14t-14.5 36q0 26 18 45.5t49 19.5q25 0 39.5 -14t14.5 -36q0 -26 -18.5 -45.5t-48.5 -19.5zM474 230h-342v-1q0 -155 158 -155 q62 0 135 31l3 -82q-75 -35 -160 -35q-111 0 -176 60.5t-65 170.5q0 120 78 210t196 90q87 0 140 -51t53 -131q0 -45 -20 -107zM297 436q-57 0 -99.5 -39t-57.5 -102h251q6 23 6 42q0 44 -26.5 71.5t-73.5 27.5z" />
<glyph unicode="&#xec;" horiz-adv-x="262" d="M34 720h112l64 -152h-92zM108 507l-89 -507h101l89 507h-101z" />
<glyph unicode="&#xed;" horiz-adv-x="262" d="M350 720l-136 -152h-93l116 152h113zM108 507l-89 -507h101l89 507h-101z" />
<glyph unicode="&#xee;" horiz-adv-x="262" d="M248 720l90 -152h-96l-55 96l-86 -96h-103l143 152h97h10zM19 0l89 507h101l-89 -507h-101z" />
<glyph unicode="&#xef;" horiz-adv-x="262" d="M29 632q0 26 18 45.5t49 19.5q25 0 39.5 -14t14.5 -36q0 -26 -18.5 -45.5t-48.5 -19.5q-25 0 -39.5 14t-14.5 36zM213 632q0 26 18 45.5t49 19.5q25 0 39.5 -14t14.5 -36q0 -26 -18.5 -45.5t-48.5 -19.5q-25 0 -39.5 14t-14.5 36zM108 507l-89 -507h101l89 507h-101z" />
<glyph unicode="&#xf0;" horiz-adv-x="544" d="M388 631q106 -106 106 -281q0 -159 -72 -260.5t-198 -101.5q-95 0 -154.5 57.5t-59.5 151.5q0 100 66 172.5t173 72.5q86 0 146 -44q-13 111 -80 176l-101 -78l-29 41l89 69q-49 29 -104 39l38 77q79 -13 141 -58l91 71l29 -41zM227 73q76 0 119.5 67.5t49.5 178.5 q-61 43 -135 43q-73 0 -111.5 -48t-38.5 -115q0 -55 31.5 -90.5t84.5 -35.5z" />
<glyph unicode="&#xf1;" horiz-adv-x="583" d="M276 701q-88 0 -110 -122h70q11 46 43 46q20 0 62 -22.5t69 -22.5q86 0 108 129h-71q-9 -52 -40 -52q-18 0 -60.5 22t-70.5 22zM16 0l83 472q107 47 214 47q105 0 156.5 -54t32.5 -162l-54 -303h-101l54 305q23 129 -98 129q-57 0 -114 -26l-72 -408h-101z" />
<glyph unicode="&#xf2;" horiz-adv-x="573" d="M195 720h112l64 -152h-92zM243 -12q-100 0 -158 61t-58 164q0 125 77 215.5t193 90.5q100 0 157.5 -61t57.5 -162q0 -123 -77 -215.5t-192 -92.5zM130 213q0 -65 30 -102.5t83 -37.5q75 0 120.5 66.5t45.5 156.5q0 64 -29.5 101t-83.5 37q-73 0 -119.5 -66.5 t-46.5 -154.5z" />
<glyph unicode="&#xf3;" horiz-adv-x="573" d="M500 720l-135 -152h-93l115 152h113zM243 -12q-100 0 -158 61t-58 164q0 125 77 215.5t193 90.5q100 0 157.5 -61t57.5 -162q0 -123 -77 -215.5t-192 -92.5zM130 213q0 -65 30 -102.5t83 -37.5q75 0 120.5 66.5t45.5 156.5q0 64 -29.5 101t-83.5 37q-73 0 -119.5 -66.5 t-46.5 -154.5z" />
<glyph unicode="&#xf4;" horiz-adv-x="573" d="M340 664l-86 -96h-103l143 152h97h10l90 -152h-96zM297 519q100 0 157.5 -61t57.5 -162q0 -123 -77 -215.5t-192 -92.5q-100 0 -158 61t-58 164q0 125 77 215.5t193 90.5zM243 73q75 0 120.5 66.5t45.5 156.5q0 64 -29.5 101t-83.5 37q-73 0 -119.5 -66.5t-46.5 -154.5 q0 -65 30 -102.5t83 -37.5z" />
<glyph unicode="&#xf5;" horiz-adv-x="573" d="M269 701q-88 0 -110 -122h70q11 46 43 46q20 0 62 -22.5t69 -22.5q86 0 108 129h-71q-9 -52 -41 -52q-17 0 -59.5 22t-70.5 22zM243 -12q-100 0 -158 61t-58 164q0 125 77 215.5t193 90.5q100 0 157.5 -61t57.5 -162q0 -123 -77 -215.5t-192 -92.5zM130 213 q0 -65 30 -102.5t83 -37.5q75 0 120.5 66.5t45.5 156.5q0 64 -29.5 101t-83.5 37q-73 0 -119.5 -66.5t-46.5 -154.5z" />
<glyph unicode="&#xf6;" horiz-adv-x="573" d="M185 632q0 26 18 45.5t49 19.5q25 0 39.5 -14t14.5 -36q0 -26 -18.5 -45.5t-48.5 -19.5q-25 0 -39.5 14t-14.5 36zM368 632q0 26 18.5 45.5t49.5 19.5q24 0 39 -14.5t15 -35.5q0 -26 -18.5 -45.5t-49.5 -19.5q-25 0 -39.5 14t-14.5 36zM243 -12q-100 0 -158 61t-58 164 q0 125 77 215.5t193 90.5q100 0 157.5 -61t57.5 -162q0 -123 -77 -215.5t-192 -92.5zM130 213q0 -65 30 -102.5t83 -37.5q75 0 120.5 66.5t45.5 156.5q0 64 -29.5 101t-83.5 37q-73 0 -119.5 -66.5t-46.5 -154.5z" />
<glyph unicode="&#xf7;" horiz-adv-x="524" d="M233 514q0 26 17 44t46 18q25 0 40 -13t15 -36q0 -26 -17.5 -44.5t-45.5 -18.5q-25 0 -40 13.5t-15 36.5zM44 386h449l-16 -88h-449zM170 154q0 26 17 44t46 18q25 0 39.5 -13.5t14.5 -35.5q0 -26 -17.5 -44.5t-45.5 -18.5q-25 0 -39.5 13.5t-14.5 36.5z" />
<glyph unicode="&#xf8;" horiz-adv-x="575" d="M553 507l-75 -78q34 -56 34 -133q0 -123 -77 -215.5t-192 -92.5q-88 0 -145 49l-36 -37h-74l75 77q-36 58 -36 136q0 125 77 215.5t193 90.5q91 0 146 -49l37 37h73zM130 213q0 -31 8 -58l238 246q-30 33 -80 33q-73 0 -119.5 -66.5t-46.5 -154.5zM409 296q0 33 -7 55 l-237 -245q30 -33 78 -33q75 0 120.5 66.5t45.5 156.5z" />
<glyph unicode="&#xf9;" horiz-adv-x="577" d="M191 720h113l63 -152h-92zM527 507l-83 -471q-108 -48 -211 -48t-154 54.5t-32 163.5l53 301h102l-54 -304q-24 -130 95 -130q55 0 111 27l72 407h101z" />
<glyph unicode="&#xfa;" horiz-adv-x="577" d="M507 720l-135 -152h-93l115 152h113zM527 507l-83 -471q-108 -48 -211 -48t-154 54.5t-32 163.5l53 301h102l-54 -304q-24 -130 95 -130q55 0 111 27l72 407h101z" />
<glyph unicode="&#xfb;" horiz-adv-x="577" d="M345 664l-87 -96h-102l142 152h98h9l90 -152h-96zM426 507h101l-83 -471q-108 -48 -211 -48t-154 54.5t-32 163.5l53 301h102l-54 -304q-24 -130 95 -130q55 0 111 27z" />
<glyph unicode="&#xfc;" horiz-adv-x="577" d="M187 632q0 26 18 45.5t49 19.5q25 0 39.5 -14t14.5 -36q0 -26 -18.5 -45.5t-48.5 -19.5q-25 0 -39.5 14t-14.5 36zM370 632q0 26 18.5 45.5t49.5 19.5q24 0 39 -14.5t15 -35.5q0 -26 -18.5 -45.5t-49.5 -19.5q-25 0 -39.5 14t-14.5 36zM527 507l-83 -471 q-108 -48 -211 -48t-154 54.5t-32 163.5l53 301h102l-54 -304q-24 -130 95 -130q55 0 111 27l72 407h101z" />
<glyph unicode="&#xfd;" horiz-adv-x="512" d="M475 720l-136 -152h-93l116 152h113zM-32 -185l-2 87q118 23 192 119q-61 119 -85 232t-14 254h99q-10 -120 7.5 -216t57.5 -194q68 100 112 194t76 216h104q-73 -260 -236 -476q-136 -183 -311 -216z" />
<glyph unicode="&#xfe;" horiz-adv-x="577" d="M292 519q106 0 165.5 -57t59.5 -152q0 -131 -75.5 -226t-200.5 -95q-71 0 -120 20l-34 -195h-101l159 904l103 5l-40 -221q42 17 84 17zM231 73q81 0 130.5 67t49.5 163q0 60 -31.5 95.5t-97.5 35.5q-38 0 -90 -21l-55 -318q40 -22 94 -22z" />
<glyph unicode="&#xff;" horiz-adv-x="512" d="M147 632q0 26 18 45.5t49 19.5q25 0 39.5 -14t14.5 -36q0 -26 -18.5 -45.5t-48.5 -19.5q-25 0 -39.5 14t-14.5 36zM331 632q0 26 18 45.5t49 19.5q25 0 39.5 -14t14.5 -36q0 -26 -18.5 -45.5t-48.5 -19.5q-25 0 -39.5 14t-14.5 36zM-32 -185l-2 87q118 23 192 119 q-61 119 -85 232t-14 254h99q-10 -120 7.5 -216t57.5 -194q68 100 112 194t76 216h104q-73 -260 -236 -476q-136 -183 -311 -216z" />
<glyph unicode="&#x100;" horiz-adv-x="654" d="M560 868l-14 -79h-290l14 79h290zM466 0q-9 93 -21 182h-291q-49 -101 -86 -182h-110q206 437 376 700h108q82 -279 130 -700h-106zM198 272h234q-29 198 -60 319q-74 -119 -174 -319z" />
<glyph unicode="&#x101;" horiz-adv-x="519" d="M169 676h290l-14 -80h-290zM197 -12q-88 0 -140 40.5t-52 106.5q0 72 58 116t156 44q63 0 116 -11l5 27q20 123 -104 123q-58 0 -131 -25l-6 81q78 29 151 29q108 0 157 -56.5t30 -163.5l-47 -265q-90 -46 -193 -46zM300 85l23 131q-51 12 -101 12q-54 0 -85 -24t-31 -63 q0 -37 27.5 -57t76.5 -20q48 0 90 21z" />
<glyph unicode="&#x102;" horiz-adv-x="654" d="M409 763q-70 0 -110 37.5t-37 99.5h86q-1 -29 15.5 -46.5t51.5 -17.5q69 0 85 64h85q-16 -67 -61 -102t-115 -35zM334 700h108q82 -279 130 -700h-106q-9 93 -21 182h-291q-49 -101 -86 -182h-110q206 437 376 700zM198 272h234q-29 198 -60 319q-74 -119 -174 -319z" />
<glyph unicode="&#x103;" horiz-adv-x="519" d="M305 570q-70 0 -110 38t-36 100h85q-1 -30 15.5 -47.5t51.5 -17.5q71 0 85 65h86q-34 -138 -177 -138zM197 -12q-88 0 -140 40.5t-52 106.5q0 72 58 116t156 44q63 0 116 -11l5 27q20 123 -104 123q-58 0 -131 -25l-6 81q78 29 151 29q108 0 157 -56.5t30 -163.5 l-47 -265q-90 -46 -193 -46zM300 85l23 131q-51 12 -101 12q-54 0 -85 -24t-31 -63q0 -37 27.5 -57t76.5 -20q48 0 90 21z" />
<glyph unicode="&#x104;" horiz-adv-x="654" d="M495 -144q27 0 50 10l2 -62q-38 -16 -79 -16q-47 0 -75.5 21.5t-28.5 60.5q0 65 103 130h-1q-9 93 -21 182h-291q-49 -101 -86 -182h-110q206 437 376 700h108q82 -279 130 -700q-118 -61 -118 -111q0 -33 41 -33zM198 272h234q-29 198 -60 319q-74 -119 -174 -319z" />
<glyph unicode="&#x105;" horiz-adv-x="519" d="M250 519q108 0 157 -56.5t30 -163.5l-47 -265q-131 -76 -131 -141q0 -37 44 -37q24 0 47 10l2 -62q-43 -16 -76 -16q-48 0 -77 23t-29 64q0 60 67 115q-26 -2 -40 -2q-88 0 -140 40.5t-52 106.5q0 72 58 116t156 44q64 0 116 -11l5 27q20 123 -104 123q-58 0 -131 -25 l-6 81q78 29 151 29zM106 141q0 -37 27.5 -57t76.5 -20q48 0 90 21l23 131q-51 12 -101 12q-54 0 -85 -24t-31 -63z" />
<glyph unicode="&#x106;" horiz-adv-x="591" d="M548 912l-136 -151h-93l116 151h113zM46 288q0 177 100 300.5t264 123.5q99 0 182 -40l-39 -88q-71 34 -141 34q-81 0 -140.5 -47t-88 -119.5t-28.5 -158.5q0 -93 49.5 -152.5t139.5 -59.5q61 0 145 38l5 -91q-86 -40 -166 -40q-130 0 -206 84.5t-76 215.5z" />
<glyph unicode="&#x107;" horiz-adv-x="480" d="M459 720l-136 -152h-93l115 152h114zM456 489l-34 -81q-57 26 -110 26q-82 0 -131.5 -61t-49.5 -155q0 -72 38 -108.5t103 -36.5q51 0 113 28l4 -82q-65 -31 -140 -31q-103 0 -163 60t-60 160q0 136 79.5 223.5t211.5 87.5q79 0 139 -30z" />
<glyph unicode="&#x108;" horiz-adv-x="591" d="M405 856l-86 -95h-103l143 151h97h10l90 -151h-96zM412 618q-81 0 -140.5 -47t-88 -119.5t-28.5 -158.5q0 -93 49.5 -152.5t139.5 -59.5q61 0 145 38l5 -91q-86 -40 -166 -40q-130 0 -206 84.5t-76 215.5q0 177 100 300.5t264 123.5q99 0 182 -40l-39 -88q-71 34 -141 34 z" />
<glyph unicode="&#x109;" horiz-adv-x="480" d="M306 664l-86 -96h-103l143 152h97h10l90 -152h-96zM26 208q0 136 79.5 223.5t211.5 87.5q79 0 139 -30l-34 -81q-57 26 -110 26q-82 0 -131.5 -61t-49.5 -155q0 -72 38 -108.5t103 -36.5q51 0 113 28l4 -82q-65 -31 -140 -31q-103 0 -163 60t-60 160z" />
<glyph unicode="&#x10a;" horiz-adv-x="591" d="M317 832q0 27 18.5 46.5t50.5 19.5q27 0 43 -16t16 -40q0 -26 -19 -45.5t-50 -19.5q-27 0 -43 15.5t-16 39.5zM46 288q0 177 100 300.5t264 123.5q99 0 182 -40l-39 -88q-71 34 -141 34q-81 0 -140.5 -47t-88 -119.5t-28.5 -158.5q0 -93 49.5 -152.5t139.5 -59.5 q61 0 145 38l5 -91q-86 -40 -166 -40q-130 0 -206 84.5t-76 215.5z" />
<glyph unicode="&#x10b;" horiz-adv-x="480" d="M238 640q0 27 18.5 46.5t49.5 19.5q27 0 43.5 -16t16.5 -41q0 -26 -19 -45.5t-50 -19.5q-27 0 -43 15.5t-16 40.5zM456 489l-34 -81q-57 26 -110 26q-82 0 -131.5 -61t-49.5 -155q0 -72 38 -108.5t103 -36.5q51 0 113 28l4 -82q-65 -31 -140 -31q-103 0 -163 60t-60 160 q0 136 79.5 223.5t211.5 87.5q79 0 139 -30z" />
<glyph unicode="&#x10c;" horiz-adv-x="591" d="M330 761l-90 151h96l54 -95l87 95h102l-142 -151h-107zM412 618q-81 0 -140.5 -47t-88 -119.5t-28.5 -158.5q0 -93 49.5 -152.5t139.5 -59.5q61 0 145 38l5 -91q-86 -40 -166 -40q-130 0 -206 84.5t-76 215.5q0 177 100 300.5t264 123.5q99 0 182 -40l-39 -88 q-71 34 -141 34z" />
<glyph unicode="&#x10d;" horiz-adv-x="480" d="M241 568l-90 152h96l54 -96l87 96h102l-142 -152h-107zM26 208q0 136 79.5 223.5t211.5 87.5q79 0 139 -30l-34 -81q-57 26 -110 26q-82 0 -131.5 -61t-49.5 -155q0 -72 38 -108.5t103 -36.5q51 0 113 28l4 -82q-65 -31 -140 -31q-103 0 -163 60t-60 160z" />
<glyph unicode="&#x10e;" horiz-adv-x="689" d="M363 761l-90 151h96l55 -95l86 95h103l-143 -151h-107zM356 700q140 0 216.5 -80.5t76.5 -212.5q0 -108 -42.5 -199.5t-127.5 -149.5t-197 -58h-203h-55l123 700h104h105zM287 90q83 0 142.5 46.5t86 116.5t26.5 154q0 91 -47.5 147t-141.5 56h-118l-91 -520h143z" />
<glyph unicode="&#x10f;" horiz-adv-x="576" d="M267 -12q-109 0 -175 61t-66 165q0 125 83 215t219 90q49 0 94 -12l37 211l102 5l-122 -693q-88 -42 -172 -42zM740 709q-30 -118 -105 -204h-65q51 89 78 204h92zM131 222q0 -69 36.5 -109t100.5 -40q46 0 81 19l57 326q-41 16 -81 16q-90 0 -142 -62.5t-52 -149.5z" />
<glyph unicode="&#x110;" horiz-adv-x="694" d="M361 700q140 0 216.5 -80.5t76.5 -212.5q0 -108 -42.5 -199.5t-127.5 -149.5t-197 -58h-203h-56l56 314h-75l16 90h74l52 296h105h105zM291 90q84 0 143 46.5t85.5 116.5t26.5 154q0 91 -47 147t-141 56h-118l-36 -206h133l-16 -90h-133l-39 -224h142z" />
<glyph unicode="&#x111;" horiz-adv-x="576" d="M616 649l-12 -68h-68l-97 -551q-88 -42 -172 -42q-109 0 -175 61t-66 165q0 125 83 215t219 90q49 0 94 -12l13 74h-140l12 68h140l12 69l102 5l-13 -74h68zM349 92l57 326q-41 16 -81 16q-90 0 -142 -62.5t-52 -149.5q0 -69 36.5 -109t100.5 -40q46 0 81 19z" />
<glyph unicode="&#x112;" horiz-adv-x="557" d="M234 868h291l-14 -79h-291zM444 0h-420l123 700h421l-16 -90h-316l-37 -207h271l-16 -90h-271l-39 -223h316z" />
<glyph unicode="&#x113;" horiz-adv-x="547" d="M473 676l-14 -80h-290l14 80h290zM474 230h-342v-1q0 -155 158 -155q62 0 135 31l3 -82q-75 -35 -160 -35q-111 0 -176 60.5t-65 170.5q0 120 78 210t196 90q87 0 140 -51t53 -131q0 -45 -20 -107zM297 436q-57 0 -99.5 -39t-57.5 -102h251q6 23 6 42q0 44 -26.5 71.5 t-73.5 27.5z" />
<glyph unicode="&#x114;" horiz-adv-x="557" d="M371 763q-70 0 -110.5 37.5t-36.5 99.5h86q-1 -30 15 -47t52 -17q69 0 85 64h85q-34 -137 -176 -137zM444 0h-420l123 700h421l-16 -90h-316l-37 -207h271l-16 -90h-271l-39 -223h316z" />
<glyph unicode="&#x115;" horiz-adv-x="547" d="M322 570q-70 0 -110.5 38t-36.5 100h86q-1 -30 15 -47.5t52 -17.5q70 0 85 65h85q-34 -138 -176 -138zM301 519q87 0 140 -51t53 -131q0 -45 -20 -107h-342v-1q0 -155 158 -155q62 0 135 31l3 -82q-75 -35 -160 -35q-111 0 -176 60.5t-65 170.5q0 120 78 210t196 90z M391 295q6 23 6 42q0 44 -26.5 71.5t-73.5 27.5q-57 0 -99.5 -39t-57.5 -102h251z" />
<glyph unicode="&#x116;" horiz-adv-x="557" d="M307 832q0 26 19 46t50 20q27 0 43.5 -16t16.5 -40q0 -26 -19 -45.5t-50 -19.5q-27 0 -43.5 15.5t-16.5 39.5zM444 0h-420l123 700h421l-16 -90h-316l-37 -207h271l-16 -90h-271l-39 -223h316z" />
<glyph unicode="&#x117;" horiz-adv-x="547" d="M320 584q-27 0 -43 15.5t-16 40.5q0 26 19 46t50 20q26 0 42.5 -16t16.5 -41q0 -26 -19 -45.5t-50 -19.5zM474 230h-342v-1q0 -155 158 -155q62 0 135 31l3 -82q-75 -35 -160 -35q-111 0 -176 60.5t-65 170.5q0 120 78 210t196 90q87 0 140 -51t53 -131q0 -45 -20 -107z M297 436q-57 0 -99.5 -39t-57.5 -102h251q6 23 6 42q0 44 -26.5 71.5t-73.5 27.5z" />
<glyph unicode="&#x118;" horiz-adv-x="557" d="M552 610h-316l-37 -207h271l-16 -90h-271l-39 -223h316l-16 -90q-118 -61 -118 -111q0 -33 41 -33q26 0 51 10l1 -62q-38 -16 -79 -16q-47 0 -75 21.5t-28 60.5q0 65 103 130h-316l123 700h421z" />
<glyph unicode="&#x119;" horiz-adv-x="547" d="M474 230h-342v-1q0 -155 158 -155q62 0 135 31l3 -82q-41 -20 -93 -29q-106 -57 -106 -105q0 -33 41 -33q25 0 50 10l1 -62q-38 -16 -78 -16q-47 0 -75.5 21.5t-28.5 60.5q0 62 88 120q-94 11 -147 70.5t-53 158.5q0 120 78 210t196 90q87 0 140 -51t53 -131 q0 -45 -20 -107zM297 436q-57 0 -99.5 -39t-57.5 -102h251q6 23 6 42q0 44 -26.5 71.5t-73.5 27.5z" />
<glyph unicode="&#x11a;" horiz-adv-x="557" d="M313 761l-90 151h96l54 -95l87 95h102l-142 -151h-107zM552 610h-316l-37 -207h271l-16 -90h-271l-39 -223h316l-16 -90h-420l123 700h421z" />
<glyph unicode="&#x11b;" horiz-adv-x="547" d="M259 568l-90 152h96l54 -96l87 96h102l-142 -152h-107zM301 519q87 0 140 -51t53 -131q0 -45 -20 -107h-342v-1q0 -155 158 -155q62 0 135 31l3 -82q-75 -35 -160 -35q-111 0 -176 60.5t-65 170.5q0 120 78 210t196 90zM391 295q6 23 6 42q0 44 -26.5 71.5t-73.5 27.5 q-57 0 -99.5 -39t-57.5 -102h251z" />
<glyph unicode="&#x11c;" horiz-adv-x="670" d="M424 856l-86 -95h-103l143 151h97h10l90 -151h-96zM364 292l16 87h231l-61 -346q-92 -45 -190 -45q-149 0 -232 84.5t-83 216.5q0 115 44.5 210.5t131 154t198.5 58.5t214 -44l-40 -89q-88 40 -177 40q-124 0 -193 -96.5t-69 -229.5q0 -94 52.5 -153t154.5 -59 q53 0 104 14l35 197h-136z" />
<glyph unicode="&#x11d;" horiz-adv-x="570" d="M341 663l-86 -95h-103l143 152h97h9l90 -152h-96zM317 519q113 0 197 -40l-82 -465q-18 -102 -85.5 -153.5t-176.5 -51.5q-97 0 -167 29l36 82q64 -25 141 -25q130 0 149 110l7 39q-44 -23 -96 -23q-97 0 -155.5 55.5t-58.5 150.5q0 123 82 207.5t209 84.5zM353 133 l49 285q-37 16 -88 16q-80 0 -131 -55t-51 -141q0 -63 33.5 -97t94.5 -34q44 0 93 26z" />
<glyph unicode="&#x11e;" horiz-adv-x="670" d="M417 763q-70 0 -110.5 37.5t-36.5 99.5h86q-1 -29 15.5 -46.5t51.5 -17.5q69 0 85 64h85q-34 -137 -176 -137zM364 292l16 87h231l-61 -346q-92 -45 -190 -45q-149 0 -232 84.5t-83 216.5q0 115 44.5 210.5t131 154t198.5 58.5t214 -44l-40 -89q-88 40 -177 40 q-124 0 -193 -96.5t-69 -229.5q0 -94 52.5 -153t154.5 -59q53 0 104 14l35 197h-136z" />
<glyph unicode="&#x11f;" horiz-adv-x="570" d="M333 570q-70 0 -110 38t-36 100h85q-1 -30 15.5 -47.5t51.5 -17.5q71 0 85 65h86q-34 -138 -177 -138zM317 519q113 0 197 -40l-82 -465q-18 -102 -85.5 -153.5t-176.5 -51.5q-97 0 -167 29l36 82q64 -25 141 -25q130 0 149 110l7 39q-44 -23 -96 -23q-97 0 -155.5 55.5 t-58.5 150.5q0 123 82 207.5t209 84.5zM353 133l49 285q-37 16 -88 16q-80 0 -131 -55t-51 -141q0 -63 33.5 -97t94.5 -34q44 0 93 26z" />
<glyph unicode="&#x120;" horiz-adv-x="670" d="M415 777q-27 0 -43 15.5t-16 39.5q0 26 19 46t50 20q27 0 43 -16t16 -40q0 -26 -19 -45.5t-50 -19.5zM364 292l16 87h231l-61 -346q-92 -45 -190 -45q-149 0 -232 84.5t-83 216.5q0 115 44.5 210.5t131 154t198.5 58.5t214 -44l-40 -89q-88 40 -177 40q-124 0 -193 -96.5 t-69 -229.5q0 -94 52.5 -153t154.5 -59q53 0 104 14l35 197h-136z" />
<glyph unicode="&#x121;" horiz-adv-x="570" d="M332 584q-27 0 -43 15.5t-16 40.5q0 27 18.5 46.5t49.5 19.5q27 0 43.5 -16t16.5 -41q0 -26 -19 -45.5t-50 -19.5zM317 519q113 0 197 -40l-82 -465q-18 -102 -85.5 -153.5t-176.5 -51.5q-97 0 -167 29l36 82q64 -25 141 -25q130 0 149 110l7 39q-44 -23 -96 -23 q-97 0 -155.5 55.5t-58.5 150.5q0 123 82 207.5t209 84.5zM353 133l49 285q-37 16 -88 16q-80 0 -131 -55t-51 -141q0 -63 33.5 -97t94.5 -34q44 0 93 26z" />
<glyph unicode="&#x122;" horiz-adv-x="670" d="M364 292l16 87h231l-61 -346q-92 -45 -190 -45q-149 0 -232 84.5t-83 216.5q0 115 44.5 210.5t131 154t198.5 58.5t214 -44l-40 -89q-88 40 -177 40q-124 0 -193 -96.5t-69 -229.5q0 -94 52.5 -153t154.5 -59q53 0 104 14l35 197h-136zM185 -226q46 73 66 169h93 q-24 -93 -94 -169h-65z" />
<glyph unicode="&#x123;" horiz-adv-x="570" d="M443 742q-49 -73 -71 -170h-91q25 99 96 170h66zM317 519q113 0 197 -40l-82 -465q-18 -102 -85.5 -153.5t-176.5 -51.5q-97 0 -167 29l36 82q64 -25 141 -25q130 0 149 110l7 39q-44 -23 -96 -23q-97 0 -155.5 55.5t-58.5 150.5q0 123 82 207.5t209 84.5zM353 133 l49 285q-37 16 -88 16q-80 0 -131 -55t-51 -141q0 -63 33.5 -97t94.5 -34q44 0 93 26z" />
<glyph unicode="&#x124;" horiz-adv-x="712" d="M446 856l-87 -95h-102l142 151h98h9l90 -151h-96zM584 700h104l-123 -700h-105l55 313h-332l-55 -313h-104l123 700h105l-53 -297h332z" />
<glyph unicode="&#x125;" horiz-adv-x="586" d="M343 877l-86 -96h-103l143 152h97h10l90 -152h-96zM327 519q95 0 145 -58t32 -158l-53 -303h-102l54 304q22 129 -101 129q-53 0 -111 -29l-71 -404h-101l127 719l101 5l-41 -234q63 29 121 29z" />
<glyph unicode="&#x126;" horiz-adv-x="712" d="M739 589l-15 -85h-70l-89 -504h-105l55 313h-332l-55 -313h-104l88 504h-70l15 85h70l20 111h105l-20 -111h332l20 111h104l-19 -111h70zM531 403l18 101h-332l-18 -101h332z" />
<glyph unicode="&#x127;" horiz-adv-x="586" d="M327 519q95 0 145 -58t32 -158l-53 -303h-102l54 304q22 129 -101 129q-53 0 -111 -29l-71 -404h-101l102 581h-68l12 68h68l13 70l101 5l-13 -75h164l-11 -68h-165l-16 -91q60 29 121 29z" />
<glyph unicode="&#x128;" horiz-adv-x="276" d="M156 894q-87 0 -111 -123h71q11 47 43 47q20 0 62 -23t69 -23q87 0 107 130h-70q-9 -53 -41 -53q-17 0 -59.5 22.5t-70.5 22.5zM147 700h105l-124 -700h-104z" />
<glyph unicode="&#x129;" horiz-adv-x="262" d="M116 701q-87 0 -111 -122h70q12 46 43 46q20 0 62 -22.5t69 -22.5q88 0 108 129h-70q-9 -52 -41 -52q-17 0 -59.5 22t-70.5 22zM108 507l-89 -507h101l89 507h-101z" />
<glyph unicode="&#x12a;" horiz-adv-x="276" d="M81 868h290l-14 -79h-290zM147 700h105l-124 -700h-104z" />
<glyph unicode="&#x12b;" horiz-adv-x="262" d="M41 676h290l-14 -80h-290zM108 507l-89 -507h101l89 507h-101z" />
<glyph unicode="&#x12c;" horiz-adv-x="276" d="M220 763q-70 0 -110.5 37.5t-36.5 99.5h86q-1 -30 15 -47t52 -17q69 0 85 64h85q-34 -137 -176 -137zM147 700h105l-124 -700h-104z" />
<glyph unicode="&#x12d;" horiz-adv-x="262" d="M180 570q-70 0 -110.5 38t-36.5 100h86q-1 -30 15 -47.5t51 -17.5q71 0 85 65h86q-34 -138 -176 -138zM108 507l-89 -507h101l89 507h-101z" />
<glyph unicode="&#x12e;" horiz-adv-x="276" d="M128 0q-119 -61 -119 -111q0 -33 42 -33q27 0 50 10l2 -62q-40 -16 -79 -16q-48 0 -76.5 21.5t-28.5 60.5q0 65 105 130l123 700h105z" />
<glyph unicode="&#x12f;" horiz-adv-x="262" d="M191 717q26 0 42 -15.5t16 -38.5q0 -28 -19.5 -48t-51.5 -20q-26 0 -41.5 15t-15.5 38q0 28 19 48.5t51 20.5zM19 2l89 505h101l-89 -507q-119 -61 -119 -111q0 -33 42 -33q25 0 50 10l1 -62q-38 -16 -79 -16q-47 0 -75 21.5t-28 60.5q0 68 107 132z" />
<glyph unicode="&#x130;" horiz-adv-x="276" d="M159 832q0 26 19 46t50 20q27 0 43 -16t16 -40q0 -26 -19 -45.5t-50 -19.5q-27 0 -43 15.5t-16 39.5zM147 700h105l-124 -700h-104z" />
<glyph unicode="&#x131;" horiz-adv-x="262" d="M108 507l-89 -507h101l89 507h-101z" />
<glyph unicode="&#x132;" horiz-adv-x="552" d="M147 700h105l-124 -700h-104zM291 -160q60 74 91.5 145t48.5 166l97 549h-104l-96 -544q-14 -80 -42.5 -140.5t-76.5 -122.5z" />
<glyph unicode="&#x133;" horiz-adv-x="524" d="M453 717q26 0 41.5 -15.5t15.5 -38.5q0 -28 -19 -48t-51 -20q-26 0 -41.5 15t-15.5 38q0 28 19 48.5t51 20.5zM178 595q-26 0 -41.5 15t-15.5 38q0 28 19 48.5t51 20.5q26 0 42 -15.5t16 -38.5q0 -28 -19.5 -48t-51.5 -20zM108 507h101l-89 -507h-101zM282 11l88 496h101 l-88 -500q-14 -74 -54.5 -119.5t-118.5 -71.5l-16 84q39 18 60 43t28 68z" />
<glyph unicode="&#x134;" horiz-adv-x="277" d="M288 912l90 -151h-96l-54 95l-87 -95h-102l143 151h97h9zM52 156l96 544h105l-97 -549q-17 -94 -48.5 -165t-92.5 -146l-82 53q93 118 119 263z" />
<glyph unicode="&#x135;" horiz-adv-x="262" d="M248 720l90 -152h-96l-55 96l-86 -96h-103l143 152h97h10zM20 11l88 496h101l-88 -500q-13 -73 -54 -119t-118 -72l-16 84q39 18 59.5 43.5t27.5 67.5z" />
<glyph unicode="&#x136;" horiz-adv-x="637" d="M639 700q-39 -104 -102.5 -185t-163.5 -153l185 -362h-118l-153 306q-50 -30 -116 -63l-43 -243h-104l123 700h105l-62 -350q132 68 213.5 152.5t124.5 197.5h111zM169 -226q47 75 65 169h93q-24 -93 -94 -169h-64z" />
<glyph unicode="&#x137;" horiz-adv-x="537" d="M511 507q-34 -132 -182 -242l126 -265h-111l-97 209q-47 -29 -101 -58l-26 -151h-101l126 718l102 5l-83 -471q100 55 156.5 114t85.5 141h105zM96 -226q47 75 65 169h93q-24 -93 -94 -169h-64z" />
<glyph unicode="&#x139;" horiz-adv-x="537" d="M391 912l-135 -151h-93l115 151h113zM144 90h309l-15 -90h-334h-80l123 700h105z" />
<glyph unicode="&#x13a;" horiz-adv-x="298" d="M383 933l-136 -151h-93l116 151h113zM141 151q-7 -41 4.5 -59.5t44.5 -18.5q7 0 28 3l-6 -81q-26 -7 -48 -7q-72 0 -105 43t-18 125l99 562l102 6z" />
<glyph unicode="&#x13b;" horiz-adv-x="537" d="M144 90h309l-15 -90h-334h-80l123 700h105zM119 -226q46 73 66 169h93q-26 -96 -94 -169h-65z" />
<glyph unicode="&#x13c;" horiz-adv-x="298" d="M141 151q-7 -41 4.5 -59.5t44.5 -18.5q7 0 28 3l-6 -81q-26 -7 -48 -7q-72 0 -105 43t-18 125l99 562l102 6zM124 -57q-24 -93 -94 -169h-64q47 75 65 169h93z" />
<glyph unicode="&#x13d;" horiz-adv-x="537" d="M482 709q-29 -117 -104 -204h-65q51 89 78 204h91zM252 700l-108 -610h309l-15 -90h-334h-80l123 700h105z" />
<glyph unicode="&#x13e;" horiz-adv-x="298" d="M141 151q-7 -41 4.5 -59.5t44.5 -18.5q7 0 28 3l-6 -81q-26 -7 -48 -7q-72 0 -105 43t-18 125l99 562l102 6zM424 709q-28 -117 -104 -204h-65q51 89 78 204h91z" />
<glyph unicode="&#x13f;" horiz-adv-x="537" d="M252 700l-108 -610h309l-15 -90h-334h-80l123 700h105zM390 312q-27 0 -43 15.5t-16 39.5q0 26 18.5 45t49.5 19q26 0 42 -15.5t16 -39.5q0 -26 -18.5 -45t-48.5 -19z" />
<glyph unicode="&#x140;" horiz-adv-x="380" d="M141 151q-7 -41 4.5 -59.5t44.5 -18.5q7 0 28 3l-6 -81q-26 -7 -48 -7q-72 0 -105 43t-18 125l99 562l102 6zM255 367q0 26 18.5 45t49.5 19q26 0 42 -15.5t16 -39.5q0 -26 -18.5 -45t-48.5 -19q-27 0 -43 15.5t-16 39.5z" />
<glyph unicode="&#x141;" horiz-adv-x="545" d="M144 90h309l-15 -90h-334h-80l50 286l-91 -35l15 88l91 35l58 326h105l-50 -283l144 55l-16 -88l-144 -55z" />
<glyph unicode="&#x142;" horiz-adv-x="298" d="M179 366l-38 -215q-7 -41 4.5 -59.5t44.5 -18.5q18 0 28 3l-6 -81q-26 -7 -48 -7q-72 0 -105 43t-18 125l30 168l-73 -28l14 81l73 28l55 313l102 6l-49 -277l103 40l-14 -81z" />
<glyph unicode="&#x143;" horiz-adv-x="717" d="M605 912l-135 -151h-93l115 151h113zM24 0l123 700h100q95 -272 254 -558q3 41 12 91l82 467h97l-123 -700h-101q-174 311 -256 532q-3 -38 -17 -115l-74 -417h-97z" />
<glyph unicode="&#x144;" horiz-adv-x="583" d="M510 720l-136 -152h-92l115 152h113zM16 0l83 472q107 47 214 47q105 0 156.5 -54t32.5 -162l-54 -303h-101l54 305q23 129 -98 129q-57 0 -114 -26l-72 -408h-101z" />
<glyph unicode="&#x145;" horiz-adv-x="717" d="M24 0l123 700h100q95 -272 254 -558q3 41 12 91l82 467h97l-123 -700h-101q-174 311 -256 532q-3 -38 -17 -115l-74 -417h-97zM357 -57q-24 -93 -94 -169h-64q48 78 65 169h93z" />
<glyph unicode="&#x146;" horiz-adv-x="583" d="M16 0l83 472q107 47 214 47q105 0 156.5 -54t32.5 -162l-54 -303h-101l54 305q23 129 -98 129q-57 0 -114 -26l-72 -408h-101zM267 -57q-24 -93 -94 -169h-65q49 77 66 169h93z" />
<glyph unicode="&#x147;" horiz-adv-x="717" d="M377 761l-90 151h96l54 -95l87 95h103l-143 -151h-107zM595 700h97l-123 -700h-101q-174 311 -256 532q-3 -38 -17 -115l-74 -417h-97l123 700h100q95 -272 254 -558q3 41 12 91z" />
<glyph unicode="&#x148;" horiz-adv-x="583" d="M277 568l-90 152h96l54 -96l87 96h102l-142 -152h-107zM313 519q105 0 156.5 -54t32.5 -162l-54 -303h-101l54 305q23 129 -98 129q-57 0 -114 -26l-72 -408h-101l83 472q107 47 214 47z" />
<glyph unicode="&#x14c;" horiz-adv-x="713" d="M300 868h290l-14 -79h-290zM322 -12q-131 0 -203.5 80.5t-72.5 209.5q0 81 24.5 158.5t68.5 139t111 99t145 37.5q129 0 200.5 -81t71.5 -210q0 -110 -41.5 -208t-122 -161.5t-181.5 -63.5zM155 280q0 -89 43 -144t124 -55q73 0 128 50.5t81.5 126.5t26.5 162 q0 89 -42.5 144t-121.5 55q-109 0 -174 -102.5t-65 -236.5z" />
<glyph unicode="&#x14d;" horiz-adv-x="573" d="M196 676h290l-14 -80h-290zM243 -12q-100 0 -158 61t-58 164q0 125 77 215.5t193 90.5q100 0 157.5 -61t57.5 -162q0 -123 -77 -215.5t-192 -92.5zM130 213q0 -65 30 -102.5t83 -37.5q75 0 120.5 66.5t45.5 156.5q0 64 -29.5 101t-83.5 37q-73 0 -119.5 -66.5 t-46.5 -154.5z" />
<glyph unicode="&#x14e;" horiz-adv-x="713" d="M439 763q-70 0 -110.5 37.5t-36.5 99.5h86q-1 -30 15 -47t51 -17q71 0 85 64h86q-34 -137 -176 -137zM322 -12q-131 0 -203.5 80.5t-72.5 209.5q0 81 24.5 158.5t68.5 139t111 99t145 37.5q129 0 200.5 -81t71.5 -210q0 -110 -41.5 -208t-122 -161.5t-181.5 -63.5z M155 280q0 -89 43 -144t124 -55q73 0 128 50.5t81.5 126.5t26.5 162q0 89 -42.5 144t-121.5 55q-109 0 -174 -102.5t-65 -236.5z" />
<glyph unicode="&#x14f;" horiz-adv-x="573" d="M333 570q-70 0 -110.5 38t-36.5 100h86q-1 -30 15.5 -47.5t51.5 -17.5q70 0 85 65h85q-34 -138 -176 -138zM243 -12q-100 0 -158 61t-58 164q0 125 77 215.5t193 90.5q100 0 157.5 -61t57.5 -162q0 -123 -77 -215.5t-192 -92.5zM130 213q0 -65 30 -102.5t83 -37.5 q75 0 120.5 66.5t45.5 156.5q0 64 -29.5 101t-83.5 37q-73 0 -119.5 -66.5t-46.5 -154.5z" />
<glyph unicode="&#x150;" horiz-adv-x="713" d="M506 912l-136 -151h-88l115 151h109zM677 912l-135 -151h-88l115 151h108zM322 -12q-131 0 -203.5 80.5t-72.5 209.5q0 81 24.5 158.5t68.5 139t111 99t145 37.5q129 0 200.5 -81t71.5 -210q0 -110 -41.5 -208t-122 -161.5t-181.5 -63.5zM155 280q0 -89 43 -144t124 -55 q73 0 128 50.5t81.5 126.5t26.5 162q0 89 -42.5 144t-121.5 55q-109 0 -174 -102.5t-65 -236.5z" />
<glyph unicode="&#x151;" horiz-adv-x="573" d="M402 720l-135 -152h-88l115 152h108zM574 720l-135 -152h-89l116 152h108zM243 -12q-100 0 -158 61t-58 164q0 125 77 215.5t193 90.5q100 0 157.5 -61t57.5 -162q0 -123 -77 -215.5t-192 -92.5zM130 213q0 -65 30 -102.5t83 -37.5q75 0 120.5 66.5t45.5 156.5 q0 64 -29.5 101t-83.5 37q-73 0 -119.5 -66.5t-46.5 -154.5z" />
<glyph unicode="&#x152;" horiz-adv-x="1024" d="M1020 610h-317l-36 -207h271l-17 -90h-270l-39 -223h316l-16 -90h-419l14 79q-85 -91 -196 -91q-124 0 -194.5 80.5t-70.5 209.5q0 110 40.5 207.5t122.5 162t188 64.5q144 0 202 -113l18 101h418zM325 81q72 0 126.5 50.5t80 126.5t25.5 162q0 89 -41.5 144t-120.5 55 q-74 0 -130 -51t-83 -126.5t-27 -161.5q0 -89 44 -144t126 -55z" />
<glyph unicode="&#x153;" horiz-adv-x="913" d="M241 -12q-100 0 -157.5 61t-57.5 164q0 126 76.5 216t192.5 90q63 0 109 -28t69 -79q75 107 198 107q86 0 137.5 -51t51.5 -131q0 -45 -20 -107h-334q-2 -77 37 -116.5t116 -39.5q60 0 133 31l3 -82q-75 -35 -158 -35q-150 0 -199 113q-73 -113 -197 -113zM513 295h244 q6 18 6 42q0 44 -25 71.5t-72 27.5q-57 0 -98 -39.5t-55 -101.5zM242 73q75 0 120.5 66.5t45.5 156.5q0 64 -30 101t-84 37q-73 0 -119 -66.5t-46 -154.5q0 -65 30 -102.5t83 -37.5z" />
<glyph unicode="&#x154;" horiz-adv-x="620" d="M562 912l-135 -151h-93l115 151h113zM384 305q37 -21 61 -87l82 -218h-109l-74 203q-17 41 -38 58t-59 17h-70l-48 -278h-105l123 700h105h65q121 0 187.5 -46.5t66.5 -135.5q0 -77 -49 -135.5t-138 -77.5zM298 368q78 0 120.5 38.5t42.5 97.5q0 106 -154 106h-71 l-43 -242h105z" />
<glyph unicode="&#x155;" horiz-adv-x="377" d="M407 720l-136 -152h-93l116 152h113zM309 519q49 0 81 -7l-29 -85q-28 7 -52 7q-68 0 -117 -26l-72 -408h-101l83 471q93 48 207 48z" />
<glyph unicode="&#x156;" horiz-adv-x="620" d="M384 305q37 -21 61 -87l82 -218h-109l-74 203q-17 41 -38 58t-59 17h-70l-48 -278h-105l123 700h105h65q121 0 187.5 -46.5t66.5 -135.5q0 -77 -49 -135.5t-138 -77.5zM298 368q78 0 120.5 38.5t42.5 97.5q0 106 -154 106h-71l-43 -242h105zM153 -226q46 73 66 169h93 q-24 -93 -94 -169h-65z" />
<glyph unicode="&#x157;" horiz-adv-x="377" d="M309 519q49 0 81 -7l-29 -85q-28 7 -52 7q-68 0 -117 -26l-72 -408h-101l83 471q93 48 207 48zM105 -57q-23 -92 -93 -169h-65q46 73 66 169h92z" />
<glyph unicode="&#x158;" horiz-adv-x="620" d="M329 761l-90 151h96l54 -95l87 95h103l-143 -151h-107zM571 518q0 -77 -49 -135.5t-138 -77.5q37 -21 61 -87l82 -218h-109l-74 203q-17 41 -38 58t-59 17h-70l-48 -278h-105l123 700h105h65q121 0 187.5 -46.5t66.5 -135.5zM298 368q78 0 120.5 38.5t42.5 97.5 q0 106 -154 106h-71l-43 -242h105z" />
<glyph unicode="&#x159;" horiz-adv-x="382" d="M199 568l-90 152h96l54 -96l87 96h102l-142 -152h-107zM102 471q93 48 207 48q49 0 81 -7l-29 -85q-28 7 -52 7q-68 0 -117 -26l-72 -408h-101z" />
<glyph unicode="&#x15a;" horiz-adv-x="541" d="M512 912l-135 -151h-93l115 151h113zM24 116q91 -36 180 -36q80 0 121.5 31.5t41.5 82.5q0 36 -30 63.5t-72.5 47.5t-85 43.5t-72.5 65.5t-30 100q0 87 69 142.5t186 55.5q111 0 186 -33l-36 -87q-76 28 -151 28q-71 0 -108.5 -26.5t-37.5 -70.5q0 -38 30 -66t72.5 -48.5 t85.5 -43.5t73 -64t30 -97q0 -97 -72.5 -156.5t-199.5 -59.5q-133 0 -216 39z" />
<glyph unicode="&#x15b;" horiz-adv-x="437" d="M430 720l-136 -152h-93l116 152h113zM375 409q-77 25 -137 25q-47 0 -71 -17.5t-24 -46.5q0 -25 23.5 -42.5t57.5 -30.5t68 -28.5t57.5 -45.5t23.5 -72q-1 -75 -59 -119t-154 -44q-102 0 -181 31l30 85q76 -31 147 -31q116 0 116 67q0 24 -23.5 41.5t-57.5 30.5t-68 29 t-57.5 47.5t-23.5 76.5q0 67 52.5 110.5t146.5 43.5q96 0 160 -27z" />
<glyph unicode="&#x15c;" horiz-adv-x="541" d="M355 856l-87 -95h-102l142 151h98h9l90 -151h-96zM331 620q-71 0 -108.5 -26.5t-37.5 -70.5q0 -38 30 -66t72.5 -48.5t85.5 -43.5t73 -64t30 -97q0 -97 -72.5 -156.5t-199.5 -59.5q-133 0 -216 39l36 89q91 -36 180 -36q80 0 121.5 31.5t41.5 82.5q0 36 -30 63.5 t-72.5 47.5t-85 43.5t-72.5 65.5t-30 100q0 87 69 142.5t186 55.5q111 0 186 -33l-36 -87q-76 28 -151 28z" />
<glyph unicode="&#x15d;" horiz-adv-x="437" d="M275 664l-87 -96h-102l142 152h98h9l90 -152h-96zM42 365q0 67 52.5 110.5t146.5 43.5q96 0 160 -27l-26 -83q-77 25 -137 25q-47 0 -71 -17.5t-24 -46.5q0 -25 23.5 -42.5t57.5 -30.5t68 -28.5t57.5 -45.5t23.5 -72q-1 -75 -59 -119t-154 -44q-102 0 -181 31l30 85 q76 -31 147 -31q116 0 116 67q0 24 -23.5 41.5t-57.5 30.5t-68 29t-57.5 47.5t-23.5 76.5z" />
<glyph unicode="&#x15e;" horiz-adv-x="541" d="M331 620q-71 0 -108.5 -26.5t-37.5 -70.5q0 -38 30 -66t72.5 -48.5t85.5 -43.5t73 -64t30 -97q0 -89 -62 -147t-172 -67l-21 -39q37 -5 59 -25t22 -51q0 -45 -39.5 -73.5t-109.5 -28.5q-37 0 -66 9l22 58q24 -6 46 -6q66 0 66 41q0 33 -60 33l-7 34l24 46q-116 4 -190 39 l36 89q91 -36 180 -36q80 0 121.5 31.5t41.5 82.5q0 36 -30 63.5t-72.5 47.5t-85 43.5t-72.5 65.5t-30 100q0 87 69 142.5t186 55.5q111 0 186 -33l-36 -87q-76 28 -151 28z" />
<glyph unicode="&#x15f;" horiz-adv-x="437" d="M238 434q-47 0 -71 -17.5t-24 -46.5q0 -25 23.5 -42.5t57.5 -30.5t68 -28.5t57.5 -45.5t23.5 -72q-1 -72 -54 -115t-143 -48l-20 -37q37 -5 59 -25t22 -51q0 -45 -39.5 -73.5t-109.5 -28.5q-37 0 -66 9l22 58q24 -6 46 -6q66 0 66 41q0 33 -60 33l-7 34l25 48 q-78 6 -135 29l30 85q76 -31 147 -31q116 0 116 67q0 24 -23.5 41.5t-57.5 30.5t-68 29t-57.5 47.5t-23.5 76.5q0 67 52.5 110.5t146.5 43.5q98 0 160 -27l-26 -83q-77 25 -137 25z" />
<glyph unicode="&#x160;" horiz-adv-x="541" d="M289 761l-90 151h96l54 -95l87 95h103l-143 -151h-107zM77 514q0 87 69 142.5t186 55.5q111 0 186 -33l-36 -87q-76 28 -151 28q-71 0 -108.5 -26.5t-37.5 -70.5q0 -38 30 -66t72.5 -48.5t85.5 -43.5t73 -64t30 -97q0 -97 -72.5 -156.5t-199.5 -59.5q-133 0 -216 39 l36 89q91 -36 180 -36q80 0 121.5 31.5t41.5 82.5q0 36 -30 63.5t-72.5 47.5t-85 43.5t-72.5 65.5t-30 100z" />
<glyph unicode="&#x161;" horiz-adv-x="437" d="M204 568l-90 152h96l54 -96l87 96h103l-143 -152h-107zM42 365q0 67 52.5 110.5t146.5 43.5q96 0 160 -27l-26 -83q-77 25 -137 25q-47 0 -71 -17.5t-24 -46.5q0 -25 23.5 -42.5t57.5 -30.5t68 -28.5t57.5 -45.5t23.5 -72q-1 -75 -59 -119t-154 -44q-102 0 -181 31l30 85 q76 -31 147 -31q116 0 116 67q0 24 -23.5 41.5t-57.5 30.5t-68 29t-57.5 47.5t-23.5 76.5z" />
<glyph unicode="&#x162;" horiz-adv-x="556" d="M592 700l-16 -90h-200l-108 -610h-104l107 610h-200l16 90h305h200zM95 -226q46 73 66 169h93q-24 -93 -94 -169h-65z" />
<glyph unicode="&#x163;" horiz-adv-x="353" d="M205 425l-45 -254q-9 -52 8 -75t61 -23q17 0 50 7l-9 -82q-37 -10 -74 -10q-78 0 -115 47.5t-22 134.5l45 255h-73l14 82h73l20 116l102 5l-21 -121h124l-14 -82h-124zM-7 -226q49 77 66 169h93q-24 -93 -94 -169h-65z" />
<glyph unicode="&#x164;" horiz-adv-x="556" d="M297 761l-90 151h96l54 -95l87 95h102l-142 -151h-107zM592 700l-16 -90h-200l-108 -610h-104l107 610h-200l16 90h305h200z" />
<glyph unicode="&#x165;" horiz-adv-x="353" d="M435 746q-29 -117 -104 -204h-65q52 90 78 204h91zM240 628l-21 -121h124l-14 -82h-124l-45 -254q-9 -52 8 -75t61 -23q17 0 50 7l-9 -82q-37 -10 -74 -10q-78 0 -115 47.5t-22 134.5l45 255h-73l14 82h73l20 116z" />
<glyph unicode="&#x166;" horiz-adv-x="556" d="M576 610h-200l-38 -215h130l-15 -89h-131l-54 -306h-104l53 306h-130l16 89h130l38 215h-200l15 90h305h201z" />
<glyph unicode="&#x167;" horiz-adv-x="353" d="M329 425h-124l-17 -93h125l-14 -82h-125l-14 -79q-18 -98 69 -98q17 0 50 7l-9 -82q-37 -10 -74 -10q-78 0 -115.5 48t-21.5 134l14 80h-74l15 82h73l17 93h-73l14 82h73l20 116l102 5l-21 -121h125z" />
<glyph unicode="&#x168;" horiz-adv-x="693" d="M365 894q-87 0 -111 -123h70q13 47 43 47q20 0 62.5 -23t68.5 -23q88 0 108 130h-70q-9 -53 -41 -53q-17 0 -59.5 22.5t-70.5 22.5zM142 700h104l-73 -420q-35 -199 137 -199q78 0 122.5 47.5t63.5 151.5l73 420h105l-75 -427q-50 -285 -294 -285q-132 0 -196.5 77.5 t-39.5 219.5z" />
<glyph unicode="&#x169;" horiz-adv-x="577" d="M273 701q-45 0 -71.5 -29.5t-38.5 -92.5h70q11 46 43 46q20 0 62 -22.5t69 -22.5q44 0 71.5 34.5t36.5 94.5h-70q-11 -52 -41 -52q-18 0 -60.5 22t-70.5 22zM527 507l-83 -471q-108 -48 -211 -48t-154 54.5t-32 163.5l53 301h102l-54 -304q-24 -130 95 -130q55 0 111 27 l72 407h101z" />
<glyph unicode="&#x16a;" horiz-adv-x="693" d="M290 868h290l-14 -79h-290zM142 700h104l-73 -420q-35 -199 137 -199q78 0 122.5 47.5t63.5 151.5l73 420h105l-75 -427q-50 -285 -294 -285q-132 0 -196.5 77.5t-39.5 219.5z" />
<glyph unicode="&#x16b;" horiz-adv-x="577" d="M198 676h290l-14 -80h-290zM527 507l-83 -471q-108 -48 -211 -48t-154 54.5t-32 163.5l53 301h102l-54 -304q-24 -130 95 -130q55 0 111 27l72 407h101z" />
<glyph unicode="&#x16c;" horiz-adv-x="693" d="M429 763q-70 0 -110.5 37.5t-36.5 99.5h86q-1 -30 15 -47t51 -17q71 0 85 64h86q-34 -137 -176 -137zM142 700h104l-73 -420q-35 -199 137 -199q78 0 122.5 47.5t63.5 151.5l73 420h105l-75 -427q-50 -285 -294 -285q-132 0 -196.5 77.5t-39.5 219.5z" />
<glyph unicode="&#x16d;" horiz-adv-x="577" d="M332 570q-70 0 -110 38t-36 100h85q-1 -30 15.5 -47.5t51.5 -17.5q70 0 85 65h85q-16 -67 -61 -102.5t-115 -35.5zM527 507l-83 -471q-108 -48 -211 -48t-154 54.5t-32 163.5l53 301h102l-54 -304q-24 -130 95 -130q55 0 111 27l72 407h101z" />
<glyph unicode="&#x16e;" horiz-adv-x="693" d="M443 977q48 0 79.5 -29t31.5 -75q0 -51 -36 -86.5t-89 -35.5q-48 0 -79 29t-31 75q0 51 35.5 86.5t88.5 35.5zM487 870q0 20 -12.5 33t-33.5 13q-26 0 -40.5 -17t-14.5 -41q0 -20 12.5 -33.5t33.5 -13.5q26 0 40.5 17t14.5 42zM142 700h104l-73 -420q-35 -199 137 -199 q78 0 122.5 47.5t63.5 151.5l73 420h105l-75 -427q-50 -285 -294 -285q-132 0 -196.5 77.5t-39.5 219.5z" />
<glyph unicode="&#x16f;" horiz-adv-x="577" d="M352 785q48 0 79 -29.5t31 -75.5q0 -51 -36 -86.5t-89 -35.5q-47 0 -78 29.5t-31 74.5q0 51 35.5 87t88.5 36zM396 677q0 21 -13 33.5t-34 12.5q-26 0 -40.5 -17t-14.5 -41q0 -20 13 -33t34 -13q26 0 40.5 16.5t14.5 41.5zM527 507l-83 -471q-108 -48 -211 -48t-154 54.5 t-32 163.5l53 301h102l-54 -304q-24 -130 95 -130q55 0 111 27l72 407h101z" />
<glyph unicode="&#x170;" horiz-adv-x="693" d="M496 912l-136 -151h-88l115 151h109zM667 912l-135 -151h-88l115 151h108zM142 700h104l-73 -420q-35 -199 137 -199q78 0 122.5 47.5t63.5 151.5l73 420h105l-75 -427q-50 -285 -294 -285q-132 0 -196.5 77.5t-39.5 219.5z" />
<glyph unicode="&#x171;" horiz-adv-x="577" d="M404 720l-135 -152h-88l115 152h108zM576 720l-135 -152h-89l116 152h108zM527 507l-83 -471q-108 -48 -211 -48t-154 54.5t-32 163.5l53 301h102l-54 -304q-24 -130 95 -130q55 0 111 27l72 407h101z" />
<glyph unicode="&#x172;" horiz-adv-x="693" d="M569 700h105l-75 -427q-41 -234 -211 -276q-113 -60 -113 -108q0 -33 41 -33q28 0 51 10l1 -62q-38 -16 -79 -16q-47 0 -75 21.5t-28 60.5q0 61 86 119q-116 10 -171.5 87t-31.5 209l73 415h104l-73 -420q-35 -199 137 -199q78 0 122.5 47.5t63.5 151.5z" />
<glyph unicode="&#x173;" horiz-adv-x="577" d="M444 36q-132 -75 -132 -143q0 -37 44 -37q25 0 48 10l1 -62q-43 -16 -76 -16q-48 0 -77 23t-29 64q0 61 69 117q-40 -4 -59 -4q-103 0 -154 54.5t-32 163.5l53 301h102l-54 -304q-24 -130 95 -130q55 0 111 27l72 407h101z" />
<glyph unicode="&#x174;" horiz-adv-x="977" d="M578 856l-86 -95h-103l143 151h97h10l90 -151h-96zM904 700h109q-143 -408 -320 -700h-116q-49 216 -62 509q-116 -296 -241 -509h-113q-73 299 -75 700h104q-1 -165 12.5 -329.5t34.5 -271.5q156 279 262 601h97q-7 -320 51 -601q60 108 131 272.5t126 328.5z" />
<glyph unicode="&#x175;" horiz-adv-x="797" d="M444 664l-86 -96h-103l143 152h97h10l90 -152h-96zM689 507h103q-41 -144 -98.5 -258.5t-153.5 -248.5h-101q-48 139 -65 244q-59 -126 -142 -244h-99q-52 129 -68 243.5t-5 263.5h96q-17 -220 42 -424q107 158 162 323q0 31 4 101h95q-19 -217 38 -425q137 206 192 425z " />
<glyph unicode="&#x176;" horiz-adv-x="598" d="M386 856l-86 -95h-103l143 151h97h10l90 -151h-96zM649 700q-112 -196 -309 -411l-51 -289h-105l51 289q-124 224 -163 411h102q36 -158 123 -326q146 166 238 326h114z" />
<glyph unicode="&#x177;" horiz-adv-x="512" d="M310 664l-87 -96h-102l142 152h98h9l90 -152h-96zM411 507h104q-73 -260 -236 -476q-136 -183 -311 -216l-2 87q118 23 192 119q-61 119 -85 232t-14 254h99q-10 -120 7.5 -216t57.5 -194q68 100 112 194t76 216z" />
<glyph unicode="&#x178;" horiz-adv-x="598" d="M279 775q-25 0 -39 14t-14 36q0 26 18 45.5t49 19.5q25 0 39.5 -14t14.5 -36q0 -26 -18.5 -45.5t-49.5 -19.5zM463 775q-25 0 -39.5 14t-14.5 36q0 26 18.5 45.5t49.5 19.5q24 0 39 -14.5t15 -35.5q0 -26 -19 -45.5t-49 -19.5zM649 700q-112 -196 -309 -411l-51 -289 h-105l51 289q-124 224 -163 411h102q36 -158 123 -326q146 166 238 326h114z" />
<glyph unicode="&#x179;" horiz-adv-x="560" d="M532 912l-135 -151h-93l115 151h113zM123 90h356l-16 -90h-485l14 80q303 310 447 530h-343l16 90h455l-14 -78q-91 -146 -193 -270t-237 -262z" />
<glyph unicode="&#x17a;" horiz-adv-x="461" d="M449 720l-136 -152h-93l116 152h113zM60 425l14 82h372l-12 -69q-137 -188 -320 -356h272l-15 -82h-400l12 70q219 195 334 355h-257z" />
<glyph unicode="&#x17b;" horiz-adv-x="560" d="M301 832q0 26 19 46t50 20q27 0 43 -15.5t16 -40.5q0 -26 -18.5 -45.5t-49.5 -19.5q-27 0 -43.5 15.5t-16.5 39.5zM123 90h356l-16 -90h-485l14 80q303 310 447 530h-343l16 90h455l-14 -78q-91 -146 -193 -270t-237 -262z" />
<glyph unicode="&#x17c;" horiz-adv-x="461" d="M277 584q-27 0 -43 15.5t-16 40.5q0 26 19 46t50 20q27 0 43 -16t16 -41q0 -26 -19 -45.5t-50 -19.5zM434 438q-137 -188 -320 -356h272l-15 -82h-400l12 70q219 195 334 355h-257l14 82h372z" />
<glyph unicode="&#x17d;" horiz-adv-x="560" d="M299 761l-90 151h96l54 -95l87 95h103l-143 -151h-107zM567 700l-14 -78q-91 -146 -193 -270t-237 -262h356l-16 -90h-485l14 80q303 310 447 530h-343l16 90h455z" />
<glyph unicode="&#x17e;" horiz-adv-x="461" d="M221 568l-90 152h96l54 -96l87 96h102l-142 -152h-107zM60 425l14 82h372l-12 -69q-137 -188 -320 -356h272l-15 -82h-400l12 70q219 195 334 355h-257z" />
<glyph unicode="&#x192;" horiz-adv-x="442" d="M380 647q-42 0 -63.5 -21t-31.5 -78l-7 -41h128l-15 -82h-128l-76 -436q-32 -180 -192 -180q-48 0 -91 12l32 80q28 -7 55 -7q42 0 63.5 21.5t31.5 77.5l12 68l64 364h-73l15 82h72l8 45q32 180 192 180q41 0 91 -12l-32 -80q-28 7 -55 7z" />
<glyph unicode="&#x218;" horiz-adv-x="541" d="M24 116q91 -36 180 -36q80 0 121.5 31.5t41.5 82.5q0 36 -30 63.5t-72.5 47.5t-85 43.5t-72.5 65.5t-30 100q0 87 69 142.5t186 55.5q111 0 186 -33l-36 -87q-76 28 -151 28q-71 0 -108.5 -26.5t-37.5 -70.5q0 -38 30 -66t72.5 -48.5t85.5 -43.5t73 -64t30 -97 q0 -97 -72.5 -156.5t-199.5 -59.5q-133 0 -216 39zM279 -57q-24 -93 -94 -169h-64q47 75 65 169h93z" />
<glyph unicode="&#x219;" horiz-adv-x="437" d="M375 409q-77 25 -137 25q-47 0 -71 -17.5t-24 -46.5q0 -25 23.5 -42.5t57.5 -30.5t68 -28.5t57.5 -45.5t23.5 -72q-1 -75 -59 -119t-154 -44q-102 0 -181 31l30 85q76 -31 147 -31q116 0 116 67q0 24 -23.5 41.5t-57.5 30.5t-68 29t-57.5 47.5t-23.5 76.5 q0 67 52.5 110.5t146.5 43.5q96 0 160 -27zM194 -57q-24 -93 -94 -169h-64q47 75 65 169h93z" />
<glyph unicode="&#x21a;" horiz-adv-x="556" d="M592 700l-16 -90h-200l-108 -610h-104l107 610h-200l16 90h305h200zM95 -226q46 73 66 169h93q-24 -93 -94 -169h-65z" />
<glyph unicode="&#x21b;" horiz-adv-x="353" d="M205 425l-45 -254q-9 -52 8 -75t61 -23q17 0 50 7l-9 -82q-37 -10 -74 -10q-78 0 -115 47.5t-22 134.5l45 255h-73l14 82h73l20 116l102 5l-21 -121h124l-14 -82h-124zM-7 -226q49 77 66 169h93q-24 -93 -94 -169h-65z" />
<glyph unicode="&#x237;" horiz-adv-x="262" d="M-51 -184l-16 84q39 18 59.5 43.5t27.5 67.5l88 496h101l-88 -500q-13 -73 -54 -119t-118 -72z" />
<glyph unicode="&#x2c6;" d="M456 568h-96l-54 95l-86 -95h-103l143 152h97h10z" />
<glyph unicode="&#x2c7;" d="M382 720h103l-143 -152h-97h-9l-91 152h97l54 -96z" />
<glyph unicode="&#x2d8;" d="M298 570q-70 0 -110 38t-36 100h85q-1 -30 15.5 -47.5t51.5 -17.5q71 0 85 65h86q-34 -138 -177 -138z" />
<glyph unicode="&#x2d9;" d="M238 640q0 27 18.5 46.5t49.5 19.5q27 0 43.5 -16t16.5 -41q0 -26 -19 -45.5t-50 -19.5q-27 0 -43 15.5t-16 40.5z" />
<glyph unicode="&#x2da;" d="M313 785q48 0 79 -29.5t31 -75.5q0 -51 -36 -86.5t-89 -35.5q-47 0 -78 29.5t-31 74.5q0 51 35.5 87t88.5 36zM357 677q0 21 -12.5 33.5t-34.5 12.5q-26 0 -40 -17t-14 -41q0 -20 12.5 -33t33.5 -13q26 0 40.5 16.5t14.5 41.5z" />
<glyph unicode="&#x2db;" d="M147 -212q-47 0 -75.5 21.5t-28.5 60.5q0 71 119 139l89 -9q-119 -61 -119 -111q0 -33 42 -33q27 0 50 10l1 -62q-43 -16 -78 -16z" />
<glyph unicode="&#x2dc;" d="M234 701q-86 0 -110 -122h70q11 46 43 46q20 0 62 -22.5t69 -22.5q88 0 108 129h-70q-9 -52 -41 -52q-17 0 -60 22t-71 22z" />
<glyph unicode="&#x2dd;" d="M350 720l-135 -152h-88l115 152h108zM522 720l-135 -152h-89l116 152h108z" />
<glyph unicode="&#x326;" horiz-adv-x="0" d="M-25 -57q-23 -92 -93 -169h-65q46 73 66 169h92z" />
<glyph unicode="&#x394;" horiz-adv-x="636" d="M-28 81l356 619h102l138 -619l-14 -81h-596zM362 584l-275 -495h374z" />
<glyph unicode="&#x3a9;" horiz-adv-x="714" d="M231 0h-232l16 90h120q-87 78 -87 227q0 101 39 189.5t119 147t186 58.5q131 0 206 -80t75 -203q0 -102 -45 -192.5t-122 -146.5h103l-16 -90h-231l14 82q77 27 131 124.5t54 203.5q0 94 -43.5 151.5t-129.5 57.5q-74 0 -128 -46.5t-79.5 -118t-25.5 -156.5 q0 -166 90 -216z" />
<glyph unicode="&#x3c0;" horiz-adv-x="639" d="M497 425l-47 -267q-15 -84 56 -84q20 0 52 7l-13 -83q-35 -10 -68 -10q-74 0 -108 44.5t-20 123.5l47 269h-166l-75 -425h-101l75 425h-94l15 82h580l-14 -82h-119z" />
<glyph unicode="&#x1e80;" horiz-adv-x="977" d="M425 912h112l64 -151h-92zM515 509q-116 -296 -241 -509h-113q-73 299 -75 700h104q-1 -165 12.5 -329.5t34.5 -271.5q156 279 262 601h97q-7 -320 51 -601q60 108 131 272.5t126 328.5h109q-143 -408 -320 -700h-116q-49 216 -62 509z" />
<glyph unicode="&#x1e81;" horiz-adv-x="797" d="M467 568h-92l-84 152h112zM689 507h103q-41 -144 -98.5 -258.5t-153.5 -248.5h-101q-48 139 -65 244q-59 -126 -142 -244h-99q-52 129 -68 243.5t-5 263.5h96q-17 -220 42 -424q107 158 162 323q0 31 4 101h95q-19 -217 38 -425q137 206 192 425z" />
<glyph unicode="&#x1e82;" horiz-adv-x="977" d="M741 912l-136 -151h-93l116 151h113zM515 509q-116 -296 -241 -509h-113q-73 299 -75 700h104q-1 -165 12.5 -329.5t34.5 -271.5q156 279 262 601h97q-7 -320 51 -601q60 108 131 272.5t126 328.5h109q-143 -408 -320 -700h-116q-49 216 -62 509z" />
<glyph unicode="&#x1e83;" horiz-adv-x="797" d="M607 720l-136 -152h-93l116 152h113zM689 507h103q-41 -144 -98.5 -258.5t-153.5 -248.5h-101q-48 139 -65 244q-59 -126 -142 -244h-99q-52 129 -68 243.5t-5 263.5h96q-17 -220 42 -424q107 158 162 323q0 31 4 101h95q-19 -217 38 -425q137 206 192 425z" />
<glyph unicode="&#x1e84;" horiz-adv-x="977" d="M420 825q0 26 18.5 45.5t49.5 19.5q24 0 39 -14.5t15 -35.5q0 -26 -19 -45.5t-49 -19.5q-25 0 -39.5 14t-14.5 36zM604 825q0 26 18 45.5t49 19.5q25 0 39.5 -14t14.5 -36q0 -26 -18.5 -45.5t-48.5 -19.5q-25 0 -39.5 14t-14.5 36zM515 509q-116 -296 -241 -509h-113 q-73 299 -75 700h104q-1 -165 12.5 -329.5t34.5 -271.5q156 279 262 601h97q-7 -320 51 -601q60 108 131 272.5t126 328.5h109q-143 -408 -320 -700h-116q-49 216 -62 509z" />
<glyph unicode="&#x1e85;" horiz-adv-x="797" d="M338 582q-25 0 -39.5 14t-14.5 36q0 26 18 45.5t49 19.5q25 0 39.5 -14t14.5 -36q0 -26 -18.5 -45.5t-48.5 -19.5zM522 582q-25 0 -39.5 14t-14.5 36q0 26 18 45.5t49 19.5q25 0 39.5 -14t14.5 -36q0 -26 -18.5 -45.5t-48.5 -19.5zM689 507h103q-41 -144 -98.5 -258.5 t-153.5 -248.5h-101q-48 139 -65 244q-59 -126 -142 -244h-99q-52 129 -68 243.5t-5 263.5h96q-17 -220 42 -424q107 158 162 323q0 31 4 101h95q-19 -217 38 -425q137 206 192 425z" />
<glyph unicode="&#x1ef2;" horiz-adv-x="598" d="M411 761h-92l-84 151h112zM649 700q-112 -196 -309 -411l-51 -289h-105l51 289q-124 224 -163 411h102q36 -158 123 -326q146 166 238 326h114z" />
<glyph unicode="&#x1ef3;" horiz-adv-x="512" d="M159 720h112l64 -152h-92zM-32 -185l-2 87q118 23 192 119q-61 119 -85 232t-14 254h99q-10 -120 7.5 -216t57.5 -194q68 100 112 194t76 216h104q-73 -260 -236 -476q-136 -183 -311 -216z" />
<glyph unicode="&#x2000;" horiz-adv-x="488" />
<glyph unicode="&#x2001;" horiz-adv-x="977" />
<glyph unicode="&#x2002;" horiz-adv-x="488" />
<glyph unicode="&#x2003;" horiz-adv-x="977" />
<glyph unicode="&#x2004;" horiz-adv-x="325" />
<glyph unicode="&#x2005;" horiz-adv-x="244" />
<glyph unicode="&#x2006;" horiz-adv-x="162" />
<glyph unicode="&#x2007;" horiz-adv-x="162" />
<glyph unicode="&#x2008;" horiz-adv-x="122" />
<glyph unicode="&#x2009;" horiz-adv-x="195" />
<glyph unicode="&#x200a;" horiz-adv-x="54" />
<glyph unicode="&#x2010;" horiz-adv-x="336" d="M42 360h255l-15 -86h-256z" />
<glyph unicode="&#x2011;" horiz-adv-x="336" d="M42 360h255l-15 -86h-256z" />
<glyph unicode="&#x2012;" horiz-adv-x="336" d="M42 360h255l-15 -86h-256z" />
<glyph unicode="&#x2013;" d="M38 368h430l-15 -86h-430z" />
<glyph unicode="&#x2014;" horiz-adv-x="1000" d="M38 368h930l-15 -86h-930z" />
<glyph unicode="&#x2018;" horiz-adv-x="225" d="M68 478q25 119 134 242h59q-65 -111 -94 -242h-99z" />
<glyph unicode="&#x2019;" horiz-adv-x="224" d="M250 720q-25 -119 -134 -242h-59q65 111 94 242h99z" />
<glyph unicode="&#x201a;" horiz-adv-x="225" d="M130 112q-24 -118 -133 -242h-59q65 111 94 242h98z" />
<glyph unicode="&#x201c;" horiz-adv-x="409" d="M68 478q25 119 134 242h59q-65 -111 -94 -242h-99zM253 478q24 118 133 242h59q-66 -115 -94 -242h-98z" />
<glyph unicode="&#x201d;" horiz-adv-x="409" d="M250 720q-25 -119 -134 -242h-59q65 111 94 242h99zM434 720q-23 -115 -133 -242h-59q67 117 93 242h99z" />
<glyph unicode="&#x201e;" horiz-adv-x="409" d="M130 112q-24 -118 -133 -242h-59q65 111 94 242h98zM315 112q-25 -117 -133 -242h-59q67 117 93 242h99z" />
<glyph unicode="&#x2020;" horiz-adv-x="553" d="M529 500l-15 -84q-47 0 -187 7q-16 -134 -20 -159l-82 -464h-92l82 464q5 29 36 159q-142 -7 -190 -7l15 84q41 0 109 -3.5t78 -3.5q17 142 20 157q10 54 20 91h84q-4 -39 -12 -91q-6 -35 -36 -157q9 0 78 3.5t112 3.5z" />
<glyph unicode="&#x2021;" horiz-adv-x="553" d="M327 423q-16 -137 -19 -152q-7 -36 -20.5 -92.5t-14.5 -61.5q9 0 78 3.5t111 3.5l-15 -85q-42 0 -109.5 3.5t-76.5 3.5q-18 -146 -20 -156q-7 -37 -20 -92h-85q9 66 13 92q2 14 35 156q-11 0 -79.5 -3.5t-109.5 -3.5l15 85q41 0 109 -3.5t78 -3.5q18 151 19 154 q5 28 35 152q-142 -7 -190 -7l15 84q41 0 109 -3.5t78 -3.5q17 142 20 157q10 54 20 91h84q-4 -39 -12 -91q-6 -35 -36 -157q9 0 78 3.5t112 3.5l-15 -84q-49 0 -187 7z" />
<glyph unicode="&#x2022;" horiz-adv-x="307" d="M51 346q0 45 29.5 76.5t80.5 31.5q44 0 70 -25t26 -67q0 -46 -30.5 -78t-78.5 -32q-46 0 -71.5 25t-25.5 69z" />
<glyph unicode="&#x2026;" horiz-adv-x="756" d="M6 46q0 28 18 47t50 19q28 0 44 -14.5t16 -39.5q0 -28 -19 -47.5t-49 -19.5q-28 0 -44 15t-16 40zM261 46q0 28 18 47t50 19q28 0 44 -14.5t16 -39.5q0 -28 -19 -47.5t-49 -19.5q-28 0 -44 15t-16 40zM516 46q0 28 18 47t50 19q28 0 44 -14.5t16 -39.5q0 -29 -18.5 -48 t-49.5 -19q-28 0 -44 15t-16 40z" />
<glyph unicode="&#x202f;" horiz-adv-x="195" />
<glyph unicode="&#x2030;" horiz-adv-x="1221" d="M68 489q0 79 52.5 136.5t126.5 57.5q66 0 105 -39t39 -106q0 -78 -53 -136.5t-127 -58.5q-65 0 -104 39t-39 107zM695 671l-465 -671h-82l464 671h83zM308 541q0 34 -16.5 54t-47.5 20q-38 0 -65.5 -38t-27.5 -90q0 -35 16.5 -55.5t47.5 -20.5q39 0 66 39t27 91zM452 134 q0 78 52.5 136t125.5 58q67 0 105.5 -39t38.5 -106q0 -78 -52.5 -136.5t-126.5 -58.5q-65 0 -104 39t-39 107zM826 134q0 79 52 136.5t126 57.5q66 0 105 -39t39 -106q0 -78 -53 -136.5t-126 -58.5q-66 0 -104.5 39t-38.5 107zM691 186q0 34 -16.5 54t-47.5 20 q-37 0 -64.5 -38t-27.5 -90q0 -35 16.5 -55t47.5 -20q39 0 65.5 39t26.5 90zM1065 186q0 34 -16.5 54t-47.5 20q-37 0 -64.5 -38t-27.5 -90q0 -75 64 -75q39 0 65.5 39t26.5 90z" />
<glyph unicode="&#x2039;" horiz-adv-x="361" d="M11 278q106 123 213 211h125q-113 -94 -220 -212q68 -122 143 -212h-122q-74 86 -139 213z" />
<glyph unicode="&#x203a;" horiz-adv-x="360" d="M-15 65q112 94 221 213q-71 124 -143 211h121q71 -81 139 -212q-100 -117 -213 -212h-125z" />
<glyph unicode="&#x2044;" horiz-adv-x="109" d="M355 700l-515 -700h-87l516 700h86z" />
<glyph unicode="&#x205f;" horiz-adv-x="244" />
<glyph unicode="&#x2070;" horiz-adv-x="337" d="M181 355q-63 0 -100.5 38t-37.5 106q0 84 50.5 148.5t127.5 64.5q63 0 100.5 -38t37.5 -105q0 -87 -52 -150.5t-126 -63.5zM125 497q0 -35 15.5 -54.5t42.5 -19.5q43 0 68 46t25 102q0 35 -15 54t-42 19q-43 0 -68.5 -45t-25.5 -102z" />
<glyph unicode="&#x2074;" horiz-adv-x="336" d="M285 423l-11 -60h-73l11 60h-179l8 51q87 118 218 230h75l-39 -221h47l-10 -60h-47zM252 635q-80 -82 -138 -152h108z" />
<glyph unicode="&#x20ac;" horiz-adv-x="615" d="M467 595q-78 0 -135.5 -39.5t-88.5 -107.5h253l-20 -72h-256q-9 -39 -9 -82h245l-19 -71h-221q24 -147 182 -147q52 0 112 17l2 -84q-66 -21 -132 -21q-114 0 -184.5 61.5t-86.5 173.5h-99l12 71h83q0 43 9 82h-77l12 72h85q42 106 130 170.5t204 64.5q79 0 140 -21 l-36 -84q-56 17 -105 17z" />
<glyph unicode="&#x20b9;" horiz-adv-x="538" d="M548 671l-12 -73h-123q10 -36 10 -83v-4h97l-12 -73h-94q-20 -84 -85.5 -136t-167.5 -62l178 -240h-129l-177 237l13 80h71q159 0 198 121h-247l13 73h245v7q0 44 -10 80h-220l13 73h439z" />
<glyph unicode="&#x2113;" horiz-adv-x="521" d="M186 162q25 -85 121 -85q48 0 94 17l-15 -89q-51 -17 -100 -17q-148 0 -193 128l-88 -43l-25 76l97 47q-2 22 -2 34q0 125 40.5 236.5t110 178.5t149.5 67q64 0 100 -38.5t36 -110.5q0 -112 -83 -216t-242 -185zM354 624q-47 0 -87.5 -57t-63.5 -143.5t-25 -176.5 q113 64 172.5 146t59.5 163q0 68 -56 68z" />
<glyph unicode="&#x2122;" horiz-adv-x="753" d="M342 642h-100l-49 -276h-70l49 276h-101l10 58h171h100zM762 700l-59 -334h-64l32 178l12 52q-57 -88 -127 -173h-51q-42 89 -70 176l-6 -55l-32 -178h-63l58 334h54h16q25 -102 76 -215q76 94 146 215h78z" />
<glyph unicode="&#x2126;" horiz-adv-x="714" d="M231 0h-232l16 90h120q-87 78 -87 227q0 101 39 189.5t119 147t186 58.5q131 0 206 -80t75 -203q0 -102 -45 -192.5t-122 -146.5h103l-16 -90h-231l14 82q77 27 131 124.5t54 203.5q0 94 -43.5 151.5t-129.5 57.5q-74 0 -128 -46.5t-79.5 -118t-25.5 -156.5 q0 -166 90 -216z" />
<glyph unicode="&#x212e;" horiz-adv-x="712" d="M166 257q-4 0 -4 -3v-150q0 -10 7 -18q77 -80 188 -80q120 0 197 90h44q-94 -107 -242 -107q-127 0 -216.5 80.5t-89.5 194.5t89.5 195.5t216.5 81.5t216.5 -81.5t89.5 -195.5v-7h-496zM550 427q0 11 -8 19q-76 78 -185 78q-112 0 -187 -81q-8 -6 -8 -19v-148q0 -4 4 -4 h381q3 0 3 4v151z" />
<glyph unicode="&#x2202;" horiz-adv-x="568" d="M8 191q0 81 41 156.5t114.5 123.5t158.5 48q72 0 102 -49q-22 72 -71 135t-112 95l129 7q71 -41 115.5 -124t44.5 -192q0 -169 -94.5 -286t-230.5 -117q-92 0 -144.5 55t-52.5 148zM114 192q0 -55 26.5 -87t77.5 -32q79 0 139.5 81.5t60.5 160.5q0 56 -26.5 87.5 t-78.5 31.5q-81 0 -140 -79.5t-59 -162.5z" />
<glyph unicode="&#x2206;" horiz-adv-x="636" d="M-28 81l356 619h102l138 -619l-14 -81h-596zM362 584l-275 -495h374z" />
<glyph unicode="&#x220f;" horiz-adv-x="740" d="M772 700l-16 -90h-100l-131 -740h-104l130 740h-271l-130 -740h-105l131 740h-100l16 90h204h376h100z" />
<glyph unicode="&#x2211;" horiz-adv-x="557" d="M569 700l-15 -90h-342l170 -290l-14 -86l-276 -274h374l-16 -90h-512l15 84l331 336l-194 326l15 84h464z" />
<glyph unicode="&#x2212;" horiz-adv-x="524" d="M44 386h449l-16 -88h-449z" />
<glyph unicode="&#x2215;" horiz-adv-x="109" d="M355 700l-515 -700h-87l516 700h86z" />
<glyph unicode="&#x221a;" horiz-adv-x="519" d="M459 700h106l-347 -700h-105l-50 227h-70l16 90h111h20l37 -207z" />
<glyph unicode="&#x221e;" horiz-adv-x="815" d="M215 509q64 0 109 -31t90 -93q54 61 101 93t104 32q68 0 114 -46t46 -125q0 -83 -55 -142t-130 -59q-64 0 -107 29.5t-95 95.5q-58 -70 -102 -97.5t-100 -27.5q-70 0 -117 46.5t-47 125.5q0 81 55 140t134 59zM588 222q44 0 72.5 32t28.5 80q0 44 -23.5 68.5t-62.5 24.5 q-37 0 -70 -25t-79 -78q40 -56 67 -79t67 -23zM117 316q0 -43 23 -68.5t62 -25.5q41 0 70.5 22.5t77.5 78.5q-36 53 -66 77.5t-68 24.5q-44 0 -71.5 -33t-27.5 -76z" />
<glyph unicode="&#x222b;" horiz-adv-x="445" d="M-74 -179l32 81q26 -7 55 -7q41 0 63.5 22t31.5 75l98 555q18 96 65.5 140.5t126.5 44.5q42 0 92 -12l-32 -80q-35 7 -55 7q-41 0 -63 -22t-32 -75l-98 -555q-18 -97 -65.5 -141.5t-126.5 -44.5q-42 0 -92 12z" />
<glyph unicode="&#x2248;" horiz-adv-x="524" d="M455 505q-36 -56 -87 -56q-30 0 -89 24.5t-96 24.5q-45 0 -81 -28.5t-58 -79.5l53 -38q35 52 88 52q30 0 89 -25t100 -25q86 0 134 115zM424 330q-35 -55 -87 -55q-30 0 -89 24.5t-96 24.5q-45 0 -81 -28.5t-58 -79.5l53 -39q35 53 88 53q30 0 89 -25.5t100 -25.5 q86 0 134 115z" />
<glyph unicode="&#x2260;" horiz-adv-x="524" d="M494 390h-153l-62 -96h198l-16 -88h-238l-84 -131h-99l84 131h-112l15 88h153l62 96h-198l16 88h238l83 131h100l-84 -131h112z" />
<glyph unicode="&#x2264;" horiz-adv-x="524" d="M33 325l17 99l477 154l-19 -103l-348 -103l312 -102l-17 -98zM-5 111h449l-15 -88h-450z" />
<glyph unicode="&#x2265;" horiz-adv-x="524" d="M24 276l348 102l-312 103l17 97l423 -154l-18 -99l-476 -153zM-21 23l16 88h449l-15 -88h-450z" />
<glyph unicode="&#x25ca;" horiz-adv-x="504" d="M5 293l237 297h103l133 -297l-237 -293h-103zM376 295l-94 213l-174 -215l94 -212z" />
<glyph unicode="&#x25fc;" horiz-adv-x="505" d="M0 505h505v-505h-505v505z" />
<glyph horiz-adv-x="262" d="M191 717q26 0 42 -15.5t16 -38.5q0 -28 -19.5 -48t-51.5 -20q-26 0 -41.5 15t-15.5 38q0 28 19 48.5t51 20.5zM19 0l89 507h101l-89 -507h-101z" />
<glyph d="M295 709q-30 -118 -105 -204h-65q51 89 78 204h92z" />
<glyph horiz-adv-x="0" d="M-4 572q25 100 97 170h65q-49 -73 -71 -170h-91z" />
</font>
</defs>
</svg>
